<svg xmlns="http://www.w3.org/2000/svg" viewBox="0 0 128 128"><defs><style>.a{fill:#fff;}.b{fill:#231f20;}</style></defs><path class="a" d="M41.458,118.493a.475.475,0,0,1,.08-.115,55.265,55.265,0,0,0,4.5-8.139.477.477,0,0,1,.618-.251c.068.027,6.834,2.8,9.586,3.86,1.713.659,5.279,2.03,6.173,1.583a.216.216,0,0,0,.081-.064c-.307-.6-3.016-2.343-5.445-3.647a.476.476,0,0,1,.4-.864,37.549,37.549,0,0,0,5.872,1.716c1.812.292,2.873-.124,3.041-.363a47.767,47.767,0,0,0-7.012-2.915.476.476,0,0,1,.193-.924c.045,0,4.541.309,7.07.571,1.742.181,2.42-.132,2.535-.321.071-.118-.07-.352-.134-.447-.442-.612-5.172-1.6-9.3-2.16a.476.476,0,0,1,.1-.946c4.485.377,6.611-.22,6.946-.714.024-.036.046-.068,0-.161-.271-.514-3.529-1.3-9.032-1.747-.357-.029-.866-.066-1.443-.107-4.842-.348-4.914-.42-5.1-.611-.267-.267-.207-.584.2-2.447.221-1.018.5-2.286.6-3.243a2.374,2.374,0,0,0-1.039-2.36c-.166-.064-.389-.091-.646.268A22.437,22.437,0,0,0,48.536,98.5a9.039,9.039,0,0,1-.91,2.409.493.493,0,0,1-.04.039L40,107.62a.476.476,0,1,1-.63-.715l.986-.867c.005-.455.023-2.895-.135-4.872h-.681l-10.1,1.772c-.006,3.914-.008,11.871.057,15.05.1,5.117,2.64,5.822,5.364,5.822C37.118,123.81,39.485,121.332,41.458,118.493Z"/><path class="a" d="M41.781,121.311l-.2-1.382a16.3,16.3,0,0,1-3.892,3.881h4.52l.484-1.647-.726-.537A.477.477,0,0,1,41.781,121.311Z"/><path class="a" d="M63.167,62.448c-2.26.349-4.984-1.355-7.077-3.068.3,2.76.5,5.108.5,5.706,0,1.8,0,7.258,7.258,7.258a6.171,6.171,0,0,0,4.894-2.007C70.782,68,70.782,64.3,70.672,63.511a49.588,49.588,0,0,1-.358-5.084C67.759,60.382,65.009,62.164,63.167,62.448Z"/><path class="a" d="M88.1,123.81h2.209a12.042,12.042,0,0,1-2-1.669Z"/><path class="a" d="M63.167,47.649s-3.851-1.707-5.592,0,.8,4.788,2.8,2.813S63.167,47.649,63.167,47.649Z"/><path class="a" d="M58.788,56.579c.1.03.2.056.3.082l.092.025c.079.02.157.038.235.056l.141.032.19.037.174.033c.055.01.109.017.164.026s.127.02.189.028l.158.018c.062.007.124.015.185.02s.124.009.186.013.1.008.149.01c.111,0,.221.008.33.008.251,0,.5-.007.739-.017.088,0,.176-.01.264-.016.15-.008.3-.018.445-.031.108-.009.216-.02.323-.031s.236-.027.352-.042.244-.032.365-.051c.09-.014.178-.029.267-.045.14-.024.279-.048.417-.076l.144-.032a13.147,13.147,0,0,0,5.851-2.872.334.334,0,0,1,.04-.025,17.09,17.09,0,0,0,3.988-5.266,6.049,6.049,0,0,1,.341-.607,28.89,28.89,0,0,0,1.644-5.4c.044-.553.635-.567,1.111-.579A3.714,3.714,0,0,0,80.582,40.7c.8-.964.745-3.7-.359-4.886-.744-.8-1.8-.71-3.154.257a.477.477,0,0,1-.7-.615,8.19,8.19,0,0,0,.66-4.534c-.057-.458-.093-1.012-.134-1.653-.153-2.372-.384-5.956-2.149-7.81-1.907-2.005-3.8-2.257-6.138-.816-1.616,1-6.3.745-13.925-.746a5.406,5.406,0,0,0-3.9,1.062,7.872,7.872,0,0,0-2.9,3.208,29.614,29.614,0,0,0-.438,6.317c.045,1.03.144,2.855.286,4.889a.476.476,0,0,1-.587.5,3.3,3.3,0,0,0-2.812.28c-.5.431-.492,2.549.461,4.345.439.829,1.414,2.155,3,1.729a.476.476,0,0,1,.6.4c.512,4.317,1,5.853,1.319,6.382a18.245,18.245,0,0,0,5.672,5.979c.009.005.019.007.028.013a13.364,13.364,0,0,0,3.354,1.569ZM77.67,37.168a1.736,1.736,0,0,1,1.3-.864,1.433,1.433,0,0,1,.385.03h0a2.3,2.3,0,0,1,1.113.66.238.238,0,1,1-.355.317,2.09,2.09,0,0,0-.449-.351,4.024,4.024,0,0,1-.215,2.669,1.569,1.569,0,0,1-1.1.733l-.042,0a.238.238,0,0,1-.042-.472,1.1,1.1,0,0,0,.782-.514,3.959,3.959,0,0,0,.092-2.6.8.8,0,0,0-.139,0,1.3,1.3,0,0,0-.941.657.237.237,0,0,1-.2.1.238.238,0,0,1-.2-.373Zm-30.4,4.156c-.029,0-.058,0-.087,0a1.523,1.523,0,0,1-1.037-.523,4.8,4.8,0,0,1-1.311-3.122.979.979,0,0,1,.454-.864.9.9,0,0,1,.813.081.238.238,0,0,1-.251.405.441.441,0,0,0-.351-.059c-.1.049-.168.225-.191.481a4.39,4.39,0,0,0,1.173,2.741,1.064,1.064,0,0,0,.744.382.236.236,0,0,1,.259.214A.239.239,0,0,1,47.271,41.324Zm22.537-7.108a.477.477,0,0,1-.467.383.436.436,0,0,1-.094-.01,15.842,15.842,0,0,1-3.661-1.432.476.476,0,0,1,.029-.851c.6-.275,3.289-1.053,3.594-1.141a.476.476,0,0,1,.264.915c-.517.149-1.6.467-2.432.732a11.853,11.853,0,0,0,2.393.844A.476.476,0,0,1,69.808,34.216ZM72.464,36.4c-1.749.979-1.682-2.275-1.682-2.275C71.948,34.011,73.971,35.552,72.464,36.4Zm-8.415-7.522c.134-.135,3.356-3.255,9.007-.078a.476.476,0,1,1-.466.83c-5.03-2.826-7.84-.107-7.868-.079a.476.476,0,0,1-.673-.673Zm-5.105,8.03a.476.476,0,0,1,.139.654c-.088.143-.45.884.8,1.7a.476.476,0,1,1-.519.8,2.709,2.709,0,0,1-1.3-1.665,1.865,1.865,0,0,1,.224-1.347A.477.477,0,0,1,58.944,36.905ZM49.18,28.8c5.65-3.177,8.873-.057,9.007.078a.476.476,0,0,1-.672.675c-.115-.113-2.872-2.731-7.869.077A.476.476,0,0,1,49,29.445.475.475,0,0,1,49.18,28.8ZM49.1,36.4c-1.507-.845.516-2.386,1.682-2.275C50.778,34.122,50.845,37.376,49.1,36.4ZM52.4,34.589a.436.436,0,0,1-.094.01.476.476,0,0,1-.093-.943,11.853,11.853,0,0,0,2.393-.844c-.832-.265-1.915-.583-2.432-.732a.476.476,0,0,1,.264-.915c.3.088,3,.866,3.594,1.141a.476.476,0,0,1,.029.851A15.842,15.842,0,0,1,52.4,34.589Zm.38,7.165s4.5.894,16.6.638c0,0,.545,10.433-8.3,10.433S52.783,41.754,52.783,41.754Z"/><path class="a" d="M98.557,102.929l-8.932-1.763h-2c-.146,1.829-.142,4.055-.136,4.738l1.138,1,.018.018c.2.194,4.882,4.789,6.887,7.328a.477.477,0,0,1-.748.591c-1.926-2.441-6.56-7-6.8-7.23l-7.578-6.668a.493.493,0,0,1-.04-.039,9.039,9.039,0,0,1-.91-2.409,22.437,22.437,0,0,0-1.757-4.551c-.257-.359-.48-.332-.646-.268a2.374,2.374,0,0,0-1.039,2.36c.108.957.383,2.225.6,3.243.4,1.863.464,2.18.2,2.447-.191.191-.263.263-5.1.611-.577.041-1.086.078-1.443.107-.567.046-1.46.125-2.493.243a.476.476,0,1,1-.108-.946c1.046-.119,1.95-.2,2.524-.246.359-.029.871-.066,1.451-.108,1.288-.093,3.531-.254,4.358-.372-.058-.365-.2-1-.312-1.534-.225-1.039-.506-2.333-.619-3.339a3.266,3.266,0,0,1,1.643-3.355,1.456,1.456,0,0,1,1.762.6,22.057,22.057,0,0,1,1.891,4.82,20.213,20.213,0,0,0,.711,2.055l5.455,4.8c0-1.12.036-2.918.179-4.393-.006-.366-.069-4.261,0-6.364.072-2.17-.088-8.48-.089-8.543a.476.476,0,0,1,.464-.488H87.1a.477.477,0,0,1,.476.464c.006.26.162,6.4.089,8.6-.057,1.739-.023,4.728-.007,5.875h14.193c-.015-2.85-.228-17.722-2.983-23.153-2.178-4.294-8.055-5.95-12.777-7.28A32.338,32.338,0,0,1,81.6,68.3c-3.2-1.494-8.134-3.444-9.934-4.147a10.7,10.7,0,0,1-2.2,6.806A7.081,7.081,0,0,1,63.85,73.3c-3.746,0-8.211-1.425-8.211-8.211,0-.128-.01-.348-.03-.643-2.146.845-6.348,2.528-9.2,3.861a32.338,32.338,0,0,1-4.5,1.477c-4.722,1.33-10.6,2.986-12.777,7.28-2.755,5.431-2.968,20.3-2.983,23.153H41.409L43.4,98.275c.016-3.067-.056-8.3-.659-11.048a.476.476,0,0,1,.93-.2c.906,4.127.659,13.292.647,13.68a.476.476,0,0,1-.476.463H41.175c.111,1.429.134,3.041.136,4.031l5.613-4.939a21.4,21.4,0,0,0,.7-2.049,22.057,22.057,0,0,1,1.891-4.82,1.456,1.456,0,0,1,1.762-.6,3.266,3.266,0,0,1,1.643,3.355c-.113,1.006-.394,2.3-.619,3.339-.117.536-.254,1.169-.312,1.534.827.118,3.07.279,4.358.372.58.042,1.092.079,1.451.108,4.123.334,9.171,1,9.807,2.27a1.071,1.071,0,0,1-.063,1.121,3.605,3.605,0,0,1-2.417,1.075c2.187.458,4.243,1.043,4.671,1.681a1.3,1.3,0,0,1,.158,1.468c-.531.882-2.168.91-3.449.777-1.047-.108-2.436-.224-3.7-.323,2.093.816,4.1,1.7,4.382,2.16a.9.9,0,0,1-.035,1c-.523.772-2.127,1.088-3.991.787-.609-.1-1.273-.251-1.931-.425,2.436,1.649,2.269,2.245,2.2,2.483a1.122,1.122,0,0,1-.6.712c-1.062.532-3.349-.163-6.941-1.546-2.357-.906-7.638-3.062-9.177-3.692a53.448,53.448,0,0,1-4.334,7.773l.311,2.162,2.192,1.622a.477.477,0,0,1-.567.766l-.811-.6L43.2,123.81H87.14l.319-2.588a46.784,46.784,0,0,1-6.178-10.178c-1.539.63-6.82,2.786-9.177,3.692-4.439,1.708-6.811,2.337-7.459,1.038a.476.476,0,1,1,.852-.425c.019.037.231.357,1.831-.014a37.724,37.724,0,0,0,4.434-1.487c2.752-1.059,9.518-3.833,9.586-3.86a.476.476,0,0,1,.618.251c.04.094,2.826,6.478,6.269,10.455a.491.491,0,0,1,.141.16c1.524,1.722,3.17,2.956,4.76,2.956,2.724,0,5.26-.7,5.364-5.822C98.565,114.807,98.563,106.841,98.557,102.929ZM71.565,70.178a9.57,9.57,0,0,0,.6-4.292.239.239,0,0,1,.218-.257.242.242,0,0,1,.257.218,10.058,10.058,0,0,1-.629,4.5.238.238,0,1,1-.444-.172Zm-9.347,6.2a10.025,10.025,0,0,1-7.1-3.962,7.062,7.062,0,0,1-1.134-4.434.238.238,0,1,1,.475.036,6.59,6.59,0,0,0,1.06,4.14A9.53,9.53,0,0,0,62.27,75.91,8.446,8.446,0,0,0,69.284,73.6c.186-.183.368-.376.54-.573a.238.238,0,0,1,.358.314c-.18.206-.37.407-.564.6a8.77,8.77,0,0,1-6.26,2.512A10.25,10.25,0,0,1,62.218,76.383Z"/><path class="a" d="M42.09,100.214h1.282c.006-.3.013-.736.018-1.269Z"/><path class="b" d="M61.278,57.919c-3.637,0-8.877-2.6-12.385-8.417-.516-.856-.971-2.906-1.388-6.258-1.41.144-2.686-.67-3.553-2.3-.982-1.852-1.294-4.6-.241-5.512a3.708,3.708,0,0,1,3.028-.61c-.119-1.789-.2-3.362-.245-4.292a30.567,30.567,0,0,1,.455-6.54c.172-.884,1.539-2.629,3.3-3.817a6.328,6.328,0,0,1,4.62-1.206c9.678,1.892,12.451,1.357,13.242.869,2.717-1.675,5.114-1.357,7.328.97,2,2.105,2.247,5.9,2.409,8.406.041.626.075,1.166.129,1.595a9.62,9.62,0,0,1-.273,3.811,2.666,2.666,0,0,1,3.214.55c1.469,1.574,1.468,4.848.4,6.143a4.6,4.6,0,0,1-3.724,1.52l-.238.007c-.231,1.117-1.149,4.714-1.765,5.575-.049.068-.157.275-.272.494C74.152,51.134,70.605,57.919,61.278,57.919ZM47.917,42.208a.484.484,0,0,1,.267.081.478.478,0,0,1,.206.339c.512,4.317,1,5.853,1.319,6.382,3.316,5.5,8.2,7.957,11.569,7.957,8.75,0,12.1-6.4,13.2-8.5a6.049,6.049,0,0,1,.341-.607,28.89,28.89,0,0,0,1.644-5.4c.044-.553.635-.567,1.111-.579A3.714,3.714,0,0,0,80.582,40.7c.8-.964.745-3.7-.359-4.886-.744-.8-1.8-.71-3.154.257a.477.477,0,0,1-.7-.615h0a8.19,8.19,0,0,0,.66-4.534c-.057-.458-.093-1.012-.134-1.653-.153-2.372-.384-5.956-2.149-7.81-1.907-2.005-3.8-2.257-6.138-.816-1.616,1-6.3.745-13.925-.746a5.406,5.406,0,0,0-3.9,1.062,7.872,7.872,0,0,0-2.9,3.208,29.614,29.614,0,0,0-.438,6.317c.045,1.03.144,2.855.286,4.889a.476.476,0,0,1-.587.5,3.3,3.3,0,0,0-2.812.28c-.5.431-.492,2.549.461,4.345.439.829,1.414,2.155,3,1.729A.48.48,0,0,1,47.917,42.208Zm29.49.325v0Z"/><path class="b" d="M59.619,40.129a.474.474,0,0,1-.259-.077,2.709,2.709,0,0,1-1.3-1.665,1.865,1.865,0,0,1,.224-1.347.476.476,0,0,1,.8.519c-.088.143-.45.884.8,1.7a.476.476,0,0,1-.26.875Z"/><path class="b" d="M102.332,101.166H87.193a.476.476,0,1,1,0-.952h14.662c-.015-2.85-.228-17.722-2.983-23.153-2.178-4.294-8.055-5.95-12.777-7.28A32.338,32.338,0,0,1,81.6,68.3c-3.957-1.846-10.555-4.388-10.622-4.414A.476.476,0,0,1,71.315,63c.067.026,6.7,2.579,10.683,4.44a31.933,31.933,0,0,0,4.355,1.423c4.9,1.381,11,3.1,13.368,7.766,3.141,6.192,3.091,23.335,3.087,24.062A.476.476,0,0,1,102.332,101.166Z"/><path class="b" d="M95.162,115.023a.476.476,0,0,1-.374-.181c-1.926-2.441-6.56-7-6.8-7.23l-7.578-6.668a.493.493,0,0,1-.04-.039,9.039,9.039,0,0,1-.91-2.409,22.437,22.437,0,0,0-1.757-4.551c-.257-.359-.48-.332-.646-.268a2.374,2.374,0,0,0-1.039,2.36c.108.957.383,2.225.6,3.243.4,1.863.464,2.18.2,2.447-.191.191-.263.263-5.1.611-.577.041-1.086.078-1.443.107-.567.046-1.46.125-2.493.243a.476.476,0,1,1-.108-.946c1.046-.119,1.95-.2,2.524-.246.359-.029.871-.066,1.451-.108,1.288-.093,3.531-.254,4.358-.372-.058-.365-.2-1-.312-1.534-.225-1.039-.506-2.333-.619-3.339a3.266,3.266,0,0,1,1.643-3.355,1.456,1.456,0,0,1,1.762.6,22.057,22.057,0,0,1,1.891,4.82,20.213,20.213,0,0,0,.711,2.055l7.548,6.641.018.018c.2.194,4.882,4.789,6.887,7.328a.477.477,0,0,1-.374.772Z"/><path class="b" d="M93.136,124.762c-5.361,0-10.767-11.313-11.855-13.718-1.539.63-6.82,2.786-9.177,3.692-4.439,1.708-6.811,2.337-7.459,1.038a.476.476,0,1,1,.852-.425c.019.037.231.357,1.831-.014a37.724,37.724,0,0,0,4.434-1.487c2.752-1.059,9.518-3.833,9.586-3.86a.476.476,0,0,1,.618.251c.058.136,5.921,13.571,11.17,13.571,2.724,0,5.26-.7,5.364-5.822.088-4.271.053-17.167.052-17.3a.476.476,0,0,1,.475-.477h0a.476.476,0,0,1,.476.474c0,.13.035,13.038-.053,17.32C99.357,122.679,97.409,124.762,93.136,124.762Z"/><path class="b" d="M77.866,37.541a.238.238,0,0,1-.2-.373,1.736,1.736,0,0,1,1.3-.864,2.082,2.082,0,0,1,1.5.69.238.238,0,1,1-.355.317A1.646,1.646,0,0,0,79,36.78a1.3,1.3,0,0,0-.941.657A.237.237,0,0,1,77.866,37.541Z"/><path class="b" d="M78.31,40.365a.238.238,0,0,1-.042-.472,1.1,1.1,0,0,0,.782-.514c.576-.935.06-2.723.055-2.741a.238.238,0,0,1,.457-.135c.024.082.58,2.013-.107,3.126a1.569,1.569,0,0,1-1.1.733Z"/><polygon class="b" points="98.935 103.004 87.212 100.69 99.029 100.69 98.935 103.004"/><path class="b" d="M43.837,101.166H25.668a.476.476,0,0,1-.476-.474c0-.727-.054-17.87,3.087-24.062,2.367-4.666,8.467-6.385,13.368-7.766A31.933,31.933,0,0,0,46,67.441c3.148-1.469,7.908-3.356,9.808-4.1a.476.476,0,1,1,.347.886c-1.892.74-6.629,2.619-9.752,4.076a32.338,32.338,0,0,1-4.5,1.477c-4.722,1.33-10.6,2.986-12.777,7.28-2.755,5.431-2.968,20.3-2.983,23.153H43.372c.038-1.943.132-9.489-.636-12.987a.476.476,0,0,1,.93-.2c.906,4.127.659,13.292.647,13.68A.476.476,0,0,1,43.837,101.166Z"/><path class="b" d="M34.864,124.762c-4.273,0-6.221-2.083-6.316-6.754-.088-4.282-.053-17.19-.053-17.32a.476.476,0,0,1,.476-.474h0a.476.476,0,0,1,.475.477c0,.13-.036,13.026.052,17.3.1,5.117,2.64,5.822,5.364,5.822,5.249,0,11.112-13.435,11.17-13.571a.477.477,0,0,1,.618-.251c.068.027,6.834,2.8,9.586,3.86,1.713.659,5.279,2.03,6.173,1.583a.216.216,0,0,0,.081-.064c-.307-.6-3.015-2.343-5.445-3.647a.476.476,0,0,1,.4-.864,37.549,37.549,0,0,0,5.872,1.716c1.812.292,2.873-.124,3.041-.363a47.767,47.767,0,0,0-7.012-2.915.476.476,0,0,1,.193-.924c.045,0,4.541.309,7.07.571,1.742.181,2.42-.132,2.535-.321.071-.118-.07-.352-.134-.447-.442-.612-5.172-1.6-9.3-2.16a.476.476,0,0,1,.1-.946c4.485.377,6.611-.22,6.946-.714.024-.036.046-.068,0-.161-.271-.514-3.529-1.3-9.032-1.747-.357-.029-.866-.066-1.443-.107-4.842-.348-4.914-.42-5.1-.611-.267-.267-.207-.584.2-2.447.221-1.018.5-2.286.6-3.243a2.374,2.374,0,0,0-1.039-2.36c-.166-.064-.389-.091-.646.268A22.437,22.437,0,0,0,48.536,98.5a9.039,9.039,0,0,1-.91,2.409.493.493,0,0,1-.04.039L40,107.62a.476.476,0,1,1-.63-.715l7.555-6.647a21.4,21.4,0,0,0,.7-2.049,22.057,22.057,0,0,1,1.891-4.82,1.456,1.456,0,0,1,1.762-.6,3.266,3.266,0,0,1,1.643,3.355c-.113,1.006-.394,2.3-.619,3.339-.117.536-.254,1.169-.312,1.534.827.118,3.07.279,4.358.372.58.042,1.092.079,1.451.108,4.123.334,9.171,1,9.807,2.27a1.071,1.071,0,0,1-.063,1.121,3.605,3.605,0,0,1-2.417,1.075c2.187.458,4.243,1.043,4.671,1.681a1.3,1.3,0,0,1,.158,1.468c-.531.882-2.168.91-3.449.777-1.047-.108-2.436-.224-3.7-.323,2.093.816,4.1,1.7,4.382,2.16a.9.9,0,0,1-.035,1c-.523.772-2.127,1.088-3.991.787-.609-.1-1.273-.251-1.931-.425,2.436,1.649,2.269,2.245,2.2,2.483a1.122,1.122,0,0,1-.6.712c-1.062.532-3.349-.163-6.941-1.546-2.357-.906-7.638-3.062-9.177-3.692C45.631,113.449,40.225,124.762,34.864,124.762Z"/><polygon class="b" points="29.065 103.004 42.253 100.69 28.971 100.69 29.065 103.004"/><path class="b" d="M41.262,100.928a.238.238,0,0,1-.167-.409l2.612-2.548a.238.238,0,1,1,.333.34l-2.612,2.549A.237.237,0,0,1,41.262,100.928Z"/><path class="b" d="M71.787,70.5a.238.238,0,0,1-.222-.324,9.57,9.57,0,0,0,.6-4.292.239.239,0,0,1,.218-.257.242.242,0,0,1,.257.218,10.058,10.058,0,0,1-.629,4.5A.239.239,0,0,1,71.787,70.5Z"/><path class="b" d="M63.358,76.447a10.25,10.25,0,0,1-1.14-.064,10.025,10.025,0,0,1-7.1-3.962,7.062,7.062,0,0,1-1.134-4.434.238.238,0,1,1,.475.036,6.59,6.59,0,0,0,1.06,4.14A9.53,9.53,0,0,0,62.27,75.91,8.446,8.446,0,0,0,69.284,73.6c.186-.183.368-.376.54-.573a.238.238,0,0,1,.358.314c-.18.206-.37.407-.564.6A8.77,8.77,0,0,1,63.358,76.447Z"/><path class="b" d="M44.6,123.46a.473.473,0,0,1-.283-.093l-2.352-1.741a.477.477,0,0,1-.188-.315l-.365-2.545a.476.476,0,1,1,.943-.135l.337,2.348,2.192,1.622a.476.476,0,0,1-.284.859Z"/><path class="b" d="M42.568,124.763a.485.485,0,0,1-.135-.02.475.475,0,0,1-.322-.591l.678-2.308a.476.476,0,0,1,.914.268l-.679,2.308A.477.477,0,0,1,42.568,124.763Z"/><path class="b" d="M87.562,124.762a.563.563,0,0,1-.058,0,.476.476,0,0,1-.415-.531l.395-3.208a.476.476,0,1,1,.945.116l-.395,3.208A.475.475,0,0,1,87.562,124.762Z"/><path class="b" d="M87.018,106.6a.476.476,0,0,1-.476-.469c0-.129-.045-3.178.175-5.457-.006-.366-.069-4.261,0-6.364.072-2.17-.088-8.48-.089-8.543a.476.476,0,0,1,.464-.488H87.1a.477.477,0,0,1,.476.464c.006.26.162,6.4.089,8.6-.072,2.172,0,6.3,0,6.342a.493.493,0,0,1,0,.055c-.218,2.228-.173,5.346-.172,5.378a.476.476,0,0,1-.469.483Z"/><path class="b" d="M40.831,106.6h-.008a.476.476,0,0,1-.469-.483c0-.032.046-3.15-.172-5.378a.476.476,0,1,1,.947-.092c.224,2.281.179,5.355.178,5.484A.476.476,0,0,1,40.831,106.6Z"/><path class="b" d="M44.8,35.365h0a4.786,4.786,0,0,1,2.456.042c-.154-2.2-.249-4.033-.287-4.9a30.064,30.064,0,0,1,.447-6.428c.237-1.222,3.856-5.333,7.361-4.647s11.463,2.115,13.584.807,4.38-1.581,6.733.893,2.131,7.512,2.411,9.732a8.569,8.569,0,0,1-.714,4.822c3.113-2.232,4.643.2,4.8,2.556,2.2-4.212,4.03-9.1,3.683-13.27-.8-9.643-6.964-9.465-6.964-9.465-.625-4.464-8.3-10.268-15.571-10.268s-21.3,1.25-21.483,14.019S44.8,35.365,44.8,35.365Z"/><path class="b" d="M76.932,42.5A27.689,27.689,0,0,1,75.2,48.133a65.917,65.917,0,0,0,4.2-6.051C78.149,42.522,76.955,42.214,76.932,42.5Z"/><path class="b" d="M63.85,73.3c-3.746,0-8.211-1.425-8.211-8.211,0-.836-.451-5.535-.959-9.625A.476.476,0,0,1,55.409,55a11.3,11.3,0,0,0,5.869,1.965,13.718,13.718,0,0,0,9.167-3.213.476.476,0,0,1,.785.366,73.091,73.091,0,0,0,.386,9.26c.129.932.14,4.95-2.154,7.583A7.081,7.081,0,0,1,63.85,73.3ZM55.743,56.31c.468,3.918.849,7.963.849,8.776,0,1.8,0,7.258,7.258,7.258a6.171,6.171,0,0,0,4.894-2.007C70.782,68,70.782,64.3,70.672,63.511a68.184,68.184,0,0,1-.4-8.405,14.78,14.78,0,0,1-8.995,2.813A11.681,11.681,0,0,1,55.743,56.31Z"/><path class="b" d="M70.754,54.116a14.128,14.128,0,0,1-9.476,3.327,11.758,11.758,0,0,1-6.126-2.04c.145,1.167.285,2.378.411,3.535,2.146,1.846,5.149,3.889,7.6,3.51,1.955-.3,4.933-2.289,7.614-4.382C70.749,56.756,70.743,55.409,70.754,54.116Z"/><path class="b" d="M72.823,29.688a.477.477,0,0,1-.233-.061c-5-2.808-7.754-.19-7.869-.077a.476.476,0,0,1-.672-.675c.134-.135,3.356-3.255,9.007-.078a.476.476,0,0,1-.233.891Z"/><path class="b" d="M49.413,29.688a.476.476,0,0,1-.233-.891c5.65-3.177,8.873-.057,9.007.078a.476.476,0,0,1-.672.675c-.115-.113-2.872-2.731-7.869.077A.48.48,0,0,1,49.413,29.688Z"/><path class="b" d="M69.341,34.6a.436.436,0,0,1-.094-.01,15.842,15.842,0,0,1-3.661-1.432.476.476,0,0,1,.029-.851c.6-.275,3.289-1.053,3.594-1.141a.476.476,0,0,1,.264.915c-.517.149-1.6.467-2.432.732a11.853,11.853,0,0,0,2.393.844.476.476,0,0,1-.093.943Z"/><path class="b" d="M52.309,34.6a.476.476,0,0,1-.093-.943,11.853,11.853,0,0,0,2.393-.844c-.832-.265-1.915-.583-2.432-.732a.476.476,0,0,1,.264-.915c.3.088,3,.866,3.594,1.141a.476.476,0,0,1,.029.851A15.842,15.842,0,0,1,52.4,34.589.436.436,0,0,1,52.309,34.6Z"/><path class="b" d="M70.781,34.122s-.066,3.254,1.683,2.274C73.971,35.552,71.948,34.011,70.781,34.122Z"/><path class="b" d="M50.778,34.122s.067,3.254-1.682,2.274C47.589,35.552,49.612,34.011,50.778,34.122Z"/><path class="b" d="M69.381,42.392c-12.095.256-16.6-.638-16.6-.638s-.545,11.071,8.3,11.071S69.381,42.392,69.381,42.392Zm-9.01,8.07c-1.992,1.975-4.537-1.105-2.8-2.813s5.592,0,5.592,0S62.363,48.486,60.371,50.462Z"/><path class="b" d="M47.184,41.328a1.523,1.523,0,0,1-1.037-.523,4.8,4.8,0,0,1-1.311-3.122.979.979,0,0,1,.454-.864.9.9,0,0,1,.813.081.238.238,0,0,1-.251.405.441.441,0,0,0-.351-.059c-.1.049-.168.225-.191.481a4.39,4.39,0,0,0,1.173,2.741,1.064,1.064,0,0,0,.744.382.236.236,0,0,1,.259.214.239.239,0,0,1-.215.26C47.242,41.326,47.213,41.328,47.184,41.328Z"/><path class="b" d="M123.524,124.762H4.476a.476.476,0,1,1,0-.952H123.524a.476.476,0,0,1,0,.952Z"/></svg>