<svg xmlns="http://www.w3.org/2000/svg" viewBox="0 0 128 128"><defs><style>.a{fill:#fff;}.b{fill:#231f20;}</style></defs><path class="a" d="M46.505,96.346A56.943,56.943,0,0,1,45.955,107a.476.476,0,0,1-.937-.173c1.84-9.988-1.51-34.823-1.543-35.072a.474.474,0,0,1,.368-.529c2.806-.624,4.915-3.471,4.936-3.5a.476.476,0,0,1,.791.53,6.833,6.833,0,0,0-.222,4.859c.753-.714,1.872-5.609,1.593-6.327A31.488,31.488,0,0,0,46.8,62.514a.5.5,0,0,1-.086-.1,22,22,0,0,0-2.958-4.1,9.783,9.783,0,0,0-2.006-.437,17.674,17.674,0,0,0-3.507,1.48c-.7.6-2.508,7.93-2.8,11.372-.038.462-.16,1.616-.328,3.215-.972,9.239-3.929,37.355-2.245,41.847a8.834,8.834,0,0,0,8.768,5.855c.208-.031,1.292-.518,6.5-5.4.028-4.174-.262-15.539-.591-22.017ZM41.769,59.429a19.894,19.894,0,0,0-2.89,1.514A32.5,32.5,0,0,0,37.3,66.85a.239.239,0,0,1-.233.189.272.272,0,0,1-.049,0,.239.239,0,0,1-.185-.282c.276-1.326,1.216-5.691,1.724-6.159a20.077,20.077,0,0,1,3.019-1.6.238.238,0,0,1,.194.435Z"/><path class="a" d="M53.891,110.228c1.088-4.9,2.664-11.356,3.664-14.157-.576-2.135-2.965-11.063-4.132-16.429a29.942,29.942,0,0,1-.811-6.427c-.041-.073-.083-.145-.123-.216-1.353,2.528-3.489,6.533-3.812,7.2a26.673,26.673,0,0,0-.685,6.516.487.487,0,0,1,0,.054,18.446,18.446,0,0,0,.176,2.921c.107.641.232,2.584.356,5.171,1.053,2.549,4.723,11.452,4.9,12.162C53.526,107.464,53.726,108.942,53.891,110.228Z"/><path class="a" d="M52.716,116.019c.039-.276.111-.687.21-1.2-.213-1.609-.472-4.5-.586-5.394-.128-.991-.618-4.392-.865-6.1-.868-2.152-1.97-4.838-2.888-7.064.293,6.691.557,16.431.512,20.191v.01a13.721,13.721,0,0,1-.062,1.434,4.6,4.6,0,0,0,.873,2.847C51.265,119.083,52.543,117.227,52.716,116.019Z"/><path class="a" d="M73.013,97.477a.476.476,0,1,1,.8.523,32.312,32.312,0,0,0-2.547,5.725c-.258,1.314-.544,3.109-.2,3.148s1.5-1.021,2.316-1.826c4.012-4.8,9-10.931,10.127-14.938,1.03-3.66.75-11.237.5-17.922C83.74,64.8,83.617,60.2,84.5,58.7c.192-.327.4-.688.627-1.073a68.046,68.046,0,0,1,4.118-6.524.552.552,0,0,1,.051-.066c.094-.121.186-.234.275-.342-1.906-.269-4.127-.5-5.156-.6l-.162-.017c-1.1,2.23-8.082,16.363-9.994,20.281a13.554,13.554,0,0,0-.769,2.225c-.18,1.3-.423,3.368-.148,3.46.222.073.728-.285,1.136-.619,2.038-3.437,4.178-6.6,4.342-6.837a.238.238,0,1,1,.394.268c-.066.1-5.784,8.534-7.52,12.947-1.017,6.6-1.759,13.681-1.757,15.132,0,.46,0,1.681-9.115,12.51-4.455,5.292-8.969,10.354-9.014,10.4h0a40.53,40.53,0,0,1-3.318,3.961H63.073c.529-1.248,2.654-6.293,3.727-9.308C67.005,113.778,70.614,101.129,73.013,97.477Z"/><path class="a" d="M51.949,71.988a7.818,7.818,0,0,1-.554-1.364c-.009-.035-.019-.068-.029-.1a11.717,11.717,0,0,1-1.119,2.962,1.19,1.19,0,0,1-.894.623.977.977,0,0,1-.863-.587,6.992,6.992,0,0,1-.366-3.676,9.545,9.545,0,0,1-3.65,2.2c.258,1.95,1.269,9.9,1.771,18.151q.339-1.752.8-3.523a25.964,25.964,0,0,1,.778-6.887C48.179,79.041,50.635,74.442,51.949,71.988Z"/><path class="a" d="M46.48,95.324,47.5,93.255c-.084-1.5-.17-2.652-.253-3.252-.35,1.744-.61,3.471-.776,5.161Z"/><path class="a" d="M41.765,55.565c-1.108-1.368-2.059-4.181-2.745-6.724a7.385,7.385,0,0,1-.621.886.239.239,0,0,1-.179.08.238.238,0,0,1-.177-.4,9.857,9.857,0,0,0,.809-1.211c-.39-1.514-.679-2.873-.841-3.683-.075-.376-.246-1.251-2.749-1.2-1.251.028-2.791,1.008-4.331,2.726.523.71,1.067,1.392,1.6,2.021a4.806,4.806,0,0,1,.269-.939.238.238,0,0,1,.442.177,4.213,4.213,0,0,0-.292,1.242c.234.263.467.517.693.752A18.968,18.968,0,0,1,35.4,51.458,15.6,15.6,0,0,0,41.271,56.6,4.78,4.78,0,0,1,41.765,55.565Zm-4.058-7.081a1.539,1.539,0,0,1-1.7-.184,1.04,1.04,0,0,0-.757-1.755,1.024,1.024,0,0,0-.506.137,1.731,1.731,0,0,1,.332-2.076c.7-.476,1.861,0,2.587,1.076S38.409,48.007,37.707,48.484Z"/><path class="a" d="M38.944,44.33c1.05,5.247,2.935,10.991,4.149,11.123a3.011,3.011,0,0,0,2.839-1.129.478.478,0,0,1,.564-.18c.215-.389.32-.594.865-.691,1-.179,1.1-1.7,2.991-1.473s2.944-1.574,5.029-1.658,2.265-1.725,3.381-2.043,2.456-1.612,3.549-1.924a2.946,2.946,0,0,1,.692-.1,7.107,7.107,0,0,0,.171-1.68,6.635,6.635,0,0,0-1.38-1.328.285.285,0,0,1-.186-.093c-.059-.064-.214-.234-.023-1.5a.238.238,0,1,1,.47.071,5.892,5.892,0,0,0-.082,1.086A6.3,6.3,0,0,1,63.6,44.352a4.9,4.9,0,0,1-.1,1.881,1.958,1.958,0,0,0,.269-.032,2.774,2.774,0,0,0,.737-.464,2.72,2.72,0,0,0,.328-.543,1.233,1.233,0,0,0,.019-.467c-.228-1.643.593-1.278,0-3.408s-.137-1.339,0-2.617c.125-1.166.217-1.115,1.688-.7l0-.023a.472.472,0,0,1,.254-.284c.078-.037,1.974-.973,1.076-3.613-1.029-3.03-3.21-6.182-5.386-6.343a1.11,1.11,0,0,0-1.015.378c-.725.861-.526,2.839-.405,3.322a.778.778,0,0,1-.32.887c-.653.416-2.045-.1-3.546-1.314a11.87,11.87,0,0,0-4.153-1.519,15.221,15.221,0,0,1-5-1.848c-.767-.548-2.806-2-3.7-1.681-.091.033-.37.134-.539.781-.659,2.526-2.36,3.1-5.27,3.277-1.174.071-1.2.189-1.269.542-.145.71-.417,1.482-1.988,2.405a5.373,5.373,0,0,1-3.651.832,2.492,2.492,0,0,0-.419-.023,1.171,1.171,0,0,0-.079.38,4.935,4.935,0,0,0,.212,1.661,2.406,2.406,0,0,1-.018,1.912,1.73,1.73,0,0,1-1.222.683c-.263.048-.517.088-.758.126-.829.13-1.545.243-1.746.562a1.442,1.442,0,0,0,.045,1.081,19.95,19.95,0,0,0,2.72,5.071c1.27-1.379,3.044-2.845,4.877-2.885C37.489,42.314,38.667,42.939,38.944,44.33Zm26.07-11.393a1.955,1.955,0,0,0-.627,1.259.632.632,0,0,0,.352.467.238.238,0,0,1-.121.443.242.242,0,0,1-.121-.033,1.092,1.092,0,0,1-.583-.819,2.448,2.448,0,0,1,.765-1.656.238.238,0,0,1,.335.339ZM62.553,30.09a1.291,1.291,0,0,1,1.2-.279c1.2.227,2.414,1.977,2.843,3.468a2.337,2.337,0,0,1-.306,2.418.24.24,0,0,1-.162.063.234.234,0,0,1-.174-.076.237.237,0,0,1,.012-.336c.367-.341.43-1.047.173-1.937-.433-1.5-1.589-2.965-2.474-3.133a.838.838,0,0,0-.778.156,2.027,2.027,0,0,0-.312,1.494A.238.238,0,0,1,62.1,32,2.514,2.514,0,0,1,62.553,30.09Zm-16.2,15.564a12.444,12.444,0,0,1-1.272.081,2.128,2.128,0,0,1-.8-.1A5.358,5.358,0,0,1,43.127,44.4a.238.238,0,1,1,.386-.279,5.156,5.156,0,0,0,.98,1.087A6.24,6.24,0,0,0,46.3,45.18a.238.238,0,0,1,.053.474Zm1.424-2.83a1.551,1.551,0,0,1-1.728-.2A1.038,1.038,0,1,0,44.8,40.968a1.705,1.705,0,0,1,.352-2.022c.7-.477,1.86.005,2.587,1.076S48.481,42.347,47.779,42.824ZM53.288,35.8a.238.238,0,1,1,.457.133c-.177.609-.364,1.324-.417,1.63.343.046,1.233.074,2,.074a.238.238,0,0,1,0,.476c-2.326,0-2.39-.134-2.458-.277C52.826,37.75,52.76,37.611,53.288,35.8Zm-2.466-1.4a.484.484,0,0,1,.487.465.477.477,0,0,1-.465.487,16.834,16.834,0,0,0-4.892.942,9.055,9.055,0,0,0-3.792,2.977.476.476,0,0,1-.933-.135c0-.573,2.084-2.847,4.383-3.731A17.5,17.5,0,0,1,50.822,34.392Zm-4.846-2.083a2.8,2.8,0,0,0,.982-.37.238.238,0,0,1,.324.349,2.877,2.877,0,0,1-1.182.481,9.733,9.733,0,0,0-2.968,1.248,17.683,17.683,0,0,0-3.429,3,.238.238,0,1,1-.364-.307,17.877,17.877,0,0,1,3.534-3.1A10.13,10.13,0,0,1,45.976,32.309ZM33.224,36.8A55.837,55.837,0,0,1,40.3,32.549a18.389,18.389,0,0,0,3.565-1.9.238.238,0,1,1,.289.378,18.34,18.34,0,0,1-3.667,1.957A56.962,56.962,0,0,0,33.5,37.193a.238.238,0,0,1-.272-.39ZM30.571,41.17a3,3,0,0,1-.612-.053.238.238,0,0,1,.106-.465,4.7,4.7,0,0,0,3.172-.773c1.844-1.12,3.317-2.189,3.331-2.2a.238.238,0,1,1,.28.385c-.014.011-1.5,1.09-3.364,2.221A5.638,5.638,0,0,1,30.571,41.17Z"/><path class="a" d="M53.778,57.387a3.155,3.155,0,0,0,.794.415c.31-.155.18-.317,1.13-.926,1.46-.936,1.156.206,2.677-.925.876-.65,1.024-1.185.885-1.719a2.494,2.494,0,0,1-1.353.551c-.409.019-.809.021-1.2.017a.475.475,0,0,1-.556.559,7.64,7.64,0,0,0-2.443,0c-.895.163-4.348,2.535-6.313,3.992a.474.474,0,0,1-.646-.077l0,0a1.165,1.165,0,0,0,.763,1.005,10.286,10.286,0,0,1,1.206.485,6.416,6.416,0,0,0,.649-.947,8.946,8.946,0,0,1,.837-.562,1.947,1.947,0,0,1,.83-1.208C52.512,57.2,52.634,56.544,53.778,57.387Z"/><path class="a" d="M71.127,66.309c-.8,3.126-1.564,6.079-2.227,7.826-1.419,3.741-8.725,19.231-10.022,21.249a11.6,11.6,0,0,0-.821,2.189c-.171.875-.335,1.908-.146,1.84a7.012,7.012,0,0,0,1.047-.726,63.15,63.15,0,0,1,4.259-5.065.238.238,0,0,1,.342.332,90.588,90.588,0,0,0-6.855,8.558c-1.07,4.214-2.2,9.216-2.747,11.983l6.928-6.6c4.656-5.579,8.1-10.072,8.1-10.957,0-2.574,2.325-22.7,4.418-27,1.866-3.823,8.554-17.366,9.9-20.1-.334-.154-.746-.39-1.271-.7a7.246,7.246,0,0,0-2.583-1.159c-.686.114-1.338,1.077-1.513,1.405,0,0-2.563,4.881-4.036,7.706C73.105,58.621,72.1,62.529,71.127,66.309Z"/><path class="a" d="M100.12,120.923a13.361,13.361,0,0,1-.277-1.348q-.427.261-.86.514Z"/><path class="a" d="M100.389,121.711l-1.857-1.362c-2.2,1.258-4.456,2.345-6.307,3.174.01.1.017.2.021.287h9.105a4.1,4.1,0,0,0-.6-1.539A1.639,1.639,0,0,1,100.389,121.711Z"/><path class="a" d="M90.332,101.245c-.38,2.318-.777,5.066-1.01,7.319,1.3-.961,2.476-1.812,3.459-2.52C91.89,104.47,91.076,102.862,90.332,101.245Z"/><path class="a" d="M91.247,123.28A61.062,61.062,0,0,0,88.373,113.2c-.745-1.686.867-11.283,1.258-13.524a86.513,86.513,0,0,1-3.539-9.887l-1.815,1.061c-1.5,4.47-6.759,10.748-11.016,15.827-2.469,2.946-4.8,5.728-5.095,6.732-.706,2.405-3.207,8.388-4.058,10.4H91.3c-.007-.139-.022-.3-.045-.475A.331.331,0,0,1,91.247,123.28Z"/><path class="a" d="M106.361,111.832c.624-2.808-.33-15.733-2.171-29.426-2.087-15.519-4.509-26.314-6.321-28.175a.308.308,0,0,1-.03-.033c-.014-.016-1.178-1.367-4.429-2.019-1.27,1.343-6.135,5.344-8.022,6.884l-.072.122c-.782,1.33-.563,7.246-.352,12.967.125,3.372.258,6.968.227,10.2a84.667,84.667,0,0,0,8.368,23.135c1.5-1.072,2.4-1.7,2.415-1.709a.476.476,0,0,1,.543.782c-.031.021-3.064,2.13-7.312,5.277a9.164,9.164,0,0,0,.039,2.979,65.7,65.7,0,0,1,2.842,9.727C96.477,120.555,105.427,116.035,106.361,111.832Zm-3.2-23.634-.025,0a.239.239,0,0,1-.237-.213c-.727-6.742-3.717-22.39-3.747-22.547a.238.238,0,0,1,.468-.09c.03.157,3.023,15.824,3.753,22.586A.238.238,0,0,1,103.162,88.2Z"/><path class="a" d="M85.063,86a23.2,23.2,0,0,1-.587,4.18l1.479-.865C85.626,88.17,85.33,87.062,85.063,86Z"/><path class="a" d="M64.846,74.3c-1.217,2.374-1.354,1.77-1.537,3.84s-1.034,2.739-2.13,4.2-.73,1.765-1.461,1.481-.912-1.359-2.008-1.359-.73-1.1-1.461-3.043a50.529,50.529,0,0,0-3.14-5.366c0,.056,0,.116.008.174.716,3.016,3.173,13.165,4.977,18.069a1.518,1.518,0,0,0,1.315-.785c.4-.662,1.4-2.2,1.8-2.814,2.567-5.311,5.858-12.415,6.8-14.9.644-1.7,1.432-4.762,2.195-7.725.986-3.832,2-7.8,2.85-9.416,1.343-2.576,3.591-6.857,3.98-7.6-1.285-.172-2.426-.311-3.338-.418-.441,2.254-1.869,4.331-2,6.143-.163,2.266,1.217.747,0,3.791a15.615,15.615,0,0,1-2.242,4.473,20.56,20.56,0,0,0-2.928,5.763C65.981,70.879,66.063,71.927,64.846,74.3Z"/><path class="b" d="M51.837,65.349a5.452,5.452,0,0,1-2.678-.617.477.477,0,1,1,.458-.836,4.455,4.455,0,0,0,2.22.5c4.5,0,11.989-7.917,14.808-10.9,3.132-3.311,3.1-9.4-.07-15.145a.478.478,0,0,1-.036-.379.472.472,0,0,1,.254-.284c.078-.037,1.974-.973,1.076-3.613-1.029-3.03-3.21-6.182-5.386-6.343a1.11,1.11,0,0,0-1.015.378c-.725.861-.526,2.839-.405,3.322a.778.778,0,0,1-.32.887c-.653.416-2.045-.1-3.546-1.314a11.87,11.87,0,0,0-4.153-1.519,15.221,15.221,0,0,1-5-1.848c-.767-.548-2.806-2-3.7-1.681-.091.033-.37.134-.539.781-.659,2.526-2.36,3.1-5.27,3.277-1.174.071-1.2.189-1.269.542-.145.71-.417,1.482-1.988,2.405a5.373,5.373,0,0,1-3.651.832,2.492,2.492,0,0,0-.419-.023,1.171,1.171,0,0,0-.079.38,4.935,4.935,0,0,0,.212,1.661,2.406,2.406,0,0,1-.018,1.912,1.73,1.73,0,0,1-1.222.683c-.263.048-.517.088-.758.126-.829.13-1.545.243-1.746.562a1.442,1.442,0,0,0,.045,1.081c.78,2.619,3.664,6.692,6,9.117A18.968,18.968,0,0,1,35.4,51.458c1.207,1.661,2.347,3.228,6.531,5.511a.476.476,0,1,1-.456.836c-4.372-2.385-5.629-4.114-6.845-5.787a18.032,18.032,0,0,0-1.668-2.061c-2.385-2.472-5.379-6.645-6.231-9.506a2.2,2.2,0,0,1,.062-1.861c.432-.684,1.346-.828,2.4-1,.234-.037.48-.076.736-.122a.981.981,0,0,0,.593-.264c.129-.2.013-.669-.108-1.167a5.736,5.736,0,0,1-.235-1.982,1.457,1.457,0,0,1,.425-1.031,1.419,1.419,0,0,1,1.117-.179,4.472,4.472,0,0,0,3.072-.7c1.336-.786,1.448-1.335,1.537-1.775.171-.838.506-1.2,2.145-1.3,2.946-.178,3.934-.754,4.407-2.566a1.9,1.9,0,0,1,1.136-1.436c1.2-.435,2.908.609,4.577,1.8a14.63,14.63,0,0,0,4.675,1.7,12.338,12.338,0,0,1,4.523,1.7,5.164,5.164,0,0,0,2.31,1.247c-.141-.751-.326-2.877.633-4.015a2.07,2.07,0,0,1,1.813-.715c2.709.2,5.122,3.762,6.218,6.986a3.708,3.708,0,0,1-1.15,4.516c3.16,6,3.061,12.331-.284,15.867C64.168,57.5,56.747,65.349,51.837,65.349Z"/><path class="b" d="M72.378,35.568c-.092-2.739-1.461-1.644-1.735-5.021s-.821-3.378-2.739-5.108-.365-2.47-1.825-5.391-1.279-2.922-2.648-4.839S61.24,13.2,60.418,11.466s-2.647-.456-3.195-1.552a3.214,3.214,0,0,0-2.556-1.826c-1.278-.273-2.556-.273-3.1-1.369S49.1,5.532,45.172,5.258s-2.464,2.374-4.016,2.283-6.939,1.552-9.039,3.1-1.917.821-5.077,2.83-1.13,1.46-2.208,4.564-1.479,2.191-3.122,3.743.548,2.922.73,4.656a11,11,0,0,1,0,4.291c-.365,2.648-.456.548-1.278,3.287s1.278,1.826,1.278,4.2,6.252,5.323,6.252,5.323h0a15.418,15.418,0,0,1-1.5-3.223c-.628-2.107.821-2.009,2.83-2.374s.456-2.008.639-3.834,1.278.274,4.382-1.552.456-2.83,3.469-3.013,4.291-.821,4.839-2.921,2.556-1.1,4.975.633,7.258,1.832,9.175,3.384,3.287,1.643,3.1.913-.548-4.474,1.917-4.291,4.747,3.56,5.8,6.664-1.329,4.2-1.329,4.2a21.759,21.759,0,0,1,1.1,2.282h0c4.292,3.286,2.1-.091,3.742-.639S72.469,38.306,72.378,35.568Z"/><path class="b" d="M43.513,56.428a4.748,4.748,0,0,1-.522-.029c-2.469-.267-4.436-9.162-4.98-11.882-.075-.376-.246-1.251-2.749-1.2-1.494.033-3.4,1.42-5.225,3.805l-.073.094a.476.476,0,0,1-.744-.595l.061-.078c1.177-1.537,3.517-4.124,5.96-4.178,2.248-.051,3.426.574,3.7,1.965,1.05,5.247,2.935,10.991,4.149,11.123a3.011,3.011,0,0,0,2.839-1.129.476.476,0,0,1,.795.524A3.9,3.9,0,0,1,43.513,56.428Z"/><path class="b" d="M41.7,39.6a.476.476,0,0,1-.476-.476c0-.573,2.084-2.847,4.383-3.731a17.5,17.5,0,0,1,5.212-1,.484.484,0,0,1,.487.465.477.477,0,0,1-.465.487,16.834,16.834,0,0,0-4.892.942,9.055,9.055,0,0,0-3.792,2.977A.476.476,0,0,1,41.7,39.6Zm.477-.475Zm0,0h0Z"/><path class="b" d="M47.12,59.445a.476.476,0,0,1-.284-.858c.539-.4,5.3-3.908,6.711-4.164a8.464,8.464,0,0,1,2.792,0,.476.476,0,0,1-.179.935,7.64,7.64,0,0,0-2.443,0c-.895.163-4.348,2.535-6.313,3.992A.478.478,0,0,1,47.12,59.445Z"/><path class="b" d="M66.124,35.76a.234.234,0,0,1-.174-.076.237.237,0,0,1,.012-.336c.367-.341.43-1.047.173-1.937-.433-1.5-1.589-2.965-2.474-3.133a.838.838,0,0,0-.778.156,2.027,2.027,0,0,0-.312,1.494A.238.238,0,0,1,62.1,32a2.514,2.514,0,0,1,.453-1.905,1.291,1.291,0,0,1,1.2-.279c1.2.227,2.414,1.977,2.843,3.468a2.337,2.337,0,0,1-.306,2.418A.24.24,0,0,1,66.124,35.76Z"/><path class="b" d="M64.618,35.106a.242.242,0,0,1-.121-.033,1.092,1.092,0,0,1-.583-.819,2.448,2.448,0,0,1,.765-1.656.238.238,0,0,1,.335.339,1.955,1.955,0,0,0-.627,1.259.632.632,0,0,0,.352.467.238.238,0,0,1-.121.443Z"/><path class="b" d="M41.075,122.626a9.916,9.916,0,0,1-9.092-6.506c-1.58-4.215.493-26.149,2.19-42.281.168-1.592.289-2.743.326-3.194.235-2.818,1.989-11.18,3.178-12.059a19.439,19.439,0,0,1,3.882-1.653.478.478,0,0,1,.2-.019,11.272,11.272,0,0,1,2.374.52c.78.331,2.581,3.155,3.358,4.421.76.691,3.916,3.6,4.327,4.557.454,1.059-.682,5.726-1.57,7.073a1.19,1.19,0,0,1-.894.623.977.977,0,0,1-.863-.587,6.992,6.992,0,0,1-.366-3.676,9.545,9.545,0,0,1-3.65,2.2c.453,3.429,3.237,25.418,1.481,34.954a.476.476,0,0,1-.937-.173c1.84-9.988-1.51-34.823-1.543-35.072a.474.474,0,0,1,.368-.529c2.8-.622,4.915-3.471,4.936-3.5a.476.476,0,0,1,.791.53,6.833,6.833,0,0,0-.222,4.859c.753-.714,1.872-5.609,1.593-6.327A31.488,31.488,0,0,0,46.8,62.514a.5.5,0,0,1-.086-.1,22,22,0,0,0-2.958-4.1,9.835,9.835,0,0,0-2.006-.437,17.674,17.674,0,0,0-3.507,1.48c-.7.6-2.508,7.93-2.8,11.372-.038.462-.16,1.616-.328,3.215-.972,9.239-3.929,37.355-2.245,41.847a8.834,8.834,0,0,0,8.768,5.855c.21-.031,1.31-.525,6.655-5.541a.476.476,0,1,1,.651.694c-6.01,5.643-6.834,5.747-7.186,5.792A5.535,5.535,0,0,1,41.075,122.626Z"/><path class="b" d="M77.516,49.118a.468.468,0,0,1-.064,0c-3.474-.471-6-.721-6.03-.723a.476.476,0,0,1,.093-.948c.025,0,2.572.254,6.065.727a.476.476,0,0,1-.064.948Z"/><path class="b" d="M47.361,124.762a.476.476,0,0,1-.335-.814c1.477-1.467,5.379-5.752,5.69-7.929.4-2.791,4.09-19.173,5.361-21.15C59.2,93.129,66.523,77.716,68.01,73.8c.644-1.7,1.432-4.762,2.195-7.725.986-3.832,2-7.8,2.85-9.416,1.474-2.827,4.039-7.711,4.039-7.711.093-.174.931-1.688,2.2-1.9.747-.126,1.806.45,3.22,1.276a7.985,7.985,0,0,0,1.509.774l.487.05c1.2.124,4.01.413,6.083.74a.476.476,0,0,1-.149.941c-2.047-.323-4.839-.611-6.031-.733l-.5-.052a6.233,6.233,0,0,1-1.884-.9,7.246,7.246,0,0,0-2.583-1.159c-.684.114-1.324,1.053-1.513,1.406,0,0-2.564,4.88-4.036,7.7-.8,1.525-1.8,5.433-2.773,9.213-.8,3.126-1.564,6.079-2.227,7.826-1.419,3.741-8.725,19.231-10.022,21.249-1.11,1.728-4.8,17.867-5.219,20.77-.42,2.937-5.736,8.245-5.962,8.47A.475.475,0,0,1,47.361,124.762Z"/><path class="b" d="M45.993,95.675l-.046,0a.477.477,0,0,1-.429-.52,55.04,55.04,0,0,1,1.539-8.542.476.476,0,1,1,.922.24,54.126,54.126,0,0,0-1.513,8.394A.475.475,0,0,1,45.993,95.675Z"/><path class="b" d="M93.406,106.657a.477.477,0,0,1-.413-.239C88.23,98.15,85.61,88.851,84.25,82.506a.476.476,0,1,1,.931-.2c1.346,6.279,3.936,15.476,8.638,23.637a.477.477,0,0,1-.413.714Z"/><path class="b" d="M88.749,110.056a.476.476,0,0,1-.284-.859c4.352-3.227,7.478-5.4,7.509-5.421a.476.476,0,0,1,.543.782c-.031.022-3.145,2.187-7.484,5.4A.479.479,0,0,1,88.749,110.056Z"/><path class="b" d="M51.449,120.008a.476.476,0,0,1-.355-.794c8.672-9.72,17.888-20.831,17.887-22.279,0-2.574,2.325-22.7,4.418-27C75.467,65.7,83.461,49.521,83.542,49.358a.476.476,0,1,1,.854.422c-.081.163-8.074,16.342-10.141,20.578-2.048,4.2-4.325,24.033-4.322,26.576,0,.46,0,1.681-9.115,12.51-4.455,5.292-8.969,10.354-9.014,10.4A.473.473,0,0,1,51.449,120.008Z"/><path class="b" d="M91.718,123.705a.477.477,0,0,1-.193-.912c4.136-1.833,13.86-6.571,14.836-10.961.624-2.808-.33-15.733-2.171-29.426-2.087-15.519-4.509-26.314-6.321-28.175a.308.308,0,0,1-.03-.033c-.018-.021-2.032-2.363-8.2-2.363a.477.477,0,0,1,0-.953c6.444,0,8.693,2.431,8.921,2.7,2.846,2.967,5.542,21.051,6.57,28.7,1.6,11.919,2.9,26.4,2.157,29.759-1.032,4.641-10.079,9.276-15.38,11.626A.472.472,0,0,1,91.718,123.705Z"/><path class="b" d="M63.388,124.763a.478.478,0,0,1-.438-.664c.035-.081,3.481-8.161,4.3-10.959.351-1.2,2.418-3.662,5.279-7.076,4.124-4.92,9.771-11.659,10.979-15.955,1.03-3.66.75-11.237.5-17.922C83.74,64.8,83.617,60.2,84.5,58.7c.192-.327.4-.688.627-1.073,3.172-5.452,5.008-8.227,6.241-8.268,1.521-.054,2.178,1.538,2.422,2.137a.476.476,0,0,1-.882.359c-.317-.778-.74-1.572-1.509-1.544-.056,0-.6.11-2.309,2.644-1.067,1.588-2.217,3.563-3.14,5.151-.225.386-.436.749-.63,1.077-.782,1.33-.563,7.246-.352,12.967.25,6.755.533,14.411-.537,18.215-1.264,4.493-6.754,11.045-11.166,16.309-2.469,2.946-4.8,5.728-5.095,6.732-.837,2.852-4.2,10.731-4.34,11.065A.476.476,0,0,1,63.388,124.763Z"/><path class="b" d="M101.937,124.762a.476.476,0,0,1-.469-.393,5.443,5.443,0,0,0-.715-2.1c-.607-.532-.911-2.578-1.013-3.434a.476.476,0,0,1,.946-.113,8.32,8.32,0,0,0,.695,2.831,5.73,5.73,0,0,1,1.025,2.649.475.475,0,0,1-.469.558Z"/><path class="b" d="M37.662,45.682c-.726-1.071-1.885-1.552-2.587-1.076a1.731,1.731,0,0,0-.332,2.076,1.024,1.024,0,0,1,.506-.137,1.04,1.04,0,0,1,.757,1.755,1.539,1.539,0,0,0,1.7.184C38.409,48.007,38.389,46.753,37.662,45.682Z"/><path class="b" d="M47.735,40.022c-.727-1.071-1.885-1.553-2.587-1.076a1.705,1.705,0,0,0-.352,2.022,1.03,1.03,0,0,1,.625-.214,1.039,1.039,0,0,1,.63,1.867,1.551,1.551,0,0,0,1.728.2C48.481,42.347,48.462,41.093,47.735,40.022Z"/><path class="b" d="M91.759,124.762a.509.509,0,0,1-.077-.006.476.476,0,0,1-.393-.546c.234-1.436-2.122-9.215-2.916-11.011-.76-1.719.934-11.677,1.281-13.656a.476.476,0,0,1,.938.165c-.785,4.471-1.845,11.983-1.348,13.106.655,1.48,3.285,9.7,2.985,11.549A.476.476,0,0,1,91.759,124.762Z"/><path class="b" d="M57.911,96.716a.239.239,0,0,1-.229-.176c-.029-.107-2.933-10.8-4.259-16.9-1.338-6.155-.626-8.342-.595-8.432a.238.238,0,0,1,.451.154c-.009.026-.691,2.194.61,8.176,1.322,6.085,4.223,16.768,4.252,16.875a.237.237,0,0,1-.167.292A.228.228,0,0,1,57.911,96.716Z"/><path class="b" d="M49.879,122.01a.475.475,0,0,1-.371-.178c-.07-.087-1.708-2.15-1.412-4.077.238-1.548-.375-24.937-.868-27.908-.48-2.891.049-8.938.591-10.061.485-1,4.767-8.987,4.949-9.326a.476.476,0,1,1,.839.45c-.044.083-4.455,8.306-4.93,9.29-.427.884-.973,6.7-.51,9.491.43,2.587,1.162,26.314.87,28.209-.232,1.51,1.2,3.317,1.214,3.335a.478.478,0,0,1-.372.775Z"/><path class="b" d="M70.984,83.6a.183.183,0,0,1-.033,0,.238.238,0,0,1-.2-.268c.493-3.568,7.759-14.291,8.068-14.745a.238.238,0,1,1,.394.268c-.075.11-7.512,11.084-7.99,14.542A.239.239,0,0,1,70.984,83.6Z"/><path class="b" d="M56.1,103.191a.23.23,0,0,1-.136-.044.237.237,0,0,1-.058-.331,97.776,97.776,0,0,1,7.314-9.194.238.238,0,0,1,.342.332,97.447,97.447,0,0,0-7.267,9.136A.237.237,0,0,1,56.1,103.191Z"/><path class="b" d="M55.324,38.11c-2.326,0-2.39-.134-2.458-.277-.04-.083-.106-.222.422-2.036a.238.238,0,1,1,.457.133c-.177.609-.364,1.324-.417,1.63.343.046,1.233.074,2,.074a.238.238,0,1,1,0,.476Zm-2.011-.422h0Zm-.108-.153Z"/><path class="b" d="M39.521,37.106a.238.238,0,0,1-.182-.392,17.877,17.877,0,0,1,3.534-3.1,10.13,10.13,0,0,1,3.1-1.309,2.8,2.8,0,0,0,.982-.37.238.238,0,0,1,.324.349,2.877,2.877,0,0,1-1.182.481,9.733,9.733,0,0,0-2.968,1.248,17.717,17.717,0,0,0-3.429,3A.238.238,0,0,1,39.521,37.106Z"/><path class="b" d="M30.571,41.17a3,3,0,0,1-.612-.053.238.238,0,0,1,.106-.465,4.7,4.7,0,0,0,3.172-.773c1.844-1.12,3.317-2.189,3.331-2.2a.238.238,0,1,1,.28.385c-.014.011-1.5,1.09-3.364,2.221A5.638,5.638,0,0,1,30.571,41.17Z"/><path class="b" d="M33.36,37.236a.238.238,0,0,1-.136-.433A55.837,55.837,0,0,1,40.3,32.549a18.389,18.389,0,0,0,3.565-1.9.238.238,0,1,1,.289.378,18.34,18.34,0,0,1-3.667,1.957A56.962,56.962,0,0,0,33.5,37.193.236.236,0,0,1,33.36,37.236Z"/><path class="b" d="M71.7,54.783c.162-2.265,2.353-4.943,2.11-7.865s-4.9-8.277-6.818-8.794-2.008-.7-2.145.578-.593.487,0,2.617-.228,1.765,0,3.408a1.233,1.233,0,0,1-.019.467,2.72,2.72,0,0,1-.328.543,2.774,2.774,0,0,1-.737.464,11.18,11.18,0,0,0-1.451.154c-1.093.312-2.433,1.607-3.549,1.924s-1.3,1.959-3.381,2.043S52.244,52.2,50.352,51.98s-1.992,1.294-2.991,1.473-.519.714-1.947,2.086-3.2-.145-3.332-.3-1.179,1.7-.794,1.92a19.7,19.7,0,0,0,2.468.644c.733.2,1.568,1.636,1.753,1.9a.154.154,0,0,0,.092.058,11.9,11.9,0,0,0,1.519,2.406,1.3,1.3,0,0,0,.427.27l.032.033c.726.666,3.447,3.311,3.8,4.135a5.989,5.989,0,0,1-.422,3.032,2.859,2.859,0,0,1,.438.992c.609,2.252,4.124,6.847,4.854,8.8s.365,3.043,1.461,3.043,1.278,1.075,2.008,1.359.366-.02,1.461-1.481,1.948-2.13,2.13-4.2.32-1.466,1.537-3.84,1.135-3.422,1.683-5.491a20.56,20.56,0,0,1,2.928-5.763A15.615,15.615,0,0,0,71.7,58.574C72.916,55.53,71.536,57.049,71.7,54.783Zm-13.32,1.168c-1.521,1.131-1.217-.011-2.677.925-.95.609-.82.771-1.13.926a3.155,3.155,0,0,1-.794-.415c-1.144-.843-1.266-.184-2.739.664a1.947,1.947,0,0,0-.83,1.208,8.946,8.946,0,0,0-.837.562,6.416,6.416,0,0,1-.649.947,10.286,10.286,0,0,0-1.206-.485,1.165,1.165,0,0,1-.763-1.005,7.039,7.039,0,0,0,.763-.6,12.555,12.555,0,0,1,1.992-1.407,32.142,32.142,0,0,1,3.678-2.233c1.036-.447,2.773-.166,4.724-.255a2.494,2.494,0,0,0,1.353-.551C59.4,54.766,59.255,55.3,58.379,55.951Z"/><path class="b" d="M45.083,45.735a2.128,2.128,0,0,1-.8-.1A5.358,5.358,0,0,1,43.127,44.4a.238.238,0,1,1,.386-.279,5.156,5.156,0,0,0,.98,1.087A6.24,6.24,0,0,0,46.3,45.18a.238.238,0,0,1,.053.474A12.444,12.444,0,0,1,45.083,45.735Z"/><path class="b" d="M38.22,49.807a.238.238,0,0,1-.177-.4,13.643,13.643,0,0,0,1.04-1.61.238.238,0,1,1,.415.232,13.711,13.711,0,0,1-1.1,1.694A.239.239,0,0,1,38.22,49.807Z"/><path class="b" d="M32.716,49.233a.237.237,0,0,1-.236-.209,4.213,4.213,0,0,1,.324-1.9.238.238,0,0,1,.442.177,3.815,3.815,0,0,0-.293,1.666.239.239,0,0,1-.209.264Z"/><path class="b" d="M37.066,67.039a.272.272,0,0,1-.049,0,.239.239,0,0,1-.185-.282c.276-1.326,1.216-5.691,1.724-6.159a20.077,20.077,0,0,1,3.019-1.6.238.238,0,0,1,.194.435,19.894,19.894,0,0,0-2.89,1.514A32.5,32.5,0,0,0,37.3,66.85.239.239,0,0,1,37.066,67.039Z"/><path class="b" d="M90.012,51.154s.625-1.5,1.428-1.206a2.8,2.8,0,0,1,1.608,1.41C93.159,51.779,90.324,51.31,90.012,51.154Z"/><path class="b" d="M84.634,59.676s9.618-7.786,9.061-7.942a21.3,21.3,0,0,0-3.934-.525C89.643,51.358,84.8,58.759,84.634,59.676Z"/><path class="b" d="M103.137,88.2a.239.239,0,0,1-.237-.213c-.727-6.742-3.717-22.39-3.747-22.547a.238.238,0,0,1,.468-.09c.03.157,3.023,15.824,3.753,22.586a.238.238,0,0,1-.212.262Z"/><path class="b" d="M73.639,71.555s-.7,4.354-.3,4.488S75.069,74.9,75.069,74.9l-3.833,6.788S72.4,72.928,73.639,71.555Z"/><path class="b" d="M58.3,96.4s-.718,3.131-.393,3.014a17.363,17.363,0,0,0,1.832-1.349s-3.046,4.379-3.28,3.96S58.3,96.4,58.3,96.4Z"/><path class="b" d="M59.409,91.511a1.518,1.518,0,0,1-1.315.785c-2.133-5.8-5.18-18.933-5.18-18.933a35.294,35.294,0,0,0,.357,4.249c.393,3.342,4.5,18.338,4.5,18.338l.622-.872a.5.5,0,0,0,.087.049c.742.3,2.907-6.7,2.907-6.7S59.911,90.674,59.409,91.511Z"/><path class="b" d="M53.364,115.061l10.368-9.883S52.4,119.033,52.345,118.163,52.712,118.24,53.364,115.061Z"/><path class="b" d="M83.767,91.11a.238.238,0,0,1-.121-.444L86.323,89.1a.238.238,0,1,1,.24.411l-2.676,1.565A.241.241,0,0,1,83.767,91.11Z"/><path class="b" d="M101.067,122.151a.238.238,0,0,1-.141-.046l-2.731-2a.238.238,0,0,1,.282-.384l2.731,2a.238.238,0,0,1-.141.43Z"/><path class="b" d="M53.913,112.6a.238.238,0,0,1-.236-.21c-.005-.044-.531-4.468-.721-5.249-.151-.621-3.433-8.614-5.147-12.754a.238.238,0,0,1,.44-.182c.2.49,4.973,12.012,5.17,12.824s.709,5.122.731,5.3a.239.239,0,0,1-.208.265Z"/><path class="b" d="M51.332,102.341s.836,5.743,1.008,7.083.671,7.213.847,6.425.762-3.656.762-3.656a42.486,42.486,0,0,0-.938-5.624C52.568,105.42,51.332,102.341,51.332,102.341Z"/><path class="b" d="M46.031,97.006a.238.238,0,0,1-.213-.344l1.922-3.884a.238.238,0,0,1,.427.211l-1.923,3.884A.237.237,0,0,1,46.031,97.006Z"/><path class="b" d="M62.858,48.518a.22.22,0,0,1-.05-.006.238.238,0,0,1-.183-.282,18.879,18.879,0,0,0,.549-3.658,6.635,6.635,0,0,0-1.38-1.328.285.285,0,0,1-.186-.093c-.059-.064-.214-.234-.023-1.5a.238.238,0,1,1,.47.071,5.892,5.892,0,0,0-.082,1.086A6.3,6.3,0,0,1,63.6,44.352c.218.389-.223,2.659-.5,3.977A.239.239,0,0,1,62.858,48.518Zm-.874-5.65h0Zm-.168-.1a.2.2,0,0,1,.034,0,.208.208,0,0,0-.044,0Z"/><path class="b" d="M67.254,115.125a.485.485,0,0,1-.13-.018.477.477,0,0,1-.329-.588c.154-.544,3.8-13.362,6.218-17.042a.476.476,0,1,1,.8.523c-2.338,3.558-6.06,16.647-6.1,16.779A.478.478,0,0,1,67.254,115.125Z"/><path class="b" d="M71.552,102.359s-1.037,4.453-.485,4.514,3.186-2.706,3.186-2.706-3.84,5.147-4.606,6.15-1.864,2.521-1.864,2.521S70.771,103.252,71.552,102.359Z"/><path class="b" d="M123.524,124.762H4.476a.476.476,0,1,1,0-.952H123.524a.476.476,0,0,1,0,.952Z"/></svg>