<svg xmlns="http://www.w3.org/2000/svg" viewBox="0 0 128 128"><defs><style>.a{fill:#fff;}.b{fill:#231f20;}</style></defs><path class="a" d="M68.939,65.792A16.581,16.581,0,0,1,64,66.809c-2.084,0-3.856-1.875-4.981-3.142v5.682a.477.477,0,0,1-.476.477H56.509l-3.523.376a11.018,11.018,0,0,0,20.483,5.267c-2.634-.685-4.677-2.031-4.677-4.189,0-1.125.048-2.262.118-3.326Z"/><path class="a" d="M37.964,101.053c.462-1.616,1.054-3.861,1.494-5.553-2.518-3.187-4.629-9.277-5.774-13.051L27.9,94.344a.238.238,0,1,1-.428-.209l6.014-12.36c-.2-.66-.353-1.223-.471-1.655-2.72,5.283-6.836,14.265-10.051,21.535l.76,3.846c3.275,1.83,9.288,4.909,13.053,5.148A59.977,59.977,0,0,1,37.964,101.053Z"/><path class="a" d="M21.766,104.373c.3.181.79.468,1.409.82l-.55-2.779C22.33,103.085,22.042,103.74,21.766,104.373Z"/><path class="a" d="M106.234,104.373c-.276-.633-.564-1.288-.859-1.958l-.55,2.778C105.445,104.841,105.932,104.554,106.234,104.373Z"/><path class="a" d="M36.865,111.607a23.812,23.812,0,0,1-7.629-2.252c.156,2.36.626,9.365.94,12.9.042.471.077.993.1,1.555H41.687a33.846,33.846,0,0,0-2.2-5.555A43.285,43.285,0,0,1,36.865,111.607Z"/><path class="a" d="M97.893,87.673a.238.238,0,0,1-.408.247c-.935-1.545-2.111-3.456-3.238-5.247-1.159,3.787-3.237,9.7-5.7,12.827.44,1.692,1.033,3.938,1.494,5.553a59.977,59.977,0,0,1,1.19,9.6c3.765-.239,9.778-3.318,13.053-5.148l.76-3.846c-3.215-7.27-7.331-16.252-10.051-21.535-.135.495-.323,1.161-.558,1.947C96.023,84.592,97.572,87.144,97.893,87.673Z"/><path class="a" d="M48.343,45.325a.475.475,0,0,1,.394.449c0,.067.325,6.794,3.671,10.369.247.263.491.527.734.789a25.669,25.669,0,0,0,5.583,5c.018.008.038.013.056.023a11,11,0,0,0,4.907,1.466l.1.006c.237.013.477.021.721.021.19,0,.379-.006.568-.017.072,0,.142-.011.212-.017.114-.008.228-.018.342-.031.091-.01.181-.022.271-.035s.176-.025.264-.04c.105-.018.21-.037.313-.057l.187-.041c4.467-.987,7.265-4.781,7.473-5.822a7.748,7.748,0,0,1,.605-1.5,17.8,17.8,0,0,0,1.7-12.152A56.725,56.725,0,0,0,74.3,36.457c-2.75-.62-7.383.751-7.434.766a.469.469,0,0,1-.137.02.476.476,0,0,1-.137-.932,21.384,21.384,0,0,1,7.334-.882l-.007-.019c-.241-.659-.466-1.28-.674-1.883a23.145,23.145,0,0,0-3.79-4.967C63.748,22.851,64.176,22.5,57.83,22.5a8.03,8.03,0,0,0-6.623,3.225,16.378,16.378,0,0,0-1.749,5.912,46.435,46.435,0,0,1-1.066,6.575c-.206.974-.4,1.893-.526,2.656a10.459,10.459,0,0,1-.564,1.91c-.288.783-.561,1.523-.333,1.919C47.133,44.984,47.6,45.2,48.343,45.325Zm4.781-4.843a.238.238,0,0,1-.136-.433,5.642,5.642,0,0,1,6.1-.455.238.238,0,0,1-.217.424,5.189,5.189,0,0,0-5.612.422A.244.244,0,0,1,53.124,40.482Zm5.221,3.6a1.852,1.852,0,0,1-1.637,1.31,2.161,2.161,0,0,1-1.835-2.38,2.162,2.162,0,0,1,1.835-2.381,1.852,1.852,0,0,1,1.637,1.31,1.088,1.088,0,0,0,0,2.141Zm14.279,0a1.855,1.855,0,0,1-1.638,1.31,2.162,2.162,0,0,1-1.835-2.38,2.162,2.162,0,0,1,1.835-2.381,1.855,1.855,0,0,1,1.638,1.31,1.088,1.088,0,0,0,0,2.141Zm-4.283-4.489a5.642,5.642,0,0,1,6.1.455.238.238,0,0,1-.136.433.242.242,0,0,1-.136-.042,5.189,5.189,0,0,0-5.612-.422.238.238,0,1,1-.217-.424ZM67.229,53.445a.554.554,0,0,1,.547.631,4.755,4.755,0,0,1-9.426,0,.555.555,0,0,1,.548-.631Zm-5.886-5.809a.476.476,0,1,1,.927.217c-.005.021-.27,1.283.422,1.629a.477.477,0,0,1-.213.9.47.47,0,0,1-.213-.051C60.888,49.645,61.324,47.717,61.343,47.636ZM52.051,35.827c2.87-1.283,8.6.411,8.842.484a.476.476,0,0,1-.137.932.457.457,0,0,1-.136-.02c-.056-.017-5.633-1.665-8.18-.526a.477.477,0,0,1-.389-.87Z"/><path class="a" d="M94.088,81.526c.267-.9.462-1.614.575-2.033A15.766,15.766,0,0,0,92.3,75.67a42.967,42.967,0,0,0-5.381-1.994,15.8,15.8,0,0,1-1.775.915,52.981,52.981,0,0,1,5.514,2A36.54,36.54,0,0,1,94.088,81.526Z"/><path class="a" d="M91.135,111.607a43.285,43.285,0,0,1-2.617,6.65,33.967,33.967,0,0,0-2.216,5.555H97.721c.027-.563.061-1.086.1-1.555.314-3.537.784-10.542.94-12.9A23.812,23.812,0,0,1,91.135,111.607Z"/><path class="a" d="M90.3,111.085c-.042-.768-.4-7.062-1.176-9.771-.837-2.931-2.1-7.924-2.117-7.974a.476.476,0,1,1,.923-.234c0,.019.191.75.464,1.808,2.384-3.219,4.42-9.161,5.516-12.781A44.09,44.09,0,0,0,90.4,76.986a62.892,62.892,0,0,0-5.932-2.115,17.323,17.323,0,0,1-2.833.829,19.266,19.266,0,0,1-5.213.253c-2.391,6.269-9.1,7.284-9.179,7.3a.183.183,0,0,1-.033,0,.238.238,0,0,1-.032-.473,12.782,12.782,0,0,0,4.845-1.991,10.381,10.381,0,0,0,3.92-4.878c-.507-.054-1.008-.126-1.5-.22a11.971,11.971,0,0,1-22.406-5.383c-.478.14-1,.294-1.556.459.327,3.283,1.754,8.748,7.447,11.31a.238.238,0,0,1-.1.455.243.243,0,0,1-.1-.021c-5.852-2.633-7.359-8.2-7.715-11.606C44.781,72.464,37.083,74.861,35.7,75.67a15.766,15.766,0,0,0-2.367,3.823c.1.356.251.922.459,1.638l1.51-3.1a.238.238,0,0,1,.428.208L34,81.808c1.071,3.581,3.158,9.789,5.614,13.106.273-1.058.459-1.789.464-1.808A.476.476,0,1,1,41,93.34c-.013.05-1.28,5.043-2.117,7.974-.774,2.709-1.134,9-1.176,9.771a43.455,43.455,0,0,0,2.625,6.738,34.749,34.749,0,0,1,2.348,5.989H85.311a34.81,34.81,0,0,1,2.36-5.989A43.316,43.316,0,0,0,90.3,111.085Zm-41.572,1.992a1.78,1.78,0,0,1-1.776-1.886l.829-13.847a1.779,1.779,0,0,1,1.776-1.673H62l-9.726,17.406ZM65.018,95.671H71.86l-9.726,17.406H55.292ZM66.9,121.662a.238.238,0,0,1-.2.1.23.23,0,0,1-.136-.044c-3.175-2.229-5.014-.131-5.091-.04a.238.238,0,0,1-.363-.309c.021-.025,2.2-2.517,5.727-.04A.237.237,0,0,1,66.9,121.662Zm12.377-8.585H65.153l9.726-17.406h3.568a1.779,1.779,0,0,1,1.776,1.673l.829,13.847A1.78,1.78,0,0,1,79.276,113.077Z"/><path class="b" d="M64.513,64.4c-5.752,0-8.821-3.312-12.07-6.818q-.363-.392-.731-.786c-3.156-3.372-3.788-9.08-3.9-10.6a2.4,2.4,0,0,1-1.665-1.013c-.451-.782-.1-1.726.265-2.724a9.7,9.7,0,0,0,.517-1.734c.128-.785.325-1.716.534-2.7a45.761,45.761,0,0,0,1.047-6.435c.225-3.707,2.8-11.362,9.323-11.362a23.3,23.3,0,0,1,9.827,2.3c3.3,1.627,5.216,3.767,5.408,6.024a24.392,24.392,0,0,0,1.751,6.542,61.8,61.8,0,0,1,2.567,8.445A18.66,18.66,0,0,1,75.61,56.29a7.964,7.964,0,0,0-.533,1.281C74.726,59.325,70.549,64.4,64.513,64.4ZM57.83,21.172c-6.425,0-8.238,8.256-8.372,10.467a46.435,46.435,0,0,1-1.066,6.575c-.206.974-.4,1.893-.526,2.656a10.459,10.459,0,0,1-.564,1.91c-.288.783-.561,1.523-.333,1.919.164.285.627.5,1.374.626a.475.475,0,0,1,.394.449c0,.067.325,6.794,3.671,10.369.247.263.491.527.734.789,3.238,3.494,6.035,6.512,11.371,6.512,5.711,0,9.39-4.86,9.63-6.06a7.748,7.748,0,0,1,.605-1.5,17.8,17.8,0,0,0,1.7-12.152,60.684,60.684,0,0,0-2.532-8.324,25.168,25.168,0,0,1-1.805-6.789C71.765,24.5,64.013,21.172,57.83,21.172Z"/><path class="b" d="M69.361,70.311h-.006a.477.477,0,0,1-.47-.483l.086-6.366a11.139,11.139,0,0,1-4.458.935,12.148,12.148,0,0,1-5.494-1.239v6.191a.476.476,0,1,1-.952,0V62.364a.476.476,0,0,1,.714-.413,11.158,11.158,0,0,0,5.732,1.493,10.32,10.32,0,0,0,4.728-1.161.475.475,0,0,1,.692.43l-.1,7.128A.476.476,0,0,1,69.361,70.311Z"/><path class="b" d="M37.224,111.616c-5.5,0-15.873-6.375-16.312-6.646a.476.476,0,0,1-.186-.6c2.057-4.717,12.425-28.311,14.5-29.526s16-5.3,16.592-5.471a.468.468,0,0,1,.083-.016l4.536-.485a.407.407,0,0,1,.05,0h2.06a.477.477,0,0,1,0,.953H56.509l-4.468.477C47.052,71.764,37.275,74.749,35.7,75.67c-1.381.819-9.207,17.874-13.938,28.7,1.82,1.089,10.228,5.973,15.008,6.276a59.977,59.977,0,0,1,1.19-9.6c.834-2.919,2.1-7.9,2.11-7.947A.476.476,0,1,1,41,93.34c-.013.05-1.28,5.043-2.117,7.974-.821,2.873-1.177,9.78-1.18,9.85A.477.477,0,0,1,37.224,111.616Z"/><path class="b" d="M39.906,95.909a.236.236,0,0,1-.181-.083c-3.863-4.516-6.835-16.142-6.959-16.635a.238.238,0,1,1,.461-.116c.03.119,3.07,12.01,6.859,16.441a.238.238,0,0,1-.18.393Z"/><path class="b" d="M42.318,124.765a.477.477,0,0,1-.459-.352,33.7,33.7,0,0,0-2.377-6.156,43.657,43.657,0,0,1-2.716-6.987.476.476,0,0,1,.916-.26,43.642,43.642,0,0,0,2.647,6.813,34.566,34.566,0,0,1,2.449,6.341.475.475,0,0,1-.335.584A.448.448,0,0,1,42.318,124.765Z"/><path class="b" d="M29.823,124.767a.476.476,0,0,1-.475-.458c-.028-.725-.069-1.387-.12-1.968-.381-4.283-.989-13.627-1-13.721a.477.477,0,0,1,.951-.062c.006.094.613,9.426.992,13.7.053.6.1,1.275.124,2.015a.476.476,0,0,1-.458.494Z"/><path class="b" d="M90.776,111.616a.477.477,0,0,1-.476-.452c0-.07-.359-6.977-1.18-9.85-.837-2.931-2.1-7.924-2.117-7.974a.476.476,0,1,1,.923-.234c.013.05,1.276,5.029,2.11,7.947a59.977,59.977,0,0,1,1.19,9.6c4.78-.3,13.188-5.187,15.008-6.276C101.5,93.544,93.677,76.489,92.3,75.67c-1.569-.92-11.316-3.9-16.312-5.359H69.361a.477.477,0,0,1,0-.953h6.691a.5.5,0,0,1,.134.019c.592.174,14.522,4.258,16.592,5.471s12.439,24.809,14.5,29.526a.476.476,0,0,1-.186.6C106.649,105.241,96.272,111.616,90.776,111.616Z"/><path class="b" d="M88.094,95.909a.238.238,0,0,1-.18-.393c3.789-4.431,6.829-16.322,6.859-16.441a.238.238,0,1,1,.461.116c-.124.493-3.1,12.119-6.959,16.635A.236.236,0,0,1,88.094,95.909Z"/><path class="b" d="M85.67,124.765a.441.441,0,0,1-.124-.017.477.477,0,0,1-.336-.584,34.536,34.536,0,0,1,2.461-6.341,43.649,43.649,0,0,0,2.647-6.813.476.476,0,0,1,.916.26,43.657,43.657,0,0,1-2.716,6.987,33.59,33.59,0,0,0-2.388,6.156A.478.478,0,0,1,85.67,124.765Z"/><path class="b" d="M98.177,124.765h-.019a.475.475,0,0,1-.457-.494c.028-.741.07-1.419.123-2.013.379-4.273.986-13.605.992-13.7a.477.477,0,0,1,.951.062c-.006.094-.614,9.438-.995,13.721-.051.579-.092,1.241-.12,1.966A.476.476,0,0,1,98.177,124.765Z"/><path class="b" d="M93.458,55.987c-2.5-10.385-5.289-15.771-4.135-22.6s.769-9.424-7.982-19.136S61.628,2.521,56.82,8.964c0,0-8.71.769-10.413,8.173s-5.358,14.04-5.069,19.521-5.193,9.04-1.924,16.06S45.569,66.757,43.549,70.8a4.074,4.074,0,0,0-.47,1.739c4.343-1.376,8.869-2.7,8.869-2.7l4.535-.485h1.591a9.423,9.423,0,0,0,.469-3.073V62.364c-2.473-1.427-4.384-3.653-6.483-5.9-3.51-3.75-3.8-10.674-3.8-10.674-3.317-.577-1.25-2.645-.865-5s1.394-6.01,1.587-9.183,2.5-9.108,8.847-9.108,5.918.349,11.627,6.058c3.208,3.208,5.778,7.521,7.461,15.07s-2.02,12.4-2.308,13.848c-.2.989-2.071,3.653-5.153,5.229a66.02,66.02,0,0,0-.665,8.573c0,4.3,8.1,5.378,12.838,4.42C90.188,73.969,95.958,66.373,93.458,55.987Z"/><path class="b" d="M60.756,37.243a.457.457,0,0,1-.136-.02c-.056-.017-5.633-1.665-8.18-.526a.477.477,0,0,1-.389-.87c2.87-1.283,8.6.411,8.842.484a.476.476,0,0,1-.137.932Z"/><path class="b" d="M66.731,37.243a.476.476,0,0,1-.137-.932c.242-.073,5.972-1.767,8.842-.484a.477.477,0,0,1-.389.87c-2.55-1.141-8.123.509-8.179.526A.469.469,0,0,1,66.731,37.243Z"/><path class="b" d="M62.479,50.385a.47.47,0,0,1-.213-.051c-1.378-.689-.942-2.617-.923-2.7a.476.476,0,1,1,.927.217c-.005.021-.27,1.283.422,1.629a.477.477,0,0,1-.213.9Z"/><path class="b" d="M57.453,43.013a1.09,1.09,0,0,1,.892-1.071,1.852,1.852,0,0,0-1.637-1.31,2.162,2.162,0,0,0-1.835,2.381,2.161,2.161,0,0,0,1.835,2.38,1.852,1.852,0,0,0,1.637-1.31A1.089,1.089,0,0,1,57.453,43.013Z"/><path class="b" d="M71.731,43.013a1.09,1.09,0,0,1,.892-1.071,1.852,1.852,0,0,0-1.637-1.31,2.162,2.162,0,0,0-1.835,2.381,2.162,2.162,0,0,0,1.835,2.38,1.852,1.852,0,0,0,1.637-1.31A1.089,1.089,0,0,1,71.731,43.013Z"/><path class="b" d="M53.124,40.482a.238.238,0,0,1-.136-.433,5.642,5.642,0,0,1,6.1-.455.238.238,0,0,1-.217.424,5.189,5.189,0,0,0-5.612.422A.244.244,0,0,1,53.124,40.482Z"/><path class="b" d="M74.306,40.482a.242.242,0,0,1-.136-.042,5.189,5.189,0,0,0-5.612-.422.238.238,0,1,1-.217-.424,5.642,5.642,0,0,1,6.1.455.238.238,0,0,1-.136.433Z"/><path class="b" d="M67.229,53.445H58.9a.555.555,0,0,0-.548.631,4.755,4.755,0,0,0,9.426,0A.554.554,0,0,0,67.229,53.445Z"/><path class="b" d="M64,81.81A11.99,11.99,0,0,1,52.024,69.834a.477.477,0,0,1,.953,0,11.023,11.023,0,1,0,22.046,0,.477.477,0,0,1,.953,0A11.99,11.99,0,0,1,64,81.81Z"/><path class="b" d="M58.543,63.131c1.058,1.175,3.05,3.678,5.457,3.678a17.745,17.745,0,0,0,5.457-1.2V62.707a10.811,10.811,0,0,1-4.944,1.213,11.578,11.578,0,0,1-5.97-1.556Z"/><polygon class="b" points="62.134 113.077 71.86 95.671 65.018 95.671 55.292 113.077 62.134 113.077"/><path class="b" d="M80.223,97.344a1.779,1.779,0,0,0-1.776-1.673H74.879l-9.726,17.406H79.276a1.78,1.78,0,0,0,1.776-1.886Z"/><path class="b" d="M48.724,113.077h3.549L62,95.671H49.553a1.779,1.779,0,0,0-1.776,1.673l-.829,13.847A1.78,1.78,0,0,0,48.724,113.077Z"/><path class="b" d="M23.57,106.2a.237.237,0,0,1-.233-.192l-.937-4.738a.238.238,0,1,1,.467-.093l.937,4.738a.241.241,0,0,1-.234.285Z"/><path class="b" d="M104.43,106.2a.241.241,0,0,1-.234-.285l.937-4.738a.239.239,0,0,1,.468.093l-.938,4.738A.237.237,0,0,1,104.43,106.2Z"/><path class="b" d="M66.7,121.764a.23.23,0,0,1-.136-.044c-3.162-2.22-5.014-.13-5.091-.04a.238.238,0,0,1-.363-.309c.021-.025,2.2-2.517,5.727-.04a.238.238,0,0,1-.137.433Z"/><path class="b" d="M57.83,82.529a.243.243,0,0,1-.1-.021c-8.71-3.919-7.8-14.343-7.784-14.448a.238.238,0,0,1,.474.046c-.01.1-.889,10.191,7.505,13.968a.238.238,0,0,1-.1.455Z"/><path class="b" d="M67.205,83.25a.238.238,0,0,1-.032-.473,12.782,12.782,0,0,0,4.845-1.991c3.186-2.179,4.787-5.481,4.758-9.816a.238.238,0,0,1,.236-.24h0a.238.238,0,0,1,.238.236c.073,10.759-9.913,12.268-10.014,12.282A.183.183,0,0,1,67.205,83.25Z"/><path class="b" d="M97.689,88.034a.238.238,0,0,1-.2-.114c-2.443-4.035-6.528-10.571-7.09-10.934-.648-.42-6.39-2.275-8.548-2.954a.238.238,0,1,1,.143-.454c.319.1,7.829,2.468,8.664,3.008S97.24,86.6,97.893,87.673a.238.238,0,0,1-.2.361Z"/><path class="b" d="M27.683,94.477a.237.237,0,0,1-.214-.342l7.837-16.107a.238.238,0,0,1,.428.208L27.9,94.344A.238.238,0,0,1,27.683,94.477Z"/><path class="b" d="M123.524,124.765H4.476a.477.477,0,0,1,0-.953H123.524a.477.477,0,0,1,0,.953Z"/></svg>