<svg xmlns="http://www.w3.org/2000/svg" viewBox="0 0 128 128"><defs><style>.a{fill:#fff;}.b{fill:#231f20;}</style></defs><path class="a" d="M70.985,61.685a.482.482,0,0,1-.481.408h-.168c-3.708,0-7.767,2.479-8.583,5.272-.6,2.049.56,4.033,3.352,5.736,3.861,2.356,7.85,2.821,11.232,1.308a9.6,9.6,0,0,0,1.441-.8c.494-2.8,3-7.086,4.661-12.225C76.08,61.29,72.5,59.635,71.316,58.97,71.116,60.762,70.987,61.674,70.985,61.685Z"/><path class="a" d="M31.927,95.963A46.056,46.056,0,0,0,43.5,98.618c.2-1.535.567-3.368,1.027-5.342a3.852,3.852,0,0,1-1.322-.892,1.777,1.777,0,0,1,.78-3.1.476.476,0,0,1,.3.9,1.053,1.053,0,0,0-.729.621,1.068,1.068,0,0,0,.347.921,2.825,2.825,0,0,0,.85.6c.484-1.992,1.052-4.1,1.642-6.167a3.85,3.85,0,0,1-1.312-.887,1.925,1.925,0,0,1-.571-1.815,1.892,1.892,0,0,1,1.278-1.257.477.477,0,0,1,.322.9,1.02,1.02,0,0,0-.679.6,1.068,1.068,0,0,0,.346.921,2.866,2.866,0,0,0,.881.613c.555-1.912,1.12-3.772,1.646-5.458a3.809,3.809,0,0,1-1.2-.84,1.925,1.925,0,0,1-.571-1.815,1.83,1.83,0,0,1,1.079-1.176.476.476,0,1,1,.391.868.921.921,0,0,0-.549.552,1.068,1.068,0,0,0,.346.921,2.813,2.813,0,0,0,.8.572c.9-2.843,1.646-5.082,1.975-6.053-2.467-.583-5.924-1.7-8.74-2.61-1.632-.527-3.04-.982-3.907-1.221l-.006,0c-.315.013-.637.02-.968.02a22.7,22.7,0,0,1-2.524-.139,18.182,18.182,0,0,1-2.354-.414c-.409,1.108-1.228,3.479-1.64,4.75,3.022.545,6.6,1.456,7.363,2.791a1,1,0,0,1-.109,1.2c-.838.985-4.25,1.428-7.03,1.574,2.6.78,5.711,1.911,6.384,3.02a1.03,1.03,0,0,1,.143.8c-.185.738-1.067,1.437-6.212,1.02-.461-.038-.921-.081-1.368-.128l.623.252c4.7,1.926,4.736,2.423,4.765,2.786a.708.708,0,0,1-.278.607c-.933.8-5.331,1.241-8.37,1.122,2.044,1.333,4.94,3.448,5.02,4.774a.913.913,0,0,1-.56.9,2.818,2.818,0,0,1-1.185.2,20.444,20.444,0,0,1-9.688-3.349c2.889,7.161,7.364,17.257,9.2,18.419,2.1,1.326,7.564-1.061,11.725-3.572a24.458,24.458,0,0,1-.042-6.376,44.114,44.114,0,0,1-9.234-2.388.476.476,0,0,1,.351-.885Z"/><path class="a" d="M20.283,89.826c2.535,2.254,9.366,3.816,10.121,3.225-.115-.91-3.364-3.345-6.346-5.1a.476.476,0,0,1,.355-.873,24.541,24.541,0,0,0,9.464-.549,54.566,54.566,0,0,0-8.416-3.609A.476.476,0,0,1,25.7,82c.026,0,2.6.427,5.219.646,4.951.414,5.331-.286,5.334-.293s-.062-.768-4.537-2.24c-2.378-.783-4.785-1.361-4.809-1.367h0a.536.536,0,0,1-.057-.016.476.476,0,0,1,.278-.909l.066.016c.876.146,7.979-.055,9.6-1.124.175-.116.2-.186.2-.186a.166.166,0,0,0-.026-.064c-.552-.966-3.944-1.838-7.208-2.406a.435.435,0,0,1-.088-.013l-.008,0c-1.244-.215-2.466-.385-3.5-.5a.476.476,0,0,1,.1-.947c.538.059,1.759.2,3.216.442.241-.746.662-1.989,1.053-3.113-7.108-.019-11.524,2.029-13.116,6.092-1.231,3.143-.514,6.954.582,9.809a.446.446,0,0,1,.039.079l.092.249A11.28,11.28,0,0,0,20.283,89.826Z"/><path class="a" d="M43.452,67.107a27.135,27.135,0,0,1,.184-6.062,16.777,16.777,0,0,1,.3-1.779l-1.861-.208a.239.239,0,0,1-.21-.263l.04-.354L39.9,59.6a.239.239,0,0,1-.119.032.244.244,0,0,1-.079-.014.238.238,0,0,1-.143-.138l-.367-.944c-.744.343-1.5.706-1.6.782a.241.241,0,0,1-.334-.042.237.237,0,0,1,.038-.331c.185-.148,1.52-.763,1.925-.948a.238.238,0,0,1,.321.13l.358.921,2.173-1.256a.242.242,0,0,1,.25.007.239.239,0,0,1,.106.226l-.066.586,1.677.188c.188-.794.4-1.534.547-2.042.254-.853.441-1.438.59-1.84l-15.14-1.7C29.6,54.77,27.993,60.8,28.215,65.45c.347.394,1.994,1.981,6.311,2.466A23.107,23.107,0,0,0,43.452,67.107ZM32.286,61.973a.242.242,0,0,1-.05-.176l.054-.482-.97.571a.238.238,0,1,1-.242-.41l1.381-.812a.238.238,0,0,1,.357.231l-.08.719,5.335.6a.238.238,0,0,1-.027.474h-.026l-5.572-.625A.241.241,0,0,1,32.286,61.973Z"/><path class="a" d="M43.457,53.765c-.023-.026-.043-.054-.065-.08-.046-.054-.092-.109-.135-.166s-.066-.089-.1-.135-.079-.118-.116-.179-.058-.095-.085-.144-.067-.126-.1-.19-.048-.1-.07-.151c-.029-.067-.055-.134-.079-.2-.019-.051-.039-.1-.055-.156-.023-.071-.041-.143-.059-.215-.013-.053-.028-.105-.039-.158-.016-.076-.026-.154-.037-.231-.007-.052-.017-.1-.022-.154-.009-.087-.011-.174-.014-.262,0-.044-.005-.088-.005-.133a3.9,3.9,0,0,1,.023-.4,3.765,3.765,0,0,1,1.4-2.538c.06-.047.121-.093.182-.137l-12.56-1.409h0l-1.14-.128a2.834,2.834,0,1,0-.632,5.633Z"/><path class="a" d="M45.865,54.031h.015a.449.449,0,0,1,.137.018,2.83,2.83,0,0,0,3.066-2.505h0a2.836,2.836,0,0,0-2.5-3.133c-.1-.011-.2-.016-.3-.017a2.883,2.883,0,0,0-.518.044c-.024,0-.046.01-.069.015-.062.013-.123.026-.183.043-.029.008-.058.018-.087.027q-.081.024-.159.054l-.091.036q-.077.033-.15.069l-.087.043q-.078.042-.153.09c-.024.014-.049.028-.072.044-.073.048-.145.1-.214.154a2.832,2.832,0,0,0,1.367,5.018Z"/><path class="a" d="M30.488,45.647l.781.088a57.149,57.149,0,0,1,2.272-5.289,67.8,67.8,0,0,1-13.229-3.612,43.369,43.369,0,0,0-1.678,11,36.327,36.327,0,0,0,7.741,2.405,3.729,3.729,0,0,1-.072-1.252A3.791,3.791,0,0,1,30.488,45.647ZM25.865,47.2a.256.256,0,0,1-.047,0c-2.019-.4-3.864-.983-3.883-.989a.238.238,0,0,1,.143-.454c.012,0,.757.237,1.811.509.316-1.659,1.007-4.163,1.287-5.15l-1.142.345A.238.238,0,0,1,23.9,41l1.56-.471a.235.235,0,0,1,.236.059.237.237,0,0,1,.061.235c-.01.036-1.011,3.489-1.4,5.555.485.119,1.015.241,1.559.35a.238.238,0,0,1-.046.471Z"/><path class="a" d="M110.108,86.527a5.03,5.03,0,0,1-.532-.383c-.378-.307-.781-.6-1.2-.877a49.521,49.521,0,0,1,.818,8.918,55.142,55.142,0,0,1-1.276,11.879.237.237,0,0,1-.23.179.233.233,0,0,1-.059-.008.238.238,0,0,1-.172-.29,54.7,54.7,0,0,0,1.261-11.765,49.8,49.8,0,0,0-.888-9.261c-4.905-3-12.181-4.36-17.582-5.433-2.417-.48-7.237-.721-10.185-2.084a15.428,15.428,0,0,1-6.918,1.648,14.52,14.52,0,0,1-5.4-1.038.238.238,0,1,1,.176-.442,14.623,14.623,0,0,0,11.619-.437A4.408,4.408,0,0,1,78.1,75.942a2.231,2.231,0,0,1-.4-1.17,10.623,10.623,0,0,1-.978.506,11.029,11.029,0,0,1-4.532.957,14.639,14.639,0,0,1-7.585-2.322c-4.253-2.6-4.187-5.385-3.769-6.817.919-3.148,5.176-5.853,9.258-5.954.028-.214.066-.512.112-.893-2.277.316-5,.7-7.757,1.114-1.715,1.1-4.131,3.082-4.524,5.685-.327,2.167.8,4.4,3.353,6.648a.239.239,0,0,1,.022.336.241.241,0,0,1-.179.081.236.236,0,0,1-.157-.06c-2.682-2.359-3.863-4.74-3.51-7.078.362-2.39,2.237-4.244,3.89-5.448-6.148.921-12.18,1.906-13.5,2.376-.321.115-2.686,1.267-3.512,1.687.019.607.048,1.216.083,1.829a.475.475,0,0,1-.313.474,20.1,20.1,0,0,1-3.7.856c.528.169,1.1.354,1.7.549,3,.969,6.733,2.175,9.169,2.7a.475.475,0,0,1,.349.62c-.016.048-.453,1.326-1.105,3.33a3.957,3.957,0,0,1,1.58.991,1.927,1.927,0,0,1,.572,1.814,2.346,2.346,0,0,1-2.463,1.453,4.6,4.6,0,0,1-1.008-.119c-.21.674-.427,1.376-.646,2.1,1.427.563,2.382,1.831,2.1,2.9A2.346,2.346,0,0,1,48.2,86.544a4.52,4.52,0,0,1-.894-.093c-.275.963-.544,1.933-.8,2.9a4.012,4.012,0,0,1,1.712,1.036,1.781,1.781,0,0,1-.821,3.109,3.6,3.6,0,0,1-1.075.156,4.512,4.512,0,0,1-.879-.089,52.693,52.693,0,0,0-1.055,5.628.477.477,0,0,1-.473.422h-.033c-.023,0-.836-.061-2.128-.235-.541,4.3.257,7.809,1.035,11.2a45.227,45.227,0,0,1,1.074,5.891,40.043,40.043,0,0,1-.1,7.347H79.716a131.082,131.082,0,0,1,11.417-9.773c-.091-2.213-.668-17.093.015-21.809a.476.476,0,1,1,.943.137c-.618,4.26-.164,17.508-.03,21.023a28.561,28.561,0,0,1,3.025-1.766.477.477,0,0,1,.433.849,27.337,27.337,0,0,0-3.624,2.19,119.681,119.681,0,0,0-10.779,9.149h24.507c1.3-2.963,4.141-10.838,5.231-25.01A37.882,37.882,0,0,0,110.108,86.527ZM64.642,115.886a.24.24,0,0,1-.31.131c-4.868-1.976-8.027-1.372-8.059-1.366a.238.238,0,0,1-.1-.466c.134-.028,3.319-.644,8.333,1.39A.239.239,0,0,1,64.642,115.886Z"/><path class="a" d="M71.1,57.317l.189.049c.132.033.265.065.4.094l.008,0h.006c.254.053.5.1.756.145l.147.026a18.874,18.874,0,0,0,11.181-1.185.519.519,0,0,1,.126-.037,17.687,17.687,0,0,0,5.65-4.207c.8-7.592,4.382-16.089,2.85-24.469-1.128-6.164-3.6-9.378-5.577-11.019a44.139,44.139,0,0,0-6.955-2.34c-1.554.606-6.84,2.784-9.665,5.367-1.65,1.509-3.964,3.219-5.775,6.777a9.928,9.928,0,0,1,7.9,2.89.489.489,0,0,1,.069.1c.063.131,1.535,3.231.592,6.046A15.31,15.31,0,0,1,70.76,39.5a6.054,6.054,0,0,0-.914,1.476,3.809,3.809,0,0,0,2.731,2.312.476.476,0,0,1-.02.951h-.022A4.613,4.613,0,0,1,68.9,41.068c-.055-.538.4-1.169,1.09-2.123a14.313,14.313,0,0,0,2.117-3.686,8.112,8.112,0,0,0-.52-5.27,9.122,9.122,0,0,0-7.609-2.473,32.341,32.341,0,0,0-2.318,12.041C61.787,44.108,62.957,55.114,71.1,57.317ZM85.23,37.578c-.235,1.612-1.293,2.793-2.363,2.637A2.143,2.143,0,0,1,81.34,38.16a1.032,1.032,0,0,0,.224.025,1.051,1.051,0,0,0,.034-2.1c.428-1.109,1.269-1.83,2.119-1.707C84.787,34.533,85.465,35.966,85.23,37.578Zm1.764-4.43a.238.238,0,0,1-.33.068,4.375,4.375,0,0,0-3.422-.807,4.9,4.9,0,0,0-2.77,2.06.238.238,0,1,1-.409-.245,5.321,5.321,0,0,1,3.073-2.279,4.832,4.832,0,0,1,3.79.873A.238.238,0,0,1,86.994,33.148Zm-7.93-4.1c.3-.127,7.474-3.051,11.641,1.571a.476.476,0,0,1-.707.638c-3.714-4.118-10.5-1.359-10.567-1.33a.476.476,0,0,1-.367-.879Zm-9.8,18.632c.475-.415.457.475,4.035.838s5.579-.727,5.519.971-2.426,2.365-5.155,1.031S68.786,48.093,69.259,47.68ZM65.752,31.4a.238.238,0,0,1,.111-.318c3.509-1.692,5.674,1.6,5.7,1.633a.238.238,0,1,1-.4.257,3.966,3.966,0,0,0-5.088-1.461A.238.238,0,0,1,65.752,31.4Zm.742,2.8c.412-1.014,1.192-1.668,1.98-1.553,1.012.147,1.653,1.5,1.431,3.027s-1.223,2.641-2.235,2.494a2.01,2.01,0,0,1-1.438-1.9,1.05,1.05,0,0,0,.262-2.066Z"/><path class="a" d="M34.544,38.471a133.249,133.249,0,0,1-13.234-4.1,16.441,16.441,0,0,0-.846,2.014A67.25,67.25,0,0,0,33.76,40C34.077,39.361,34.351,38.835,34.544,38.471Z"/><path class="a" d="M51.762,78.513a1.068,1.068,0,0,0-.347-.921,3.037,3.037,0,0,0-1.178-.735c-.229.711-.478,1.491-.74,2.322C50.675,79.423,51.622,79.044,51.762,78.513Z"/><path class="a" d="M49.744,84.848c.137-.518-.468-1.334-1.454-1.747-.238.794-.479,1.608-.717,2.43C48.706,85.736,49.607,85.365,49.744,84.848Z"/><path class="a" d="M47.111,92.583a.85.85,0,0,0,.41-1.552,3.087,3.087,0,0,0-1.26-.764c-.21.8-.411,1.591-.6,2.362A3.075,3.075,0,0,0,47.111,92.583Z"/><path class="b" d="M43.914,99.608h-.033a47.445,47.445,0,0,1-12.3-2.759.476.476,0,0,1,.351-.885A46.056,46.056,0,0,0,43.5,98.618c1.016-7.679,6.05-22.8,7.067-25.8-2.467-.583-5.924-1.7-8.74-2.61-1.632-.527-3.04-.982-3.907-1.221a.476.476,0,1,1,.253-.918c.887.244,2.3.7,3.947,1.233,3,.969,6.733,2.175,9.169,2.7a.475.475,0,0,1,.349.62c-.063.184-6.319,18.491-7.249,26.565A.477.477,0,0,1,43.914,99.608Z"/><path class="b" d="M29.8,74.063a.472.472,0,0,1-.138-.021.477.477,0,0,1-.318-.594c.313-1.031,1.59-4.753,1.981-5.744a.476.476,0,1,1,.886.35c-.358.907-1.619,4.564-1.955,5.671A.478.478,0,0,1,29.8,74.063Z"/><path class="b" d="M29.612,94.114c-2.672,0-7.946-1.784-9.962-3.576C18,89.07,14.26,81.458,16.528,75.667c1.8-4.6,6.731-6.85,14.68-6.69a.476.476,0,0,1,.467.485.471.471,0,0,1-.486.467c-7.494-.15-12.134,1.9-13.774,6.085-2.076,5.3,1.387,12.5,2.868,13.812,2.535,2.254,9.366,3.816,10.121,3.225-.115-.91-3.364-3.345-6.346-5.1a.476.476,0,0,1,.355-.873,24.542,24.542,0,0,0,9.465-.549,53.3,53.3,0,0,0-8.417-3.609A.476.476,0,0,1,25.7,82c.026,0,2.6.427,5.219.646,4.951.414,5.331-.286,5.334-.293s-.062-.767-4.532-2.239c-2.379-.783-4.79-1.362-4.814-1.368h0a.536.536,0,0,1-.057-.016.476.476,0,0,1,.278-.909l.066.016c.876.146,7.979-.055,9.6-1.124.175-.116.2-.186.2-.186a.166.166,0,0,0-.026-.064c-.768-1.345-7.035-2.506-10.8-2.921a.476.476,0,0,1,.1-.947c1.709.189,10.294,1.238,11.527,3.4a1,1,0,0,1-.109,1.2c-.838.985-4.25,1.428-7.03,1.574,2.6.78,5.711,1.911,6.384,3.02a1.03,1.03,0,0,1,.143.8c-.185.738-1.067,1.437-6.212,1.02-.461-.038-.921-.081-1.368-.128l.623.252c4.7,1.926,4.736,2.423,4.765,2.786a.708.708,0,0,1-.278.607c-.933.8-5.331,1.241-8.37,1.122,2.044,1.333,4.94,3.448,5.02,4.774a.913.913,0,0,1-.56.9A2.818,2.818,0,0,1,29.612,94.114Z"/><path class="b" d="M30.721,110.505a3.907,3.907,0,0,1-2.1-.516C25.655,108.117,18.44,89.766,17.142,86.23a.476.476,0,1,1,.894-.328c2.214,6.031,8.763,21.812,11.091,23.282,2.144,1.354,7.8-1.164,11.989-3.732a.477.477,0,0,1,.5.813C39.773,107.392,34.359,110.505,30.721,110.505Z"/><path class="b" d="M43.246,124.762a.31.31,0,0,1-.043,0,.477.477,0,0,1-.432-.517,40.736,40.736,0,0,0,.143-7.691,43.608,43.608,0,0,0-1.055-5.767c-.824-3.6-1.677-7.32-.989-12.017a.476.476,0,1,1,.942.138c-.662,4.52.17,8.153.976,11.666a45.227,45.227,0,0,1,1.074,5.891,41.623,41.623,0,0,1-.142,7.866A.477.477,0,0,1,43.246,124.762Z"/><path class="b" d="M76.475,58.931a24.281,24.281,0,0,1-4.97-.538c-4.869-1.017-8.279-4.97-9.862-11.433a35.99,35.99,0,0,1-.95-8.892,1.443,1.443,0,0,1-.472-.147,2.113,2.113,0,0,1-.991-1.434c-.448-1.684,1.935-6.593,2.427-7.58a33.39,33.39,0,0,1,2.1-3.552,78.326,78.326,0,0,0,4.692-8.144c3.421-6.978,12.4-4.153,19.843-.912,9.6,4.178,9.513,15.413,8.631,18.057-.659,1.974.161,4.441.651,5.915.121.364.225.679.287.923.372,1.478-.017,3.092-1.225,5.08a4.116,4.116,0,0,1-3.214,2.147,21.031,21.031,0,0,1-7.775,8.151A18.2,18.2,0,0,1,76.475,58.931ZM61.18,37.086a.481.481,0,0,1,.483.5c-.01.176-.866,17.6,10.037,19.876,12.344,2.579,18.465-4.993,21.014-9.737a.48.48,0,0,1,.459-.249,3.06,3.06,0,0,0,2.646-1.7c1.067-1.756,1.421-3.139,1.115-4.353-.053-.21-.152-.509-.267-.856-.527-1.586-1.409-4.242-.65-6.516a15.648,15.648,0,0,0-.422-7.934,13.693,13.693,0,0,0-7.686-8.949C77.432,12.61,71.693,12.751,69.3,17.63a79.505,79.505,0,0,1-4.744,8.238,32.4,32.4,0,0,0-2.037,3.444l-.007.014c-1.06,2.123-2.639,5.878-2.363,6.916a1.279,1.279,0,0,0,.5.826.527.527,0,0,0,.382.042A.465.465,0,0,1,61.18,37.086Zm.907-7.973h0Z"/><path class="b" d="M72.193,76.235a14.639,14.639,0,0,1-7.585-2.322c-4.253-2.6-4.187-5.385-3.769-6.817.919-3.148,5.176-5.853,9.258-5.954.073-.562.215-1.7.4-3.419a.476.476,0,0,1,.6-.41c.2.055.343.089.611.149a19.241,19.241,0,0,0,12.089-1.013.476.476,0,0,1,.67.49c-.542,4.5-1.027,7.928-1.44,10.177a10.916,10.916,0,0,1-10.829,9.119ZM70.336,62.092c-3.708,0-7.767,2.479-8.583,5.272-.6,2.049.56,4.033,3.352,5.736,3.861,2.356,7.85,2.821,11.232,1.308a10.119,10.119,0,0,0,5.748-7.464c.385-2.093.832-5.219,1.332-9.3a20.465,20.465,0,0,1-11.912.75H71.5l-.116-.026c-.238,2.194-.4,3.307-.4,3.319a.482.482,0,0,1-.481.408Z"/><path class="b" d="M90.352,31.414A.475.475,0,0,1,90,31.257c-3.714-4.118-10.5-1.359-10.567-1.33a.476.476,0,0,1-.367-.879c.3-.127,7.474-3.051,11.641,1.571a.477.477,0,0,1-.353.8Z"/><path class="b" d="M72.557,44.241h-.022A4.613,4.613,0,0,1,68.9,41.068c-.055-.538.4-1.169,1.09-2.123a14.313,14.313,0,0,0,2.117-3.686,8.112,8.112,0,0,0-.52-5.27,9.254,9.254,0,0,0-8.423-2.359A.476.476,0,1,1,63,26.692a10.138,10.138,0,0,1,9.351,2.719.489.489,0,0,1,.069.1c.063.131,1.535,3.231.592,6.046A15.31,15.31,0,0,1,70.76,39.5a6.054,6.054,0,0,0-.914,1.476,3.809,3.809,0,0,0,2.731,2.312.476.476,0,0,1-.02.951Z"/><path class="b" d="M105.908,49.868c-1.741-16.537-7.833-34.959-14.941-35.829L83.989,15.1s6.4,1.533,8.428,12.639S87.486,50.158,89.952,59.3,107.648,66.4,105.908,49.868Z"/><path class="b" d="M69.259,47.68c.475-.415.457.475,4.035.838s5.579-.727,5.519.971-2.426,2.365-5.155,1.031S68.786,48.093,69.259,47.68Z"/><path class="b" d="M105.932,124.763a.477.477,0,0,1-.434-.673c1.235-2.726,4.23-10.646,5.356-25.29.848-11.018-1.908-15.416-1.936-15.459a.476.476,0,0,1,.8-.521c.121.184,2.965,4.658,2.089,16.053-1.138,14.8-4.183,22.838-5.439,25.61A.474.474,0,0,1,105.932,124.763Z"/><path class="b" d="M91.619,114.749a.476.476,0,0,1-.475-.456c-.03-.694-.719-17.073,0-22.065a.476.476,0,1,1,.943.137c-.711,4.9,0,21.718,0,21.888a.475.475,0,0,1-.455.5Z"/><path class="b" d="M64.422,116.034a.236.236,0,0,1-.09-.017c-4.868-1.976-8.027-1.372-8.059-1.366a.238.238,0,0,1-.1-.466c.134-.028,3.319-.644,8.333,1.39a.238.238,0,0,1-.089.459Z"/><path class="b" d="M43.945,65.734a.476.476,0,0,1-.222-.9c.5-.26,3.362-1.67,3.808-1.83,2.6-.928,21.062-3.5,23.159-3.785a.476.476,0,1,1,.13.943C63.248,61.21,49.89,63.175,47.852,63.9c-.348.124-3.1,1.469-3.686,1.777A.477.477,0,0,1,43.945,65.734Z"/><path class="b" d="M61.124,74.113a.236.236,0,0,1-.157-.06c-2.682-2.359-3.863-4.74-3.51-7.078.656-4.338,6.3-6.918,6.545-7.026a.238.238,0,0,1,.194.435c-.056.025-5.652,2.582-6.268,6.664-.327,2.167.8,4.4,3.353,6.648a.239.239,0,0,1,.022.336A.241.241,0,0,1,61.124,74.113Z"/><path class="b" d="M73.143,79.05a14.52,14.52,0,0,1-5.4-1.038.238.238,0,1,1,.176-.442,14.592,14.592,0,0,0,12.136-.708.238.238,0,0,1,.247.407A15.116,15.116,0,0,1,73.143,79.05Z"/><path class="b" d="M107.686,106.243a.233.233,0,0,1-.059-.008.238.238,0,0,1-.172-.29,54.7,54.7,0,0,0,1.261-11.765A55.91,55.91,0,0,0,106.7,79.962a.238.238,0,1,1,.457-.135,56.426,56.426,0,0,1,2.04,14.358,55.142,55.142,0,0,1-1.276,11.879A.237.237,0,0,1,107.686,106.243Z"/><path class="b" d="M27.081,51.316a.472.472,0,0,1-.064-.005c-2.241-.3-7.814-1.871-9.144-2.833a.478.478,0,0,1-.2-.389c0-.376.092-9.271,2.989-14.539a.478.478,0,0,1,.581-.218c.1.035,9.561,3.478,14.111,4.331a.477.477,0,0,1,.328.7,59.944,59.944,0,0,0-3.648,8.045.476.476,0,1,1-.9-.318,60.44,60.44,0,0,1,3.4-7.62,133.249,133.249,0,0,1-13.234-4.1c-2.339,4.6-2.639,11.992-2.676,13.467a36.428,36.428,0,0,0,8.509,2.532.477.477,0,0,1-.062.949Z"/><path class="b" d="M33.826,40.491a.256.256,0,0,1-.039,0,65.7,65.7,0,0,1-13.938-3.844.238.238,0,0,1,.19-.437,65.153,65.153,0,0,0,13.825,3.811.238.238,0,0,1-.038.473Z"/><path class="b" d="M24.077,46.794a.283.283,0,0,1-.041,0,.239.239,0,0,1-.194-.276c.289-1.646,1.04-4.365,1.334-5.4l-1.142.345A.238.238,0,0,1,23.9,41l1.56-.471a.235.235,0,0,1,.236.059.237.237,0,0,1,.061.235c-.011.037-1.085,3.743-1.441,5.774A.239.239,0,0,1,24.077,46.794Z"/><path class="b" d="M25.865,47.2a.256.256,0,0,1-.047,0c-2.019-.4-3.864-.983-3.883-.989a.238.238,0,0,1,.143-.454c.019.005,1.841.578,3.833.976a.238.238,0,0,1-.046.471Z"/><path class="b" d="M50.22,80.209a4.628,4.628,0,0,1-1.173-.157,4.127,4.127,0,0,1-1.95-1.107,1.925,1.925,0,0,1-.571-1.815,1.83,1.83,0,0,1,1.079-1.176.476.476,0,1,1,.391.868.921.921,0,0,0-.549.552,1.068,1.068,0,0,0,.346.921,3.205,3.205,0,0,0,1.5.836c1.272.336,2.323-.056,2.471-.618a1.068,1.068,0,0,0-.347-.921,3.2,3.2,0,0,0-1.5-.836l-.1-.025a.476.476,0,1,1,.216-.928l.127.032a4.114,4.114,0,0,1,1.95,1.107,1.927,1.927,0,0,1,.572,1.814A2.346,2.346,0,0,1,50.22,80.209Z"/><path class="b" d="M48.2,86.544a4.628,4.628,0,0,1-1.173-.157,4.127,4.127,0,0,1-1.95-1.107,1.925,1.925,0,0,1-.571-1.815,1.892,1.892,0,0,1,1.278-1.257.477.477,0,0,1,.322.9,1.02,1.02,0,0,0-.679.6,1.068,1.068,0,0,0,.346.921,3.207,3.207,0,0,0,1.5.836c1.272.336,2.323-.056,2.472-.618.156-.591-.653-1.57-1.892-1.9a.476.476,0,1,1,.243-.92c1.682.444,2.883,1.874,2.57,3.06A2.346,2.346,0,0,1,48.2,86.544Z"/><path class="b" d="M46.321,93.647a4.584,4.584,0,0,1-1.168-.156,4.11,4.11,0,0,1-1.95-1.107,1.777,1.777,0,0,1,.78-3.1.476.476,0,0,1,.3.9,1.053,1.053,0,0,0-.729.621,1.068,1.068,0,0,0,.347.921,3.454,3.454,0,0,0,3.212.849.85.85,0,0,0,.41-1.552,3.215,3.215,0,0,0-1.5-.836c-.068-.018-.135-.033-.2-.047a.476.476,0,1,1,.194-.932c.083.017.167.036.25.059a4.11,4.11,0,0,1,1.95,1.107,1.781,1.781,0,0,1-.821,3.109A3.6,3.6,0,0,1,46.321,93.647Z"/><path class="b" d="M45.9,54.994a.489.489,0,0,1-.054,0l-16.2-1.817a3.787,3.787,0,0,1,.844-7.527l16.2,1.817h0a.476.476,0,1,1-.106.946h0a2.835,2.835,0,0,0-.632,5.634.476.476,0,0,1-.052.949ZM30.064,46.576a2.834,2.834,0,0,0-.314,5.651l13.707,1.538a3.785,3.785,0,0,1,.447-5.5c.06-.047.121-.093.182-.137l-13.7-1.537A2.852,2.852,0,0,0,30.064,46.576Z"/><path class="b" d="M36.944,69a22.7,22.7,0,0,1-2.524-.139c-5.412-.607-7-2.871-7.067-2.967a.478.478,0,0,1-.081-.24c-.314-5.537,1.876-12.787,1.969-13.093a.476.476,0,1,1,.911.277c-.022.073-2.193,7.261-1.937,12.611.347.394,1.994,1.981,6.311,2.466a23.107,23.107,0,0,0,8.926-.809,27.709,27.709,0,0,1,1.14-10.35c.807-2.716.947-2.719,1.288-2.726a.487.487,0,0,1,.488.418.479.479,0,0,1-.129.4,31.322,31.322,0,0,0-1.657,6.308l-.005.031a27.6,27.6,0,0,0-.154,6.23.475.475,0,0,1-.313.474A22.784,22.784,0,0,1,36.944,69Z"/><path class="b" d="M46.274,55.015a3.887,3.887,0,0,1-.43-.024,3.777,3.777,0,1,1,.43.024Zm-.013-6.622a2.835,2.835,0,1,0,2.822,3.151h0a2.836,2.836,0,0,0-2.5-3.133A2.891,2.891,0,0,0,46.261,48.393Z"/><path class="b" d="M39.784,59.632a.244.244,0,0,1-.079-.014.238.238,0,0,1-.143-.138l-.367-.944c-.744.343-1.5.706-1.6.782a.241.241,0,0,1-.334-.042.237.237,0,0,1,.038-.331c.185-.148,1.52-.763,1.925-.948a.238.238,0,0,1,.321.13l.358.921,2.173-1.256a.242.242,0,0,1,.25.007.239.239,0,0,1,.106.226l-.066.586,4.858.545a.238.238,0,0,1,.21.263.235.235,0,0,1-.263.21l-5.095-.571a.239.239,0,0,1-.21-.263l.04-.354L39.9,59.6A.239.239,0,0,1,39.784,59.632Z"/><path class="b" d="M38.044,62.687h-.026l-5.572-.625a.237.237,0,0,1-.21-.264l.054-.482-.97.571a.238.238,0,1,1-.242-.41l1.381-.812a.238.238,0,0,1,.357.231l-.08.719,5.335.6a.238.238,0,0,1-.027.474Z"/><path class="b" d="M69.738,11.524c-7.35,0-9.767,9.187-11.228,19.414s3.2,14.023,3.2,14.023c-.871-18.3,5.174-22.167,8.51-25.217s10.106-5.536,10.106-5.536l.189-2.3S77.087,11.524,69.738,11.524Z"/><path class="b" d="M71.358,33.086a.237.237,0,0,1-.2-.11,3.966,3.966,0,0,0-5.088-1.461.238.238,0,1,1-.207-.429c3.509-1.692,5.674,1.6,5.7,1.633a.239.239,0,0,1-.2.367Z"/><path class="b" d="M80.267,34.585a.239.239,0,0,1-.2-.361,5.321,5.321,0,0,1,3.073-2.279,4.832,4.832,0,0,1,3.79.873.238.238,0,0,1-.262.4,4.375,4.375,0,0,0-3.422-.807,4.9,4.9,0,0,0-2.77,2.06A.241.241,0,0,1,80.267,34.585Z"/><path class="b" d="M68.474,32.65c-.788-.115-1.568.539-1.98,1.553a1.05,1.05,0,0,1-.262,2.066,2.01,2.01,0,0,0,1.438,1.9c1.012.147,2.013-.969,2.235-2.494S69.486,32.8,68.474,32.65Z"/><path class="b" d="M83.717,34.377c-.85-.123-1.691.6-2.119,1.707a1.051,1.051,0,0,1-.034,2.1,1.032,1.032,0,0,1-.224-.025,2.143,2.143,0,0,0,1.527,2.055c1.07.156,2.128-1.025,2.363-2.637S84.787,34.533,83.717,34.377Z"/><path class="b" d="M108.664,56.883c.653-9.487-.218-36.25-10.009-44.736s-23.717-7.833-25.022-5c0,0-18.8,3.046-18.433,18.277S49.65,56.7,50.817,62.751c0,0,4.177-.588,19.978-2.929a14.564,14.564,0,0,0,.172-2.049h0c-10.763-2.912-9.78-20.215-9.78-20.215s-1.072.407-1.5-1.193,2.4-7.252,2.4-7.252c1.054-2.3,3.912-5.829,6.786-11.692s10.054-4.68,19.226-.686,9.244,14.848,8.369,17.47.627,5.91.928,7.105.093,2.639-1.17,4.717a3.524,3.524,0,0,1-3.093,1.923,20.3,20.3,0,0,1-8.271,8.5l-1.321.623c-1.622,8.95-7.434,16.139-5.438,18.865,1.982,2.706,9.041,2.928,12.143,3.544,6.088,1.21,14.559,2.777,19.33,6.658C115.886,91.277,108.011,66.369,108.664,56.883Z"/><path class="b" d="M71.6,57.927c-.28-.062-.428-.1-.636-.154h0c-.034.329-.068.636-.1.923h0s3.9,2.784,12.55,2.685c.195-1.445.387-2.97.571-4.5A19.626,19.626,0,0,1,71.6,57.927Z"/><path class="b" d="M79.982,124.689a.476.476,0,0,1-.324-.825,128.458,128.458,0,0,1,11.686-9.979,28.145,28.145,0,0,1,3.742-2.263.477.477,0,0,1,.433.849,27.337,27.337,0,0,0-3.624,2.19,127.942,127.942,0,0,0-11.588,9.9A.474.474,0,0,1,79.982,124.689Z"/><path class="b" d="M123.524,124.762H4.476a.476.476,0,1,1,0-.952H123.524a.476.476,0,0,1,0,.952Z"/></svg>