<svg xmlns="http://www.w3.org/2000/svg" viewBox="0 0 128 128"><defs><style>.a{fill:#fff;}.b{fill:#231f20;}</style></defs><path class="a" d="M47.263,120.529c-.483.781-1.41,2.294-1.954,3.281h8.254a8.908,8.908,0,0,1-3.208-1A13.836,13.836,0,0,1,47.263,120.529Z"/><path class="a" d="M78.384,78.577c.641-5.827.912-21.532.913-23.75,0-.3.006-.563.01-.8.028-1.5.041-2.183-1.235-6.444a116.458,116.458,0,0,0-5.395-13.017.476.476,0,0,1,0-.424c1.144-2.245,2.985-6.108,3.058-6.92.082-.9-1.745-4.218-3.981-6.3-1.432-1.333-2.749-1.621-3.189-1.4-.06.031-.185.095-.146.405a9.251,9.251,0,0,0,2.043,2.555c1.59,1.655,2.963,3.085,2.255,4.04a23.294,23.294,0,0,1-2.854,2.858.477.477,0,0,1-.771-.252c-.011-.046-1.095-4.562-1.307-5.233-.268-.849-1.817-3.463-5.713-5.345-3.02-1.459-4.274-1.283-4.752-1.049a.96.96,0,0,0-.526.679c.193.5,2.377,1.808,3.69,2.595,2.356,1.412,3.811,2.316,4.043,3.1.4,1.352,1.112,4.468,1.142,4.6a.476.476,0,0,1-.8.441c-1.917-1.929-5.684-5.7-6.221-6.15a14.443,14.443,0,0,0-8.005-1.644c-2.491.126-3.835.435-4.23.974-.125.17-.244.462-.05,1.21.155.594,1.527.473,2.854.355a8.352,8.352,0,0,1,4.287.327c2.342,1.19,8.16,6.935,8.406,7.179a.476.476,0,0,1-.525.775c-.048-.021-4.811-2.094-6.975-1.864-1.916.2-3.87,2.823-5.594,5.135q-.245.33-.486.65c-1.7,2.266-1.527,3.312-1.525,3.323a.37.37,0,0,1,.011.141.845.845,0,0,0,.206.6.382.382,0,0,0,.1.059c.05.012.1.025.149.039a1.562,1.562,0,0,0,.561-.055c1.168-.3,4.77-3.566,6.907-5.69a.474.474,0,0,1,.574-.074c.14.081,3.442,2,4.476,2.773,1.221.915,2.125,3.863.649,7.016-.269.576-1.242,2.483-2.422,2.812a1.221,1.221,0,0,1-1.034-.16c-.652-.434-4.039-.995-6.021-1.246a.477.477,0,0,1-.4-.347c-.009-.033-.938-3.289-3.428-4.076a4.432,4.432,0,0,0-.847,4.149c.16.562.28,1.029.377,1.405.414,1.6.43,1.665,1.576,2.25a17.974,17.974,0,0,0,3.091.846c2.615.587,5.87,1.317,7.341,2.7a56.21,56.21,0,0,0,4.662,3.646c3.851,2.825,6.4,4.779,6.735,6.128.107.43.358,1.436-8.008,21.8-2.888,7.029-5.834,14-7.343,17.548l0,0c-.636,1.5-1.016,2.385-1.028,2.414a.476.476,0,1,1-.876-.375q.459-1.069.935-2.19a62.257,62.257,0,0,1-3.18-6.279C48.877,95.4,40.662,97.1,36.9,94.9a4.486,4.486,0,0,0-1.534-.559c4.656,15.226,9.985,24.777,15.432,27.631a7.445,7.445,0,0,0,5.94.559C73.684,117.044,77.953,82.5,78.384,78.577Z"/><path class="a" d="M51.383,44.486c1.334.177,5.186.733,6.127,1.36a.272.272,0,0,0,.249.035c.559-.156,1.337-1.274,1.817-2.3,1.287-2.751.465-5.233-.358-5.85s-3.206-2.023-4.069-2.528c-1.068,1.048-4.615,4.458-6.506,5.444A7.8,7.8,0,0,1,51.383,44.486Zm4.025-7.465c1.336,0,2.419,1.419,2.419,3.17s-1.083,3.17-2.419,3.17a2.55,2.55,0,0,1-2.265-2.068,1.112,1.112,0,0,0,0-2.2A2.55,2.55,0,0,1,55.408,37.021Z"/><path class="a" d="M50.167,94.129c-.184-.414-.367-.831-.549-1.248l-.7,1.5C49.44,94.282,49.869,94.194,50.167,94.129Z"/><path class="a" d="M48.343,94.481,49.365,92.3c-2.174-5.036-4.056-9.972-4.188-10.318a.477.477,0,0,1,.891-.339c.051.137,4.972,13.044,8.142,18.569,6.562-15.433,15.109-36.241,14.932-37.9-.275-1.1-3.655-3.58-6.371-5.574a56.478,56.478,0,0,1-4.752-3.72c-1.281-1.209-4.395-1.907-6.9-2.469a17.224,17.224,0,0,1-3.317-.927c-1.48-.756-1.612-1.11-2.064-2.86-.095-.371-.214-.832-.371-1.383a5.372,5.372,0,0,1,.9-4.86,1.791,1.791,0,0,1-.412-1.194c-.054-.36-.079-1.665,1.706-4.039.16-.212.321-.428.484-.646,1.84-2.469,3.927-5.268,6.258-5.513a14.412,14.412,0,0,1,5.221,1.067c-1.933-1.828-5-4.619-6.46-5.361a7.776,7.776,0,0,0-3.771-.227c-1.8.159-3.5.31-3.86-1.065a2.343,2.343,0,0,1,.2-2.013,1.816,1.816,0,0,1,.256-.28c-.185-.032-.362-.067-.529-.1-4.175-.936-6.741.429-8.074,4.3a37.337,37.337,0,0,0-1.378,6.889,8.416,8.416,0,0,1,7.132,1.347.476.476,0,0,1-.563.768A7.585,7.585,0,0,0,35.8,33.355c-.258,2.327-.367,4.179-.377,4.371.007.49.222,11.8,2.874,17.108a30.485,30.485,0,0,1,1.912,5.286c.985,3.4,1.7,5.858,4.975,5.858,4.517,0,15.726-1.178,21.162-3.9a.476.476,0,1,1,.426.852c-.409.2-.854.4-1.321.589A17.548,17.548,0,0,1,59.617,67.6a15.171,15.171,0,0,1-6.91.959c1.646,1.263,4.662,2.534,10.14,2.534a.476.476,0,0,1,0,.952c-9.984,0-12.353-4.045-12.861-5.376-1.878.17-3.524.253-4.724.257-1,.335-13.129,4.523-13.916,10.821-.022.145-1.932,12.328-1.947,17.65,1.466-1.176,4.738-3.225,7.981-1.326C40,95.607,45.3,95.005,48.343,94.481ZM36.884,37.021a.476.476,0,0,1-.073-.95c.83-.063,5.029-.333,6.243.568a.476.476,0,1,1-.567.765C41.766,36.869,38.667,36.884,36.884,37.021Zm4.009,10.608c-.333-1,.755-3.065,1.1-3.674a.476.476,0,1,1,.831.465A6.494,6.494,0,0,0,41.8,47.328,3.578,3.578,0,0,0,43.321,48.7a.476.476,0,1,1-.443.843C42.711,49.457,41.236,48.659,40.893,47.629Zm8.165,10.952a6.986,6.986,0,0,1-4.92-1.209,3.254,3.254,0,0,1-1.464-2.788l0,0a23.836,23.836,0,0,0,10.16,0S53.47,58.24,49.058,58.581Zm-.471,10.07a.237.237,0,0,1,.312.127c.023.053,1.831,4.018,10.25,4.839a.238.238,0,0,1-.023.475H59.1c-8.746-.853-10.569-4.954-10.643-5.128A.239.239,0,0,1,48.587,68.651Zm-15.623,8.5c-.736,1.952-1.406,13.695-1.413,13.813a.238.238,0,0,1-.237.225H31.3a.238.238,0,0,1-.224-.251c.027-.486.68-11.934,1.442-13.954.778-2.062,5.738-5.082,5.949-5.209a.238.238,0,1,1,.247.407C38.663,72.213,33.684,75.243,32.964,77.152Z"/><path class="a" d="M74.387,35.953c.883,1.9,2.286,5.019,3.407,7.936a4.288,4.288,0,0,0,1.6-3.018c.384-2.462-.3-5.455-1.441-6.279a2.007,2.007,0,0,0-1.66-.46A3.392,3.392,0,0,0,74.387,35.953Z"/><path class="a" d="M97.508,76.027C96,65.346,83.035,61.376,80.158,60.623c-.125,5.745-.387,14.059-.827,18.059a107.814,107.814,0,0,1-5.929,25.1c-4.211,10.889-9.719,17.5-16.372,19.654a8.743,8.743,0,0,1-1.789.377H84.029c1.411-1.637,1.921-2.59,1.921-2.937a3.918,3.918,0,0,0-.674-1.9,18.282,18.282,0,0,1-8.144,2.505h0a.238.238,0,0,1,0-.476,18.1,18.1,0,0,0,7.95-2.466s0-.01,0-.015c0-.07.144-7.113,0-15.778s-1.3-21.131-1.315-21.256a.476.476,0,0,1,.948-.089c.007.072.384,4.131.735,9.218l1.748,2.124c.705.035,1.453.095,2.257.2a38.405,38.405,0,0,0,8.99-.43C98.587,91.276,98.973,86.4,97.508,76.027Zm-.739,12.395H96.76a.239.239,0,0,1-.238-.229c-.005-.127-.519-12.8-3.087-16.8a14.959,14.959,0,0,0-6.448-5.518.238.238,0,0,1,.171-.445,15.187,15.187,0,0,1,6.677,5.706C96.474,75.25,96.978,87.649,97,88.175A.238.238,0,0,1,96.769,88.422Z"/><path class="a" d="M91.843,94.027a20.075,20.075,0,0,1-2.519-.142,30.814,30.814,0,0,0-3.685-.235c.186,3.061.339,6.269.386,9.08.133,7.97.023,14.572,0,15.657a4.893,4.893,0,0,1,.874,2.486c0,.242,0,.93-1.631,2.937h12.05a67.435,67.435,0,0,1,.032-7.081c.276-5,.056-20.067.009-23.1A44.783,44.783,0,0,1,91.843,94.027Z"/><path class="a" d="M85.579,92.7q.473,0,.972.019L85.5,91.435Q85.539,92.059,85.579,92.7Z"/><path class="b" d="M35.033,94.883s.215-1.223-.745-1.087S29.853,95.437,29.3,96.11s.457,1.044.913,1.289,4.838,1.943,6.13,1.534Z"/><path class="b" d="M77.531,45.008a.476.476,0,0,1-.149-.929c1.389-.456,1.859-2.206,2.016-3.208.384-2.462-.3-5.455-1.441-6.279a2.007,2.007,0,0,0-1.66-.46,3.573,3.573,0,0,0-2.023,2.021.476.476,0,0,1-.843-.443,4.442,4.442,0,0,1,2.649-2.505,2.93,2.93,0,0,1,2.435.616c1.636,1.184,2.22,4.658,1.824,7.2-.328,2.1-1.273,3.511-2.66,3.966A.477.477,0,0,1,77.531,45.008Z"/><path class="b" d="M45.184,66.93c-3.995,0-4.873-3.033-5.89-6.545a29.618,29.618,0,0,0-1.849-5.125c-2.8-5.591-2.969-17.053-2.975-17.538,0-.011,0-.021,0-.032.018-.337.459-8.3,1.926-12.561,1.482-4.3,4.571-5.95,9.183-4.916A15.046,15.046,0,0,0,47.7,20.5a.476.476,0,1,1-.072.949,16.076,16.076,0,0,1-2.26-.308c-4.175-.936-6.741.429-8.074,4.3-1.394,4.041-1.853,11.879-1.875,12.286.007.49.222,11.8,2.874,17.108a30.485,30.485,0,0,1,1.912,5.286c.985,3.4,1.7,5.858,4.975,5.858,4.517,0,15.726-1.178,21.162-3.9a.476.476,0,1,1,.426.852C61.2,65.722,49.778,66.93,45.184,66.93Z"/><path class="b" d="M42.77,34.536a.472.472,0,0,1-.281-.092,7.6,7.6,0,0,0-6.949-1,.476.476,0,1,1-.363-.881,8.466,8.466,0,0,1,7.875,1.112.476.476,0,0,1-.282.86Z"/><path class="b" d="M43.1,49.6a.476.476,0,0,1-.221-.055c-.167-.088-1.642-.886-1.985-1.916-.333-1,.755-3.065,1.1-3.674a.476.476,0,1,1,.831.465A6.494,6.494,0,0,0,41.8,47.328,3.578,3.578,0,0,0,43.321,48.7a.476.476,0,0,1-.222.9Z"/><path class="b" d="M42.77,37.5a.474.474,0,0,1-.283-.094c-.721-.535-3.82-.52-5.6-.383a.476.476,0,0,1-.073-.95c.83-.063,5.029-.333,6.243.568a.476.476,0,0,1-.284.859Z"/><path class="b" d="M54.408,123.858a8.657,8.657,0,0,1-4.053-1.046c-5.842-3.062-11.263-12.78-16.11-28.884a.476.476,0,1,1,.912-.274c4.7,15.626,10.112,25.417,15.64,28.314a7.445,7.445,0,0,0,5.94.559c16.947-5.483,21.216-40.028,21.647-43.95.641-5.827.912-21.532.913-23.75,0-.3.006-.563.01-.8.028-1.5.041-2.183-1.235-6.444a116.458,116.458,0,0,0-5.395-13.017.476.476,0,0,1,0-.424c1.144-2.245,2.985-6.108,3.058-6.92.082-.9-1.745-4.218-3.981-6.3-1.432-1.333-2.749-1.621-3.189-1.4-.06.031-.185.095-.146.405a9.251,9.251,0,0,0,2.043,2.555c1.59,1.655,2.963,3.085,2.255,4.04a23.294,23.294,0,0,1-2.854,2.858.477.477,0,0,1-.771-.252c-.011-.046-1.095-4.562-1.307-5.233-.268-.849-1.817-3.463-5.713-5.345-3.02-1.459-4.274-1.283-4.752-1.049a.96.96,0,0,0-.526.679c.193.5,2.377,1.808,3.69,2.595,2.356,1.412,3.811,2.316,4.043,3.1.4,1.352,1.112,4.468,1.142,4.6a.476.476,0,0,1-.8.441c-1.917-1.929-5.684-5.7-6.221-6.15a14.443,14.443,0,0,0-8.005-1.644c-2.491.126-3.835.435-4.23.974-.125.17-.244.462-.05,1.21.155.594,1.527.473,2.854.355a8.352,8.352,0,0,1,4.287.327c2.342,1.19,8.16,6.935,8.406,7.179a.476.476,0,0,1-.525.775c-.048-.021-4.811-2.094-6.975-1.864-1.916.2-3.87,2.823-5.594,5.135q-.245.33-.486.65c-1.7,2.266-1.527,3.312-1.525,3.323a.37.37,0,0,1,.011.141.845.845,0,0,0,.206.6.382.382,0,0,0,.1.059c.05.012.1.025.149.039a1.562,1.562,0,0,0,.561-.055c1.168-.3,4.77-3.566,6.907-5.69a.474.474,0,0,1,.574-.074c.14.081,3.442,2,4.476,2.773,1.221.915,2.125,3.863.649,7.016-.269.576-1.242,2.483-2.422,2.812a1.221,1.221,0,0,1-1.034-.16c-.652-.434-4.039-.995-6.021-1.246a.477.477,0,0,1-.4-.347c-.009-.033-.938-3.289-3.428-4.076a4.432,4.432,0,0,0-.847,4.149c.16.562.28,1.029.377,1.405.414,1.6.43,1.665,1.576,2.25a17.974,17.974,0,0,0,3.091.846c2.615.587,5.87,1.317,7.341,2.7a56.21,56.21,0,0,0,4.662,3.646c3.851,2.825,6.4,4.779,6.735,6.128.107.43.358,1.436-8.008,21.8-4.107,10-8.331,19.869-8.373,19.967a.476.476,0,1,1-.876-.375c6.668-15.577,16.52-39.4,16.33-41.176-.275-1.1-3.655-3.58-6.371-5.574a56.478,56.478,0,0,1-4.752-3.72c-1.281-1.209-4.395-1.907-6.9-2.469a17.224,17.224,0,0,1-3.317-.927c-1.48-.756-1.612-1.11-2.064-2.86-.095-.371-.214-.832-.371-1.383a5.372,5.372,0,0,1,.9-4.86,1.791,1.791,0,0,1-.412-1.194c-.054-.36-.079-1.665,1.706-4.039.16-.212.321-.428.484-.646,1.84-2.469,3.927-5.268,6.258-5.513a14.412,14.412,0,0,1,5.221,1.067c-1.933-1.828-5-4.619-6.46-5.361a7.776,7.776,0,0,0-3.771-.227c-1.8.159-3.5.31-3.86-1.065a2.343,2.343,0,0,1,.2-2.013c.609-.83,2-1.212,4.95-1.361,4.3-.217,7.767,1.109,8.667,1.866.506.427,3.422,3.338,5.1,5.021-.237-1-.537-2.214-.744-2.912-.142-.466-2.236-1.721-3.621-2.551-3.088-1.85-4.327-2.691-4.14-3.57A1.91,1.91,0,0,1,56.9,16.644c1.126-.552,3-.2,5.585,1.046,4.05,1.956,5.831,4.726,6.207,5.916.168.532.816,3.19,1.14,4.529a18.238,18.238,0,0,0,2.119-2.183c.136-.4-1.426-2.031-2.177-2.813-1.181-1.229-2.2-2.292-2.3-3.1a1.268,1.268,0,0,1,.658-1.37c.992-.507,2.747.129,4.271,1.547,2,1.864,4.418,5.572,4.281,7.083-.106,1.168-2.457,5.88-3.051,7.055a114.071,114.071,0,0,1,5.349,12.947c1.318,4.4,1.3,5.182,1.274,6.735,0,.237-.009.494-.009.788,0,2.316-.263,17.886-.919,23.854a107.814,107.814,0,0,1-5.929,25.1c-4.211,10.889-9.719,17.5-16.372,19.654A8.5,8.5,0,0,1,54.408,123.858ZM51.383,44.486c1.334.177,5.186.733,6.127,1.36a.272.272,0,0,0,.249.035c.559-.156,1.337-1.274,1.817-2.3,1.287-2.751.465-5.233-.358-5.85s-3.206-2.023-4.069-2.528c-1.068,1.048-4.615,4.458-6.506,5.444A7.8,7.8,0,0,1,51.383,44.486Z"/><path class="b" d="M62.847,72.049c-11.7,0-12.941-5.552-12.989-5.788a.477.477,0,0,1,.934-.19c.017.075,1.241,5.026,12.055,5.026a.476.476,0,0,1,0,.952Z"/><path class="b" d="M28.95,96.911a.455.455,0,0,1-.166-.03.474.474,0,0,1-.309-.416c-.293-4.678,1.838-18.271,1.928-18.847C31.293,70.5,44.477,66.181,45.038,66a.476.476,0,1,1,.291.906c-.131.043-13.166,4.307-13.983,10.844-.022.145-1.932,12.328-1.947,17.65,1.466-1.176,4.738-3.225,7.981-1.326,3.786,2.215,13.166-.029,13.26-.052a.476.476,0,1,1,.225.925c-.4.1-9.849,2.358-13.966-.052-3.625-2.122-7.569,1.832-7.609,1.873A.474.474,0,0,1,28.95,96.911Z"/><path class="b" d="M36.437,99.681a.4.4,0,0,1-.06,0c-6.047-.756-7.735-2.861-7.8-2.95a.476.476,0,0,1,.751-.586c.031.037,1.613,1.9,7.171,2.591a.476.476,0,0,1-.058.949Z"/><path class="b" d="M54.282,101.731a.476.476,0,0,1-.4-.222c-3.177-5.036-8.478-18.94-8.7-19.529a.477.477,0,0,1,.891-.339c.054.143,5.49,14.4,8.616,19.359a.476.476,0,0,1-.149.657A.47.47,0,0,1,54.282,101.731Z"/><path class="b" d="M36.847,25.285A30.966,30.966,0,0,1,34.7,12.293C35.287,5.76,52.35,2.445,64.342,8.2S75.457,18.63,75.457,18.63a6.484,6.484,0,0,1,5.46,6.045,20.984,20.984,0,0,1-1.818,10.6s-1.528-2.112-2.816-1.629-2.259,2.65-2.259,2.65l-.919-1.947s2.912-6.069,3.108-7.093-2.856-7.787-7.034-8.269c0,0-2.736-.365.177,3.012s3.322,3.551,2.981,4.233a20.992,20.992,0,0,1-2.779,2.779s-.635-4.5-2.072-6.677a13.576,13.576,0,0,0-8.345-5.365c-3.574-.585-3.755,1.23-.115,3.474s4.766,2.864,4.951,3.364,1.21,4.675,1.21,4.675S59.926,23.15,58.831,22.3s-5.438-1.965-9.019-1.613-4.729-.095-4.729-.095-4.393-.819-5.937,1.08A17.793,17.793,0,0,0,36.847,25.285Z"/><path class="b" d="M91.843,94.027a20.075,20.075,0,0,1-2.519-.142,32.628,32.628,0,0,0-4.192-.239.476.476,0,0,1,0-.952h0a33.44,33.44,0,0,1,4.311.247,38.354,38.354,0,0,0,8.99-.43c.151-1.235.537-6.107-.928-16.484C95.821,64.074,79.757,60.519,79.6,60.485a.476.476,0,0,1,.2-.932,34.122,34.122,0,0,1,8.618,3.359c5.829,3.257,9.3,7.746,10.04,12.982,1.746,12.368.91,16.934.874,17.122a.477.477,0,0,1-.387.379A48.039,48.039,0,0,1,91.843,94.027Zm7.014-1.1h0Z"/><path class="b" d="M84.247,124.762a.477.477,0,0,1-.358-.79c1.519-1.738,2.061-2.74,2.061-3.1a4.064,4.064,0,0,0-.782-2.054.474.474,0,0,1-.1-.3c0-.07.144-7.113,0-15.778s-1.3-21.131-1.315-21.256a.476.476,0,0,1,.948-.089c.012.126,1.174,12.637,1.319,21.33.133,7.97.023,14.572,0,15.657a4.893,4.893,0,0,1,.874,2.486c0,.272,0,1.1-2.3,3.726A.474.474,0,0,1,84.247,124.762Z"/><path class="b" d="M44.528,124.762a.487.487,0,0,1-.2-.042.477.477,0,0,1-.238-.63c.474-1.053,2.586-4.428,2.676-4.572a.476.476,0,0,1,.807.506c-.021.035-2.167,3.463-2.615,4.457A.477.477,0,0,1,44.528,124.762Z"/><path class="b" d="M97.824,124.763a.476.476,0,0,1-.475-.447,66.371,66.371,0,0,1,0-7.587c.306-5.543,0-23.459,0-23.639a.477.477,0,0,1,.468-.485h.008a.476.476,0,0,1,.476.468c0,.181.307,18.131,0,23.709a65.418,65.418,0,0,0,0,7.476.476.476,0,0,1-.446.5Z"/><path class="b" d="M66.2,62.678a17.907,17.907,0,0,1-6.58,4.926,15.125,15.125,0,0,1-7.812.84s-1.785-1.893-1.189-2.3C50.616,66.14,62.949,64.917,66.2,62.678Z"/><path class="b" d="M52.836,54.584a23.836,23.836,0,0,1-10.16,0l0,0a3.255,3.255,0,0,0,1.464,2.788,6.986,6.986,0,0,0,4.92,1.209C53.47,58.24,52.836,54.584,52.836,54.584Z"/><path class="b" d="M59.126,74.092H59.1c-8.746-.853-10.569-4.954-10.643-5.128a.238.238,0,0,1,.439-.185c.023.053,1.831,4.018,10.25,4.839a.238.238,0,0,1-.023.475Z"/><path class="b" d="M31.314,91.19H31.3a.238.238,0,0,1-.224-.251c.027-.486.68-11.934,1.442-13.954.778-2.062,5.738-5.082,5.949-5.209a.238.238,0,1,1,.247.407c-.051.031-5.03,3.061-5.75,4.97-.736,1.952-1.406,13.695-1.413,13.813A.238.238,0,0,1,31.314,91.19Z"/><path class="b" d="M96.76,88.422a.239.239,0,0,1-.238-.229c-.005-.127-.519-12.8-3.087-16.8a14.959,14.959,0,0,0-6.448-5.518.238.238,0,0,1,.171-.445,15.187,15.187,0,0,1,6.677,5.706C96.474,75.25,96.978,87.649,97,88.175a.238.238,0,0,1-.229.247Z"/><path class="b" d="M87.276,93.461a.238.238,0,0,1-.184-.086l-2.326-2.828a.238.238,0,0,1,.368-.3l2.326,2.828a.237.237,0,0,1-.184.389Z"/><path class="b" d="M48.381,95.2a.229.229,0,0,1-.1-.023.237.237,0,0,1-.114-.316l1.381-2.95a.238.238,0,1,1,.431.2L48.6,95.061A.238.238,0,0,1,48.381,95.2Z"/><path class="b" d="M77.128,121.48a.238.238,0,0,1,0-.476,18.548,18.548,0,0,0,8.3-2.672.238.238,0,0,1,.256.4,18.66,18.66,0,0,1-8.545,2.747Z"/><path class="b" d="M55.408,37.021a2.55,2.55,0,0,0-2.265,2.068,1.112,1.112,0,0,1,0,2.2,2.55,2.55,0,0,0,2.265,2.068c1.336,0,2.419-1.419,2.419-3.17S56.744,37.021,55.408,37.021Z"/><path class="b" d="M123.524,124.762H4.476a.476.476,0,1,1,0-.952H123.524a.476.476,0,0,1,0,.952Z"/></svg>