<svg xmlns="http://www.w3.org/2000/svg" viewBox="0 0 128 128"><defs><style>.a{fill:#fff;}.b{fill:#231f20;}</style></defs><path class="a" d="M63.638,58.277c-.173.025-.345.047-.513.061-.186.015-.369.023-.548.023s-.386,0-.579-.013l-.235-.012c-.1-.006-.206-.014-.309-.022a15.511,15.511,0,0,1-4.227-.944v9.458a5.283,5.283,0,1,0,10.565,0V56.771a12.424,12.424,0,0,1-4.13,1.5Z"/><path class="a" d="M39.438,107.053c-1.523,0-6.387-.217-9.541-2.6-.288-.218-.578-.418-.868-.6.236,2.782.962,11.055,1.472,13.9a42.108,42.108,0,0,1,.624,6.067h12.2c.018-1.405-.155-6.144-2.842-13.042A20.787,20.787,0,0,1,39.438,107.053Z"/><path class="a" d="M47.226,38.6v.216c-.015,2.853-.041,8.162,2.546,11.759A16.934,16.934,0,0,0,57,56.257q.249.1.5.2c.121.045.242.089.363.131.092.032.185.064.277.094.128.042.257.083.386.121h0c.289.086.58.163.871.231l.038.009q.623.144,1.249.232c.079.011.158.022.237.031.119.015.238.029.357.041.166.016.331.029.5.039l.192.01c.2.009.405.016.608.016.134,0,.272-.007.412-.017l.119-.009c.127-.011.255-.026.385-.045.065-.009.132-.022.2-.033l.2-.036a13,13,0,0,0,4.133-1.734l.019-.008a20.408,20.408,0,0,0,3.2-2.459c2.987-2.8,4.8-6.11,4.863-8.854.069-3.247-.147-6.526-.338-9.419a50.449,50.449,0,0,1-.2-6.482c.273-3.137-1.2-9.026-3.436-11.636-2.322-2.709-9.044-4.488-12.618-3.339-3.445,1.108-11.627,15.549-12.171,16.811-.286.665-.215,3.443-.158,5.675C47.205,36.842,47.229,37.8,47.226,38.6Zm5,.176a.238.238,0,0,1-.465-.1,13.028,13.028,0,0,0-.543-4.221,2,2,0,0,1,.026-1.526.238.238,0,0,1,.41.242,1.691,1.691,0,0,0,.023,1.156A13.2,13.2,0,0,1,52.229,38.777Zm1.818.509a4.4,4.4,0,0,0-.076,1.183.237.237,0,0,1-.072.328.24.24,0,0,1-.33-.073c-.153-.239-.1-.679.006-1.5a6.422,6.422,0,0,0,.047-2.33,5.93,5.93,0,0,1,0-2.739.238.238,0,0,1,.462.112,5.581,5.581,0,0,0,0,2.485A6.668,6.668,0,0,1,54.047,39.286Zm.545-6.486a6.064,6.064,0,0,1-3.468-1.4.476.476,0,1,1,.654-.693,5.193,5.193,0,0,0,2.893,1.145,3.928,3.928,0,0,0,2.793-.72.476.476,0,1,1,.63.714,4.748,4.748,0,0,1-3.014.975C54.923,32.82,54.76,32.814,54.592,32.8Zm1.2,5.835a3.864,3.864,0,0,1-.059-2.448,4.664,4.664,0,0,0,0-1.919.238.238,0,0,1,.463-.113,5.075,5.075,0,0,1,0,2.143,3.394,3.394,0,0,0,.05,2.2,3.21,3.21,0,0,1,.2,1.673.239.239,0,0,1-.235.2.172.172,0,0,1-.039,0,.238.238,0,0,1-.2-.274A2.688,2.688,0,0,0,55.8,38.635Zm12.632,1.674a.238.238,0,0,1-.227.167.215.215,0,0,1-.071-.011.238.238,0,0,1-.157-.3,4.742,4.742,0,0,0-.337-2.4,11.538,11.538,0,0,1-.385-1.533,3.189,3.189,0,0,1,.266-2.153.238.238,0,0,1,.4.261,2.832,2.832,0,0,0-.193,1.822,11.3,11.3,0,0,0,.37,1.467A5.008,5.008,0,0,1,68.429,40.309Zm2.32-1a.237.237,0,0,1-.079.327.245.245,0,0,1-.124.035.239.239,0,0,1-.2-.115c-.3-.492-.243-1.957-.056-4.161a3.522,3.522,0,0,0-.2-1.786.238.238,0,0,1,.417-.23,3.831,3.831,0,0,1,.252,2.056C70.681,36.371,70.471,38.853,70.749,39.311Zm.458-8.224a6.059,6.059,0,0,1-3.468,1.4c-.168.014-.331.021-.488.021a4.745,4.745,0,0,1-3.014-.975.476.476,0,0,1,.628-.716,3.933,3.933,0,0,0,2.8.721,5.205,5.205,0,0,0,2.9-1.145.476.476,0,0,1,.652.694Zm-5.8,6.466a18.888,18.888,0,0,1-.367-3.511.238.238,0,0,1,.23-.246.234.234,0,0,1,.246.23,17.668,17.668,0,0,0,.352,3.406,9.554,9.554,0,0,1,.23,3.032.238.238,0,0,1-.237.213h-.025a.238.238,0,0,1-.212-.262A9.174,9.174,0,0,0,65.4,37.553Zm-1.852-9.9a43.917,43.917,0,0,1,6.5-.438,16.323,16.323,0,0,1,2.872.453.476.476,0,0,1-.135.933.462.462,0,0,1-.136-.02,15.892,15.892,0,0,0-2.686-.417,44.187,44.187,0,0,0-6.289.433.476.476,0,0,1-.126-.944ZM61.787,43.1c4.5.569,5.879,4.119,5.812,4.554s-.167,1.239-4.152.4-5.792.636-5.792.636c-1.526.664-2.11.234-2.11-.77S57.287,42.526,61.787,43.1Zm-1.95-5.747a2.52,2.52,0,0,0-.223.977,1.416,1.416,0,0,0,.565.461.476.476,0,0,1-.427.851,2.179,2.179,0,0,1-1.042-1.012,2.915,2.915,0,0,1,.245-1.636.476.476,0,0,1,.882.359ZM49.482,28.34a6.283,6.283,0,0,1,3.751-.919c2.045.136,5.851.813,6.012.842a.476.476,0,1,1-.167.937c-.039-.007-3.915-.7-5.908-.829a5.451,5.451,0,0,0-3.148.753.476.476,0,0,1-.54-.784Z"/><path class="a" d="M105.009,97.391a10.841,10.841,0,0,0-.223-1.407l-1.257,2.145A4.328,4.328,0,0,0,105.009,97.391Z"/><path class="a" d="M23.111,100.693a14.507,14.507,0,0,1,2.018.4L23.42,98.314C23.278,99.286,23.172,100.1,23.111,100.693Z"/><path class="a" d="M87,110.422c3.2-8.229.019-19.4-.013-19.515a.476.476,0,0,1,.914-.266,43.558,43.558,0,0,1,1.5,10.643c2.1-.5,6.088-1.412,8.5-1.793.767-.122,1.493-.259,2.17-.405a.477.477,0,0,1,.106-.023c1.023-.224,1.926-.466,2.669-.7l1.8-3.074c-1.306-6.154-5.731-23.159-7.259-25.706-1.057-1.762-6.714-4.738-11.26-6.887-2.354.016-6.059-.773-9.538,1.017a7.114,7.114,0,0,1-7.84-.335v3.452a6.235,6.235,0,0,1-11.969,2.449,12.55,12.55,0,0,1-.271,2.6C57.841,73.4,59.847,75.1,62.141,75.1a.239.239,0,0,1,0,.477c-2.366,0-4.393-1.608-5.784-3.133-.629,2.133-2.162,4.306-5.834,6.334-5.7,3.149-11.8-2.023-14.259-6.663A40.953,40.953,0,0,0,31.2,74.344c-.4.359-1.579,4.587-2.487,8.382a.238.238,0,0,1-.232.183.257.257,0,0,1-.055-.006.238.238,0,0,1-.176-.287c.318-1.332,1.941-8,2.631-8.626a38.366,38.366,0,0,1,5.171-2.3,10.077,10.077,0,0,1-.73-1.96,35.755,35.755,0,0,0-6.137,3.608C27.6,74.919,24.673,90.05,23.529,97.583l2.284,3.713a15.838,15.838,0,0,1,2.893,1.247l.007,0a15.125,15.125,0,0,1,1.758,1.144c2.828,2.138,7.216,2.389,8.808,2.408a41.024,41.024,0,0,1,1.189-15.458.476.476,0,1,1,.914.266c-.032.112-3.219,11.286-.013,19.515,2.756,7.077,2.936,11.864,2.909,13.388H85.055A33.088,33.088,0,0,1,87,110.422Zm-.333-44.848a.237.237,0,0,1,.309-.133c.277.111,6.79,2.737,8.088,5.06a73.822,73.822,0,0,1,3.367,8.749.238.238,0,1,1-.453.146,75.31,75.31,0,0,0-3.329-8.662c-1.218-2.178-7.784-4.824-7.85-4.851A.237.237,0,0,1,86.664,65.574Zm-20.5,47.391a.236.236,0,0,1-.176.078.239.239,0,0,1-.16-.061c-1.991-1.8-4.582-.322-4.608-.306a.238.238,0,0,1-.241-.411c.029-.017,2.922-1.672,5.169.364A.237.237,0,0,1,66.168,112.965Zm1.617-39.854a.238.238,0,1,1-.3-.366,7.113,7.113,0,0,0,2.327-6.012.238.238,0,0,1,.472-.066A7.468,7.468,0,0,1,67.785,73.111Z"/><path class="a" d="M98.044,100.431c-2.471.39-6.632,1.353-8.654,1.833a24.816,24.816,0,0,1-1.5,8.5,32.141,32.141,0,0,0-1.876,13.042H97.09A61.5,61.5,0,0,1,98,116.927c.577-2.766,1.479-14.02,1.7-16.8C98.747,100.319,98.066,100.428,98.044,100.431Z"/><path class="b" d="M22.515,100.885s5.918,1.561,6,2.582.291,3.343.291,3.343S23.6,104.2,22.515,100.885Z"/><path class="b" d="M62.577,58.361A17.38,17.38,0,0,1,49,51.132c-2.768-3.848-2.741-9.359-2.726-12.319V38.6h0c0-.785-.021-1.739-.047-2.749-.08-3.152-.107-5.278.237-6.075.355-.825,8.667-16.028,12.754-17.341,3.932-1.265,11.067.633,13.632,3.625,2.624,3.062,3.922,9.352,3.662,12.338a50.144,50.144,0,0,0,.2,6.337c.192,2.913.41,6.214.34,9.5C76.909,50.784,68.172,58.361,62.577,58.361ZM47.226,38.6v.216c-.015,2.853-.041,8.162,2.546,11.759a16.4,16.4,0,0,0,12.806,6.833c2.482,0,5.8-1.664,8.656-4.341,2.987-2.8,4.8-6.11,4.863-8.854.069-3.247-.147-6.526-.338-9.419a50.449,50.449,0,0,1-.2-6.482c.273-3.137-1.2-9.026-3.436-11.636-2.322-2.709-9.044-4.488-12.618-3.339-3.445,1.108-11.627,15.549-12.171,16.811-.286.665-.215,3.443-.158,5.675.026,1.018.05,1.979.047,2.777Z"/><path class="b" d="M62.51,73.064a6.243,6.243,0,0,1-6.235-6.236V56.67a.475.475,0,0,1,.66-.439,14.546,14.546,0,0,0,5.642,1.178,11.049,11.049,0,0,0,5.442-1.874.476.476,0,0,1,.726.406V66.828A6.243,6.243,0,0,1,62.51,73.064ZM57.227,57.37v9.458a5.283,5.283,0,1,0,10.565,0V56.771a11.086,11.086,0,0,1-5.215,1.59A15.286,15.286,0,0,1,57.227,57.37Z"/><path class="b" d="M84.139,45.564c-.268-8.706-4.286-24.509-4.888-28.393S74.2,6.343,68.916,9.47c0,0-3.348-5.67-11.473-3.884S39.407,20.407,40.836,26.747s.535,9.553-1.965,16.071-4.352,21.429-3.683,26.25,8.3,13.594,15.335,9.71,6.228-8.3,6.228-11.949V56.67h0a17.667,17.667,0,0,1-7.368-5.817c-2.746-3.817-2.648-9.424-2.636-12.255.012-2.731-.311-7.567.151-8.638S55.612,14.09,59.362,12.885s10.715.67,13.125,3.482,3.817,8.906,3.55,11.987.669,9.576.535,15.87c-.091,4.3-4.065,9.108-8.3,11.717h0v7.033s3.24,3.349,8.316.737,10.635.268,11.773-1.875S84.407,54.269,84.139,45.564Z"/><path class="b" d="M39.5,107.054c-1.455,0-6.407-.187-9.6-2.6a14.608,14.608,0,0,0-7.324-2.851.477.477,0,0,1-.334-.16.469.469,0,0,1-.119-.35c.24-3.277,4.029-26.069,6.388-28.427,2.179-2.179,18.123-9.432,18.8-9.74a.476.476,0,1,1,.393.867c-5.686,2.582-16.874,7.9-18.521,9.546-1.855,1.855-5.556,22.335-6.07,27.357a15.668,15.668,0,0,1,7.36,3c3.305,2.5,8.747,2.421,9.357,2.406a.476.476,0,1,1,.026.952C39.788,107.051,39.666,107.054,39.5,107.054Z"/><path class="b" d="M88.909,102.365a.476.476,0,0,1-.111-.939c1.847-.442,6.431-1.514,9.1-1.935,3.86-.61,6.72-1.628,7.113-2.1-.028-1.836-5.829-24.816-7.626-27.81-1.473-2.454-11.876-7.267-15.76-8.914A.476.476,0,1,1,82,59.791c.582.246,14.272,6.079,16.2,9.3,1.237,2.062,3.932,12.08,4.728,15.1.849,3.219,1.658,6.479,2.221,8.944.951,4.168.843,4.412.756,4.608-.683,1.538-7.789,2.676-7.861,2.687-2.633.416-7.188,1.482-9.024,1.921A.473.473,0,0,1,88.909,102.365Z"/><path class="b" d="M43.783,124.762l-.042,0a.475.475,0,0,1-.433-.515c0-.051.39-5.218-2.827-13.477-3.324-8.535-.15-19.658-.013-20.127a.476.476,0,1,1,.914.266c-.032.112-3.219,11.286-.013,19.515,3.305,8.488,2.906,13.687,2.887,13.9A.476.476,0,0,1,43.783,124.762Z"/><path class="b" d="M85.556,124.757a.475.475,0,0,1-.474-.446A33.392,33.392,0,0,1,87,110.422c3.2-8.229.019-19.4-.013-19.515a.476.476,0,0,1,.914-.266c.137.469,3.311,11.592-.013,20.127a32.424,32.424,0,0,0-1.853,13.484.476.476,0,0,1-.446.5Z"/><path class="b" d="M30.657,124.762a.476.476,0,0,1-.476-.476,40.774,40.774,0,0,0-.618-6.374C28.941,114.447,28.041,103.465,28,103a.476.476,0,1,1,.949-.078c.009.114.935,11.4,1.549,14.821a40.971,40.971,0,0,1,.632,6.543A.476.476,0,0,1,30.657,124.762Z"/><path class="b" d="M28.83,107.516a.477.477,0,0,1-.2-.043,13.893,13.893,0,0,1-6.47-6.147.476.476,0,0,1,.863-.4h0a13.16,13.16,0,0,0,6,5.684.477.477,0,0,1-.2.91Z"/><path class="b" d="M97.532,124.762H97.5a.476.476,0,0,1-.444-.507A64.032,64.032,0,0,1,98,116.927c.656-3.148,1.734-17.284,1.745-17.427a.476.476,0,0,1,.95.072c-.044.584-1.094,14.341-1.762,17.549a62.953,62.953,0,0,0-.929,7.2A.476.476,0,0,1,97.532,124.762Z"/><path class="b" d="M72.789,28.605a.462.462,0,0,1-.136-.02,15.892,15.892,0,0,0-2.686-.417,44.187,44.187,0,0,0-6.289.433.476.476,0,0,1-.126-.944,43.917,43.917,0,0,1,6.5-.438,16.323,16.323,0,0,1,2.872.453.476.476,0,0,1-.135.933Z"/><path class="b" d="M59.162,29.208a.478.478,0,0,1-.084-.008c-.039-.007-3.915-.7-5.908-.829a5.451,5.451,0,0,0-3.148.753.476.476,0,0,1-.54-.784,6.283,6.283,0,0,1,3.751-.919c2.045.136,5.851.813,6.012.842a.476.476,0,0,1-.083.945Z"/><path class="b" d="M67.251,32.508a4.745,4.745,0,0,1-3.014-.975.476.476,0,0,1,.628-.716,3.933,3.933,0,0,0,2.8.721,5.205,5.205,0,0,0,2.9-1.145.476.476,0,0,1,.652.694,6.059,6.059,0,0,1-3.468,1.4C67.571,32.5,67.408,32.508,67.251,32.508Z"/><path class="b" d="M55.08,32.82c-.157,0-.32-.006-.488-.02a6.064,6.064,0,0,1-3.468-1.4.476.476,0,1,1,.654-.693,5.193,5.193,0,0,0,2.893,1.145,3.928,3.928,0,0,0,2.793-.72.476.476,0,1,1,.63.714A4.748,4.748,0,0,1,55.08,32.82Z"/><path class="b" d="M59.964,39.687a.474.474,0,0,1-.212-.05,2.179,2.179,0,0,1-1.042-1.012,2.915,2.915,0,0,1,.245-1.636.476.476,0,0,1,.882.359,2.52,2.52,0,0,0-.223.977,1.416,1.416,0,0,0,.565.461.476.476,0,0,1-.215.9Z"/><path class="b" d="M57.655,48.687s1.808-1.473,5.792-.636,4.085.033,4.152-.4-1.312-3.985-5.812-4.554-6.242,3.817-6.242,4.822S56.129,49.351,57.655,48.687Z"/><path class="b" d="M65.858,40.677h-.025a.238.238,0,0,1-.212-.262,9.174,9.174,0,0,0-.217-2.861,18.888,18.888,0,0,1-.367-3.511.238.238,0,0,1,.23-.246.234.234,0,0,1,.246.23,17.668,17.668,0,0,0,.352,3.406,9.554,9.554,0,0,1,.23,3.032A.238.238,0,0,1,65.858,40.677Z"/><path class="b" d="M70.546,39.673a.239.239,0,0,1-.2-.115c-.3-.492-.243-1.957-.056-4.161a3.522,3.522,0,0,0-.2-1.786.238.238,0,0,1,.417-.23,3.831,3.831,0,0,1,.252,2.056c-.079.934-.289,3.416-.011,3.874a.237.237,0,0,1-.079.327A.245.245,0,0,1,70.546,39.673Z"/><path class="b" d="M52,38.964a.239.239,0,0,1-.233-.289,13.028,13.028,0,0,0-.543-4.221,2,2,0,0,1,.026-1.526.238.238,0,0,1,.41.242,1.691,1.691,0,0,0,.023,1.156,13.2,13.2,0,0,1,.549,4.451A.238.238,0,0,1,52,38.964Z"/><path class="b" d="M56.215,40.365a.172.172,0,0,1-.039,0,.238.238,0,0,1-.2-.274,2.688,2.688,0,0,0-.183-1.452,3.864,3.864,0,0,1-.059-2.448,4.664,4.664,0,0,0,0-1.919.238.238,0,0,1,.463-.113,5.075,5.075,0,0,1,0,2.143,3.394,3.394,0,0,0,.05,2.2,3.21,3.21,0,0,1,.2,1.673A.239.239,0,0,1,56.215,40.365Z"/><path class="b" d="M65.992,113.043a.239.239,0,0,1-.16-.061c-1.985-1.8-4.5-.368-4.608-.306a.238.238,0,0,1-.241-.411c.029-.017,2.922-1.672,5.169.364a.238.238,0,0,1-.16.414Z"/><path class="b" d="M53.771,40.834a.24.24,0,0,1-.2-.11c-.153-.239-.1-.679.006-1.5a6.422,6.422,0,0,0,.047-2.33,5.93,5.93,0,0,1,0-2.739.238.238,0,0,1,.462.112,5.581,5.581,0,0,0,0,2.485,6.668,6.668,0,0,1-.029,2.534,4.4,4.4,0,0,0-.076,1.183.237.237,0,0,1-.072.328A.24.24,0,0,1,53.771,40.834Z"/><path class="b" d="M68.2,40.476a.215.215,0,0,1-.071-.011.238.238,0,0,1-.157-.3,4.742,4.742,0,0,0-.337-2.4,11.538,11.538,0,0,1-.385-1.533,3.189,3.189,0,0,1,.266-2.153.238.238,0,0,1,.4.261,2.832,2.832,0,0,0-.193,1.822,11.3,11.3,0,0,0,.37,1.467,5.008,5.008,0,0,1,.336,2.679A.238.238,0,0,1,68.2,40.476Z"/><path class="b" d="M28.477,82.909a.257.257,0,0,1-.055-.006.238.238,0,0,1-.176-.287c.318-1.332,1.941-8,2.631-8.626s7.7-3.292,8.5-3.595a.238.238,0,0,1,.169.445,80.809,80.809,0,0,0-8.345,3.5c-.4.359-1.579,4.587-2.487,8.382A.238.238,0,0,1,28.477,82.909Z"/><path class="b" d="M98.2,79.561a.239.239,0,0,1-.227-.165,75.31,75.31,0,0,0-3.329-8.662c-1.218-2.178-7.784-4.824-7.85-4.851a.238.238,0,0,1,.177-.442c.277.111,6.79,2.737,8.088,5.06a73.822,73.822,0,0,1,3.367,8.749.239.239,0,0,1-.226.311Z"/><path class="b" d="M62.141,75.577c-4.406,0-7.638-5.575-7.773-5.813a.238.238,0,0,1,.413-.236c.032.056,3.231,5.572,7.36,5.572a.239.239,0,0,1,0,.477Z"/><path class="b" d="M67.633,73.166a.238.238,0,0,1-.153-.421,7.113,7.113,0,0,0,2.327-6.012.238.238,0,0,1,.472-.066,7.468,7.468,0,0,1-2.494,6.444A.239.239,0,0,1,67.633,73.166Z"/><path class="b" d="M102.819,99.106a.229.229,0,0,1-.12-.033.239.239,0,0,1-.085-.326l2.257-3.85a.238.238,0,1,1,.41.241l-2.256,3.85A.237.237,0,0,1,102.819,99.106Z"/><path class="b" d="M25.94,102.194a.239.239,0,0,1-.2-.114l-2.848-4.629a.238.238,0,0,1,.405-.25l2.848,4.63a.239.239,0,0,1-.2.363Z"/><path class="b" d="M123.524,124.762H4.476a.476.476,0,1,1,0-.952H123.524a.476.476,0,0,1,0,.952Z"/></svg>