<svg xmlns="http://www.w3.org/2000/svg" viewBox="0 0 128 128"><defs><style>.a{fill:#fff;}.b{fill:#231f20;}</style></defs><path class="a" d="M78.695,101.46a67.863,67.863,0,0,0,4.778-11.8.476.476,0,1,1,.909.283c-.64,2.057-1.533,4.682-2.638,7.319,3.35,3.854,8.105,7.739,10.49,7.506,5.908-.579,9.057-21.114,9.43-31.979a56.222,56.222,0,0,0-.463-6.677c-.349-2.755-3.664-4.234-4.672-4.622a8.483,8.483,0,0,1-1.592-.9c-.64-.424-1.3-.864-1.693-.753-.189.053-.368.257-.532.607-.788,1.682,2.632,3.509,2.667,3.527a.476.476,0,0,1-.432.849c-6.231-3.116-13.184-6.116-14.8-6.116l-.06,0c.716,1.133,6.139,4.6,11.081,7.348a.476.476,0,0,1-.452.838c-2.825-1.474-10.328-3.237-12.014-3.05.968,1.04,5.8,3.9,10.314,6.292a.476.476,0,0,1-.358.877,37.186,37.186,0,0,0-5.012-.926c-3.282-.386-3.928.013-4.019.09.027.086.254.514,2.119,1.274,1.312.535,2.951,1.04,4.267,1.446,2.151.663,2.507.792,2.665,1.1a.5.5,0,0,1,.031.4c-.141.426-.531.455-2.171.579-1.945.146-5.556.419-6.375,1.591.2.236,1.419.815,5.154,1.178a53.746,53.746,0,0,0,9.056.1.476.476,0,1,1,.082.949c-4.6.394-14.08.009-15.136-1.777a.874.874,0,0,1,.038-.96c1.045-1.568,4.657-1.848,7.07-2.03-.229-.072-.465-.144-.694-.215-3.9-1.2-6.9-2.226-7.055-3.528a.913.913,0,0,1,.335-.83c.947-.8,4.18-.458,6.713-.022-.761-.423-1.608-.9-2.454-1.4-5.5-3.211-5.607-3.873-5.663-4.229a.684.684,0,0,1,.287-.671c.857-.615,4.862.162,8.362,1.164-.393-.239-.794-.485-1.2-.735-5.838-3.642-5.944-4.487-6-4.894a.737.737,0,0,1,.224-.642c.343-.324.983-.929,8.739,2.5,1.43.631,2.844,1.287,4.043,1.855a2.345,2.345,0,0,1-.23-2.333,1.859,1.859,0,0,1,1.137-1.12,1.623,1.623,0,0,1,.918.029V46.391H35.169V58.978a1.963,1.963,0,0,1,.982,1.065,2.345,2.345,0,0,1-.23,2.333c1.2-.568,2.613-1.224,4.043-1.855,7.756-3.426,8.4-2.821,8.739-2.5a.737.737,0,0,1,.224.642c-.051.407-.157,1.252-5.995,4.894-.4.25-.8.5-1.2.735,3.5-1,7.506-1.78,8.362-1.164a.684.684,0,0,1,.287.671c-.056.356-.161,1.018-5.663,4.229-.846.494-1.693.974-2.454,1.4,2.532-.436,5.766-.778,6.713.022a.913.913,0,0,1,.335.83c-.156,1.3-3.153,2.325-7.055,3.528-.229.071-.465.143-.694.215,2.413.182,6.025.462,7.07,2.03a.874.874,0,0,1,.038.96C47.62,78.8,38.144,79.184,33.54,78.79a.476.476,0,1,1,.082-.949,53.747,53.747,0,0,0,9.056-.1c3.729-.362,4.946-.94,5.153-1.176-.844-1.177-4.436-1.447-6.374-1.593-1.64-.124-2.03-.153-2.171-.579a.5.5,0,0,1,.031-.4c.158-.306.514-.435,2.665-1.1,1.316-.406,2.955-.911,4.267-1.446,1.884-.768,2.1-1.2,2.12-1.274-.089-.076-.731-.478-4.02-.09a37.186,37.186,0,0,0-5.012.926.476.476,0,0,1-.358-.877c4.519-2.389,9.346-5.252,10.314-6.292-1.687-.186-9.189,1.576-12.014,3.05a.476.476,0,0,1-.452-.838c4.942-2.749,10.365-6.215,11.081-7.348-1.49-.068-8.542,2.958-14.855,6.114a.476.476,0,0,1-.432-.849c.035-.018,3.453-1.85,2.667-3.527-.164-.35-.343-.554-.532-.607-.393-.111-1.053.329-1.693.753a8.483,8.483,0,0,1-1.592.9c-1.008.388-4.323,1.867-4.672,4.622a56.222,56.222,0,0,0-.463,6.677c.373,10.865,3.522,31.4,9.43,31.979,1.9.179,6.055-2.859,9.078-5.981-.073-.17-.149-.336-.233-.493a39.149,39.149,0,0,1-3.418-8.372.476.476,0,1,1,.921-.241,38.275,38.275,0,0,0,3.337,8.165,7.617,7.617,0,0,1,.385.852l.009.025c2.652,6.95-1.935,21.792-3.015,25.084H82.4C81.02,120.608,75.565,107.167,78.695,101.46ZM90.077,47.645h2.075a.239.239,0,0,1,.239.239V50.6a.239.239,0,0,1-.477,0V48.122H90.077a.239.239,0,1,1,0-.477ZM39,48.122H37.158V50.6a.238.238,0,0,1-.476,0V47.884a.239.239,0,0,1,.238-.239H39a.239.239,0,0,1,0,.477ZM90.077,84.744h1.837V82.27a.239.239,0,0,1,.477,0v2.712a.239.239,0,0,1-.239.238H90.077a.238.238,0,1,1,0-.476ZM36.682,82.27a.238.238,0,0,1,.476,0v2.474H39a.238.238,0,1,1,0,.476H36.92a.239.239,0,0,1-.238-.238Zm-1.989,5.237a.477.477,0,0,1-.477-.476V81.316a.477.477,0,0,1,.953,0v5.239H93.9V81.406a.476.476,0,0,1,.952,0v5.625a.476.476,0,0,1-.476.476Zm10.221,34.76a.237.237,0,0,1-.221.152.245.245,0,0,1-.087-.017.238.238,0,0,1-.135-.308,84.35,84.35,0,0,0,3.336-12.512.238.238,0,1,1,.468.085A84.75,84.75,0,0,1,44.914,122.267ZM64.928,97.792a.239.239,0,0,1-.191.095.233.233,0,0,1-.142-.047,2.675,2.675,0,0,0-3.192,0,.238.238,0,1,1-.3-.374,3.163,3.163,0,0,1,3.772,0A.238.238,0,0,1,64.928,97.792Zm12.158,12.642a.237.237,0,0,1-.178.285.248.248,0,0,1-.054.006.239.239,0,0,1-.232-.184,17.461,17.461,0,0,1,0-8.518.238.238,0,1,1,.454.143A17.313,17.313,0,0,0,77.086,110.434Z"/><path class="a" d="M50.761,45.439h27.5a15.989,15.989,0,0,0,.5-4.844,31.632,31.632,0,0,0-1.14-5.588c-.054-.165-.115-.361-.182-.581a.477.477,0,0,1-.265-.077c-2.98-1.943-7.456.542-7.5.568a.476.476,0,1,1-.468-.83c.192-.108,4.47-2.479,7.856-.888-1.166-3.725-3.746-11.126-8.08-12.859-5.5-2.2-12.1.585-15.7,6.623a21.547,21.547,0,0,0-2.427,6.173,5.6,5.6,0,0,1,3.075-1.09l.155,0c1.852.075,5.7,1.946,5.859,2.025a.476.476,0,0,1-.209.9.484.484,0,0,1-.209-.048c-.038-.019-3.827-1.863-5.479-1.929a4.932,4.932,0,0,0-2.98,1.172.476.476,0,0,1-.447.1,24.592,24.592,0,0,0-.375,6.236C50.248,40.54,50.461,42.862,50.761,45.439Zm21.717-3.88-.6.6a.238.238,0,0,1-.169.07.234.234,0,0,1-.168-.07.237.237,0,0,1,0-.336l.6-.6a.238.238,0,0,1,.337.337Zm1.163,0-.6.6a.234.234,0,0,1-.168.07.238.238,0,0,1-.169-.406l.6-.6a.238.238,0,1,1,.336.337ZM69.269,36.7a5.818,5.818,0,0,1,4.474-1.548,7.837,7.837,0,0,1,2.987.765.238.238,0,1,1-.286.38,8.475,8.475,0,0,0-2.77-.674A5.417,5.417,0,0,0,69.6,37.037a.238.238,0,1,1-.332-.341ZM62.228,40.8a.476.476,0,0,1,.823.48,1.822,1.822,0,0,0-.029,1.8.476.476,0,1,1-.766.566A2.742,2.742,0,0,1,62.228,40.8Zm-5.973.758-.6.6a.234.234,0,0,1-.168.07.238.238,0,0,1-.169-.406l.6-.6a.238.238,0,0,1,.337.337Zm1.163,0-.6.6a.238.238,0,0,1-.169.07.234.234,0,0,1-.168-.07.237.237,0,0,1,0-.336l.6-.6a.238.238,0,0,1,.336.337Zm-5.366-5.646a7.815,7.815,0,0,1,2.986-.765A5.816,5.816,0,0,1,59.512,36.7a.238.238,0,0,1-.331.342,5.436,5.436,0,0,0-4.074-1.419,8.375,8.375,0,0,0-2.775.678A.241.241,0,0,1,52,36.24.235.235,0,0,1,52.052,35.913Z"/><path class="b" d="M94.38,87.507H34.693a.477.477,0,0,1-.477-.476V81.316a.477.477,0,0,1,.953,0v5.239H93.9V81.406a.476.476,0,0,1,.952,0v5.625A.476.476,0,0,1,94.38,87.507Z"/><path class="b" d="M94.38,59.967a.477.477,0,0,1-.476-.477v-13.1H35.169V59.35a.477.477,0,1,1-.953,0V45.915a.477.477,0,0,1,.477-.476H94.38a.476.476,0,0,1,.476.476V59.49A.477.477,0,0,1,94.38,59.967Z"/><path class="b" d="M69.435,34.978a.476.476,0,0,1-.234-.891c.2-.115,5.031-2.791,8.489-.536a.476.476,0,1,1-.52.8c-2.98-1.943-7.456.542-7.5.568A.481.481,0,0,1,69.435,34.978Z"/><path class="b" d="M59.735,34.978a.484.484,0,0,1-.209-.048c-.038-.019-3.827-1.863-5.479-1.929l-.117,0a5.043,5.043,0,0,0-2.864,1.176.476.476,0,0,1-.63-.714,5.928,5.928,0,0,1,3.494-1.414l.155,0c1.852.075,5.7,1.946,5.859,2.025a.476.476,0,0,1-.209.9Z"/><path class="b" d="M35.921,105.731c-.085,0-.167,0-.248-.012-7.63-.748-10.057-26.136-10.289-32.894a56.019,56.019,0,0,1,.47-6.83C26.269,62.716,30,61.04,31.129,60.6a7.766,7.766,0,0,0,1.408-.8c.856-.567,1.665-1.1,2.477-.876a1.859,1.859,0,0,1,1.137,1.12,2.345,2.345,0,0,1-.23,2.333c1.2-.568,2.613-1.224,4.043-1.855,7.756-3.426,8.4-2.821,8.739-2.5a.737.737,0,0,1,.224.642c-.051.407-.157,1.252-5.995,4.894-.4.25-.8.5-1.2.735,3.5-1,7.506-1.78,8.362-1.164a.684.684,0,0,1,.287.671c-.056.356-.161,1.018-5.663,4.229-.846.494-1.693.974-2.454,1.4,2.532-.436,5.766-.778,6.713.022a.913.913,0,0,1,.335.83c-.156,1.3-3.153,2.325-7.055,3.528-.229.071-.465.143-.694.215,2.413.182,6.025.462,7.07,2.03a.874.874,0,0,1,.038.96C47.62,78.8,38.144,79.184,33.54,78.79a.476.476,0,1,1,.082-.949,53.747,53.747,0,0,0,9.056-.1c3.729-.362,4.946-.94,5.153-1.176-.844-1.177-4.436-1.447-6.374-1.593-1.64-.124-2.03-.153-2.171-.579a.5.5,0,0,1,.031-.4c.158-.306.514-.435,2.665-1.1,1.316-.406,2.955-.911,4.267-1.446,1.884-.768,2.1-1.2,2.12-1.274-.089-.076-.731-.478-4.02-.09a37.186,37.186,0,0,0-5.012.926.476.476,0,0,1-.358-.877c4.519-2.389,9.346-5.252,10.314-6.292-1.687-.186-9.189,1.576-12.014,3.05a.476.476,0,0,1-.452-.838c4.942-2.749,10.365-6.215,11.081-7.348-1.49-.068-8.542,2.958-14.855,6.114a.476.476,0,0,1-.432-.849c.035-.018,3.453-1.85,2.667-3.527-.164-.35-.343-.554-.532-.607-.393-.111-1.053.329-1.693.753a8.483,8.483,0,0,1-1.592.9c-1.008.388-4.323,1.867-4.672,4.622a56.222,56.222,0,0,0-.463,6.677c.373,10.865,3.522,31.4,9.43,31.979,1.945.184,6.252-3,9.291-6.2a.476.476,0,0,1,.691.656C43.214,101.891,38.589,105.731,35.921,105.731ZM49.453,63.624Zm-1.368-4.881h0Z"/><path class="b" d="M92.028,105.733c-3.389,0-8.767-5.226-11.2-8.072a.476.476,0,0,1,.724-.619c3.358,3.926,8.252,7.967,10.683,7.729,5.908-.579,9.057-21.114,9.43-31.979a56.222,56.222,0,0,0-.463-6.677c-.349-2.755-3.664-4.234-4.672-4.622a8.483,8.483,0,0,1-1.592-.9c-.64-.424-1.3-.864-1.693-.753-.189.053-.368.257-.532.607-.788,1.682,2.632,3.509,2.667,3.527a.476.476,0,0,1-.432.849c-6.231-3.116-13.184-6.116-14.8-6.116l-.06,0c.716,1.133,6.139,4.6,11.081,7.348a.476.476,0,0,1-.452.838c-2.825-1.474-10.328-3.237-12.014-3.05.968,1.04,5.8,3.9,10.314,6.292a.476.476,0,0,1-.358.877,37.186,37.186,0,0,0-5.012-.926c-3.282-.386-3.928.013-4.019.09.027.086.254.514,2.119,1.274,1.312.535,2.951,1.04,4.267,1.446,2.151.663,2.507.792,2.665,1.1a.5.5,0,0,1,.031.4c-.141.426-.531.455-2.171.579-1.945.146-5.556.419-6.375,1.591.2.236,1.419.815,5.154,1.178a53.746,53.746,0,0,0,9.056.1.476.476,0,1,1,.082.949c-4.6.394-14.08.009-15.136-1.777a.874.874,0,0,1,.038-.96c1.045-1.568,4.657-1.848,7.07-2.03-.229-.072-.465-.144-.694-.215-3.9-1.2-6.9-2.226-7.055-3.528a.913.913,0,0,1,.335-.83c.947-.8,4.18-.458,6.713-.022-.761-.423-1.608-.9-2.454-1.4-5.5-3.211-5.607-3.873-5.663-4.229a.684.684,0,0,1,.287-.671c.857-.615,4.862.162,8.362,1.164-.393-.239-.794-.485-1.2-.735-5.838-3.642-5.944-4.487-6-4.894a.737.737,0,0,1,.224-.642c.343-.324.983-.929,8.739,2.5,1.43.631,2.844,1.287,4.043,1.855a2.345,2.345,0,0,1-.23-2.333,1.859,1.859,0,0,1,1.137-1.12c.811-.227,1.621.309,2.477.876a7.766,7.766,0,0,0,1.408.8c1.133.436,4.86,2.112,5.275,5.391a56.019,56.019,0,0,1,.47,6.83c-.232,6.758-2.659,32.146-10.289,32.894A2.95,2.95,0,0,1,92.028,105.733ZM78.547,63.624Z"/><path class="b" d="M59.346,37.1a.237.237,0,0,1-.165-.066,5.436,5.436,0,0,0-4.074-1.419,8.375,8.375,0,0,0-2.775.678A.241.241,0,0,1,52,36.24a.235.235,0,0,1,.049-.327,7.815,7.815,0,0,1,2.986-.765A5.816,5.816,0,0,1,59.512,36.7a.238.238,0,0,1-.166.408Z"/><path class="b" d="M69.435,37.1a.238.238,0,0,1-.166-.408,5.818,5.818,0,0,1,4.474-1.548,7.837,7.837,0,0,1,2.987.765.238.238,0,1,1-.286.38,8.475,8.475,0,0,0-2.77-.674A5.432,5.432,0,0,0,69.6,37.038.237.237,0,0,1,69.435,37.1Z"/><path class="b" d="M42.168,124.763a.469.469,0,0,1-.155-.027.475.475,0,0,1-.295-.605c.065-.19,6.5-19.066,2.893-25.834a39.149,39.149,0,0,1-3.418-8.372.476.476,0,1,1,.921-.241,38.275,38.275,0,0,0,3.337,8.165c3.8,7.133-2.56,25.8-2.833,26.592A.476.476,0,0,1,42.168,124.763Z"/><path class="b" d="M83.13,124.763a.474.474,0,0,1-.433-.28c-.308-.677-7.492-16.659-4-23.023a67.863,67.863,0,0,0,4.778-11.8.476.476,0,1,1,.909.283,68.787,68.787,0,0,1-4.852,11.972c-3.263,5.95,3.96,22.01,4.034,22.171a.477.477,0,0,1-.434.674Z"/><path class="b" d="M64.737,97.887a.233.233,0,0,1-.142-.047,2.647,2.647,0,0,0-3.193,0,.238.238,0,1,1-.294-.374,3.163,3.163,0,0,1,3.772,0,.238.238,0,0,1-.143.428Z"/><path class="b" d="M78.627,46.392a.494.494,0,0,1-.131-.019.476.476,0,0,1-.327-.589,15.944,15.944,0,0,0,.588-5.189,31.632,31.632,0,0,0-1.14-5.588c-.078-.239-.17-.539-.277-.89C76.346,30.866,73.7,22.23,68.977,20.34c-5.5-2.2-12.1.585-15.7,6.623a24.556,24.556,0,0,0-3.037,13.546c0,.032.24,2.611.565,5.35a.476.476,0,1,1-.946.112c-.327-2.751-.564-5.343-.567-5.369a25.126,25.126,0,0,1,3.166-14.126c3.836-6.444,10.929-9.4,16.868-7.021,5.15,2.06,7.792,10.7,8.92,14.384.1.344.2.64.272.875a32.173,32.173,0,0,1,1.183,5.8l0,.024a16.917,16.917,0,0,1-.624,5.511A.476.476,0,0,1,78.627,46.392Z"/><path class="b" d="M50.571,45.915l-.8-5.356a24.89,24.89,0,0,1,3.1-13.839c3.876-6.513,10.854-8.994,16.281-6.823S77.217,32.224,78.07,34.86a32.1,32.1,0,0,1,1.163,5.7,29.611,29.611,0,0,1-.409,5.356h6.687c.165-2.24.3-4.38.312-5.356,0,0,1.008-32.679-10.389-28.8,0,0,.232-6.28-10.157-6.513S43.8,11.834,38.452,24.472c-2.58,6.1-2.978,14.212-2.62,21.443Z"/><path class="b" d="M55.489,42.226a.238.238,0,0,1-.169-.406l.6-.6a.238.238,0,0,1,.337.337l-.6.6A.234.234,0,0,1,55.489,42.226Z"/><path class="b" d="M56.652,42.226a.234.234,0,0,1-.168-.07.237.237,0,0,1,0-.336l.6-.6a.238.238,0,0,1,.336.337l-.6.6A.238.238,0,0,1,56.652,42.226Z"/><path class="b" d="M71.712,42.226a.234.234,0,0,1-.168-.07.237.237,0,0,1,0-.336l.6-.6a.238.238,0,0,1,.337.337l-.6.6A.238.238,0,0,1,71.712,42.226Z"/><path class="b" d="M72.876,42.226a.238.238,0,0,1-.169-.406l.6-.6a.238.238,0,1,1,.336.337l-.6.6A.234.234,0,0,1,72.876,42.226Z"/><path class="b" d="M62.64,43.84a.476.476,0,0,1-.384-.194,2.742,2.742,0,0,1-.028-2.845.476.476,0,0,1,.823.48,1.822,1.822,0,0,0-.029,1.8.477.477,0,0,1-.382.76Z"/><path class="b" d="M36.92,50.834a.239.239,0,0,1-.238-.238V47.884a.239.239,0,0,1,.238-.239H39a.239.239,0,0,1,0,.477H37.158V50.6A.238.238,0,0,1,36.92,50.834Z"/><path class="b" d="M92.152,50.834a.239.239,0,0,1-.238-.238V48.122H90.077a.239.239,0,1,1,0-.477h2.075a.239.239,0,0,1,.239.239V50.6A.239.239,0,0,1,92.152,50.834Z"/><path class="b" d="M39,85.22H36.92a.239.239,0,0,1-.238-.238V82.27a.238.238,0,0,1,.476,0v2.474H39a.238.238,0,1,1,0,.476Z"/><path class="b" d="M92.152,85.22H90.077a.238.238,0,1,1,0-.476h1.837V82.27a.239.239,0,0,1,.477,0v2.712A.239.239,0,0,1,92.152,85.22Z"/><path class="b" d="M76.854,110.725a.239.239,0,0,1-.232-.184,17.461,17.461,0,0,1,0-8.518.238.238,0,1,1,.454.143,17.313,17.313,0,0,0,0,8.268.237.237,0,0,1-.178.285A.248.248,0,0,1,76.854,110.725Z"/><path class="b" d="M44.693,122.419a.245.245,0,0,1-.087-.017.238.238,0,0,1-.135-.308,84.35,84.35,0,0,0,3.336-12.512.238.238,0,1,1,.468.085,84.75,84.75,0,0,1-3.361,12.6A.237.237,0,0,1,44.693,122.419Z"/><path class="b" d="M123.524,124.762H4.476a.476.476,0,1,1,0-.952H123.524a.476.476,0,0,1,0,.952Z"/></svg>