<svg xmlns="http://www.w3.org/2000/svg" viewBox="0 0 128 128"><defs><style>.a{fill:#fff;}.b{fill:#231f20;}</style></defs><path class="a" d="M61.328,69.993c2.06,2.446,9.03,2.075,11.32.866.061-.032.128-.073.2-.116A9.437,9.437,0,0,0,74.384,69.4a.5.5,0,0,1,.059-.044c3.063-3.183,7.834-10.466,8.952-17.618.043-.278.08-.547.117-.816l.03-.216a.477.477,0,0,1,.741-.328,1.989,1.989,0,0,0,2.228.139c2.111-1.134,2.88-5.354,2.381-8.613a2.313,2.313,0,0,0-1.209-1.72,3.1,3.1,0,0,0-.383-.177,9.052,9.052,0,0,1,.55,5.52c-.38,1.647-.994,2.657-1.825,3a1.538,1.538,0,0,1-.594.12,1.3,1.3,0,0,1-.651-.16.238.238,0,0,1,.253-.4.967.967,0,0,0,.81,0c.468-.193,1.116-.814,1.543-2.668a8.741,8.741,0,0,0-.685-5.573,4.462,4.462,0,0,0-2.555.317.476.476,0,0,1-.652-.326,8.541,8.541,0,0,0-2.464-4.546,62.622,62.622,0,0,0-5.12-3.725,101.453,101.453,0,0,1-10.82-8.187c-3.052-2.771-7.084-2.494-9.216-2.083-3.558.687-6.117,2.422-6.6,3.41-1.19,2.449-2.383,8.908-1.92,11.689a5.55,5.55,0,0,1-.234,3.481,3.546,3.546,0,0,0-.295,1.154c0,.034-.007.083-.012.146a23.016,23.016,0,0,0,.629,7.608.472.472,0,0,1-.081.4A5.339,5.339,0,0,0,46.65,50.5c.24,1.9.866,4.318,1.851,4.413a.238.238,0,0,1-.023.475h-.023c-1.216-.117-1.826-2.184-2.117-3.787-.387,1.985.071,4.114,1.089,4.915.7.549,1.59.336,2.653-.634a.476.476,0,0,1,.32-.124c.021,0,.042,0,.063,0a.481.481,0,0,1,.339.216A160.7,160.7,0,0,0,61.281,69.937ZM84.986,44.28a2.083,2.083,0,0,1,1.256-1.2.307.307,0,0,0,.226-.17,1.139,1.139,0,0,0-.108-.767.238.238,0,0,1,.427-.211,1.574,1.574,0,0,1,.115,1.172.785.785,0,0,1-.533.435,1.638,1.638,0,0,0-.944.924,1.467,1.467,0,0,0,.052,1.311.238.238,0,0,1-.095.323.233.233,0,0,1-.114.029.238.238,0,0,1-.209-.124A1.95,1.95,0,0,1,84.986,44.28ZM77,45.113c-.192,2.1-1.64,3.69-3.234,3.545s-2.732-1.969-2.54-4.071,1.64-3.69,3.234-3.545a2.352,2.352,0,0,1,1.331.583,1.4,1.4,0,0,0,1.2,2.516A5,5,0,0,1,77,45.113Zm.659-3.442a.238.238,0,0,1-.335-.031A4.881,4.881,0,0,0,74.1,40.187,3.054,3.054,0,0,0,71.154,41.6a.238.238,0,0,1-.42-.226,3.519,3.519,0,0,1,3.4-1.663,5.261,5.261,0,0,1,3.56,1.624A.238.238,0,0,1,77.659,41.671ZM68.825,37.99A6.525,6.525,0,0,1,72.2,36.438c2.061-.33,6.768.672,6.967.715a.476.476,0,1,1-.2.931c-.047-.01-4.73-1.006-6.616-.706a5.613,5.613,0,0,0-2.858,1.29.478.478,0,0,1-.334.137.476.476,0,0,1-.334-.815Zm.4,12.426a.476.476,0,0,1,.047.951c-.541.027-.62.29-.629.4a.471.471,0,0,1-.475.461h-.01a.483.483,0,0,1-.467-.492A1.438,1.438,0,0,1,69.223,50.416Zm-.2,11.315c.3.271.246.722.122,1.238,0,0-.114.314-.2.324a.53.53,0,0,1,.084.129c-.048.183-.094.37-.129.556h0c-.077.349-.354.759-1.18.759a1.444,1.444,0,0,1-1.209-.759c-.041-.1-.083-.19-.125-.281h0c-.021-.131.036-.233-.03-.253s-.174-.2-.177-.2a1.224,1.224,0,0,1,.173-1.509A1.975,1.975,0,0,1,69.026,61.731ZM63.644,51.059a2.476,2.476,0,0,1,2.361.667.476.476,0,1,1-.67.676c-.013-.013-.713-.682-1.369-.447a.476.476,0,0,1-.322-.9Zm-6.027-.866c-1.594.146-3.042-1.441-3.234-3.544s.946-3.926,2.54-4.071a2.515,2.515,0,0,1,1.94.726,1.4,1.4,0,0,0,1.252,2.489c.017.109.032.218.042.329C60.349,48.225,59.212,50.048,57.617,50.193Zm3.4-7.073a.238.238,0,0,1-.336.018,5.34,5.34,0,0,0-4.41-1.185,4.029,4.029,0,0,0-2.98,2.225.239.239,0,0,1-.225.159.242.242,0,0,1-.079-.013.237.237,0,0,1-.146-.3,4.483,4.483,0,0,1,3.314-2.531A5.716,5.716,0,0,1,61,42.784.238.238,0,0,1,61.016,43.12ZM60.71,39.2c-5.146-1.454-9.519,2.59-9.562,2.631a.476.476,0,0,1-.653-.694c.194-.182,4.815-4.451,10.474-2.854a.476.476,0,0,1-.259.917Z"/><path class="a" d="M74.311,83.659c-.018.484-.036.922-.055,1.3l-.026.518c-.217,4.469-.545,11.224-4.074,14.047a2.981,2.981,0,0,1-1.9.677,3.87,3.87,0,0,1-1.764-.463c-3.23-1.657-6.471-7.588-6.148-13.777.039-.753.046-1.558.029-2.4-8.065,1.233-23.057,4.249-25.439,7.405-3.015,4-7.47,16.85-11.391,32.837H43.179c-.155-4.7-.281-8.646-.281-8.646a.239.239,0,0,1,.23-.246.232.232,0,0,1,.246.231s.126,3.954.282,8.661h42.56c-.027-4.348-.062-7.87-.062-7.871a.238.238,0,0,1,.236-.24.234.234,0,0,1,.24.236s.035,3.525.062,7.875h17.772c-3.565-15.749-7.44-27.943-9.018-30.271C92.916,89.8,77.536,84.7,74.311,83.659Zm-27.388,5.2c-2.459.555-9.051,2.191-10,3.088s-4,8.811-5.1,11.782a.237.237,0,0,1-.223.155.232.232,0,0,1-.082-.014.239.239,0,0,1-.142-.306c.162-.44,3.985-10.8,5.217-11.963s9.856-3.124,10.222-3.206a.238.238,0,1,1,.105.464Zm14.05,5.679a.239.239,0,0,1-.331-.063,14.148,14.148,0,0,1-2.015-8.552.238.238,0,0,1,.474.051,13.918,13.918,0,0,0,1.935,8.233A.238.238,0,0,1,60.973,94.542Zm11.469,5.792a.237.237,0,0,1-.192.1.238.238,0,0,1-.192-.379c3.245-4.412,2.906-7.789,2.9-7.823a.238.238,0,0,1,.473-.054C75.45,92.319,75.807,95.758,72.442,100.334ZM96,102.659a.261.261,0,0,1-.048,0,.238.238,0,0,1-.233-.191c-.013-.062-1.273-6.194-2.237-7.543-.95-1.33-4.077-2.493-4.109-2.5a.238.238,0,0,1,.165-.447c.134.049,3.3,1.225,4.331,2.674,1.022,1.431,2.264,7.469,2.317,7.725A.239.239,0,0,1,96,102.659Z"/><path class="a" d="M61.3,86.012c-.3,5.734,2.728,11.39,5.632,12.88a2.268,2.268,0,0,0,2.629-.11c3.194-2.555,3.522-9.313,3.718-13.35l.026-.519c.035-.7.066-1.6.1-2.644.1-2.855.227-6.547.552-9.986-1.011,2.7-3.121,6.576-6.9,6.576-3.523,0-5.786-4.092-7.021-7.311A74.684,74.684,0,0,1,61.3,86.012Z"/><path class="b" d="M67.41,72.76c-2.7,0-5.5-.6-6.81-2.154A165.815,165.815,0,0,1,50.293,56.944c-1.685,1.3-2.874.776-3.455.319-1.972-1.553-2.137-5.9-.37-8.462a23.939,23.939,0,0,1-.6-7.711l.011-.129a4.485,4.485,0,0,1,.358-1.432,4.647,4.647,0,0,0,.182-2.977c-.5-3.007.742-9.669,2-12.262.759-1.562,3.954-3.288,7.274-3.929,3.982-.77,7.547.053,10.037,2.313A100.608,100.608,0,0,0,76.449,30.78a63.314,63.314,0,0,1,5.209,3.8,9.136,9.136,0,0,1,2.626,4.519,4.967,4.967,0,0,1,3.859.256,3.267,3.267,0,0,1,1.69,2.409h0c.553,3.607-.266,8.2-2.871,9.6a2.9,2.9,0,0,1-2.572.163q-.025.18-.054.366C82.889,61.143,75.728,70.31,73.092,71.7A13.524,13.524,0,0,1,67.41,72.76Zm-17.01-17c.021,0,.042,0,.063,0a.481.481,0,0,1,.339.216A161.5,161.5,0,0,0,61.328,69.993c2.06,2.446,9.03,2.075,11.32.866,2.439-1.287,9.369-10.306,10.747-19.122.043-.278.08-.547.117-.816l.03-.216a.477.477,0,0,1,.741-.328,1.989,1.989,0,0,0,2.228.139c2.111-1.134,2.88-5.354,2.381-8.613h0a2.313,2.313,0,0,0-1.209-1.72,4.113,4.113,0,0,0-3.537-.02.476.476,0,0,1-.652-.326,8.541,8.541,0,0,0-2.464-4.546,62.622,62.622,0,0,0-5.12-3.725,101.453,101.453,0,0,1-10.82-8.187c-3.052-2.771-7.084-2.494-9.216-2.083-3.558.687-6.117,2.422-6.6,3.41-1.19,2.449-2.383,8.908-1.92,11.689a5.55,5.55,0,0,1-.234,3.481,3.546,3.546,0,0,0-.295,1.154c0,.034-.007.083-.012.146a23.016,23.016,0,0,0,.629,7.608.472.472,0,0,1-.081.4c-1.709,2.266-1.4,6.173.063,7.327.7.549,1.59.336,2.653-.634A.476.476,0,0,1,50.4,55.756Z"/><path class="b" d="M46.983,48.9A23.012,23.012,0,0,1,46.353,41c.114-1.581,1.025-1.581.534-4.523s.771-9.524,1.961-11.975S59.7,17.845,65.411,23.027s13.062,9.385,15.933,11.906a8.951,8.951,0,0,1,2.612,4.793c2.053-.89,4.454-.364,5.2,1.405a32.842,32.842,0,0,0,1.322-17.894c-2-8.719-15.967-17.438-24.371-17.964s-11.136,4.938-11.136,4.938c-13.866.63-13.236,11.871-15.547,14.6s-1.891,12.5.525,18.174a36.124,36.124,0,0,0,5.927,8.52A6.361,6.361,0,0,1,46.983,48.9Z"/><path class="b" d="M68.261,100.2a3.87,3.87,0,0,1-1.764-.463c-3.23-1.657-6.471-7.588-6.148-13.777.288-5.52-1.1-13.73-1.953-18.132a.476.476,0,0,1,.839-.389c1.072,1.333,1.821,2.229,2.093,2.552,2.06,2.446,9.03,2.075,11.32.866h0a8.116,8.116,0,0,0,1.736-1.46.476.476,0,0,1,.815.395c-.547,4.028-.716,8.929-.84,12.508-.037,1.046-.068,1.95-.1,2.658l-.026.518c-.217,4.469-.545,11.224-4.074,14.047A2.981,2.981,0,0,1,68.261,100.2ZM59.677,69.5c.841,4.643,1.879,11.6,1.623,16.517-.3,5.734,2.728,11.39,5.632,12.88a2.268,2.268,0,0,0,2.629-.11c3.194-2.555,3.522-9.313,3.718-13.35l.026-.519c.035-.7.066-1.6.1-2.644.111-3.217.259-7.5.685-11.28a5.764,5.764,0,0,1-1,.712h0c-2.637,1.392-10.085,1.765-12.492-1.095C60.442,70.419,60.124,70.04,59.677,69.5Z"/><path class="b" d="M22.941,124.762a.443.443,0,0,1-.113-.014.476.476,0,0,1-.35-.575c3.984-16.377,8.576-29.634,11.7-33.775,3.276-4.34,25.64-7.712,26.59-7.854a.476.476,0,0,1,.14.942c-7.917,1.179-23.535,4.26-25.97,7.486-3.052,4.045-7.58,17.165-11.536,33.426A.476.476,0,0,1,22.941,124.762Z"/><path class="b" d="M105.059,124.762a.477.477,0,0,1-.464-.372c-3.6-16.03-7.552-28.5-9.149-30.852-2.814-4.155-21.541-10.009-21.73-10.068A.476.476,0,0,1,74,82.56C74.783,82.8,93.235,88.574,96.235,93c1.645,2.428,5.664,15.038,9.289,31.177a.476.476,0,0,1-.36.569A.47.47,0,0,1,105.059,124.762Z"/><path class="b" d="M43.433,124.524a.239.239,0,0,1-.238-.231c-.163-4.91-.3-9.13-.3-9.13a.239.239,0,0,1,.23-.246.232.232,0,0,1,.246.231s.134,4.219.3,9.13a.237.237,0,0,1-.23.245Z"/><path class="b" d="M86.457,124.524a.238.238,0,0,1-.238-.237c-.028-4.565-.065-8.348-.065-8.349a.238.238,0,0,1,.236-.24.234.234,0,0,1,.24.236s.037,3.784.065,8.35a.238.238,0,0,1-.236.24Z"/><path class="b" d="M50.822,41.964a.476.476,0,0,1-.327-.823c.194-.182,4.815-4.451,10.474-2.854a.476.476,0,0,1-.259.917c-5.146-1.454-9.519,2.59-9.562,2.631A.476.476,0,0,1,50.822,41.964Z"/><path class="b" d="M69.159,38.805a.476.476,0,0,1-.334-.815A6.525,6.525,0,0,1,72.2,36.438c2.061-.33,6.768.672,6.967.715a.476.476,0,1,1-.2.931c-.047-.01-4.73-1.006-6.616-.706a5.613,5.613,0,0,0-2.858,1.29A.478.478,0,0,1,69.159,38.805Z"/><path class="b" d="M65.669,52.54a.474.474,0,0,1-.334-.138c-.013-.013-.713-.682-1.369-.447a.476.476,0,0,1-.322-.9,2.476,2.476,0,0,1,2.361.667.476.476,0,0,1-.336.814Z"/><path class="b" d="M68.166,52.229h-.01a.483.483,0,0,1-.467-.492,1.438,1.438,0,0,1,1.534-1.321.476.476,0,0,1,.047.951c-.541.027-.62.29-.629.4A.471.471,0,0,1,68.166,52.229Z"/><path class="b" d="M68.948,63.293c.086-.011.2-.319.2-.324.124-.516.177-.967-.122-1.238a1.975,1.975,0,0,0-2.671,0,1.224,1.224,0,0,0-.173,1.509s.113.184.177.2.009.122.03.253h0c.042.091.084.184.125.281a1.444,1.444,0,0,0,1.209.759c.826,0,1.1-.41,1.18-.759h0c.034-.186.081-.373.129-.556A.53.53,0,0,0,68.948,63.293Z"/><path class="b" d="M72.87,71.28c-2.521,1.331-9.665,1.681-11.906-.98-.454-.54-1.2-1.435-2.1-2.561,0,0,2.384,11.12,8.191,11.12s7.672-9.129,7.672-9.129A8.438,8.438,0,0,1,72.87,71.28Z"/><path class="b" d="M53.065,44.337a.242.242,0,0,1-.079-.013.237.237,0,0,1-.146-.3,4.483,4.483,0,0,1,3.314-2.531A5.716,5.716,0,0,1,61,42.784a.238.238,0,1,1-.318.354,5.34,5.34,0,0,0-4.41-1.185,4.029,4.029,0,0,0-2.98,2.225A.239.239,0,0,1,53.065,44.337Z"/><path class="b" d="M77.507,41.726a.235.235,0,0,1-.183-.086A4.881,4.881,0,0,0,74.1,40.187,3.054,3.054,0,0,0,71.154,41.6a.238.238,0,0,1-.42-.226,3.519,3.519,0,0,1,3.4-1.663,5.261,5.261,0,0,1,3.56,1.624.238.238,0,0,1-.183.39Z"/><path class="b" d="M60.115,45.793A1.4,1.4,0,0,1,58.863,43.3a2.515,2.515,0,0,0-1.94-.726c-1.594.145-2.731,1.968-2.54,4.071s1.64,3.69,3.234,3.544,2.732-1.968,2.54-4.071C60.147,46.011,60.132,45.9,60.115,45.793Z"/><path class="b" d="M76.471,44.242a1.4,1.4,0,0,1-.68-2.617,2.352,2.352,0,0,0-1.331-.583c-1.594-.145-3.042,1.442-3.234,3.545s.945,3.925,2.54,4.071S76.808,47.216,77,45.113a5,5,0,0,0-.009-.972A1.384,1.384,0,0,1,76.471,44.242Z"/><path class="b" d="M60.839,94.583a.237.237,0,0,1-.2-.1,14.148,14.148,0,0,1-2.015-8.552.238.238,0,0,1,.474.051,13.918,13.918,0,0,0,1.935,8.233.238.238,0,0,1-.2.372Z"/><path class="b" d="M72.25,100.431a.238.238,0,0,1-.192-.379c3.245-4.412,2.906-7.789,2.9-7.823a.238.238,0,0,1,.473-.054c.017.144.374,3.583-2.991,8.159A.237.237,0,0,1,72.25,100.431Z"/><path class="b" d="M31.6,103.888a.232.232,0,0,1-.082-.014.239.239,0,0,1-.142-.306c.162-.44,3.985-10.8,5.217-11.963s9.856-3.124,10.222-3.206a.238.238,0,1,1,.105.464c-2.459.555-9.051,2.191-10,3.088s-4,8.811-5.1,11.782A.237.237,0,0,1,31.6,103.888Z"/><path class="b" d="M95.955,102.664a.238.238,0,0,1-.233-.191c-.013-.062-1.273-6.194-2.237-7.543-.95-1.33-4.077-2.493-4.109-2.5a.238.238,0,0,1,.165-.447c.134.049,3.3,1.225,4.331,2.674,1.022,1.431,2.264,7.469,2.317,7.725a.239.239,0,0,1-.186.281A.261.261,0,0,1,95.955,102.664Z"/><path class="b" d="M85.431,48.647a1.3,1.3,0,0,1-.651-.16.238.238,0,0,1,.253-.4.967.967,0,0,0,.81,0c.468-.193,1.116-.814,1.543-2.668a8.883,8.883,0,0,0-1.006-6.18.238.238,0,1,1,.4-.257,9.205,9.205,0,0,1,1.069,6.544c-.38,1.647-.994,2.657-1.825,3A1.538,1.538,0,0,1,85.431,48.647Z"/><path class="b" d="M85.268,46.129a.238.238,0,0,1-.209-.124,1.95,1.95,0,0,1-.073-1.725,2.083,2.083,0,0,1,1.256-1.2.307.307,0,0,0,.226-.17,1.153,1.153,0,0,0-.108-.768.238.238,0,0,1,.427-.21,1.574,1.574,0,0,1,.115,1.172.785.785,0,0,1-.533.435,1.638,1.638,0,0,0-.944.924,1.467,1.467,0,0,0,.052,1.311.238.238,0,0,1-.095.323A.233.233,0,0,1,85.268,46.129Z"/><path class="b" d="M48.478,55.387h-.023c-1.886-.182-2.315-5.055-2.357-5.61a.238.238,0,1,1,.474-.036c.15,1.942.806,5.064,1.929,5.172a.238.238,0,0,1-.023.475Z"/><path class="b" d="M123.524,124.762H4.476a.477.477,0,0,1,0-.953H123.524a.477.477,0,0,1,0,.953Z"/></svg>