<svg xmlns="http://www.w3.org/2000/svg" viewBox="0 0 128 128"><defs><style>.a{fill:#fff;}.b{fill:#231f20;}</style></defs><path class="a" d="M66.444,57.556a7.91,7.91,0,0,0,3.449-3.174.477.477,0,0,1,.684-.2c.251.157,1.066.557,1.506.344.208-.1.337-.371.384-.8a3.523,3.523,0,0,0-.783-2.3,23.64,23.64,0,0,1-3.013-8.216,58.911,58.911,0,0,0-7.1-17.919.384.384,0,0,1-.021-.04,77.833,77.833,0,0,0-13.991-1.217c-.03.052-.061.1-.091.156a42.287,42.287,0,0,0-3.5,7.631,9.02,9.02,0,0,1,3.989,1.356.475.475,0,0,1,.218.471c-.029.2-.732,4.98-1.914,6.789a18.1,18.1,0,0,1-2.006,2.414,7.1,7.1,0,0,0-1.23,1.514c-.18.47,1.146,1.972,1.567,2.209a2.626,2.626,0,0,1,2.491.148C49.673,47.842,51,46.8,51,46.8a3.438,3.438,0,0,1-2.543,2.6c-2.978.568-3.958-.208-4.352-1.5-.882.883-1.935.668-3.229.146a2.093,2.093,0,0,1-.79-.565,22.08,22.08,0,0,0,.717,5.306c2.283,9.068,5.039,8.908,10.045,8.617,1.017-.059,2.154-.169,3.351-.329a.535.535,0,0,1,.069-.017c2.32-.319,8.149-1.3,12.146-3.492C66.423,57.563,66.434,57.561,66.444,57.556ZM53.6,52.048a14.608,14.608,0,0,1-4.69.8,11.169,11.169,0,0,1-5.959-1.561.476.476,0,0,1,.535-.788c.039.026,3.977,2.615,9.809.646a.476.476,0,0,1,.3.9Zm1.251-8.469-.6.6a.24.24,0,0,1-.337,0,.238.238,0,0,1,0-.337l.6-.6a.238.238,0,0,1,.336.336Zm1.164,0-.6.6a.238.238,0,0,1-.336-.337l.6-.6a.238.238,0,0,1,.337.336Zm3-5.7a.236.236,0,0,1-.335.03,3.115,3.115,0,0,0-.6-.358,2.947,2.947,0,0,1,.064,1.458c-.232,1.179-1.037,2.014-1.8,1.865a1.475,1.475,0,0,1-1-1.383.739.739,0,0,0,.152-1.456,2.733,2.733,0,0,1,.528-.933,6.654,6.654,0,0,0-2.212.378.238.238,0,0,1-.154-.45c3.31-1.126,5.239.446,5.319.514A.238.238,0,0,1,59.014,37.877Zm3.844-2.554a.476.476,0,0,1-.631-.236c0-.007-.654-1.276-3.331-1.875a11.08,11.08,0,0,0-5.828.61.476.476,0,1,1-.368-.878,11.9,11.9,0,0,1,6.4-.662c3.186.713,3.959,2.342,3.99,2.411A.476.476,0,0,1,62.858,35.323Z"/><path class="a" d="M42.268,46.1a4.478,4.478,0,0,1,.518-.017,2.352,2.352,0,0,1-.648-2.055A6.919,6.919,0,0,1,43.561,42.2a17.28,17.28,0,0,0,1.9-2.284,5.219,5.219,0,0,0,.439-.88.747.747,0,0,1-.361.052c-.48-.056-.826-.6-.876-1.291a.542.542,0,0,0,.154-1.058,1.724,1.724,0,0,1,.488-.718,4.333,4.333,0,0,0-2.319.332.233.233,0,0,1-.107.014,28.287,28.287,0,0,1-.97,2.831,23.665,23.665,0,0,0-1.757,6.617A4.282,4.282,0,0,0,42.268,46.1Zm.812-5.079.6-.6a.238.238,0,1,1,.336.337l-.6.6a.238.238,0,0,1-.337-.336Zm-1.163,0,.6-.6a.238.238,0,1,1,.337.337l-.6.6a.237.237,0,0,1-.336,0A.237.237,0,0,1,41.917,41.02Z"/><path class="a" d="M46.764,36.045c.206-.94.35-1.781.421-2.216A6.768,6.768,0,0,0,43.68,32.8a25.7,25.7,0,0,0-.591,2.631c-.023.137-.051.274-.08.411A4.225,4.225,0,0,1,46.764,36.045Z"/><path class="a" d="M47.627,101.3c2.313-3.118,6.317-8.8,7.62-12.426,2.071-5.761,6.354-16.325,9.034-20.142,1.123-1.6,1.767-5.031,1.873-9.953-.136.068-.277.133-.417.2a22.228,22.228,0,0,1-9.983,5.76,64.576,64.576,0,0,1,2.078,9.215c.121,1.422-.68,3.987-1.842,6.917-1.548,4.5-4.156,11.981-5.015,13.811C50.234,96.261,48.729,99.184,47.627,101.3Z"/><path class="a" d="M92.547,85.986a54.251,54.251,0,0,0-3.22-10,6.453,6.453,0,0,0-2.543-1.626C88.536,79.1,91.239,86.773,91.4,89.438c.227,3.873-2.906,17.694-3.039,18.281a.238.238,0,1,1-.464-.106c.032-.143,3.25-14.342,3.027-18.148-.154-2.635-2.972-10.584-4.708-15.268-2.38-.589-5.868-.169-11.65,1.834-7.9,2.736-9.9-3.263-10.35-5.406-2.618,4.482-6.223,13.441-8.068,18.574-1.915,5.33-9.158,14.538-9.466,14.927a.476.476,0,0,1-.828-.436c.012-.038,1.183-3.8,2.664-8.076.492-1.421,1.571-3.774,2.821-6.5.543-1.184,1.131-2.465,1.714-3.77-3.967,5.494-11.525,16.061-14.734,21.23-4.292,6.915-4.124,9.939-1.183,16.448H51.312c.667-1.656,3.312-8.2,4.757-11.435,1.654-3.7,12.433-26.577,12.542-26.807a.238.238,0,0,1,.431.2c-.109.231-10.886,23.1-12.538,26.8-1.395,3.121-3.913,9.34-4.679,11.241H87.552C88.406,119.809,94.718,95.469,92.547,85.986ZM64.6,76.446c-1.569,4.091-5.279,13.724-5.86,14.814a.238.238,0,0,1-.421-.224c.585-1.1,4.615-11.575,5.836-14.761a.238.238,0,1,1,.445.171Z"/><path class="a" d="M45.555,18.568c2.871.384,20.461,2.925,34.74,9.168a.238.238,0,0,1-.1.456.245.245,0,0,1-.095-.02A124.249,124.249,0,0,0,57.32,21.15c-5.43-.652-10.645-.841-12.213-.886a10.506,10.506,0,0,0,.255,2.88c19.033-.85,37.855,7.319,38.946,7.8,2.729.571,4.619-.382,5.222-1.515a1.816,1.816,0,0,0-.492-2.279,15.314,15.314,0,0,1-2.623-3.838,52.19,52.19,0,0,0-6.03-8.912C74.717,7.543,54.754,2.567,47.009,6.082c-3.789,1.72-6.021,3.825-6.283,5.927a3.169,3.169,0,0,0,1.216,2.911A21.484,21.484,0,0,1,45.5,18.467.436.436,0,0,1,45.555,18.568Zm-2.176-6.737a.24.24,0,0,1-.236.2l-.036,0a.237.237,0,0,1-.2-.268c.015-.1.434-2.542,6.062-4.543,5.568-1.979,13.428.349,13.76.449a.238.238,0,0,1-.138.456c-.08-.025-8.043-2.382-13.462-.456C43.817,9.554,43.382,11.809,43.379,11.831Z"/><path class="b" d="M80.2,28.192a.245.245,0,0,1-.095-.02c-15.455-6.757-34.817-9.161-35.01-9.184a.238.238,0,0,1,.057-.473c.194.024,19.625,2.436,35.144,9.221a.238.238,0,0,1-.1.456Z"/><path class="b" d="M48.718,62.436c-4.26,0-6.8-1.316-8.839-9.414-1.692-6.723-.12-10.847,1.144-14.161a19.764,19.764,0,0,0,1.127-3.592c.706-4.155,2.24-7.495,4.486-11.538.069-.124.14-.246.212-.364a.476.476,0,1,1,.812.5c-.065.106-.129.216-.192.329-2.2,3.954-3.7,7.213-4.379,11.234A20.487,20.487,0,0,1,41.913,39.2c-1.28,3.354-2.73,7.156-1.111,13.588,2.283,9.068,5.039,8.908,10.045,8.617,6.232-.362,16.913-2.59,19.046-7.024a.477.477,0,0,1,.684-.2c.251.157,1.066.557,1.506.344.208-.1.337-.371.384-.8a3.523,3.523,0,0,0-.783-2.3,23.64,23.64,0,0,1-3.013-8.216,58.911,58.911,0,0,0-7.1-17.919.476.476,0,0,1,.8-.52,60.023,60.023,0,0,1,7.236,18.25,22.774,22.774,0,0,0,2.9,7.923,4.374,4.374,0,0,1,.908,2.882,1.794,1.794,0,0,1-.918,1.558,2.434,2.434,0,0,1-1.979-.158C67.468,60.3,55.415,62.1,50.9,62.357,50.127,62.4,49.4,62.436,48.718,62.436Z"/><path class="b" d="M46.3,104.307a.476.476,0,0,1-.455-.617c.012-.038,1.183-3.8,2.664-8.076.492-1.421,1.571-3.774,2.821-6.5,2.432-5.3,5.763-12.563,5.549-15.08C56.649,71.28,54.9,65.1,53.876,61.668a.476.476,0,0,1,.391-.608c2.32-.319,8.149-1.3,12.146-3.492a.477.477,0,0,1,.706.422c-.037,3.867-.424,8.964-2.058,11.292-2.627,3.74-6.864,14.2-8.918,19.917-1.915,5.33-9.158,14.538-9.466,14.927A.473.473,0,0,1,46.3,104.307Zm8.641-42.382c1.046,3.546,2.657,9.329,2.887,12.029.235,2.767-3.018,9.86-5.632,15.558-1.24,2.7-2.31,5.036-2.787,6.413-.706,2.04-1.341,3.961-1.813,5.414,2.309-3.11,6.339-8.821,7.647-12.463,2.071-5.761,6.354-16.325,9.034-20.142,1.123-1.6,1.768-5.033,1.873-9.958A41.365,41.365,0,0,1,54.945,61.925Z"/><path class="b" d="M87.917,123.975a.46.46,0,0,1-.126-.017.476.476,0,0,1-.333-.585c.074-.271,7.4-27.275,5.089-37.387s-5.483-14.1-5.515-14.143a.476.476,0,1,1,.739-.6c.135.166,3.338,4.194,5.7,14.53s-4.793,36.734-5.1,37.852A.477.477,0,0,1,87.917,123.975Z"/><path class="b" d="M51.377,123.737a.231.231,0,0,1-.089-.017.237.237,0,0,1-.132-.309c.032-.081,3.259-8.122,4.913-11.823S68.5,85.011,68.611,84.781a.238.238,0,0,1,.431.2c-.109.231-10.886,23.1-12.538,26.8S51.63,123.507,51.6,123.588A.239.239,0,0,1,51.377,123.737Z"/><path class="b" d="M36.823,123.975a.476.476,0,0,1-.433-.278c-3.176-6.953-3.437-10.291,1.115-17.624,4.446-7.163,17.179-24.606,17.307-24.782a.476.476,0,0,1,.769.562c-.128.175-12.839,17.59-17.267,24.722-4.353,7.014-4.12,10.022-1.058,16.726a.475.475,0,0,1-.235.631A.462.462,0,0,1,36.823,123.975Z"/><path class="b" d="M56.286,78.751A13.586,13.586,0,0,0,57.357,74c-.24-2.824-2.044-9.166-3.025-12.463h0c-1.3.178-2.484.293-3.458.349-5.188.3-8.041.2-10.31-8.12,0,0-1.239,14.79-.95,21.273S37.7,86.752,38.552,87.251,53.1,86.58,56.286,78.751Z"/><path class="b" d="M55.292,64.856a21.862,21.862,0,0,0,11.351-6.87c-3.439,1.887-8.4,3.008-12.311,3.546C54.605,62.451,54.943,63.606,55.292,64.856Z"/><path class="b" d="M62.661,35.366a.477.477,0,0,1-.434-.279c0-.007-.654-1.276-3.331-1.875a11.112,11.112,0,0,0-5.829.611.476.476,0,0,1-.367-.879,11.9,11.9,0,0,1,6.4-.662c3.186.713,3.959,2.342,3.99,2.411a.476.476,0,0,1-.433.673Z"/><path class="b" d="M44.387,47.486a.466.466,0,0,1-.21-.05c-.425-.212-2.523-2.152-2.039-3.409A6.919,6.919,0,0,1,43.561,42.2a17.28,17.28,0,0,0,1.9-2.284c.907-1.387,1.544-5,1.72-6.09-.885-.5-2.714-1.331-3.813-.965a.476.476,0,0,1-.3-.9c1.9-.633,4.765,1.145,4.886,1.221a.475.475,0,0,1,.218.471c-.029.2-.732,4.98-1.914,6.789a18.1,18.1,0,0,1-2.006,2.414,7.1,7.1,0,0,0-1.23,1.514c-.182.473,1.168,2,1.578,2.216a.48.48,0,0,1,.2.641A.475.475,0,0,1,44.387,47.486Z"/><path class="b" d="M47.124,36.845a.234.234,0,0,1-.168-.07h0a3.607,3.607,0,0,0-3.966-.419.238.238,0,0,1-.18-.441,4.061,4.061,0,0,1,4.484.525.238.238,0,0,1-.17.405Z"/><path class="b" d="M58.831,37.963a.236.236,0,0,1-.152-.056h0c-.073-.06-1.816-1.464-4.86-.429a.238.238,0,0,1-.154-.45c3.31-1.126,5.239.446,5.319.514a.238.238,0,0,1-.153.421Z"/><path class="b" d="M57.955,37.238a5.2,5.2,0,0,0-1.58-.359l-.141.02a2.551,2.551,0,0,0-.731,1.134.739.739,0,0,1-.152,1.456,1.475,1.475,0,0,0,1,1.383c.762.149,1.567-.686,1.8-1.865A2.746,2.746,0,0,0,57.955,37.238Z"/><path class="b" d="M45.929,35.815c-.449-.053-.883.335-1.108.927a.542.542,0,0,1-.154,1.058c.05.693.4,1.235.876,1.291.585.069,1.145-.609,1.251-1.513S46.513,35.884,45.929,35.815Z"/><path class="b" d="M85.863,32.066a8.606,8.606,0,0,1-1.8-.2.541.541,0,0,1-.1-.032c-.193-.088-19.54-8.72-38.949-7.721a.479.479,0,0,1-.485-.355c-.1-.367-.853-3.415,0-4.984a22.023,22.023,0,0,0-3.186-3.112,4.154,4.154,0,0,1-1.566-3.772C40,10.162,41.358,7.6,46.615,5.215c8.2-3.721,28.513,1.331,34.5,8.58a53.131,53.131,0,0,1,6.13,9.058A14.42,14.42,0,0,0,89.7,26.466a2.766,2.766,0,0,1,.673,3.413A4.965,4.965,0,0,1,85.863,32.066Zm-1.555-1.12c2.729.571,4.619-.382,5.222-1.515a1.816,1.816,0,0,0-.492-2.279,15.314,15.314,0,0,1-2.623-3.838,52.19,52.19,0,0,0-6.03-8.912C74.717,7.543,54.754,2.567,47.009,6.082c-3.789,1.72-6.021,3.825-6.283,5.927a3.169,3.169,0,0,0,1.216,2.911A21.484,21.484,0,0,1,45.5,18.467a.477.477,0,0,1-.018.592c-.607.717-.419,2.742-.124,4.085C64.4,22.294,83.217,30.463,84.308,30.946Z"/><path class="b" d="M75.185,10.321a.476.476,0,0,1-.37-.776,1.993,1.993,0,0,0,.4-1.473,2.176,2.176,0,0,0-1.307-1.35.476.476,0,0,1,.426-.852,3.046,3.046,0,0,1,1.813,2.008,2.942,2.942,0,0,1-.594,2.268A.477.477,0,0,1,75.185,10.321Z"/><path class="b" d="M44.825,23.605A104.426,104.426,0,0,0,41.4,35.64c-.5,1.994-5.316,4.99-1.193,16.707h0c-2.013-8.773,1.7-12.847,2.409-17a34.7,34.7,0,0,1,4.433-11.386c.066-.119.133-.235.2-.347C46.123,23.614,45.955,23.547,44.825,23.605Z"/><path class="b" d="M89.77,67.554C88.524,61.32,88.583,43.686,84.16,31.4a115.428,115.428,0,0,0-22.191-6.366,59.335,59.335,0,0,1,7.169,18.084c1.621,7.979,4.052,8.353,3.8,10.659s-2.618.811-2.618.811a8.385,8.385,0,0,1-3.681,3.4h0c-.037,3.863-.416,8.806-1.972,11.022-.187.266-.381.567-.582.893,0,.037.954,9.427,10.472,6.13,9.537-3.3,12.841-2.306,15.209.436S91.017,73.787,89.77,67.554Z"/><path class="b" d="M48.913,52.849a11.169,11.169,0,0,1-5.959-1.561.476.476,0,0,1,.535-.788h0c.039.026,3.977,2.615,9.809.646a.476.476,0,0,1,.3.9A14.608,14.608,0,0,1,48.913,52.849Z"/><path class="b" d="M47.084,46.726c-1.622-.7-2.4-.312-2.76.074-.2-.375-.709-.818-2.056-.7-2.252.194-3-.933-3-.933s.015,2.241,1.6,2.882c1.294.522,2.347.737,3.229-.146.394,1.3,1.374,2.071,4.352,1.5A3.438,3.438,0,0,0,51,46.8S49.673,47.842,47.084,46.726Z"/><path class="b" d="M54.088,44.246a.238.238,0,0,1-.168-.406l.6-.6a.238.238,0,0,1,.336.336l-.6.6A.241.241,0,0,1,54.088,44.246Z"/><path class="b" d="M55.252,44.246a.238.238,0,0,1-.168-.406l.6-.6a.238.238,0,0,1,.337.336l-.6.6A.237.237,0,0,1,55.252,44.246Z"/><path class="b" d="M42.085,41.426a.234.234,0,0,1-.168-.07.237.237,0,0,1,0-.336l.6-.6a.238.238,0,1,1,.337.337l-.6.6A.234.234,0,0,1,42.085,41.426Z"/><path class="b" d="M43.249,41.426a.238.238,0,0,1-.169-.406l.6-.6a.238.238,0,1,1,.336.337l-.6.6A.237.237,0,0,1,43.249,41.426Z"/><path class="b" d="M57.18,77.39l-.337-.335c-1.646,5.568-6.662,15.2-7.88,18.714-1.5,4.322-2.659,8.062-2.659,8.062s3.421-6.486,4.671-9.149S57.18,77.39,57.18,77.39Z"/><path class="b" d="M44.628,20.252a137.192,137.192,0,0,1,15.514,1.28s-12.022-2.457-15.02-2.781A5.2,5.2,0,0,0,44.628,20.252Z"/><path class="b" d="M43.143,12.031l-.036,0a.237.237,0,0,1-.2-.268c.015-.1.434-2.542,6.062-4.543,5.568-1.979,13.428.349,13.76.449a.238.238,0,0,1-.138.456c-.08-.025-8.043-2.382-13.462-.456-5.313,1.888-5.748,4.143-5.751,4.165A.24.24,0,0,1,43.143,12.031Z"/><path class="b" d="M58.527,91.386a.241.241,0,0,1-.112-.028.238.238,0,0,1-.1-.322c.585-1.1,4.615-11.575,5.836-14.761a.238.238,0,1,1,.445.171c-1.569,4.091-5.279,13.724-5.86,14.814A.24.24,0,0,1,58.527,91.386Z"/><path class="b" d="M88.124,107.9a.238.238,0,0,1-.232-.291c.032-.143,3.25-14.342,3.027-18.148s-5.993-18.674-6.051-18.823a.238.238,0,1,1,.444-.173c.239.614,5.856,15.092,6.083,18.969s-2.906,17.694-3.039,18.281A.239.239,0,0,1,88.124,107.9Z"/><path class="b" d="M123.524,123.975H4.476a.476.476,0,1,1,0-.952H123.524a.476.476,0,0,1,0,.952Z"/></svg>