<?xml version="1.0" encoding="utf-8"?>
<!-- Generator: Adobe Illustrator 27.0.0, SVG Export Plug-In . SVG Version: 6.00 Build 0)  -->
<svg version="1.1" id="Lost" xmlns="http://www.w3.org/2000/svg" xmlns:xlink="http://www.w3.org/1999/xlink" x="0px" y="0px"
	 viewBox="0 0 638.2 638.2" style="enable-background:new 0 0 638.2 638.2;" xml:space="preserve">
<style type="text/css">
	.st0{fill:#113A53;}
	.st1{fill:#FFAA3F;}
	.st2{fill:#FF8F6B;}
	.st3{fill:#2A878D;}
	.st4{fill:#FFBA55;}
	.st5{fill:#E79329;}
	.st6{fill:#DA4018;}
	.st7{fill:#5E1212;}
	.st8{fill:#FFFFFF;}
	.st9{fill:#F4C589;}
	.st10{fill:#8AC4C1;}
	.st11{fill:#376F92;}
	.st12{fill:#231F20;}
	.st13{fill:#F5EDE7;}
</style>
<g id="Bike">
	<g>
		<path class="st0" d="M105.5,438.6c-2.9,1.4-2.6,7.1,0,12.4c2.6,5.3,17.9-7.8,17.9-7.8S109.8,436.6,105.5,438.6L105.5,438.6z"/>
		<path class="st1" d="M376.9,294.9l21.3,65c0.7,2.2-0.5,4.6-2.7,5.3c-2.2,0.7-4.6-0.5-5.3-2.7c0-0.1-0.1-0.2-0.1-0.3l-16.2-66.4
			c-0.2-0.9,0.3-1.7,1.2-1.9C375.8,293.6,376.6,294.1,376.9,294.9L376.9,294.9z"/>
		<path class="st2" d="M422.6,380.2l98.9,184.4l2.5,1.9c2.8,2.1,5.6,4.2,8.4,6.3c5.6,4.1,11.4,8.2,17.2,12.2
			c11.6,8,23.4,15.5,35.5,22.6c3,1.7,6,3.5,9.1,5.2c3,1.7,6.1,3.3,9.2,5c3.1,1.6,6.1,3.2,9.2,4.7c3.1,1.6,6.2,3,9.3,4.4
			c1.6,0.7,3.1,1.4,4.7,2.1c1.6,0.7,3.1,1.4,4.7,2c3.1,1.3,6.3,2.5,9.4,3.8c1.6,0.6,3.1,1.1,4.7,1.7c1.6,0.6,3.2,1.1,4.7,1.6
			c3.2,1.1,6.3,1.9,9.5,2.8l0.9,0.3c10.8,3.1,16.9,14.4,13.8,25.1c-2.9,10-13,16.1-23.1,14.3c-4-0.7-8-1.4-11.9-2.3
			c-2-0.4-3.9-0.8-5.8-1.3c-1.9-0.5-3.9-0.9-5.8-1.5c-3.8-1-7.6-2.1-11.4-3.3c-1.9-0.6-3.8-1.2-5.6-1.8s-3.7-1.2-5.6-1.8
			c-3.7-1.3-7.3-2.6-11-4c-3.6-1.3-7.2-2.8-10.8-4.2c-3.6-1.5-7.1-2.9-10.6-4.5c-3.5-1.5-7-3.1-10.5-4.7
			c-13.9-6.4-27.5-13.3-40.8-20.6c-6.7-3.7-13.3-7.4-19.8-11.3c-3.3-2-6.6-3.9-9.8-5.9l-4.9-3.1l-2.5-1.6l-2.7-1.7l0,0
			c-1.8-1.1-3.3-2.5-4.5-4.1l-2.7-3.5L344.8,430.5c-15.7-20.4-11.8-49.6,8.5-65.2c20.4-15.7,49.6-11.8,65.2,8.5
			C420,375.8,421.5,378.1,422.6,380.2L422.6,380.2z"/>
		<path class="st3" d="M493.5,512.2l-70.8-132.1c-1.2-2.1-2.6-4.4-4.1-6.4c-15.7-20.4-44.9-24.2-65.2-8.5s-24.2,44.9-8.5,65.2
			l83.8,109.2L493.5,512.2L493.5,512.2z"/>
		<path class="st4" d="M622.3,368.6c0,0-31.3-52.9-71.9-59.1L435.6,470.3L622.3,368.6L622.3,368.6z"/>
		<path class="st0" d="M563.3,384.4c24.3-16.4,59-15.8,59-15.8l-52.4,47.6L563.3,384.4L563.3,384.4z"/>
		<path class="st5" d="M563.3,384.4l-127.7,85.8l188.2,33.1C621.7,447.6,563.3,384.4,563.3,384.4z"/>
		<polygon class="st4" points="284,460.7 269.6,530.3 621.7,582.4 550.4,449.4 435.6,470.3 		"/>
		<polygon class="st5" points="423,505.8 526.4,568.3 434.9,554.7 416,501.9 		"/>
		<polygon class="st0" points="550.4,449.4 623.8,503.4 583.9,511.8 		"/>
		<path class="st2" d="M354.7,319.6c-4.2,7.7,4.8,33.2,14.7,41.7c9.9,8.5,17,62.6-60.6,32c-39.2-9.6-3.6-79.2-16.3-105.9
			L354.7,319.6z"/>
		<path class="st6" d="M358.1,343.8L358.1,343.8c-3.9-9.5-5.9-19.8-3.4-24.2L303,292.9l-8.8-0.4
			C300.6,302.6,323.6,338.7,358.1,343.8L358.1,343.8z"/>
		<path class="st7" d="M221.6,177.3c-31.8,14.6-92.7,66.7-96.4,138.2s64.6,117,57.2,158.2c-7.4,41.3-37,65.9-32.8,104.8
			c4.6,43.5,61.1,98.9,164.4,46.7c-83.6-38.6-13.1-148.3-25.9-223.4c-8-46.8-41-85.2-47.7-114.8c-6.7-29.6-8.1-48.2,0-66.1
			C248.5,202.8,221.6,177.4,221.6,177.3L221.6,177.3z"/>
		<path class="st8" d="M224.2,175.5c-0.6,0-1.2-0.2-1.6-0.7c-33.9-38.5-34.1-68.5-24-82.6c6-8.3,15.6-11.3,24.5-7.5
			c14,5.9,26,28.5,17.9,74.2c-0.2,1.2-1.3,1.9-2.5,1.7s-1.9-1.3-1.7-2.5c7.7-43.2-3.4-64.5-15.3-69.5c-7-3-14.5-0.6-19.3,6.1
			c-9.2,12.7-8.5,40.6,23.7,77.2c0.8,0.9,0.7,2.2-0.2,3C225.3,175.3,224.8,175.5,224.2,175.5L224.2,175.5z"/>
		<path class="st7" d="M394,216c-5.2-66-11.6-107.4-51.3-102.8c-12.6-27.6-33.5-33.6-55.2-23.2c-22.1,10.6-44.7,59.3-63.3,83.3
			c-9.2,15.2-17.7,17.1-13.3,31.8L394,216L394,216z"/>
		<path class="st2" d="M380.7,315.5c10.7-5.4,26.2-34,22.4-67.5c-3.5-30.8-6.9-31.2-8.7-38.1c-1.9-6.9-11.9-88.3-102.9-73.8
			s-63.4,99.1-38.8,122.2C286.1,289.7,343.4,334.2,380.7,315.5L380.7,315.5z"/>
		<path class="st6" d="M330.2,136l-57.3,28.4l4.5,39.5c9.2,1.5,65.3,25.8,116.9,6C392.8,204.2,385.5,146.5,330.2,136L330.2,136z"/>
		<path class="st7" d="M380.8,170.5c-24.9,31.5-79.5,4.7-99.8,28.6c-17.4,20.5-9.3,46.9,0,62.9c0,0-8.1,5.3-6.3,7.9
			c0,0-25-2.6-46.2-38.1l-2.6-46.2c0,0,14.8-39.4,34.1-52.9s64.7-25.6,81.4-24.9C377.3,94.3,406,138.7,380.8,170.5L380.8,170.5z"/>
		<path class="st7" d="M377.1,180c0,0-0.2,0.5-0.6,1.4c-0.2,0.4-0.5,1-0.8,1.6c-0.1,0.3-0.3,0.7-0.5,1c-0.2,0.4-0.4,0.7-0.7,1.1
			c-0.5,0.8-1,1.7-1.6,2.7c-0.7,0.9-1.4,1.9-2.2,3c-0.8,1-1.8,2-2.9,3.1c-0.6,0.5-1.2,1-1.8,1.5c-0.6,0.5-1.2,1.1-1.9,1.5
			c-0.7,0.5-1.4,1-2.1,1.4s-1.5,0.8-2.3,1.3c-0.4,0.2-0.8,0.4-1.2,0.6c-0.4,0.2-0.9,0.4-1.3,0.5c-0.9,0.3-1.7,0.8-2.6,1.1
			c-3.6,1.3-7.6,2.1-11.7,2.6c-4.1,0.6-8.4,0.7-12.6,0.7c-4.3,0-8.6-0.1-12.8-0.3c-8.5-0.4-16.8-0.7-24.4-0.5
			c-1.9,0-3.7,0.2-5.5,0.3c-1.8,0.2-3.5,0.3-5.2,0.5s-3.3,0.4-4.8,0.7c-0.8,0.1-1.5,0.3-2.2,0.4c-0.7,0.2-1.4,0.3-2.1,0.5
			s-1.4,0.3-2,0.5s-1.3,0.4-1.9,0.6c-1.2,0.3-2.4,0.7-3.4,1.1s-2,0.7-2.9,1.1s-1.6,0.7-2.4,1.1c-1.4,0.6-2.5,1.3-3.2,1.7
			c-0.7,0.4-1.1,0.6-1.1,0.6l-0.5,0.3c-5.2,2.8-11.6,0.9-14.4-4.3c-2.8-5.2-0.9-11.6,4.3-14.4c0.5-0.3,1-0.5,1.5-0.7
			c0,0,0.6-0.2,1.7-0.6s2.7-1,4.7-1.6c1-0.3,2.2-0.6,3.4-0.9c1.2-0.3,2.6-0.6,4-0.9c1.4-0.3,3-0.5,4.6-0.7c0.8-0.1,1.6-0.2,2.5-0.3
			c0.8-0.1,1.7-0.1,2.6-0.2c0.9-0.1,1.8-0.1,2.7-0.2c0.9,0,1.8,0,2.8-0.1c1.9-0.1,3.8,0,5.7,0.1c2,0,3.9,0.3,5.9,0.4
			c2,0.2,4,0.4,6.1,0.7c8.2,1.1,16.6,2.8,24.8,4.5c4.1,0.8,8.2,1.6,12.2,2.2s7.9,1.1,11.7,1.2c3.8,0.1,7.4,0,10.8-0.7
			c0.9-0.1,1.6-0.4,2.5-0.6c0.4-0.1,0.8-0.2,1.2-0.3c0.4-0.1,0.8-0.3,1.1-0.4c0.7-0.3,1.5-0.5,2.2-0.8s1.4-0.7,2.1-1
			s1.3-0.7,1.9-1.1s1.2-0.8,1.8-1.1c1.1-0.9,2.1-1.6,3.1-2.5c0.9-0.9,1.7-1.7,2.5-2.5c0.7-0.8,1.3-1.6,1.9-2.3
			c0.3-0.4,0.6-0.7,0.8-1c0.2-0.3,0.4-0.7,0.6-1c0.4-0.6,0.7-1.1,1-1.5C376.8,180.5,377.1,180,377.1,180L377.1,180z"/>
		<path class="st2" d="M285.5,266.4c0,0-16.8-19.8-32.2-11.9c-29.3,15.1,4.7,56.7,31.3,49.3c12.4-3.5,12.6-18.9,12.6-18.9
			L285.5,266.4L285.5,266.4z"/>
		<path class="st6" d="M250.7,279.8c0,0-0.2-0.6-0.5-1.6c-0.2-0.5-0.3-1.2-0.4-2c0-0.4-0.1-0.8-0.1-1.3c0-0.4,0-0.9,0-1.4
			c0-0.2,0-0.5,0-0.7c0-0.3,0.1-0.5,0.1-0.8c0.1-0.5,0.2-1.1,0.4-1.6c0.2-0.5,0.4-1.1,0.6-1.6c0.2-0.6,0.6-1.1,0.9-1.6
			c0.3-0.6,0.7-1,1.2-1.5l0.7-0.7c0.3-0.2,0.5-0.4,0.8-0.6c1-0.9,2.3-1.5,3.7-1.9c0.7-0.2,1.4-0.4,2-0.5c0.7,0,1.4-0.1,2.1-0.1
			c0.7-0.1,1.3,0.1,2,0.2s1.3,0.2,1.9,0.4c1.2,0.4,2.4,0.7,3.4,1.3c0.5,0.3,1,0.5,1.5,0.7s0.9,0.6,1.3,0.8c0.8,0.6,1.6,1,2.2,1.5
			s1.1,1,1.6,1.3c0.9,0.7,1.4,1.2,1.4,1.2c1.2,1,1.3,2.7,0.3,3.9c-1,1.2-2.7,1.3-3.9,0.3c-0.1-0.1-0.1-0.1-0.2-0.2l-0.2-0.2
			c0,0-0.4-0.4-1-1.1c-0.3-0.4-0.7-0.8-1.2-1.3s-1.1-0.9-1.7-1.5c-0.3-0.3-0.6-0.6-1-0.8c-0.4-0.2-0.7-0.5-1.1-0.7
			c-0.8-0.6-1.6-0.9-2.6-1.3c-0.4-0.2-0.9-0.3-1.4-0.4s-1-0.3-1.5-0.3s-1-0.1-1.5-0.1l-1.5,0.2c-1,0.2-2,0.6-2.8,1.1
			c-0.2,0.1-0.4,0.2-0.7,0.4l-0.6,0.5c-0.4,0.3-0.8,0.6-1,1.1c-0.3,0.4-0.7,0.7-0.9,1.2c-0.2,0.4-0.4,0.9-0.7,1.3
			c-0.2,0.4-0.3,0.9-0.4,1.3c-0.1,0.2-0.1,0.4-0.2,0.6c0,0.2-0.1,0.4-0.1,0.6c-0.1,0.4-0.1,0.8-0.2,1.2c0,0.4,0,0.7,0,1.1
			c0,0.7,0,1.3,0.2,1.8c0.2,1,0.3,1.6,0.3,1.6c0.1,0.4-0.2,0.7-0.5,0.8C251.1,280.4,250.8,280.2,250.7,279.8L250.7,279.8z"/>
		<path class="st6" d="M281.5,273c0,0-9-10.6-17.2-6.4c-15.7,8.1,2.5,30.3,16.7,26.4c6.7-1.9,6.7-10.1,6.7-10.1L281.5,273z"/>
		<circle class="st9" cx="291.7" cy="300.3" r="6.8"/>
		<path class="st7" d="M276.8,191.2c0,0,0.8,0.6,2.2,1.7c0.4,0.3,0.9,0.7,1.3,1.1c0.5,0.4,1,0.9,1.4,1.3c0.9,0.8,1.9,1.8,3,2.8
			s2.2,2,3.4,3.1c1.2,1,2.5,2.1,3.9,3.2c0.3,0.3,0.7,0.5,1,0.8c0.4,0.2,0.7,0.5,1.1,0.7c0.7,0.5,1.5,1,2.2,1.5
			c0.8,0.4,1.6,0.9,2.3,1.3c0.8,0.4,1.6,0.8,2.5,1.2l1.2,0.6l1.3,0.5c0.9,0.3,1.7,0.6,2.6,0.9c0.9,0.2,1.8,0.4,2.6,0.6
			c0.4,0.1,0.9,0.2,1.3,0.3c0.4,0.1,0.9,0.1,1.3,0.2c0.9,0.1,1.8,0.2,2.6,0.4c0.9,0.1,1.7,0.1,2.5,0.1c1.6,0.1,3.2,0.1,4.7,0
			s2.8-0.2,4-0.3c1.2-0.2,2.2-0.4,3.1-0.5c1.7-0.3,2.7-0.4,2.7-0.4s-0.9,0.4-2.5,1.1c-0.8,0.3-1.8,0.7-2.9,1.2
			c-1.2,0.4-2.5,0.8-3.9,1.3s-3.1,0.8-4.8,1.2c-0.9,0.1-1.8,0.4-2.7,0.5c-0.9,0.1-1.9,0.2-2.9,0.3c-0.5,0-1,0.1-1.5,0.1s-1,0-1.5,0
			c-1,0-2.1,0-3.1,0c-1-0.1-2.1-0.2-3.1-0.3l-1.6-0.2l-1.6-0.3c-1-0.2-2.1-0.4-3.2-0.7c-1-0.3-2.1-0.6-3.1-0.9s-2-0.7-3-1.1
			c-0.5-0.2-1-0.4-1.5-0.6s-0.9-0.4-1.4-0.6c-1.9-0.8-3.6-1.7-5.2-2.5s-3.1-1.7-4.4-2.4c-1.3-0.7-2.5-1.4-3.5-2
			c-0.5-0.3-1-0.5-1.3-0.7c-0.4-0.2-0.7-0.4-1-0.5c-1.5-0.7-2.4-1.1-2.4-1.1h-0.1c-3.7-1.7-5.4-6.2-3.6-9.9c1.7-3.7,6.2-5.4,9.9-3.6
			C275.9,190.6,276.4,190.9,276.8,191.2L276.8,191.2z"/>
		<path class="st7" d="M225.3,191c0,0-0.9,0.1-2.5,0.3c-0.4,0.1-0.9,0.1-1.3,0.2c-0.4,0.1-0.8,0.2-1.3,0.3c-0.9,0.2-1.9,0.3-3.3,0.7
			c-1.3,0.4-2.8,0.7-4.4,1.3c-0.8,0.3-1.6,0.5-2.5,0.8s-1.8,0.6-2.7,1c-3.7,1.3-7.9,3.2-12.4,5.3c-4.5,2.2-9.3,4.7-14.3,7.7
			c-2.5,1.4-5,3.1-7.6,4.7c-2.5,1.7-5.2,3.4-7.7,5.3c-5.2,3.6-10.3,7.8-15.4,12.1c-5,4.4-10,9-14.6,14s-9.1,10.1-13,15.6
			c-4,5.3-7.5,11-10.6,16.6c-0.7,1.4-1.5,2.8-2.2,4.2c-0.4,0.7-0.7,1.4-1.1,2.1c-0.3,0.7-0.6,1.4-0.9,2.1c-0.6,1.4-1.2,2.8-1.8,4.2
			c-0.6,1.4-1,2.8-1.6,4.2c-0.5,1.4-1,2.7-1.5,4.1c-0.4,1.4-0.8,2.7-1.2,4c-0.9,2.6-1.3,5.3-1.9,7.8s-0.9,5-1.2,7.3
			c-0.1,1.2-0.4,2.3-0.4,3.4c-0.1,1.1-0.1,2.2-0.2,3.2c-0.4,4.2-0.2,7.9-0.2,10.9c0,1.5,0.2,2.9,0.3,4c0.1,1.2,0.2,2.2,0.3,3
			c0.1,1.6,0.2,2.5,0.2,2.5s-0.1-0.9-0.4-2.5c-0.1-0.8-0.3-1.8-0.5-3s-0.5-2.5-0.6-4c-0.2-3-0.7-6.7-0.7-11c0-1.1,0-2.2,0-3.3
			c0-1.1,0.1-2.3,0.2-3.5c0.2-2.4,0.2-4.9,0.6-7.6c0.4-2.6,0.6-5.4,1.3-8.1c0.3-1.4,0.6-2.8,0.9-4.3s0.8-2.9,1.2-4.3
			c0.4-1.5,0.8-3,1.3-4.4c0.5-1.5,1-3,1.6-4.5c0.3-0.8,0.5-1.5,0.8-2.3s0.6-1.5,0.9-2.3c0.6-1.5,1.3-3,1.9-4.6
			c2.8-6,5.9-12.2,9.6-18.1c3.6-6,7.8-11.8,12.2-17.4s9.2-10.9,14.1-15.9c5-4.9,10-9.7,15.2-14c2.5-2.2,5.2-4.2,7.7-6.2
			c2.6-1.9,5.1-3.9,7.7-5.6c5-3.6,10-6.7,14.7-9.5c4.7-2.7,9.2-5.1,13.3-6.9c1-0.5,2-0.9,3-1.4c1-0.4,1.9-0.8,2.8-1.2
			c1.8-0.8,3.6-1.4,5.1-1.9c1.5-0.6,3.2-1,4.5-1.4c0.7-0.2,1.3-0.4,1.9-0.5c0.5-0.1,0.9-0.2,1.3-0.3c1.6-0.4,2.4-0.6,2.4-0.6
			c4.9-1.1,9.7,2,10.8,6.8c1.1,4.9-2,9.7-6.8,10.8C225.8,190.9,225.6,190.9,225.3,191L225.3,191L225.3,191z"/>
		<path class="st7" d="M186.3,453.6c-0.9,0-1.8-0.3-2.5-0.8c-44.7-32.9-71.6-81.6-72-130.3c-0.3-43.4,20.5-83.2,58.7-112.1
			c1.9-1.4,4.5-1,5.9,0.8c1.4,1.9,1,4.5-0.8,5.9c-35.9,27.2-55.6,64.6-55.3,105.3c0.3,46.1,25.9,92.2,68.5,123.5
			c1.9,1.4,2.3,4,0.9,5.9C188.9,453,187.6,453.6,186.3,453.6L186.3,453.6z"/>
		<path class="st7" d="M194.3,459.6c0,0,0,0.6-0.1,1.6c0,0.5-0.1,1.2-0.1,1.9c-0.1,0.9-0.3,2-0.5,3.3s-0.5,2.4-0.9,3.7
			c-0.3,1.3-0.8,2.7-1.3,4.1c-1,2.9-2.5,5.9-4.1,9.1c-1.7,3.1-3.7,6.4-6,9.7c-2.2,3.3-4.7,6.6-7.3,10c-5.1,6.8-10.7,13.7-15.9,20.9
			c-2.6,3.6-5,7.3-7.3,11c-2.2,3.7-4.3,7.4-6,11.2c-0.9,1.8-1.6,3.7-2.4,5.6c-0.6,1.9-1.4,3.7-1.9,5.5s-1,3.6-1.4,5.3
			c-0.2,0.9-0.4,1.7-0.5,2.6c-0.1,0.9-0.2,1.7-0.4,2.5c-0.1,0.8-0.3,1.6-0.3,2.4c-0.1,0.8-0.1,1.6-0.2,2.3c0,0.8-0.1,1.5-0.1,2.2
			s0,1.4,0,2.1c-0.1,2.7,0.2,5.1,0.4,7s0.5,3.4,0.7,4.5c0.2,1,0.3,1.6,0.3,1.6s-0.1-0.5-0.4-1.6c-0.2-1-0.7-2.5-1.1-4.4
			c-0.3-1.9-0.8-4.3-1-7c-0.1-0.7-0.1-1.4-0.2-2.1c0-0.7,0-1.5-0.1-2.3c0-0.8,0-1.6,0-2.4s0.1-1.6,0.1-2.5s0.1-1.7,0.1-2.6
			c0.1-0.9,0.2-1.8,0.3-2.7c0.2-1.8,0.6-3.7,0.9-5.6c0.3-1.9,0.9-3.9,1.4-5.9c0.6-2,1.2-4,2-6c1.4-4.1,3.3-8.1,5.2-12.1
			c2-4,4.2-8,6.5-11.9c4.6-7.8,9.6-15.3,14.1-22.4c2.2-3.5,4.3-6.9,6.1-10.2s3.4-6.4,4.6-9.3c1.2-2.9,2.2-5.5,2.8-7.9
			c0.3-1.2,0.6-2.3,0.7-3.3c0.1-1,0.4-2,0.4-2.7s0.1-1.4,0.2-1.9c0-0.8,0-1.4,0-1.9c0-1,0-1.6,0-1.6l0,0c-0.1-3.5,2.7-6.4,6.2-6.5
			s6.4,2.7,6.5,6.2C194.3,459.2,194.3,459.4,194.3,459.6L194.3,459.6z"/>
		<path class="st8" d="M235.1,243.8c-0.7,0-1.3-0.3-1.8-0.9c-4.1-5.8-24.1-36.3-11.1-70.4c0.4-1.1,1.7-1.7,2.8-1.2
			c1.1,0.4,1.7,1.7,1.2,2.8c-12.3,32,6.7,60.8,10.6,66.3c0.7,1,0.5,2.3-0.5,3C236,243.7,235.5,243.8,235.1,243.8L235.1,243.8z"/>
		<path class="st8" d="M235.1,243.8c-0.4,0-0.8-0.1-1.1-0.3c-9.8-5.9-32.5-35.5-25.1-67.1c0.3-1.2,1.4-1.9,2.6-1.6
			c1.2,0.3,1.9,1.4,1.6,2.6c-6.9,29.8,15.2,57.7,23.1,62.5c1,0.6,1.3,1.9,0.7,3C236.5,243.4,235.8,243.8,235.1,243.8L235.1,243.8z"
			/>
		<path class="st10" d="M463.6,648.1c6.1-25.3-37.4-93.8-40.6-142.3c0,0,28.9-34.5,21.6-67.2c-3.9-17.4-76.7-78.7-76.7-78.7
			c9.9,24.8-28.7,64.1-77.2-0.7c-11.4-6.2-50.2,1-50.2,1s39.5,19.3,20.3,69.4c-7.3,19.2-37.1,39.6-37.1,39.6s70.9,96,70.4,119.5
			s-13.2,36.1-7.7,43.1C300.3,657.6,417.3,631.3,463.6,648.1L463.6,648.1z"/>
		<path class="st8" d="M219.8,180.7c-3.4,0-6.6-0.6-9.7-1.8c-1.1-0.5-1.6-1.7-1.2-2.8c0.5-1.1,1.7-1.6,2.8-1.2
			c10.7,4.5,24-1.5,39.3-8.4c25.2-11.4,56.7-25.5,89,5.3c0.9,0.8,0.9,2.2,0.1,3s-2.2,0.9-3,0.1c-30.3-28.9-59-16-84.3-4.5
			C241.2,175.6,230,180.7,219.8,180.7L219.8,180.7z"/>
		<path class="st8" d="M290.6,359.2c-2.7-1.8-10.4-3.3-17.7-2.8c31.7,61.8,116.7,79.1,105.2,12.3l0,0c-6.2-5.4-10.3-8.8-10.3-8.8
			C377.8,384.7,339.2,424,290.6,359.2z"/>
		<path class="st6" d="M369.1,250.1c0,0,1.1,0,2.8,0.1c1.7,0,3.9,0,6.1-0.1s4.4-0.3,6.1-0.7c0.4-0.1,0.8-0.2,1.1-0.3
			c0.3-0.1,0.6-0.2,0.8-0.3c0.4-0.2,0.7-0.4,0.7-0.4s-0.2,0.2-0.5,0.6c-0.2,0.2-0.4,0.3-0.7,0.6c-0.3,0.2-0.6,0.4-1,0.6
			c-1.5,0.9-3.7,1.8-5.8,2.5c-2.2,0.8-4.4,1.5-6.1,2s-2.8,0.8-2.8,0.8l0,0c-1.4,0.4-2.9-0.5-3.3-1.9s0.5-2.9,1.9-3.3
			C368.5,250.1,368.8,250,369.1,250.1L369.1,250.1z"/>
		<path class="st11" d="M424.6,507.2c0,0-0.1,0.1-0.2,0.3c-0.1,0.1-0.1,0.1-0.4,0.4c-0.2,0.2-0.6,0.5-0.9,0.7c-1.2,0.7-2.9,1-4.7,1
			c-3.6,0.1-8.3-0.7-13.8-1.3c-5.6-0.7-12-1.3-18.9-0.7c-3.4,0.3-7,0.8-10.4,1.8c-3.6,1-7.1,2.2-10.6,3.4
			c-7.1,2.4-14.3,4.9-21.2,6.4c-6.9,1.6-13.7,2.1-19.3,1.3c-2.8-0.4-5.3-1.1-7.5-1.9c-2.2-0.8-3.9-1.8-5.3-2.6
			c-1.4-0.9-2.5-1.6-3.1-2.2c-0.7-0.5-1.1-0.8-1.1-0.8s0.4,0.3,1.1,0.8s1.8,1.2,3.2,2.1c1.4,0.8,3.2,1.7,5.4,2.4
			c2.2,0.7,4.7,1.3,7.5,1.6c5.6,0.6,12.1-0.1,18.9-1.9c6.8-1.8,13.8-4.5,20.8-7.1c3.5-1.3,7.1-2.7,10.6-3.8
			c3.6-1.2,7.3-1.9,10.9-2.3c7.2-0.8,13.9-0.4,19.6,0c5.6,0.5,10.4,1,13.3,0.8c1.5-0.1,2.4-0.4,2.7-0.6c-0.1,0.2,0.5-0.5,0.4-0.4
			c0.8-0.9,2.1-1,3-0.2C425.3,504.9,425.4,506.3,424.6,507.2L424.6,507.2z"/>
		<path class="st0" d="M137.6,518.4c-5,3.5-25.7-5.4-29.5-25.6c-3.8-20.2,44-9.5,44-9.5S148.6,510.6,137.6,518.4L137.6,518.4z"/>
		<path class="st12" d="M420.6,92.3c-2.3,0-4.5-0.6-6.4-1.7c-7.1-4.2-3.4-16.2,0.9-30.2c3.4-11.1,7.3-23.8,4.6-30.8
			c-0.5-1.3-1.2-1.9-2.5-1.9c-0.1,0-0.1,0-0.2,0c-11.6,0-43.6,35.3-50.8,51.1c-0.5,1.1-1.8,1.6-2.9,1.1c-1.1-0.5-1.6-1.8-1.1-2.9
			c7.2-15.8,40.9-54,55-53.6c3,0.1,5.3,1.7,6.4,4.7c3.2,8.4-0.7,21.2-4.5,33.6c-3.3,10.7-7,22.7-2.8,25.2c2.3,1.4,5.4,1.4,8.6,0.2
			c5.9-2.2,10.9-8.2,13.2-15.5c0.4-1.1,1.6-1.8,2.7-1.4c1.1,0.4,1.8,1.6,1.4,2.7c-2.7,8.7-8.7,15.5-15.8,18.3
			C424.5,91.9,422.5,92.3,420.6,92.3L420.6,92.3z"/>
		<path class="st12" d="M438.2,127.3c-0.5,0-0.9-0.1-1.3-0.5c-1.2-0.9-2.5-2.8-2.4-6.4c0.2-5.5,3.9-13.6,7.4-16c1-0.7,2.3-0.4,3,0.6
			s0.4,2.3-0.6,3c-2,1.3-5.4,7.9-5.5,12.6c0,1.4,0.2,2.4,0.8,2.8c0.9,0.7,1.1,2.1,0.4,3C439.5,127,438.8,127.3,438.2,127.3
			L438.2,127.3z"/>
		<path class="st12" d="M459.3,276.7c-0.1,0-0.2,0-0.4,0c-1.2-0.2-2-1.3-1.8-2.5l16.1-96.9c0.2-1.2,1.3-2,2.5-1.8s2,1.3,1.8,2.5
			l-16,96.9C461.3,275.9,460.4,276.7,459.3,276.7L459.3,276.7z"/>
		<path class="st12" d="M454.5,307.1c-0.2,0-0.4,0-0.7-0.1c-4.4-1.5-3.2-10.4-1.4-17.6c0.3-1.2,1.5-1.9,2.6-1.6
			c1.2,0.3,1.9,1.5,1.6,2.6c-1.3,5.4-1.9,11.2-1.2,12.5c1,0.5,1.5,1.6,1.1,2.6C456.2,306.5,455.4,307.1,454.5,307.1L454.5,307.1z"/>
		<path class="st2" d="M261.8,444.6l-20.4,9.6l-5.1,2.4l-4.9,2.4l-9.8,4.8l-9.8,4.8l-9.9,5l-9.9,5l-9.9,5l-19.9,10.2l-19.8,10.3
			l-22.3,11.8c0,0,1.9,13.1,3,20.4c2.3,14.4,4.7,28.8,7.5,43s5.8,28.2,9.5,41.5c0.9,3.3,1.9,6.6,2.9,9.7c1,3.1,2.1,6.2,3.2,8.9
			c1.1,2.7,2.2,5.2,3,6.6c0.3,0.6,12.5,8,12.2,20.2S151,688,138.8,687.6c-4.9-0.1-9-1.5-12.1-2.9c-3.1-1.5-5.2-3.1-7-4.6
			c-3.5-3-5.6-5.5-7.4-7.9c-3.5-4.7-5.9-8.8-8-12.8s-3.9-7.8-5.6-11.6s-3.3-7.5-4.7-11.3c-5.9-14.9-10.7-29.5-15.2-44.2
			s-8.6-29.3-12.6-44c-2-7.3-3.9-14.7-5.7-22.1l-2.7-11.1l-2.7-11.3l0,0c-2.7-11.5,1.9-23.1,11-29.7l3.2-2.3l18.4-13.4l18.4-13.3
			l18.5-13.2l18.6-13.1l9.4-6.5l9.4-6.5l9.4-6.5l9.6-6.5l9.7-6.5l4.8-3.3l4.7-3.1l18.9-12.3c20.4-13.3,47.8-7.6,61.1,12.8
			s7.6,47.8-12.8,61.1c-1.7,1.1-3.4,2.1-5.2,2.9L261.8,444.6L261.8,444.6z"/>
		<path class="st6" d="M114.4,443.2c13.3,15.4,17.9,49.9,17.5,66.5l0,0l10.5-5.5l11.3-5.9c0.6-0.7,0.9-1.1,0.9-1.1
			S119.5,441.1,114.4,443.2z"/>
		<path class="st7" d="M269.7,501.7c0,0,0.4,2,1.2,5.6c0.8,3.6,1.8,8.7,3,14.8s2.5,13.2,4.1,20.7s3.4,15.5,5.8,23.2
			c1.2,3.9,2.5,7.7,4,11.4s3.2,7.2,5,10.4c1.8,3.3,4,6.2,6.3,8.7c2.3,2.6,4.8,4.6,7.4,6.2c0.6,0.4,1.3,0.8,1.9,1.1s1.3,0.6,1.9,0.9
			c1.2,0.6,2.5,1,3.7,1.4c2.4,0.7,4.5,1.2,6.3,1.3c1.8,0.3,3.2,0.2,4.2,0.3c1,0,1.5,0,1.5,0s-0.5,0-1.5,0.1s-2.4,0.2-4.2,0.1
			c-1.8,0-4-0.2-6.5-0.7c-1.2-0.3-2.6-0.6-3.9-1.1c-0.7-0.3-1.4-0.5-2.1-0.8s-1.4-0.7-2.1-1c-2.8-1.5-5.8-3.4-8.5-5.9
			s-5.3-5.4-7.6-8.6c-2.3-3.3-4.5-6.8-6.4-10.5s-3.7-7.5-5.3-11.4c-3.2-7.8-5.8-15.7-8.2-23.2c-2.3-7.4-4.3-14.4-6.1-20.3
			c-1.8-5.9-3.3-10.8-4.3-14.2c-1.1-3.4-1.7-5.4-1.7-5.4l0,0c-1.1-3.3,0.7-6.9,4.1-8c3.3-1.1,6.9,0.7,8,4.1
			C269.6,501.3,269.6,501.5,269.7,501.7L269.7,501.7z"/>
		<path class="st3" d="M289.8,573.3c-20.6-62.8-26.7-126.6-26.7-126.6l-13-0.7c-11.3,12.9-26.4,23.2-26.4,23.2
			S274.4,537.9,289.8,573.3L289.8,573.3L289.8,573.3z"/>
		<path class="st10" d="M270.7,453.6c20.1-13.7,24.3-52.7,10.5-72.9c-13.7-20.1-37.8-28.7-63.7-15.7l-112,73.6
			c18,0,44.7,67.4,32.1,79.8C137.6,518.4,269.1,454.7,270.7,453.6L270.7,453.6z"/>
		<path class="st9" d="M291.3,315l-14.2,68.2c-0.5,2.3-2.7,3.8-5,3.3s-3.8-2.7-3.3-5c0-0.1,0-0.2,0.1-0.3l19.4-66.9
			c0.2-0.8,1.1-1.3,2-1.1C291,313.4,291.5,314.2,291.3,315L291.3,315z"/>
		<path class="st8" d="M371.6,443.5c-53.4,0-89.7-26.6-111.8-51.3c-24.6-27.4-43.1-65.2-52.1-106.4c-8.6-39.3-8.2-78.2,1.2-109.6
			c0.3-1.1,1.5-1.8,2.7-1.4c1.1,0.3,1.8,1.5,1.4,2.7c-17.3,57.5-3.3,152.5,50,211.9c21.5,23.9,56.8,49.8,108.7,49.8
			c9.9,0,20.4-0.9,31.6-3c1.2-0.2,2.3,0.6,2.5,1.7c0.2,1.2-0.6,2.3-1.7,2.5C392.6,442.5,381.8,443.5,371.6,443.5L371.6,443.5z"/>
		<path class="st7" d="M165.9,327.9c0,0,0.5,2,1.3,5.6c0.4,1.8,0.9,4,1.5,6.6c0.5,2.5,1.1,5.3,1.8,8.4c1.3,6.1,2.7,13.2,4.4,20.6
			s3.6,15.3,6,22.9c1.2,3.8,2.6,7.5,4,11.1c1.5,3.6,3.2,7,5,10.1c1.8,3.2,4,6,6.2,8.4c2.2,2.5,4.7,4.4,7.2,6
			c0.6,0.4,1.3,0.7,1.9,1.1c0.6,0.3,1.3,0.6,1.9,0.9c1.2,0.6,2.5,1,3.6,1.3c2.3,0.7,4.5,1.1,6.2,1.2c1.8,0.3,3.2,0.2,4.2,0.2
			s1.5,0,1.5,0s-0.5,0.1-1.5,0.3c-1,0.1-2.4,0.5-4.2,0.6c-1.8,0.2-4.1,0.2-6.7-0.1c-1.3-0.2-2.7-0.3-4.1-0.7
			c-0.7-0.2-1.5-0.3-2.2-0.6c-0.7-0.3-1.5-0.5-2.3-0.8c-3-1.2-6.3-2.8-9.3-5.2c-3-2.3-6-5-8.7-8.1s-5.3-6.5-7.6-10
			c-2.3-3.6-4.5-7.3-6.5-11.1c-4.1-7.6-7.5-15.3-10.7-22.5c-3.1-7.3-5.9-14-8.2-19.7c-1.2-2.8-2.3-5.4-3.2-7.7
			c-1-2.2-1.8-4.2-2.5-5.8c-1.5-3.3-2.3-5.2-2.3-5.2l0,0c-2.8-6.2,0-13.5,6.2-16.3s13.5,0,16.3,6.3
			C165.5,326.4,165.7,327.1,165.9,327.9L165.9,327.9z"/>
		<path class="st7" d="M203,281.5c0,0,0.4,2,1.1,5.5c0.7,3.4,1.8,8.5,3.1,14.5s2.9,13.1,4.5,20.7s3.1,15.9,4.1,24.2
			c0.5,4.2,0.8,8.4,0.9,12.5c0.1,4.2-0.1,8.3-0.5,12.2c-0.4,4-1.3,7.8-2.5,11.2c-1.1,3.5-2.8,6.6-4.6,9.2c-0.5,0.6-0.9,1.3-1.4,1.9
			s-1,1.1-1.5,1.7c-0.9,1.1-2,2-2.9,2.9c-1.9,1.7-3.8,2.9-5.4,3.8c-1.5,1-2.9,1.5-3.7,1.9c-0.9,0.4-1.3,0.6-1.3,0.6s0.4-0.3,1.3-0.7
			c0.8-0.5,2.1-1.2,3.5-2.3c1.5-1,3.1-2.4,4.9-4.2c0.8-0.9,1.8-1.8,2.5-3c0.4-0.6,0.8-1.1,1.2-1.7s0.7-1.3,1.1-1.9
			c1.4-2.7,2.7-5.6,3.4-9c0.8-3.3,1.3-6.9,1.3-10.7c0-3.8-0.1-7.6-0.6-11.6c-0.5-3.9-1.2-7.9-2.1-11.9c-1.7-7.9-4-15.8-6.2-23.1
			c-2.3-7.3-4.5-14.2-6.4-20.1s-3.5-10.8-4.6-14.4c-1-3.5-1.6-5.5-1.6-5.5c-1-3.4,0.9-6.9,4.3-7.9s6.9,0.9,7.9,4.3
			C202.9,281.1,202.9,281.3,203,281.5L203,281.5L203,281.5z"/>
	</g>
</g>
<g id="Wind">
	<path class="st13" d="M169,456.4c-31.7,0-63.6-6.7-96.4-13.5c-55.9-11.7-113.8-23.8-176-2.6c-1.1,0.4-2.4-0.2-2.7-1.3
		c-0.4-1.1,0.2-2.4,1.3-2.7c63.3-21.7,121.8-9.4,178.3,2.4c63.9,13.4,124.2,26,186.2-10.9c1-0.6,2.3-0.3,3,0.7s0.3,2.3-0.7,3
		C230.6,450.1,199.8,456.4,169,456.4L169,456.4z"/>
</g>
</svg>
