<svg xmlns="http://www.w3.org/2000/svg" viewBox="0 0 128 128"><defs><style>.a{fill:#fff;}.b{fill:#231f20;}</style></defs><path class="a" d="M68.345,77.709a10.814,10.814,0,0,0,2.667-2.631c-.35-.289-.683-.559-.987-.8a9.729,9.729,0,0,1-1.7,1.046.265.265,0,0,1-.058.006,4.34,4.34,0,0,1-1.737-1.039c-.32.266-.661.556-1.008.856A10.945,10.945,0,0,0,68.345,77.709Z"/><path class="a" d="M59.988,66.478l1.843,10.861a54.393,54.393,0,0,1,5.86-6.644l-4.306-5.2C62.844,65.646,61.6,66,59.988,66.478Z"/><path class="a" d="M76.451,67.872a18.5,18.5,0,0,1-.724-2.176c-.956-.279-1.7-.49-2.15-.615h0l0,.011a.516.516,0,0,1-.031.077l-.005.009a.38.38,0,0,1-.047.071l0,.008,0,0-.007.009-4.49,5.424a54.563,54.563,0,0,1,5.86,6.644Z"/><polygon class="a" points="49.349 85.947 49.349 84 37.747 84 37.747 84 37.746 84 25.678 84 25.678 85.947 37.514 94.122 49.349 85.947"/><path class="a" d="M62.113,40.4a4.665,4.665,0,1,0-4.666-4.665A4.67,4.67,0,0,0,62.113,40.4ZM59.69,35.03a.477.477,0,0,1,.636.216,1.72,1.72,0,0,0,.975.793,2.533,2.533,0,0,0,1.971-.443.476.476,0,1,1,.489.817,3.958,3.958,0,0,1-2.01.64,2.567,2.567,0,0,1-.733-.1,2.675,2.675,0,0,1-1.547-1.281A.477.477,0,0,1,59.69,35.03Z"/><path class="a" d="M75.5,41.089a4.665,4.665,0,1,0-4.665-4.665A4.671,4.671,0,0,0,75.5,41.089ZM73.161,36a.476.476,0,0,1,.636.217,2.109,2.109,0,0,0,1.194.973,3.053,3.053,0,0,0,2.386-.528.476.476,0,0,1,.489.817,4.572,4.572,0,0,1-2.32.74,2.92,2.92,0,0,1-.837-.119,3.053,3.053,0,0,1-1.767-1.463A.476.476,0,0,1,73.161,36Z"/><path class="a" d="M55.148,43.434a.474.474,0,0,1,.466.392c.027.142,2.5,12.69,10.288,15.142.06.019.121.038.181.055.1.03.2.058.3.084q.24.06.483.108l.2.034c.146.024.292.046.439.064l.153.019q.291.03.587.041l.141,0c.2,0,.4.006.606,0a21.758,21.758,0,0,0,4.063-.526.542.542,0,0,1,.058-.006,15.74,15.74,0,0,0,10.528-7.838c-1.525-5.616.133-13.148.034-18.141-.1-5.054-4.27-9.52-6.309-11.645a4.934,4.934,0,0,0-2.64-1.445l-.084-.017c-.34-.036-10.1-1.052-14.589,1.083a5.768,5.768,0,0,0-2.029,3.419A73.428,73.428,0,0,1,55.6,32.7c-.1.309-.2.6-.3.885a44.3,44.3,0,0,0-.2,9.855A.35.35,0,0,1,55.148,43.434Zm15.295,5.078a5.4,5.4,0,0,1-3.21,1.069A7.032,7.032,0,0,1,63.257,48.2a.476.476,0,0,1,.6-.74c.124.1,3.069,2.415,6.03.282a.476.476,0,0,1,.557.773ZM66.548,41.8a.441.441,0,0,0,.284.221.476.476,0,0,1-.151.928.5.5,0,0,1-.151-.024,1.391,1.391,0,0,1-.838-.709,2.03,2.03,0,0,1-.04-1.441.476.476,0,0,1,.9.314A1.109,1.109,0,0,0,66.548,41.8Zm5.914-13.037a6.216,6.216,0,0,1,4.475-1.726,5.332,5.332,0,0,1,3.828,2.676.477.477,0,0,1-.134.66.471.471,0,0,1-.263.079.476.476,0,0,1-.4-.213,4.439,4.439,0,0,0-3.134-2.255,5.3,5.3,0,0,0-3.708,1.459.476.476,0,1,1-.667-.68Zm-14.123-.507a5.33,5.33,0,0,1,4.351-1.7,6.211,6.211,0,0,1,3.943,2.732.477.477,0,0,1-.153.656.475.475,0,0,1-.655-.152A5.332,5.332,0,0,0,62.558,27.5a4.442,4.442,0,0,0-3.571,1.454.476.476,0,0,1-.648-.7Zm3.774,1.861a5.626,5.626,0,0,1,5.544,4.718,2.273,2.273,0,0,1,.861-.244,2.56,2.56,0,0,1,1.541.415,5.618,5.618,0,1,1-.181,1.415c0-.124.006-.247.014-.369a1.876,1.876,0,0,0-1.292-.512,1.471,1.471,0,0,0-.875.394,5.617,5.617,0,1,1-5.612-5.817Z"/><path class="a" d="M72.683,64.338V62.76a18.332,18.332,0,0,1-8.69-2.641v4.219c0,.142.009.284.022.425l4.323,5.219,4.323-5.221C72.674,64.621,72.683,64.48,72.683,64.338Z"/><path class="a" d="M68.237,74.85a11.225,11.225,0,0,0,1.4-.887c-.783-.626-1.3-1.024-1.3-1.024a9.659,9.659,0,0,0-1.426,1.035A6.027,6.027,0,0,0,68.237,74.85Z"/><path class="a" d="M49.349,86.525l-11.7,8.082a.24.24,0,0,1-.271,0l-11.7-8.082V99.131l23.671,2.091Z"/><path class="a" d="M68.032,123.81h1.39l-1.179-1.346Q68.135,123.137,68.032,123.81Z"/><path class="a" d="M97.811,79.223c-.422-1.4-.7-2.325-.8-2.735a6.093,6.093,0,0,0-3.392-3.866,15.353,15.353,0,0,1-1.556,1.142,8.111,8.111,0,0,1,2.38,2.514c1,2.141,2.756,10.606,2.83,10.966a.238.238,0,0,1-.185.281.261.261,0,0,1-.048,0,.238.238,0,0,1-.233-.19c-.018-.088-1.814-8.769-2.8-10.86a8,8,0,0,0-2.386-2.449c-4.482,2.63-9.539,2.072-13.581-3.282a11.469,11.469,0,0,1-.885-1.38l-1.592,9.386a.477.477,0,0,1-.4.391.449.449,0,0,1-.073.006.477.477,0,0,1-.423-.258,11.921,11.921,0,0,0-.967-1.509c-.647-.579-1.321-1.157-1.963-1.7-1.105,1.361-2.587,2.972-3.41,2.972s-2.462-1.675-3.535-2.89c-.678.594-1.342,1.19-1.891,1.685A11.592,11.592,0,0,0,62,78.894a.477.477,0,0,1-.423.258.462.462,0,0,1-.074-.006.476.476,0,0,1-.4-.391l-2.036-12c-4.64,1.4-11.524,3.658-14.523,5.491-1.722,1.052-4.157,3.97-5.44,7.893l-.746,2.909H49.826a.477.477,0,0,1,.476.477v17.864l3.037.278.017,0a.462.462,0,0,1,.111.027l.009,0a.5.5,0,0,1,.105.061l.023.019a.486.486,0,0,1,.076.081l.007.01a.436.436,0,0,1,.055.11l.006.012,0,.016a.5.5,0,0,1,.018.11l0,.016v5.5a.473.473,0,0,1-.6.46l-4.581-1.224L47.3,108a.471.471,0,0,1-.457.095l-10.89-3.453c-.543,8.121-.339,17.068-.279,19.169H46.691a19.889,19.889,0,0,0-.56-4.08.238.238,0,1,1,.46-.122,20.177,20.177,0,0,1,.578,4.2h19.9c.105-.68.338-2.153.642-3.93-2.088-.042-9.381-.211-12.174-.6-1.558-.216-5.244-.929-8.764-1.7C40.2,116.155,40.1,115.9,39.98,115.6c-.009-.014-.034-.046-.059-.081A1.067,1.067,0,0,1,39.7,114.4c.3-.608,1.36-1.194,7.026-1.358,5.7-.165,10.377-.664,12.809-.969-1.911-.926-2.768-2.535-2.6-3.577a.918.918,0,0,1,1.049-.845c.278.037.855.1,1.552.185,3.885.451,4.656.573,4.88.692,1.166.617,3.9,1.924,5.053,2.473.8-3.169,1.211-3.222,1.564-3.267.557-.069,8,.433,14.754,1.147.521-1.076,2.1-4.333,3.526-7.3,1.68-3.488,0-8.551-.018-8.6a.238.238,0,0,1,.451-.153c.073.215,1.759,5.3,0,8.962-1.365,2.835-2.867,5.938-3.452,7.145,4.511.487,8.621,1.065,10.022,1.626a.476.476,0,1,1-.354.884c-3.188-1.275-22.5-2.771-24.644-2.771h-.069a12.3,12.3,0,0,0-.987,3.122l-1.52,7.715c0,.014-.008.028-.012.042-.132.759-.262,1.531-.388,2.306l1.714,1.956H100.29a3.72,3.72,0,0,0,3.182-1.564C108.672,115.247,100.5,88.133,97.811,79.223ZM45.537,74.752A13.515,13.515,0,0,0,43.3,77.7a.238.238,0,0,1-.416-.232A13.728,13.728,0,0,1,45.221,74.4c1.227-1.085,8.927-3.755,9.254-3.869a.239.239,0,0,1,.156.451C51.89,71.924,46.462,73.933,45.537,74.752Zm9.587,22.361-3.131,3.576a.238.238,0,0,1-.358-.314l2.755-3.146-2.646.162a.238.238,0,1,1-.029-.475l3.216-.2a.237.237,0,0,1,.193.394Zm13.331,9.767a.238.238,0,0,1-.22.147.246.246,0,0,1-.091-.018,2.626,2.626,0,0,0-1.957-.112.238.238,0,1,1-.195-.434,3.079,3.079,0,0,1,2.335.106A.238.238,0,0,1,68.455,106.88Z"/><polygon class="a" points="52.819 103.187 49.456 106.122 52.819 107.02 52.819 103.187"/><polygon class="a" points="48.156 105.992 48.156 105.992 52.144 102.513 25.161 100.041 25.16 100.041 25.159 100.041 24.375 99.969 46.88 107.105 48.156 105.992"/><path class="a" d="M61.5,112.762a129.94,129.94,0,0,1-14.74,1.227c-5.076.147-6.008.643-6.176.8a1.781,1.781,0,0,0,.112.17c.033.046.067.093.1.144,1.165.545,11.67,2.787,14.876,3.232,2.772.385,10.364.556,12.207.592.152-.875.318-1.8.492-2.718.333-1.77.623-3.165.878-4.27-1.019-.483-3.967-1.889-5.247-2.565-.394-.115-3.1-.43-4.569-.6-.681-.079-1.25-.145-1.541-.184a1.237,1.237,0,0,0,.115.732,4.5,4.5,0,0,0,3.508,2.387.477.477,0,0,1,.389.468v.112A.476.476,0,0,1,61.5,112.762Z"/><path class="b" d="M49.826,102.218l-.042,0L25.16,100.041a.477.477,0,0,1-.435-.474V83.524a.477.477,0,0,1,.476-.477H49.826a.477.477,0,0,1,.476.477v18.218a.477.477,0,0,1-.476.476ZM25.678,99.131l23.671,2.091V84H25.678Z"/><path class="b" d="M37.514,94.649a.24.24,0,0,1-.136-.042L25.066,86.1a.238.238,0,0,1,.271-.392l12.177,8.411L49.69,85.711a.238.238,0,1,1,.271.392l-12.312,8.5A.239.239,0,0,1,37.514,94.649Z"/><path class="b" d="M46.991,108.117a.476.476,0,0,1-.144-.023L19.9,99.548a.476.476,0,0,1,.187-.928l33.256,3.046a.476.476,0,0,1,.269.833L47.3,108A.476.476,0,0,1,46.991,108.117ZM24.375,99.969l22.505,7.136,5.264-4.592Z"/><path class="b" d="M53.3,108.117a.474.474,0,0,1-.123-.017l-4.826-1.289a.476.476,0,0,1,.246-.92l4.227,1.129v-4.88a.476.476,0,0,1,.952,0v5.5a.477.477,0,0,1-.476.477Z"/><path class="b" d="M51.814,100.77a.238.238,0,0,1-.179-.395l2.755-3.146-2.646.162a.238.238,0,1,1-.029-.475l3.216-.2a.237.237,0,0,1,.193.394l-3.131,3.576A.236.236,0,0,1,51.814,100.77Z"/><path class="b" d="M20.039,99.57a.476.476,0,0,1-.028-.951l5.161-.317a.476.476,0,1,1,.058.951l-5.161.316Z"/><path class="b" d="M68.626,60.335c-4.433,0-8.235-2.785-11.014-8.08a33.268,33.268,0,0,1-2.825-7.735,1.347,1.347,0,0,1-.434-.031,1.985,1.985,0,0,1-1.232-1.082c-.781-1.421.264-6.359.487-7.357A30.577,30.577,0,0,1,54.7,32.4a72.761,72.761,0,0,0,2.392-8.337c1.521-7.044,10.215-6.51,17.621-5.257,9.553,1.615,11.982,11.729,11.779,14.3-.15,1.9,1.129,3.926,1.893,5.135.189.3.353.558.463.765.667,1.251.678,2.793.035,4.852a3.841,3.841,0,0,1-2.408,2.656,19.427,19.427,0,0,1-5.16,9.031,18.183,18.183,0,0,1-12.289,4.786C68.892,60.333,68.759,60.335,68.626,60.335Zm-13.478-16.9a.474.474,0,0,1,.466.392c.03.157,3.057,15.557,13.011,15.557.121,0,.242,0,.365-.007C80.6,58.943,84.4,50.814,85.622,46.006a.476.476,0,0,1,.386-.352,2.8,2.8,0,0,0,1.965-2.083c.562-1.8.573-3.109.034-4.12-.094-.175-.249-.421-.428-.7-.828-1.309-2.213-3.5-2.037-5.718.181-2.3-2.21-11.8-10.989-13.288-10.378-1.755-15.477-.362-16.531,4.519A73.428,73.428,0,0,1,55.6,32.7a30.056,30.056,0,0,0-1.059,3.534l0,.015c-.476,2.133-1.056,5.838-.583,6.7a1.149,1.149,0,0,0,.6.611.452.452,0,0,0,.324-.042A.463.463,0,0,1,55.148,43.434Zm-1.074-7.288h0Z"/><path class="b" d="M63.555,65.43a.475.475,0,0,1-.472-.415,5.458,5.458,0,0,1-.043-.677V58.4A.476.476,0,0,1,63.766,58a9.135,9.135,0,0,0,5.224,1.379,21.758,21.758,0,0,0,4.063-.526.476.476,0,0,1,.582.464v5.024a5.259,5.259,0,0,1-.043.677.476.476,0,1,1-.944-.121,4.475,4.475,0,0,0,.035-.556V59.9a23.122,23.122,0,0,1-3.658.424,10.044,10.044,0,0,1-5.032-1.11v5.12a4.29,4.29,0,0,0,.035.556.478.478,0,0,1-.412.533Z"/><path class="b" d="M35.215,124.762a.476.476,0,0,1-.475-.46c0-.108-.37-10.907.309-20.332a.476.476,0,1,1,.95.068c-.675,9.375-.311,20.124-.307,20.231a.478.478,0,0,1-.46.493Z"/><path class="b" d="M37.747,84a.485.485,0,0,1-.119-.015.476.476,0,0,1-.343-.58l.9-3.519.009-.029c1.356-4.16,3.985-7.283,5.853-8.425,4.824-2.948,18.79-6.776,19.383-6.937a.476.476,0,0,1,.25.919c-.144.039-14.428,3.953-19.136,6.831-1.722,1.052-4.157,3.97-5.44,7.893l-.9,3.5A.477.477,0,0,1,37.747,84Z"/><path class="b" d="M66.681,42.952a.5.5,0,0,1-.151-.024,1.391,1.391,0,0,1-.838-.709,2.03,2.03,0,0,1-.04-1.441.476.476,0,0,1,.9.314,1.109,1.109,0,0,0,0,.711.441.441,0,0,0,.284.221.476.476,0,0,1-.151.928Z"/><path class="b" d="M80.368,30.455a.476.476,0,0,1-.4-.213,4.442,4.442,0,0,0-3.128-2.254,5.328,5.328,0,0,0-3.715,1.459.476.476,0,0,1-.666-.681,6.216,6.216,0,0,1,4.475-1.726,5.332,5.332,0,0,1,3.828,2.676.477.477,0,0,1-.134.66A.471.471,0,0,1,80.368,30.455Z"/><path class="b" d="M66.229,30.02a.474.474,0,0,1-.4-.224A5.332,5.332,0,0,0,62.558,27.5a4.442,4.442,0,0,0-3.571,1.454.476.476,0,0,1-.648-.7,5.33,5.33,0,0,1,4.351-1.7,6.211,6.211,0,0,1,3.943,2.732.477.477,0,0,1-.153.656A.47.47,0,0,1,66.229,30.02Z"/><path class="b" d="M97.2,28.445C94.789,18.4,81.932,2.865,68.338,5.544,56.1,7.955,54.222,18.337,58.081,22.589c2.076-4.4,16.563-2.83,16.569-2.829a4.916,4.916,0,0,1,2.714,1.46c2.039,2.125,6.208,6.591,6.309,11.645.1,5.178-1.685,13.087.148,18.758a16.482,16.482,0,0,1-4.785,5.153l-.023.016q-.293.2-.6.391l-.056.034c-.194.119-.391.235-.593.348l-.11.06c-.187.1-.376.2-.57.3l-.182.088c-.175.084-.351.166-.531.245-.09.04-.183.078-.275.116-.156.066-.314.131-.475.193-.125.048-.253.092-.38.138s-.271.1-.41.144c-.536.176-1.092.334-1.673.467v5.024a4.815,4.815,0,0,1-.042.616h0s1.021.279,2.608.742a14.566,14.566,0,0,0,2.321,5.053c8.3,11,20.892,1.759,23.973-13.777S99.61,38.49,97.2,28.445Z"/><path class="b" d="M75.5,42.042a5.618,5.618,0,1,1,5.617-5.618A5.624,5.624,0,0,1,75.5,42.042Zm0-10.283a4.665,4.665,0,1,0,4.665,4.665A4.67,4.67,0,0,0,75.5,31.759Z"/><path class="b" d="M62.113,41.355a5.618,5.618,0,1,1,5.617-5.618A5.624,5.624,0,0,1,62.113,41.355Zm0-10.283a4.665,4.665,0,1,0,4.665,4.665A4.671,4.671,0,0,0,62.113,31.072Z"/><path class="b" d="M70.386,36.329a.472.472,0,0,1-.322-.126,2.03,2.03,0,0,0-1.464-.66,1.523,1.523,0,0,0-.977.5.476.476,0,0,1-.74-.6,2.482,2.482,0,0,1,1.635-.845,2.918,2.918,0,0,1,2.191.909.476.476,0,0,1-.323.826Z"/><path class="b" d="M55.146,43.914a40.987,40.987,0,0,1,.863-13.973q.249-.79.5-1.665l0,0h0c.36-1.242.718-2.608,1.043-4.112A6.262,6.262,0,0,1,59.6,20.6l-.969-2.063s-5.357-.8-7.366,4.286-5.936,24.643-1.093,30.67c3.1,3.86,1.2,10.688,1.112,15.309,5.049-1.814,10.7-3.409,12-3.769.157-.432.235-.692.235-.692V58.4C57.137,54.468,55.146,43.914,55.146,43.914Z"/><path class="b" d="M46.941,124.524a.239.239,0,0,1-.238-.238,20.644,20.644,0,0,0-.572-4.556.238.238,0,1,1,.46-.122,20.712,20.712,0,0,1,.589,4.678A.239.239,0,0,1,46.941,124.524Z"/><path class="b" d="M67.233,49.581A7.032,7.032,0,0,1,63.257,48.2a.476.476,0,0,1,.6-.74h0c.124.1,3.069,2.415,6.03.282a.476.476,0,0,1,.557.773A5.4,5.4,0,0,1,67.233,49.581Z"/><path class="b" d="M61.575,79.152a.462.462,0,0,1-.074-.006.476.476,0,0,1-.4-.391L58.978,66.22a.476.476,0,1,1,.939-.159l1.914,11.278a54.393,54.393,0,0,1,5.86-6.644l-4.5-5.437a.476.476,0,0,1,.733-.607L68.7,70.425a.476.476,0,0,1-.036.647c-.052.051-5.25,5.068-6.67,7.822A.477.477,0,0,1,61.575,79.152Z"/><path class="b" d="M75.1,79.152a.477.477,0,0,1-.423-.258c-1.42-2.754-6.618-7.771-6.67-7.822a.476.476,0,0,1-.037-.647l4.781-5.775a.477.477,0,0,1,.734.608l-4.5,5.437a54.563,54.563,0,0,1,5.86,6.644l1.913-11.278a.476.476,0,1,1,.939.159L75.571,78.755a.477.477,0,0,1-.4.391A.449.449,0,0,1,75.1,79.152Z"/><path class="b" d="M68.338,78.661c-1.027,0-3.263-2.544-4.177-3.638a.476.476,0,0,1,.731-.61c1.292,1.546,2.988,3.239,3.453,3.3.405-.063,1.923-1.632,3.3-3.425a.476.476,0,1,1,.756.579C71.312,76.281,69.339,78.661,68.338,78.661Z"/><path class="b" d="M100.29,124.762H67.477a.477.477,0,0,1-.471-.548c.006-.04.614-4.037,1.361-8,1.572-8.345,2.18-8.421,2.669-8.483.945-.118,21.741,1.411,25.279,2.826a.476.476,0,1,1-.354.884c-3.188-1.275-22.5-2.771-24.644-2.771h-.069c-.7.911-2.152,8.23-3.216,15.141H100.29a3.72,3.72,0,0,0,3.182-1.564c5.2-7-2.975-34.113-5.661-43.023-.422-1.4-.7-2.325-.8-2.735-.733-3.111-4.195-4.207-4.23-4.218a.476.476,0,1,1,.279-.91c.164.05,4.021,1.273,4.877,4.91.09.381.381,1.345.783,2.678,2.72,9.024,11,36.482,5.513,43.866A4.674,4.674,0,0,1,100.29,124.762Z"/><path class="b" d="M85.826,109.586a.243.243,0,0,1-.1-.024.238.238,0,0,1-.11-.318s1.963-4.051,3.7-7.667c1.678-3.485,0-8.551-.018-8.6a.238.238,0,0,1,.451-.153c.073.215,1.759,5.3,0,8.962-1.741,3.616-3.7,7.668-3.7,7.668A.237.237,0,0,1,85.826,109.586Z"/><path class="b" d="M68.274,119.89h-.008c-.388-.007-9.523-.164-12.729-.609-1.558-.216-5.244-.929-8.764-1.7C40.2,116.155,40.1,115.9,39.98,115.6c-.009-.014-.034-.046-.059-.081A1.067,1.067,0,0,1,39.7,114.4c.3-.608,1.36-1.194,7.026-1.358,5.7-.165,10.377-.664,12.809-.969-1.911-.926-2.768-2.535-2.6-3.577a.918.918,0,0,1,1.049-.845c.278.037.855.1,1.552.185,3.885.451,4.656.573,4.88.692h0c1.491.789,5.542,2.7,5.582,2.724a.476.476,0,0,1,.264.523l-1.524,7.736A.476.476,0,0,1,68.274,119.89Zm-27.482-4.784c1.165.545,11.67,2.787,14.876,3.232,2.776.385,10.387.556,12.215.592l1.376-6.981c-1.006-.478-3.976-1.893-5.261-2.572-.394-.115-3.1-.43-4.569-.6-.681-.079-1.25-.145-1.541-.184a1.237,1.237,0,0,0,.115.732,4.5,4.5,0,0,0,3.508,2.387.477.477,0,0,1,.389.468v.112a.476.476,0,0,1-.4.47,129.94,129.94,0,0,1-14.74,1.227c-5.076.147-6.008.643-6.176.8a1.781,1.781,0,0,0,.112.17C40.727,115.008,40.761,115.055,40.792,115.106Zm.075.145Zm-.134-.177Zm23.24-5.71.006,0-.006,0Z"/><path class="b" d="M75.546,38.215a2.92,2.92,0,0,1-.837-.119,3.053,3.053,0,0,1-1.767-1.463.476.476,0,0,1,.855-.42,2.109,2.109,0,0,0,1.194.973,3.053,3.053,0,0,0,2.386-.528.476.476,0,0,1,.489.817A4.572,4.572,0,0,1,75.546,38.215Z"/><path class="b" d="M61.751,37.053a2.567,2.567,0,0,1-.733-.1,2.675,2.675,0,0,1-1.547-1.281.477.477,0,0,1,.855-.421,1.72,1.72,0,0,0,.975.793,2.533,2.533,0,0,0,1.971-.443.476.476,0,1,1,.489.817A3.958,3.958,0,0,1,61.751,37.053Z"/><path class="b" d="M68.268,75.326c-.368,0-1.26-.6-2.653-1.795a.238.238,0,0,1,.31-.362,11.917,11.917,0,0,0,2.312,1.681,22.984,22.984,0,0,0,2.528-1.692.238.238,0,1,1,.281.384,19.761,19.761,0,0,1-2.72,1.778A.265.265,0,0,1,68.268,75.326Zm-.018-.474Z"/><path class="b" d="M73.159,62.772V59.314a22.116,22.116,0,0,1-4.152.538,9.571,9.571,0,0,1-5.491-1.45v1.423A18.325,18.325,0,0,0,73.159,62.772Z"/><path class="b" d="M43.1,77.82a.239.239,0,0,1-.208-.354A13.728,13.728,0,0,1,45.221,74.4c1.227-1.085,8.927-3.755,9.254-3.869a.239.239,0,0,1,.156.451c-2.741.947-8.169,2.956-9.094,3.775A13.515,13.515,0,0,0,43.3,77.7.237.237,0,0,1,43.1,77.82Z"/><path class="b" d="M68.235,107.027a.246.246,0,0,1-.091-.018,2.626,2.626,0,0,0-1.957-.112.238.238,0,1,1-.195-.434,3.079,3.079,0,0,1,2.335.106.238.238,0,0,1-.092.458Z"/><path class="b" d="M70.156,124.524a.24.24,0,0,1-.179-.081l-2.267-2.588a.238.238,0,1,1,.358-.314l2.267,2.588a.24.24,0,0,1-.022.336A.244.244,0,0,1,70.156,124.524Z"/><path class="b" d="M61.574,78.676s5.66-5.224,6.764-5.737c0,0,4.119,3.17,6.763,5.737,0,0-3.492-5.246-6.763-7.947A48.182,48.182,0,0,0,61.574,78.676Z"/><path class="b" d="M97.043,87.53a.238.238,0,0,1-.233-.19c-.018-.088-1.814-8.769-2.8-10.86C93.056,74.436,88,71.725,87.953,71.7a.238.238,0,1,1,.224-.42c.213.114,5.243,2.813,6.269,5,1,2.141,2.756,10.606,2.83,10.966a.238.238,0,0,1-.185.281A.261.261,0,0,1,97.043,87.53Z"/><path class="b" d="M123.524,124.762H4.476a.476.476,0,1,1,0-.952H123.524a.476.476,0,0,1,0,.952Z"/></svg>