<svg xmlns="http://www.w3.org/2000/svg" viewBox="0 0 128 128"><defs><style>.a{fill:#fff;}.b{fill:#231f20;}</style></defs><path class="a" d="M41.57,116.4a.474.474,0,0,1-.035-.166c-.053-2.116-.079-4.424-.085-6.765-.426-1.144-.984-2.448-1.276-3.12a32.254,32.254,0,0,1-4.56.329,31.578,31.578,0,0,1-9.332-1.4c-.017,2.741-.076,13.3,0,18.536H41.31l1.319-4.949C42.092,117.7,41.6,116.484,41.57,116.4Z"/><path class="a" d="M88.3,120.172a.476.476,0,0,1-.755-.581c.336-.437.69-.92,1-1.358l0,0a7.1,7.1,0,0,0,.786-1.289,20.664,20.664,0,0,0-.006-4.961c-.266-2.838-.955-21.226-.984-22.008a.476.476,0,0,1,.458-.493.468.468,0,0,1,.494.458c.005.135.363,9.683.664,16.241l1.814,2.137a52.7,52.7,0,0,1,11.848,2.51.441.441,0,0,1,.1.036c.425.147.775.277,1.043.381.1-2.151.406-9.187.546-16.9.169-9.324-3.819-21.99-6.531-26.276-2.224-3.513-17.767-8.034-24.4-9.965-1.017-.3-1.829-.532-2.4-.708-.047.539-.093,1.085-.137,1.634,3.135,1.064,22.066,7.528,24.141,9.1,2.251,1.7,4.159,9.023,4.239,9.334a.238.238,0,0,1-.171.29.246.246,0,0,1-.06.007.238.238,0,0,1-.23-.178C99.73,77.5,97.8,70.106,95.684,68.5c-1.968-1.491-20.526-7.845-23.892-8.99-.182,2.385-.314,4.784-.314,6.747,0,5.229-3.379,8.608-8.607,8.608a7.138,7.138,0,0,1-5.319-2.015c-2.878-2.938-2.768-8.272-2.7-11.459,0-.123.005-.237.007-.353a34.661,34.661,0,0,1-5.628.58c-.208,0-.408-.005-.6-.013-1.118.652-2.8,1.392-4.737,2.244-6.8,2.991-17.089,7.512-17.6,14.637-.31,4.321-3.1,21.614-3.546,24.347a30.346,30.346,0,0,0,16.726,2.646l2.011-2.681c.067-6.943.233-12.764.236-12.859a.476.476,0,0,1,.952.027c0,.155-.443,15.539-.179,26.157a29.928,29.928,0,0,0,1.938,4.1.476.476,0,1,1-.762.571,5.591,5.591,0,0,1-.392-.636L42.3,123.81H88.651a5.988,5.988,0,0,0,.809-2.486,5.171,5.171,0,0,0-.586-1.921C88.653,119.705,88.447,119.976,88.3,120.172ZM42.515,67.413c-.111.059-11.129,5.879-12.331,7.9s-2.19,11.551-2.2,11.647a.237.237,0,0,1-.236.214h-.025a.237.237,0,0,1-.212-.261c.04-.4,1-9.72,2.264-11.842s12.06-7.835,12.519-8.077a.238.238,0,1,1,.221.421Zm11.163-2.349a.238.238,0,0,1,.46.126c-.016.059-1.563,5.951,2.33,9.832a.238.238,0,1,1-.336.337C52.039,71.28,53.661,65.126,53.678,65.064Zm6.455,54.874a.238.238,0,0,1-.231.181.276.276,0,0,1-.057-.006c-.164-.04-4-.98-5.223-1.376a35,35,0,0,0-6.558-.493.244.244,0,0,1-.253-.222.238.238,0,0,1,.222-.253,19.7,19.7,0,0,1,2.365.011c.192-.109.359-.263.328-.466a8.431,8.431,0,0,0-1.448-1.838c-2.089-1.381-4.014-2.7-4.176-2.809a.238.238,0,1,1,.269-.393c2.839,1.944,8.453,5.7,9.381,6,1.183.387,5.166,1.361,5.206,1.371A.238.238,0,0,1,60.133,119.938Zm7.46-43.274a.246.246,0,0,1-.091.018.238.238,0,0,1-.091-.458C74.889,73.13,72.6,64.809,72.5,64.456a.238.238,0,1,1,.458-.132C72.98,64.415,75.466,73.406,67.593,76.664ZM84.43,118.155a.239.239,0,0,1-.2.112.234.234,0,0,1-.126-.037,5.975,5.975,0,0,0-2.876-.588A.229.229,0,0,1,81,117.5a.237.237,0,0,1,.06-.268,20.318,20.318,0,0,0,2.1-3.024.238.238,0,0,1,.411.24,26.8,26.8,0,0,1-1.81,2.725,5.635,5.635,0,0,1,2.6.659A.238.238,0,0,1,84.43,118.155Z"/><path class="a" d="M48.614,60.67c5.057.224,16.255-2.663,19.415-4.695l.12-.079.061-.043c.045-.031.087-.062.127-.093l.049-.038c.04-.032.076-.063.111-.093l.041-.037c.034-.031.065-.062.094-.093l.031-.032a1.121,1.121,0,0,0,.1-.12,34.566,34.566,0,0,0,3.2-6.8.534.534,0,0,1,.047-.1l.017-.024a.517.517,0,0,1,.052-.062l.02-.019a.472.472,0,0,1,.185-.1l.011,0,.015,0a.567.567,0,0,1,.084-.011h.026a.444.444,0,0,1,.1.012h0l.02.007a.548.548,0,0,1,.08.03l.028.016a.517.517,0,0,1,.066.046l.015.011c.076.068,1.9,1.662,3.565.27,1.344-1.122,2.615-4.354,2.616-6.65a2.849,2.849,0,0,0-.7-2.148c-1.222-1.021-3.214-.237-4.533.281a3.214,3.214,0,0,1-1.607.4c-.629-.141-.7-.988-.852-3.9-.13-2.519-.326-6.326-1.25-7.15-1.882-1.679-4.643-5.776-4.456-7.781.005-.052-.062-.13-.091-.161-1.1-1.2-7.755-2.138-10.848-2.138h-.148c-2.956.03-11.82,3.541-12.88,5.428a.435.435,0,0,1-.038.057c-.035.047-3.219,4.244-2.49,8.333,1.964-.321,5.245-.8,6.075-.558a2.526,2.526,0,0,1,1.633,1.28,1.61,1.61,0,0,1-.014,1.365c-.049.1-.14.288-.261.532-2.742,5.548-2.966,6.934-2.855,7.267a5.177,5.177,0,0,0,2.081,2.041.476.476,0,0,1-.236.89.483.483,0,0,1-.236-.063,6.053,6.053,0,0,1-2.513-2.567c-.207-.623.137-1.934,1.16-4.28a1.12,1.12,0,0,1-.59-1.023,1.226,1.226,0,0,1,.171-.63,1.622,1.622,0,0,0-.415.025,5.727,5.727,0,0,0-1.269.615.467.467,0,0,1-.245.069.476.476,0,0,1-.246-.884,6.333,6.333,0,0,1,1.519-.721,5.453,5.453,0,0,1,2.182.148c.2-.415.412-.85.638-1.309.117-.237.2-.415.253-.516a.642.642,0,0,0,.008-.567,1.607,1.607,0,0,0-1.029-.757,28.64,28.64,0,0,0-5.571.569c.036.109.073.217.116.325,1.024,2.56.934,5.175.839,7.943a23.534,23.534,0,0,0,.562,7.506l.1.339c1.475,5.107,2.449,8.481,5.868,10.092a4.847,4.847,0,0,0,1.692.343A.466.466,0,0,1,48.614,60.67ZM73.3,46.618c0-.008,0-.015,0-.023a2.209,2.209,0,0,1,.547-1.39,2.049,2.049,0,0,1,1.489-.606.237.237,0,0,1,.226.249.243.243,0,0,1-.248.227,1.6,1.6,0,0,0-1.123.46,1.649,1.649,0,0,0-.4.92,1.763,1.763,0,0,0,2.2-.994c.727-1.265.794-3.2.128-3.692a1.322,1.322,0,0,0-1.024-.3,1.756,1.756,0,0,0-1,.689.238.238,0,1,1-.4-.265A2.213,2.213,0,0,1,75.012,41a1.78,1.78,0,0,1,1.392.388c.936.694.783,2.951,0,4.312a2.329,2.329,0,0,1-2,1.343,2.274,2.274,0,0,1-.635-.1,3.876,3.876,0,0,0,.025.392.238.238,0,0,1-.209.264l-.028,0a.239.239,0,0,1-.236-.211A4.259,4.259,0,0,1,73.3,46.618ZM59.8,37.337a.478.478,0,0,1-.442.3.471.471,0,0,1-.179-.035c-.01,0-.448-.18-1.088-.386a1.892,1.892,0,0,1-.184.775.482.482,0,1,0-.651.706,1.3,1.3,0,0,1-.635.169,1.6,1.6,0,0,1-1.473-1.7,1.921,1.921,0,0,1,.088-.574c-.162-.013-.322-.021-.476-.021a8.7,8.7,0,0,0-3.447.8.476.476,0,0,1-.426-.852,9.582,9.582,0,0,1,3.873-.9,15.522,15.522,0,0,1,4.778,1.107A.477.477,0,0,1,59.8,37.337Zm-8.989-5.449c.831-.147,8.163-1.431,9.516-1.228a22.628,22.628,0,0,1,3.26.859.476.476,0,1,1-.31.9,22.331,22.331,0,0,0-3.091-.818c-.909-.137-6.006.658-9.209,1.224a.487.487,0,0,1-.084.008.476.476,0,0,1-.082-.945ZM47.1,44.1c.7-.344,2.236-.69,3.076.47a.476.476,0,0,1-.772.558c-.582-.8-1.869-.18-1.882-.174A.476.476,0,0,1,47.1,44.1Zm-.39,5.727a1.914,1.914,0,0,0-1.894,1.213.479.479,0,0,1-.6.307.474.474,0,0,1-.31-.593,2.87,2.87,0,0,1,2.8-1.879c1.619,0,3.623,1.58,3.708,1.647a.476.476,0,0,1-.593.746A6.618,6.618,0,0,0,46.713,49.831Z"/><path class="a" d="M55.8,61.6c-.061,3.055-.109,7.985,2.436,10.583a6.222,6.222,0,0,0,4.638,1.729c4.721,0,7.655-2.933,7.655-7.655,0-2.744.253-6.32.545-9.535,0-.015,0-.029,0-.043.013-.144.026-.288.039-.43C67.956,58.425,60,63.8,58.4,63.855,57.156,63.9,56.284,62.6,55.8,61.6Z"/><path class="a" d="M41.469,103.6l-1.344,1.791c.439-.064.884-.14,1.332-.225C41.461,104.642,41.464,104.12,41.469,103.6Z"/><path class="a" d="M91.089,108.252l-1.1-1.3c.02.423.039.83.058,1.218C90.4,108.2,90.747,108.223,91.089,108.252Z"/><path class="a" d="M90.2,110.9c.027.424.051.761.072.989a21.514,21.514,0,0,1,0,5.213,5.261,5.261,0,0,1-.772,1.425,6.87,6.87,0,0,1,.92,2.768,6.02,6.02,0,0,1-.692,2.514H102.1c.085-1.08.2-2.31.325-3.6.274-2.9.584-6.161.612-8.574a51.636,51.636,0,0,0-10.518-2.281C91.845,109.774,90.811,110.436,90.2,110.9Z"/><path class="b" d="M105.2,112.411a.486.486,0,0,1-.194-.041A48.762,48.762,0,0,0,89.565,109.1a.476.476,0,0,1,.056-.951,51.869,51.869,0,0,1,15.138,3.094c.1-2.151.406-9.187.546-16.9.169-9.324-3.819-21.99-6.531-26.276-2.224-3.513-17.767-8.034-24.4-9.965-1.426-.415-2.457-.714-2.979-.892a.476.476,0,0,1,.307-.9c.5.17,1.577.483,2.938.879,7.312,2.127,22.526,6.552,24.942,10.37,2.841,4.487,6.855,17.16,6.679,26.8-.168,9.25-.575,17.522-.579,17.6a.475.475,0,0,1-.475.453Z"/><path class="b" d="M49.228,61.619a7.247,7.247,0,0,1-2.9-.442c-3.809-1.794-4.83-5.333-6.377-10.689l-.1-.338a24.24,24.24,0,0,1-.6-7.8c.092-2.665.178-5.182-.771-7.557-1.926-4.818,1.89-10.024,2.244-10.492,1.394-2.37,10.587-5.851,13.682-5.883,2.177-.021,10.1.7,11.707,2.445a1.14,1.14,0,0,1,.338.895c-.141,1.5,2.291,5.331,4.142,6.981,1.13,1.009,1.371,4,1.567,7.812a24.61,24.61,0,0,0,.255,3c.215-.06.589-.207.905-.331,1.527-.6,3.837-1.509,5.492-.125a3.619,3.619,0,0,1,1.047,2.878c0,2.571-1.411,6.089-2.959,7.381a3.508,3.508,0,0,1-4.263.119,32.415,32.415,0,0,1-3.1,6.424c-1.091,1.577-6.537,3.337-10.869,4.365A45.389,45.389,0,0,1,49.228,61.619Zm5.341-42.253h-.148c-2.956.03-11.82,3.541-12.88,5.428a.435.435,0,0,1-.038.057c-.039.051-3.906,5.15-2.134,9.584,1.024,2.56.934,5.175.839,7.943a23.534,23.534,0,0,0,.562,7.506l.1.339c1.475,5.107,2.449,8.481,5.868,10.092,3.5,1.651,20.445-2.69,22.023-4.969a34.566,34.566,0,0,0,3.2-6.8.476.476,0,0,1,.77-.2c.076.068,1.9,1.662,3.565.27,1.344-1.122,2.615-4.354,2.616-6.65a2.849,2.849,0,0,0-.7-2.148c-1.222-1.021-3.214-.237-4.533.281a3.214,3.214,0,0,1-1.607.4c-.629-.141-.7-.988-.852-3.9-.13-2.519-.326-6.326-1.25-7.15-1.882-1.679-4.643-5.776-4.456-7.781.005-.052-.062-.13-.091-.161C64.313,20.3,57.662,19.366,54.569,19.366Zm-13.443,5.2h0Z"/><path class="b" d="M54.416,18.89c2.927-.03,11.734,1.02,11.566,2.819s2.513,5.788,4.3,7.382,1.125,10.772,1.89,10.944,4.281-2.3,6.34-.583c.019.016.036.035.054.052,2.393-4.509,5.325-11.241,4-15.149-2.123-6.262-5.688-5.874-5.688-5.874S75.419,13,64.025,8.667,34.564,2.4,30.944,13.468,41.126,24.562,41.126,24.562C42.338,22.4,51.489,18.921,54.416,18.89Z"/><path class="b" d="M50.889,32.833a.476.476,0,0,1-.082-.945c.831-.147,8.163-1.431,9.516-1.228a22.628,22.628,0,0,1,3.26.859.476.476,0,1,1-.31.9,22.331,22.331,0,0,0-3.091-.818c-.909-.137-6.006.658-9.209,1.224A.487.487,0,0,1,50.889,32.833Z"/><path class="b" d="M45.436,46a.483.483,0,0,1-.236-.063,6.053,6.053,0,0,1-2.513-2.567c-.3-.9.543-3.211,2.905-7.99.117-.237.2-.415.253-.516a.642.642,0,0,0,.008-.567,1.607,1.607,0,0,0-1.029-.757c-.64-.186-4.462.36-6.971.806a.476.476,0,0,1-.167-.938c1.046-.185,6.317-1.1,7.4-.783a2.526,2.526,0,0,1,1.633,1.28,1.61,1.61,0,0,1-.014,1.365c-.049.1-.14.288-.261.532-2.742,5.548-2.966,6.934-2.855,7.267a5.177,5.177,0,0,0,2.081,2.041.476.476,0,0,1-.236.89Z"/><path class="b" d="M49.794,45.329a.477.477,0,0,1-.387-.2c-.582-.8-1.869-.18-1.882-.174A.476.476,0,0,1,47.1,44.1c.7-.344,2.236-.69,3.076.47a.476.476,0,0,1-.385.755Z"/><path class="b" d="M35.614,106.678a29.3,29.3,0,0,1-13.637-3.169.477.477,0,0,1-.233-.49c.032-.2,3.264-20.047,3.592-24.6.553-7.7,11.153-12.358,18.168-15.441a49.971,49.971,0,0,0,4.746-2.256.476.476,0,1,1,.49.817,50.313,50.313,0,0,1-4.853,2.311c-6.8,2.991-17.089,7.512-17.6,14.637-.31,4.321-3.1,21.614-3.546,24.347a30.485,30.485,0,0,0,19.09,2.265.476.476,0,1,1,.189.933A32.314,32.314,0,0,1,35.614,106.678Z"/><path class="b" d="M44.042,120.983a.476.476,0,0,1-.381-.191A32.128,32.128,0,0,1,41.57,116.4a.474.474,0,0,1-.035-.166c-.27-10.647.173-26.139.177-26.294a.476.476,0,0,1,.952.027c0,.155-.443,15.539-.179,26.157a29.928,29.928,0,0,0,1.938,4.1.477.477,0,0,1-.381.762Z"/><path class="b" d="M25.81,124.762a.477.477,0,0,1-.476-.468c-.1-5.8,0-19.551,0-19.689a.477.477,0,0,1,.476-.473h0a.477.477,0,0,1,.473.48c0,.138-.1,13.881,0,19.666a.477.477,0,0,1-.469.484Z"/><path class="b" d="M49.228,61.619a7.247,7.247,0,0,1-2.9-.442c-3.809-1.794-4.83-5.333-6.377-10.689l-.1-.338a24.24,24.24,0,0,1-.6-7.8c.092-2.665.178-5.182-.771-7.557-1.926-4.818,1.89-10.024,2.244-10.492,1.394-2.37,10.587-5.851,13.682-5.883,2.177-.021,10.1.7,11.707,2.445a1.14,1.14,0,0,1,.338.895c-.141,1.5,2.291,5.331,4.142,6.981,1.13,1.009,1.371,4,1.567,7.812a24.61,24.61,0,0,0,.255,3c.215-.06.589-.207.905-.331,1.527-.6,3.837-1.509,5.492-.125a3.619,3.619,0,0,1,1.047,2.878c0,2.571-1.411,6.089-2.959,7.381a3.508,3.508,0,0,1-4.263.119,32.415,32.415,0,0,1-3.1,6.424c-1.091,1.577-6.537,3.337-10.869,4.365A45.389,45.389,0,0,1,49.228,61.619Zm5.341-42.253h-.148c-2.956.03-11.82,3.541-12.88,5.428a.435.435,0,0,1-.038.057c-.039.051-3.906,5.15-2.134,9.584,1.024,2.56.934,5.175.839,7.943a23.534,23.534,0,0,0,.562,7.506l.1.339c1.475,5.107,2.449,8.481,5.868,10.092,3.5,1.651,20.445-2.69,22.023-4.969a34.566,34.566,0,0,0,3.2-6.8.476.476,0,0,1,.77-.2c.076.068,1.9,1.662,3.565.27,1.344-1.122,2.615-4.354,2.616-6.65a2.849,2.849,0,0,0-.7-2.148c-1.222-1.021-3.214-.237-4.533.281a3.214,3.214,0,0,1-1.607.4c-.629-.141-.7-.988-.852-3.9-.13-2.519-.326-6.326-1.25-7.15-1.882-1.679-4.643-5.776-4.456-7.781.005-.052-.062-.13-.091-.161C64.313,20.3,57.662,19.366,54.569,19.366Zm-13.443,5.2h0Z"/><path class="b" d="M62.871,74.866a7.138,7.138,0,0,1-5.319-2.015c-2.878-2.938-2.768-8.272-2.7-11.459.007-.337.013-.647.015-.923a.477.477,0,0,1,.39-.465c6.277-1.155,12.587-3.331,13.505-4.657a34.566,34.566,0,0,0,3.2-6.8.476.476,0,0,1,.923.215c-.014.11-1.405,11.111-1.405,17.5C71.478,71.487,68.1,74.866,62.871,74.866Zm-7.059-14c0,.172-.007.353-.011.543-.062,3.038-.166,8.121,2.432,10.773a6.222,6.222,0,0,0,4.638,1.729c4.721,0,7.655-2.933,7.655-7.655,0-4.152.58-10.217,1-14.039a23.8,23.8,0,0,1-1.981,3.67C68.366,57.588,61.585,59.766,55.812,60.868Z"/><path class="b" d="M102.54,124.762h-.035a.477.477,0,0,1-.44-.51c.087-1.181.219-2.572.359-4.044.288-3.036.614-6.477.614-8.918a.477.477,0,0,1,.953,0c0,2.486-.329,5.951-.619,9.008-.14,1.467-.271,2.853-.357,4.024A.477.477,0,0,1,102.54,124.762Z"/><path class="b" d="M50.124,51.375a.478.478,0,0,1-.3-.1,6.618,6.618,0,0,0-3.115-1.441,1.914,1.914,0,0,0-1.894,1.213.479.479,0,0,1-.6.307.474.474,0,0,1-.31-.593,2.87,2.87,0,0,1,2.8-1.879c1.619,0,3.623,1.58,3.708,1.647a.476.476,0,0,1-.3.849Z"/><path class="b" d="M59.354,37.634a.471.471,0,0,1-.179-.035,14.846,14.846,0,0,0-4.419-1.036,8.7,8.7,0,0,0-3.447.8.476.476,0,0,1-.426-.852,9.582,9.582,0,0,1,3.873-.9,15.522,15.522,0,0,1,4.778,1.107.476.476,0,0,1-.18.917Z"/><path class="b" d="M41.5,38.148a.476.476,0,0,1-.246-.884,6.333,6.333,0,0,1,1.519-.721,6.251,6.251,0,0,1,2.553.228.476.476,0,0,1-.212.928,5.842,5.842,0,0,0-2.1-.235,5.727,5.727,0,0,0-1.269.615A.467.467,0,0,1,41.5,38.148Z"/><ellipse class="b" cx="44.216" cy="38.069" rx="0.959" ry="1.109"/><path class="b" d="M87.919,120.358a.477.477,0,0,1-.377-.767,17.05,17.05,0,0,0,1.784-2.651,20.664,20.664,0,0,0-.006-4.961c-.266-2.838-.955-21.226-.984-22.008a.476.476,0,0,1,.458-.493.468.468,0,0,1,.494.458c.007.191.717,19.143.98,21.954a21.514,21.514,0,0,1,0,5.213,14.139,14.139,0,0,1-1.967,3.069A.476.476,0,0,1,87.919,120.358Z"/><path class="b" d="M88.927,124.762a.476.476,0,0,1-.407-.722,6.411,6.411,0,0,0,.94-2.716,6.608,6.608,0,0,0-.936-2.567.476.476,0,0,1,.808-.5,7.459,7.459,0,0,1,1.08,3.043,7.428,7.428,0,0,1-1.077,3.237A.477.477,0,0,1,88.927,124.762Z"/><path class="b" d="M41.676,124.763a.48.48,0,0,1-.123-.017.475.475,0,0,1-.337-.582l1.457-5.469a.476.476,0,1,1,.92.245l-1.457,5.469A.477.477,0,0,1,41.676,124.763Z"/><path class="b" d="M58.4,63.855c1.7-.057,10.527-6.085,13.229-7.957.377-3.982.787-7.2.787-7.2a34.889,34.889,0,0,1-3.261,6.92c-1.073,1.552-7.84,3.756-13.81,4.854C55.34,60.472,56.386,63.922,58.4,63.855Z"/><path class="b" d="M57.062,38.312a.483.483,0,0,1,.841-.324,1.9,1.9,0,0,0,.187-.83,1.942,1.942,0,0,0-.056-.462,13.992,13.992,0,0,0-2.587-.57,1.863,1.863,0,0,0-.3,1.032,1.6,1.6,0,0,0,1.473,1.7,1.3,1.3,0,0,0,.635-.169A.482.482,0,0,1,57.062,38.312Z"/><path class="b" d="M67.5,76.682a.238.238,0,0,1-.091-.458C74.889,73.13,72.6,64.809,72.5,64.456a.238.238,0,1,1,.458-.132c.026.091,2.512,9.082-5.361,12.34A.246.246,0,0,1,67.5,76.682Z"/><path class="b" d="M56.3,75.429a.238.238,0,0,1-.168-.07c-4.093-4.079-2.471-10.233-2.454-10.3a.238.238,0,0,1,.46.126c-.016.059-1.563,5.951,2.33,9.832a.239.239,0,0,1-.168.407Z"/><path class="b" d="M27.748,87.173h-.025a.237.237,0,0,1-.212-.261c.04-.4,1-9.72,2.264-11.842s12.06-7.835,12.519-8.077a.238.238,0,1,1,.221.421c-.111.059-11.129,5.879-12.331,7.9s-2.19,11.551-2.2,11.647A.237.237,0,0,1,27.748,87.173Z"/><path class="b" d="M99.979,77.753a.238.238,0,0,1-.23-.178C99.73,77.5,97.8,70.106,95.684,68.5c-2.154-1.632-24.193-9.093-24.416-9.168a.238.238,0,0,1,.153-.451c.911.308,22.335,7.561,24.55,9.24,2.251,1.7,4.159,9.023,4.239,9.334a.238.238,0,0,1-.171.29A.246.246,0,0,1,99.979,77.753Z"/><path class="b" d="M59.9,120.119a.276.276,0,0,1-.057-.006c-.165-.041-4.041-.989-5.241-1.382-1.224-.4-9.165-5.833-9.5-6.064a.238.238,0,1,1,.269-.393c2.839,1.944,8.453,5.7,9.381,6,1.183.387,5.166,1.361,5.206,1.371a.238.238,0,0,1-.056.469Z"/><path class="b" d="M54.678,118.743l-.04,0a35.2,35.2,0,0,0-6.574-.5.244.244,0,0,1-.253-.222.238.238,0,0,1,.222-.253,35.3,35.3,0,0,1,6.685.5.238.238,0,0,1-.04.473Z"/><path class="b" d="M84.228,118.267a.234.234,0,0,1-.126-.037,5.975,5.975,0,0,0-2.876-.588A.229.229,0,0,1,81,117.5a.237.237,0,0,1,.06-.268,20.318,20.318,0,0,0,2.1-3.024.238.238,0,0,1,.411.24,26.8,26.8,0,0,1-1.81,2.725,5.635,5.635,0,0,1,2.6.659.238.238,0,0,1-.127.44Z"/><path class="b" d="M39.393,106.21a.233.233,0,0,1-.143-.048.238.238,0,0,1-.048-.333l2.561-3.413a.238.238,0,0,1,.381.286l-2.561,3.413A.237.237,0,0,1,39.393,106.21Z"/><path class="b" d="M91.869,109.041a.239.239,0,0,1-.182-.084l-2.4-2.831a.238.238,0,1,1,.363-.308l2.4,2.831a.239.239,0,0,1-.027.336A.244.244,0,0,1,91.869,109.041Z"/><path class="b" d="M93.171,108.948a30.91,30.91,0,0,0-3.427,2.341v-2.658S92.561,108.869,93.171,108.948Z"/><path class="b" d="M39.975,105.9a46.6,46.6,0,0,1,1.978,5.123,41.17,41.17,0,0,0-.179-5.425S40.557,105.822,39.975,105.9Z"/><path class="b" d="M48.551,114.707a16.327,16.327,0,0,1,2.175,2.607c.067.447-.826.662-.826.662a28.953,28.953,0,0,1,5.46.733,36.64,36.64,0,0,1-3.405-1.777C50.789,116.182,48.551,114.707,48.551,114.707Z"/><path class="b" d="M74.4,47.042a2.426,2.426,0,0,1-.961-.211.238.238,0,1,1,.188-.438,1.755,1.755,0,0,0,2.363-.932c.727-1.265.794-3.2.128-3.692a1.322,1.322,0,0,0-1.024-.3,1.756,1.756,0,0,0-1,.689.238.238,0,1,1-.4-.265A2.213,2.213,0,0,1,75.012,41a1.78,1.78,0,0,1,1.392.388c.936.694.783,2.951,0,4.312A2.329,2.329,0,0,1,74.4,47.042Z"/><path class="b" d="M73.555,47.6a.239.239,0,0,1-.236-.211,2.636,2.636,0,0,1,.528-2.187,2.049,2.049,0,0,1,1.489-.606.237.237,0,0,1,.226.249.243.243,0,0,1-.248.227,1.6,1.6,0,0,0-1.123.46,2.2,2.2,0,0,0-.4,1.8.238.238,0,0,1-.209.264Z"/><path class="b" d="M123.524,124.762H4.476a.476.476,0,1,1,0-.952H123.524a.476.476,0,0,1,0,.952Z"/></svg>