<svg xmlns="http://www.w3.org/2000/svg" viewBox="0 0 128 128"><defs><style>.a{fill:#fff;}.b{fill:#231f20;}</style></defs><path class="a" d="M80.751,70.219a19.756,19.756,0,0,0,.563,4.7c.091.194.3.614.6,1.2.4.789.946,1.869,1.586,3.159a37.626,37.626,0,0,0,2.59-7.929A11.921,11.921,0,0,0,80.751,70.219Z"/><path class="a" d="M50.908,47.166a.476.476,0,0,1,.581.428A13.737,13.737,0,0,0,57.4,56.917a24.988,24.988,0,0,0,3.441,2c.178.085.355.167.533.246l.238.1q.219.094.437.183l.242.1c.206.08.411.158.617.231l.167.058c.172.06.343.117.515.172l.232.071q.234.072.468.136l.2.055c.453.12.906.223,1.357.306l.1.017c.112.02.224.037.336.054.376-.667.594-.756.671-.788h0l.026-.01a1.45,1.45,0,0,1,.151-.04c.055-.012.119-.024.187-.035h0c.068-.011.143-.021.223-.031l.019,0,.186-.019.154-.015.042,0a36.431,36.431,0,0,1,5.428.062c3.273-1.638,8.942-6.061,10.142-12.661,1.46-8.03,1.365-9.6-.919-15.236-.85-2.1-3.768-2.772-7.463-3.624-5.212-1.2-12.263-2.827-16.824-9.818-.591,2.893-2.2,10.106-4.007,12.394-2.169,2.748-5.506,13.4-5.011,15.07C49.737,47.413,50.86,47.176,50.908,47.166Zm24.309-4.753a2.587,2.587,0,0,1-2.3-2.056,1.211,1.211,0,0,0,0-2.4,2.587,2.587,0,0,1,2.3-2.056c1.364,0,2.47,1.457,2.47,3.255S76.581,42.413,75.217,42.413ZM71.8,41.95a.476.476,0,0,1,.713-.631,2.17,2.17,0,0,1-.039,3.141.479.479,0,0,1-.317.12.476.476,0,0,1-.317-.831C72.678,43,71.888,42.055,71.8,41.95Zm-.421-8.609a43.829,43.829,0,0,1,7.206.009,5.184,5.184,0,0,1,2.812,1.466.476.476,0,0,1-.056.671.471.471,0,0,1-.307.113.476.476,0,0,1-.364-.168,4.338,4.338,0,0,0-2.279-1.149,44.534,44.534,0,0,0-6.947.008.476.476,0,0,1-.065-.95ZM65.383,50.953a.478.478,0,0,1,.569.348c.023.079.25.7,1.527.426a7.13,7.13,0,0,1,4.218-.076c1.217.362,1.326.146,1.522-.247a.476.476,0,1,1,.852.426,1.46,1.46,0,0,1-1.419.954,4.423,4.423,0,0,1-1.226-.22,6.24,6.24,0,0,0-3.749.095c-1.8.383-2.521-.574-2.65-1.134A.477.477,0,0,1,65.383,50.953Zm-5.095-8.374a2.462,2.462,0,0,1-2.158-1.672A1.214,1.214,0,0,0,58,38.486c-.033,0-.065.008-.1.01a2.7,2.7,0,0,1,2.387-2.428c1.364,0,2.47,1.458,2.47,3.256S61.652,42.579,60.288,42.579Zm-5.2-6.519c.715-.887,2.012-2.4,2.652-2.56.6-.15,5.092-.294,5.986-.321a.471.471,0,0,1,.49.462.476.476,0,0,1-.461.49c-2.181.066-5.417.2-5.784.293a12.545,12.545,0,0,0-2.142,2.234.476.476,0,1,1-.741-.6Z"/><path class="a" d="M44.922,95.541a.391.391,0,0,1,.026-.075c.786-1.757,2.908-12.3,2.769-13.757-.117-1.234-1.561-6.12-2.019-7.647-4.135,1.268-8.3,3.6-10.262,7.2-1.364,2.5-1.491,18-.351,42.547H49.071c-.226-6.105-1.012-10.33-2.28-12.236C42.5,105.12,44.821,95.929,44.922,95.541Z"/><path class="a" d="M50.972,82.1c.54,1.643,2.184,6.64,12.646,9.421a.477.477,0,0,1,.344.362,31.173,31.173,0,0,0,1.726,5.547,22.783,22.783,0,0,0,1.886-5.292.476.476,0,0,1,.4-.432,26.186,26.186,0,0,0,7.59-2.8c-.352-1.73-.641-3.288-.9-4.676-.644-3.474-1.108-5.983-1.759-6.464a8.6,8.6,0,0,1-1.893-2.667c-1.042-.039-1.881-.021-1.89-.02h-.006a.238.238,0,0,1-.005-.476c.008,0,.723-.016,1.653.011-.531-1.067-.959-2.093-1.155-2.577a8.127,8.127,0,0,1-3.99-3.254,7.725,7.725,0,0,1-1.236-2.832.49.49,0,0,1,.014-.2c.15-.51.333-1.11.536-1.728l-3.924-2.527v8.892a.475.475,0,0,1-.355.46c-.056.015-5.646,1.471-11.127,2.337-.239.038-.483.081-.727.126.672,2.98,1.763,7.674,2.067,8.487C50.9,81.87,50.931,81.974,50.972,82.1Zm6.34-7.5c.688-.1,6.667-.006,6.921,0a.238.238,0,0,1,.235.241.233.233,0,0,1-.242.235c-2.14-.034-6.325-.077-6.847,0a.2.2,0,0,1-.034,0,.238.238,0,0,1-.033-.474Z"/><path class="a" d="M84.637,81.6a32.6,32.6,0,0,0,3.115-9.491c-.265-.132-.521-.254-.771-.369a37.611,37.611,0,0,1-2.944,8.63Q84.328,80.959,84.637,81.6Z"/><path class="a" d="M89.648,92.713a.476.476,0,0,1-.261.621.459.459,0,0,1-.18.036.477.477,0,0,1-.441-.3c-1.476-3.606-3.12-7.18-4.561-10.181l0,0c-.389-.812-.764-1.581-1.116-2.3h0c-.828-1.684-1.534-3.079-2.022-4.042-.309-.61-.513-1.013-.61-1.217-.432-.91-.556-3.245-.7-5.948-.151-2.831-.339-6.355-.957-7.258-.332-.485-1.954-1.1-5.492-1.387l-.427-.033-.045,0-.433-.028-.135-.008-.33-.017-.2-.009-.251-.011-.249-.009-.207-.006-.258-.006-.215,0-.217,0-.3,0h-.1a15.945,15.945,0,0,0-2.57.139,3.353,3.353,0,0,0-.395.655l0,.005a29.1,29.1,0,0,0-1.618,4.5,7.358,7.358,0,0,0,1.07,2.354c.961,1.454,2.579,2.751,3.606,2.891A8.172,8.172,0,0,0,74.3,69.879c.091-.244.035-.331.014-.363-.064-.1-.4-.44-2.007-.551a13.469,13.469,0,0,1-3.407-.518.476.476,0,1,1,.342-.888,13.517,13.517,0,0,0,3.131.456c1.507.1,2.379.418,2.743.987a1.317,1.317,0,0,1,.067,1.231c-.345.908-2.967,1.7-4.52,1.848.653,1.553,1.916,4.251,2.811,4.913.953.7,1.37,2.96,2.129,7.056.516,2.786,1.159,6.254,2.188,10.431,2.587,10.5,4.924,16.541,9.251,16.347,3.983-.178,4.9-8.76,5.564-15.026.078-.735.154-1.45.232-2.133.057-.5.12-1.018.184-1.55.813-6.746,1.926-15.984-3.868-19.268-.17-.1-.337-.188-.5-.278a33.954,33.954,0,0,1-3.491,10.1C86.581,85.649,88.194,89.164,89.648,92.713Z"/><path class="a" d="M86.18,116.1c.288-1.4.52-2.85.7-4.316H86.84c-5.326,0-7.761-8.073-9.979-17.076-.427-1.733-.787-3.341-1.1-4.832a27.11,27.11,0,0,1-7.286,2.7,32.425,32.425,0,0,1-2.324,6.1.478.478,0,0,1-.4.266h-.032a.477.477,0,0,1-.4-.212c-1.124-1.687-2-5.316-2.235-6.37-10.711-2.93-12.451-8.22-13.026-9.968-.036-.11-.066-.2-.093-.275-.364-.969-1.628-6.5-2.109-8.631q-.621.138-1.252.307a79.921,79.921,0,0,1,2.053,7.821c.154,1.627-1.946,12.141-2.831,14.2-.153.622-2.181,9.327,1.748,15.23,1.388,2.085,2.208,6.379,2.441,12.764H86.278A23.259,23.259,0,0,1,86.18,116.1Zm-17.989-1.287a.238.238,0,0,1-.333.048c-1.929-1.439-3.211-.066-3.265-.007a.238.238,0,0,1-.354-.318,2.815,2.815,0,0,1,3.9-.056A.237.237,0,0,1,68.191,114.813Z"/><path class="b" d="M34.63,124.761a.477.477,0,0,1-.475-.454c-.688-14.68-1.546-39.851.445-43.5,3.456-6.336,12.184-8.163,14.777-8.573,4.642-.733,9.367-1.894,10.678-2.226V59.3a.476.476,0,0,1,.684-.429A19.754,19.754,0,0,0,66.6,60.705a.476.476,0,1,1-.131.943,20.345,20.345,0,0,1-5.465-1.6V70.377a.475.475,0,0,1-.355.46c-.056.015-5.646,1.471-11.127,2.337-5.119.808-11.509,3.357-14.089,8.088-1.373,2.517-1.493,18.19-.33,43a.476.476,0,0,1-.453.5Z"/><path class="b" d="M89.207,93.37a.477.477,0,0,1-.441-.3c-2.815-6.875-6.24-13.639-7.7-16.527-.309-.61-.513-1.013-.61-1.217-.432-.91-.556-3.245-.7-5.948-.151-2.831-.339-6.355-.957-7.258-.339-.5-2.016-1.125-5.709-1.405a29.307,29.307,0,0,0-5.728.016c-.157.182-.826,1.134-2.016,5.162a7.358,7.358,0,0,0,1.07,2.354c.961,1.454,2.579,2.751,3.606,2.891A8.172,8.172,0,0,0,74.3,69.879c.091-.244.035-.331.014-.363-.064-.1-.4-.44-2.007-.551a13.469,13.469,0,0,1-3.407-.518.476.476,0,1,1,.342-.888,13.517,13.517,0,0,0,3.131.456c1.507.1,2.379.418,2.743.987a1.317,1.317,0,0,1,.067,1.231c-.413,1.087-4.091,2.016-5.289,1.853-1.487-.2-3.311-1.857-4.272-3.309a7.725,7.725,0,0,1-1.236-2.832.49.49,0,0,1,.014-.2c.6-2.054,1.738-5.55,2.557-5.877l.026-.01c1.3-.432,11.141-.405,12.6,1.733.715,1.045.909,3.745,1.122,7.745.128,2.385.259,4.85.611,5.59.091.194.3.614.6,1.2,1.468,2.9,4.9,9.686,7.735,16.6a.476.476,0,0,1-.261.621A.459.459,0,0,1,89.207,93.37ZM67.393,60.7Z"/><path class="b" d="M86.84,111.785c-5.326,0-7.761-8.073-9.979-17.076-1.036-4.2-1.681-7.687-2.2-10.485-.644-3.474-1.108-5.983-1.759-6.464-1.445-1.068-3.2-5.474-3.393-5.973a.476.476,0,1,1,.887-.347c.5,1.285,2.035,4.787,3.072,5.554.953.7,1.37,2.96,2.129,7.056.516,2.786,1.159,6.254,2.188,10.431,2.587,10.5,4.924,16.541,9.251,16.347,3.983-.178,4.9-8.76,5.564-15.026.078-.735.154-1.45.232-2.133.057-.5.12-1.018.184-1.55.813-6.746,1.926-15.984-3.868-19.268-5.2-2.946-8.058-2.72-8.811-2.579a.476.476,0,0,1-.173-.937c1.066-.2,4.124-.332,9.453,2.688,6.347,3.6,5.19,13.2,4.345,20.21-.064.53-.127,1.047-.184,1.544-.078.681-.153,1.393-.231,2.126-.743,6.978-1.667,15.662-6.468,15.877C87,111.783,86.919,111.785,86.84,111.785Z"/><path class="b" d="M66.538,61.654a.489.489,0,0,1-.066-.005A22.62,22.62,0,0,1,56.856,57.7,14.663,14.663,0,0,1,50.6,48.136a2.44,2.44,0,0,1-2.224-1.972c-.642-2.165,2.89-13.034,5.177-15.93,2.085-2.642,4.034-13.077,4.053-13.182a.476.476,0,0,1,.882-.15C62.8,24.427,69.754,26.031,75.343,27.32c3.964.914,7.095,1.636,8.132,4.194,2.352,5.809,2.462,7.577.973,15.765-1.2,6.614-6.575,11.363-10.81,13.419a.471.471,0,0,1-.247.046,29.9,29.9,0,0,0-6.032-.008,3.353,3.353,0,0,0-.395.655A.477.477,0,0,1,66.538,61.654Zm.856-.956ZM51.014,47.154a.476.476,0,0,1,.475.44A13.737,13.737,0,0,0,57.4,56.917a21.87,21.87,0,0,0,8.877,3.74c.377-.672.595-.761.673-.793l.03-.011a27.045,27.045,0,0,1,6.36-.069c3.269-1.625,8.969-6.055,10.173-12.676,1.46-8.03,1.365-9.6-.919-15.236-.85-2.1-3.768-2.772-7.463-3.624-5.212-1.2-12.263-2.827-16.824-9.818-.591,2.893-2.2,10.106-4.007,12.394-2.169,2.748-5.506,13.4-5.011,15.07.45,1.519,1.573,1.282,1.621,1.272A.479.479,0,0,1,51.014,47.154Z"/><path class="b" d="M86.831,124.761a.476.476,0,0,1-.47-.4,24.205,24.205,0,0,1-.181-8.259c.323-1.569.579-3.2.763-4.844a.476.476,0,0,1,.946.106c-.187,1.674-.448,3.333-.776,4.93a23.29,23.29,0,0,0,.189,7.919.477.477,0,0,1-.471.55Z"/><path class="b" d="M81.029,35.6a.476.476,0,0,1-.364-.168,4.338,4.338,0,0,0-2.279-1.149,44.536,44.536,0,0,0-6.947.008.476.476,0,0,1-.065-.95,43.829,43.829,0,0,1,7.206.009,5.184,5.184,0,0,1,2.812,1.466.476.476,0,0,1-.056.671A.471.471,0,0,1,81.029,35.6Z"/><path class="b" d="M55.456,36.835a.475.475,0,0,1-.37-.775c.715-.887,2.012-2.4,2.652-2.56.6-.15,5.092-.294,5.986-.321a.471.471,0,0,1,.49.462.476.476,0,0,1-.461.49c-2.181.066-5.417.2-5.784.293a12.545,12.545,0,0,0-2.142,2.234A.474.474,0,0,1,55.456,36.835Z"/><path class="b" d="M72.152,44.58a.476.476,0,0,1-.317-.831c.843-.752.053-1.694-.04-1.8a.476.476,0,0,1,.713-.631,2.17,2.17,0,0,1-.039,3.141A.479.479,0,0,1,72.152,44.58Z"/><path class="b" d="M72.652,52.784a4.423,4.423,0,0,1-1.226-.22,6.24,6.24,0,0,0-3.749.095c-1.8.383-2.521-.574-2.65-1.134a.476.476,0,0,1,.925-.224c.023.079.25.7,1.527.426a7.13,7.13,0,0,1,4.218-.076c1.217.362,1.326.146,1.522-.247a.476.476,0,1,1,.852.426A1.46,1.46,0,0,1,72.652,52.784Z"/><path class="b" d="M75.217,35.9a2.587,2.587,0,0,0-2.3,2.056,1.211,1.211,0,0,1,0,2.4,2.587,2.587,0,0,0,2.3,2.056c1.364,0,2.47-1.457,2.47-3.255S76.581,35.9,75.217,35.9Z"/><path class="b" d="M60.288,36.068A2.7,2.7,0,0,0,57.9,38.5c.033,0,.065-.01.1-.01a1.214,1.214,0,0,1,.131,2.421,2.462,2.462,0,0,0,2.158,1.672c1.364,0,2.47-1.458,2.47-3.255S61.652,36.068,60.288,36.068Z"/><path class="b" d="M86.379,18.605C80.4,6.836,66.79,5.237,61.414,5.237s-5.958,3.536-5.958,3.536S48.966,9.16,43.93,19.04s-5.328,18.5-2.616,27.413,6.69,24.963,4.7,27.011h0a28.93,28.93,0,0,1,3.436-.76l.8-.131,9.514-2c.488-.121.764-.193.764-.193V59.3l.034.016a25.5,25.5,0,0,1-3.438-2.009,14.079,14.079,0,0,1-6.113-9.679,1.9,1.9,0,0,1-2.183-1.6c-.583-1.965,2.911-12.735,5.094-15.5,2.122-2.688,4.037-12.8,4.143-13.365l.005-.025c7.422,12.953,22.632,8.805,24.96,14.554s2.4,7.5.946,15.5C82.767,53.862,77.162,58.458,73.43,60.27h0c2.608.218,5.152.7,5.758,1.585.727,1.062.889,4.7,1.064,7.948.78-.144,2.85-.27,6.379,1.254C88.488,54.681,90.628,26.962,86.379,18.605Z"/><path class="b" d="M49.564,124.763a.477.477,0,0,1-.476-.462c-.2-6.37-.995-10.772-2.3-12.728-4.295-6.453-1.97-15.644-1.869-16.032a.391.391,0,0,1,.026-.075c.786-1.757,2.908-12.3,2.769-13.757s-2.137-8.04-2.158-8.106a.477.477,0,0,1,.912-.277c.083.274,2.046,6.737,2.2,8.292.154,1.627-1.946,12.141-2.831,14.2-.153.622-2.181,9.327,1.748,15.23,1.421,2.135,2.248,6.585,2.457,13.226a.476.476,0,0,1-.461.491Z"/><path class="b" d="M83.5,80.84a.467.467,0,0,1-.221-.055.476.476,0,0,1-.2-.643,36.811,36.811,0,0,0,3.08-9.173.476.476,0,1,1,.936.176,37.016,37.016,0,0,1-3.173,9.44A.476.476,0,0,1,83.5,80.84Z"/><path class="b" d="M65.724,98.946a.477.477,0,0,1-.4-.212c-1.124-1.687-2-5.316-2.235-6.37-10.711-2.93-12.451-8.22-13.026-9.968-.036-.11-.066-.2-.093-.275-.443-1.179-2.22-9.121-2.3-9.459a.476.476,0,0,1,.93-.208c.634,2.837,1.922,8.438,2.257,9.333.031.083.066.187.107.311.54,1.643,2.184,6.64,12.646,9.421a.477.477,0,0,1,.344.362,31.173,31.173,0,0,0,1.726,5.547,22.783,22.783,0,0,0,1.886-5.292.476.476,0,0,1,.4-.432,26.1,26.1,0,0,0,7.884-2.974.477.477,0,0,1,.483.822,27,27,0,0,1-7.861,3.025,32.425,32.425,0,0,1-2.324,6.1.478.478,0,0,1-.4.266Z"/><path class="b" d="M84.623,83.143a.468.468,0,0,1-.222-.055.477.477,0,0,1-.2-.644,31.974,31.974,0,0,0,3.586-10.629.476.476,0,0,1,.948.09A32.265,32.265,0,0,1,85.045,82.89.478.478,0,0,1,84.623,83.143Z"/><path class="b" d="M64.416,114.932a.238.238,0,0,1-.177-.4,2.815,2.815,0,0,1,3.9-.056.238.238,0,1,1-.284.381c-1.929-1.439-3.211-.066-3.265-.007A.238.238,0,0,1,64.416,114.932Z"/><path class="b" d="M65.344,64.279l-4.813-3.1V59.3a23.2,23.2,0,0,0,6.007,1.935S65.381,64.162,65.344,64.279Z"/><path class="b" d="M57.345,75.073a.238.238,0,0,1-.033-.474c.688-.1,6.667-.006,6.921,0a.238.238,0,0,1,.235.241.233.233,0,0,1-.242.235c-2.14-.034-6.325-.077-6.847,0A.2.2,0,0,1,57.345,75.073Z"/><path class="b" d="M71.379,75.109h-.012c-1.2-.06-2.237-.037-2.247-.036a.238.238,0,1,1-.011-.476c.01,0,1.064-.024,2.281.036a.238.238,0,0,1-.011.476Z"/><path class="b" d="M123.524,124.762H4.476a.477.477,0,0,1,0-.953H123.524a.477.477,0,0,1,0,.953Z"/></svg>