<svg xmlns="http://www.w3.org/2000/svg" viewBox="0 0 128 128"><defs><style>.a{fill:#fff;}.b{fill:#231f20;}</style></defs><path class="a" d="M27.767,99.087c.435,0,1.261-.01,2.326-.016l-2.3-2.354A19.53,19.53,0,0,0,27.767,99.087Z"/><path class="a" d="M32.386,100.012l-1.651.008c.433,5.488,1.82,20.337,2.05,22.789H45.746c-.989-4.132-2.138-12.846-3.04-20.534Z"/><path class="a" d="M53.985,54.609c.077.052.155.1.232.153s.159.1.239.151c.114.07.227.138.34.2.076.044.153.087.229.128s.146.079.219.116c.123.063.246.123.368.179.059.027.118.052.176.077.1.043.2.084.3.122.046.017.091.036.136.052.138.051.274.095.409.136l.112.032c.143.04.286.077.426.106,3.371.69,6.125-.772,8.788-2.187.1-.052.2-.113.308-.178l.085-.054c.083-.054.169-.11.256-.171l.075-.053A18.1,18.1,0,0,0,69.2,51.128l0,0a43.394,43.394,0,0,0,4.156-5.2,28.841,28.841,0,0,0,1.2-5.516c0-.554.588-.616,1.061-.666a3.713,3.713,0,0,0,2.909-1.413c.811-1.158.678-4.375-.471-5.424-.634-.578-1.528-.386-2.659.571a.476.476,0,0,1-.784-.37c.021-1.462-.159-5.544-1.223-6.861-1.214-1.5-.926-3.458-.736-4.751a6.892,6.892,0,0,0,.095-.838,5.776,5.776,0,0,1,.045-.606c.105-.98.249-2.323-1.694-4.062-1.619-1.448-4.038-2.817-6.366-1.109-2.143,1.572-10.2,2.252-13.929,1.83a3.715,3.715,0,0,0-.407-.023,5.71,5.71,0,0,0-3.4,1.395,7.869,7.869,0,0,0-2.631,3.431h0c-.012.109-.034.287-.064.522-.2,1.635-.825,6.611-.517,9.076a24.224,24.224,0,0,1,.083,2.789c0,.547,0,1.127,0,1.732v.011a26.376,26.376,0,0,0,.654,5.955.446.446,0,0,1,.032.133A15.1,15.1,0,0,0,46.4,46.1a31.142,31.142,0,0,0,6.736,7.892l.259.2c.084.063.168.126.253.186C53.762,54.455,53.874,54.533,53.985,54.609ZM75.346,35.045a1.74,1.74,0,0,1,1.232-.966,1.453,1.453,0,0,1,.384,0h.006a2.313,2.313,0,0,1,1.16.567.238.238,0,1,1-.329.345,2.086,2.086,0,0,0-.476-.315,4.025,4.025,0,0,1,0,2.679,1.563,1.563,0,0,1-1.04.819.255.255,0,0,1-.061.008.239.239,0,0,1-.061-.469,1.091,1.091,0,0,0,.738-.575,3.959,3.959,0,0,0-.116-2.6.936.936,0,0,0-.139.009,1.292,1.292,0,0,0-.885.731.238.238,0,0,1-.207.12.239.239,0,0,1-.206-.357ZM66.434,34.3c-1.2,0-2.176-1.321-2.176-2.95s.974-2.95,2.176-2.95a2.287,2.287,0,0,1,2.01,1.822c-.017,0-.033-.005-.051-.005a1,1,0,0,0,0,2.01.954.954,0,0,0,.121-.012A2.378,2.378,0,0,1,66.434,34.3ZM60.355,27.54a12.442,12.442,0,0,1,4.919-1.67,13.953,13.953,0,0,1,5.843,1.878l.095.048a.476.476,0,0,1-.213.9.464.464,0,0,1-.213-.051l-.1-.05c-3.106-1.579-4.718-1.79-5.391-1.774a11.682,11.682,0,0,0-4.455,1.536.476.476,0,1,1-.485-.819Zm-4.907,9.174a.476.476,0,0,1,.8.519c-.087.142-.45.884.8,1.694a.476.476,0,1,1-.519.8,2.7,2.7,0,0,1-1.3-1.665A1.856,1.856,0,0,1,55.448,36.714ZM45.955,30.8a.484.484,0,0,1-.268.082.476.476,0,0,1-.269-.87c.129-.087,3.179-2.156,4.818-2.484,1.706-.342,4.267.971,4.375,1.027a.476.476,0,1,1-.438.845c-.655-.338-2.606-1.166-3.75-.938A18.415,18.415,0,0,0,45.955,30.8Zm5.5,4.656c-1.2,0-2.175-1.321-2.175-2.95s.974-2.95,2.175-2.95a2.288,2.288,0,0,1,2.011,1.822c-.017,0-.034,0-.051,0a1,1,0,0,0,0,2.01.972.972,0,0,0,.121-.012A2.378,2.378,0,0,1,51.454,35.459Zm2.223,9.382a8.336,8.336,0,0,1,3.106,0,41.5,41.5,0,0,0,7.81-.06c1.2-.208-.132,2.537-3.214,3.743s-6.965.971-7.7-.8S53.185,44.925,53.677,44.841Z"/><path class="a" d="M54.991,64.083v0c0,1.8,0,7.258,7.258,7.258a6.171,6.171,0,0,0,4.894-2.007C69.181,67,69.181,63.3,69.071,62.51c-.048-.351-.065-1.679-.066-3.3-9.995,1.317-14-1.529-15.5-3.452a71.105,71.105,0,0,1,1.482,8.324Z"/><path class="a" d="M84.308,99.213l-1.3-1.269c.006.533.013.969.019,1.269Z"/><path class="a" d="M42.024,38.151V35.059a1.5,1.5,0,0,0-.554-.191,1.024,1.024,0,0,0-.807.281c-.578.5-.072,3.1,1.217,4.976.295.429.983,1.309,1.647,1.31a23.415,23.415,0,0,1-.449-2.89Z"/><path class="a" d="M96.956,101.937l-10.1-1.772h-4.3a.477.477,0,0,1-.476-.462c-.011-.388-.259-9.553.647-13.681a.477.477,0,0,1,.931.2A64.2,64.2,0,0,0,83,97.274l1.986,1.939h15.264c-.015-2.849-.228-17.721-2.983-23.152-2.178-4.294-8.055-5.95-12.777-7.281a32.485,32.485,0,0,1-4.5-1.476c-3.2-1.5-8.135-3.445-9.934-4.147a10.7,10.7,0,0,1-2.2,6.805A7.081,7.081,0,0,1,62.249,72.3c-3.609,0-7.884-1.324-8.191-7.49-1.356.595-4.6,2.034-7.409,3.36a15.329,15.329,0,0,1-3.578.965c-3.761.715-8.441,1.606-11.943,8.413-2,3.894-2.88,12.581-3.225,17.413-.03.41-.054.777-.074,1.115l2.925,2.995c3.276-.018,8.254-.031,11.584.019-.672-5.945-1.142-10.675-1.188-11.14a.476.476,0,0,1,.948-.094c.012.119.516,5.2,1.241,11.561a.441.441,0,0,1,.028.167c0,.013,0,.026,0,.04.953,8.347,2.276,18.812,3.362,23.189H88.708c-4.312-2.774-8.132-10.786-9.028-12.765-1.539.629-6.82,2.785-9.177,3.692-3.592,1.382-5.879,2.078-6.942,1.546a1.122,1.122,0,0,1-.6-.713c-.067-.237-.234-.833,2.2-2.483-.658.174-1.322.327-1.931.425-1.865.3-3.468-.014-3.991-.787a.9.9,0,0,1-.035-1c.278-.465,2.289-1.345,4.383-2.161-1.267.1-2.656.215-3.7.324-1.281.132-2.918.1-3.449-.778a1.3,1.3,0,0,1,.159-1.468c.427-.638,2.483-1.223,4.67-1.68a3.61,3.61,0,0,1-2.417-1.075,1.071,1.071,0,0,1-.063-1.121c.636-1.271,5.684-1.937,9.807-2.271.357-.029.866-.065,1.442-.107,1.291-.093,3.539-.254,4.367-.372-.058-.365-.2-1-.311-1.534-.226-1.04-.507-2.334-.62-3.339a3.266,3.266,0,0,1,1.643-3.355,1.456,1.456,0,0,1,1.762.6,22.057,22.057,0,0,1,1.891,4.82,20.033,20.033,0,0,0,.711,2.055l7.547,6.642a.476.476,0,1,1-.629.715l-7.587-6.677a.489.489,0,0,1-.04-.039,9.039,9.039,0,0,1-.91-2.409,22.437,22.437,0,0,0-1.757-4.551c-.257-.358-.48-.331-.646-.267a2.373,2.373,0,0,0-1.039,2.359c.108.958.383,2.225.6,3.244.405,1.863.464,2.18.2,2.446-.191.192-.263.264-5.114.612-.573.041-1.079.078-1.434.106-5.5.447-8.761,1.234-9.032,1.748-.047.093-.025.124,0,.161.335.493,2.46,1.091,6.946.714a.476.476,0,0,1,.1.946c-4.128.562-8.858,1.548-9.3,2.16-.063.094-.2.328-.133.446.115.19.792.5,2.535.321,2.529-.261,7.025-.567,7.07-.57a.476.476,0,0,1,.193.923,47.732,47.732,0,0,0-7.012,2.916c.168.239,1.228.655,3.041.362a37.516,37.516,0,0,0,5.872-1.715.476.476,0,0,1,.4.864c-2.43,1.3-5.138,3.047-5.445,3.647a.2.2,0,0,0,.081.063c.894.448,4.46-.924,6.173-1.583,2.752-1.059,9.518-3.832,9.586-3.86a.477.477,0,0,1,.618.252c.058.136,5.921,13.57,11.17,13.57,2.724,0,5.26-.7,5.364-5.821C96.964,113.809,96.961,105.852,96.956,101.937ZM67.391,116.17a.476.476,0,0,1,.586-.331,1.261,1.261,0,0,0,.822-.049l10.561-4.33a.477.477,0,0,1,.361.882L69.16,116.671a2.206,2.206,0,0,1-1.438.085A.476.476,0,0,1,67.391,116.17Zm2.573-46.993a9.577,9.577,0,0,0,.6-4.291.238.238,0,0,1,.475-.04,10.062,10.062,0,0,1-.629,4.5.239.239,0,0,1-.222.152.235.235,0,0,1-.086-.017A.238.238,0,0,1,69.964,69.177ZM53.517,71.42a7.065,7.065,0,0,1-1.134-4.434.238.238,0,0,1,.475.036,6.591,6.591,0,0,0,1.06,4.141,9.529,9.529,0,0,0,6.751,3.746A8.441,8.441,0,0,0,67.683,72.6c.188-.186.37-.378.54-.572a.238.238,0,0,1,.358.314c-.177.2-.367.4-.564.6a8.771,8.771,0,0,1-6.26,2.513,10.285,10.285,0,0,1-1.141-.065A10.021,10.021,0,0,1,53.517,71.42Zm8.311,23.618a.692.692,0,1,1,.378-.9A.692.692,0,0,1,61.828,95.038Zm3.611-6.1-6.545,2.683a1.271,1.271,0,0,0-.7,1.66l2.817,6.871a.477.477,0,0,1-.26.621.487.487,0,0,1-.181.036.478.478,0,0,1-.441-.3l-2.816-6.871a2.225,2.225,0,0,1,1.214-2.9l6.546-2.683a.476.476,0,1,1,.361.881Zm4.039.9a.127.127,0,0,1-.224,0L67.778,87.1H60.43a1.45,1.45,0,0,1-1.449-1.45V78.768a1.45,1.45,0,0,1,1.449-1.45H71.89a1.45,1.45,0,0,1,1.449,1.45v6.877A1.45,1.45,0,0,1,71.89,87.1h-.936ZM73.52,92.6a.464.464,0,0,1-.181.036.477.477,0,0,1-.441-.3L71.52,88.981a.476.476,0,1,1,.881-.362l1.379,3.363A.476.476,0,0,1,73.52,92.6Z"/><path class="b" d="M58.922,57.2a9.6,9.6,0,0,1-1.947-.2c-3.534-.724-7.681-4.512-11.379-10.391-2.7-4.3-2.685-9.358-2.672-12.706a23.818,23.818,0,0,0-.076-2.667c-.323-2.583.288-7.472.517-9.312.029-.229.051-.4.062-.51.1-.895,1.323-2.743,2.984-4.069a6.318,6.318,0,0,1,4.508-1.574c3.5.4,11.374-.271,13.258-1.652,2.218-1.627,4.9-1.212,7.564,1.167,2.308,2.066,2.118,3.824,2,4.874-.021.2-.039.364-.039.5a7.375,7.375,0,0,1-.1.977c-.177,1.2-.418,2.835.534,4.013,1.138,1.409,1.376,4.858,1.424,6.535,1.6-.989,2.634-.444,3.143.02,1.525,1.392,1.665,5.166.609,6.674a4.6,4.6,0,0,1-3.589,1.814c-.077.008-.163.017-.238.027-.14,1.131-.766,4.789-1.311,5.7s-4.8,6.722-7.774,8.3C64.1,55.941,61.735,57.2,58.922,57.2ZM50.4,16.69a5.71,5.71,0,0,0-3.4,1.395,7.869,7.869,0,0,0-2.631,3.431h0c-.012.109-.034.287-.064.522-.2,1.635-.825,6.611-.517,9.076a24.224,24.224,0,0,1,.083,2.789c-.013,3.431-.03,8.131,2.526,12.2,3.508,5.577,7.532,9.3,10.764,9.966,3.371.69,6.125-.772,8.788-2.187,2.753-1.462,6.9-7.109,7.4-7.949a28.841,28.841,0,0,0,1.2-5.516c0-.554.588-.616,1.061-.666a3.713,3.713,0,0,0,2.909-1.413c.811-1.158.678-4.375-.471-5.424-.634-.578-1.528-.386-2.659.571a.476.476,0,0,1-.784-.37c.021-1.462-.159-5.544-1.223-6.861-1.214-1.5-.926-3.458-.736-4.751a6.892,6.892,0,0,0,.095-.838,5.776,5.776,0,0,1,.045-.606c.105-.98.249-2.323-1.694-4.062-1.619-1.448-4.038-2.817-6.366-1.109-2.143,1.572-10.2,2.252-13.929,1.83A3.715,3.715,0,0,0,50.4,16.69ZM75.515,40.415v0ZM43.9,21.463h0Z"/><path class="b" d="M43.533,42.394a3.275,3.275,0,0,1-2.437-1.73C39.839,38.835,38.8,35.5,40.04,34.429a1.983,1.983,0,0,1,1.538-.508,3.8,3.8,0,0,1,2.21,1.455.476.476,0,0,1-.766.566,2.807,2.807,0,0,0-1.552-1.074,1.024,1.024,0,0,0-.807.281c-.578.5-.072,3.1,1.217,4.976.347.5,1.234,1.632,1.988,1.227a.476.476,0,0,1,.45.84A1.65,1.65,0,0,1,43.533,42.394Z"/><path class="b" d="M45.687,30.885a.476.476,0,0,1-.269-.87c.129-.087,3.179-2.156,4.818-2.484,1.706-.342,4.267.971,4.375,1.027a.476.476,0,1,1-.438.845c-.655-.338-2.606-1.166-3.75-.938A18.415,18.415,0,0,0,45.955,30.8.484.484,0,0,1,45.687,30.885Z"/><path class="b" d="M71,28.7a.464.464,0,0,1-.213-.051l-.1-.05c-3.106-1.579-4.718-1.79-5.391-1.774a11.712,11.712,0,0,0-4.455,1.536.476.476,0,1,1-.485-.819,12.442,12.442,0,0,1,4.919-1.67,13.953,13.953,0,0,1,5.843,1.878l.095.048a.476.476,0,0,1-.213.9Z"/><path class="b" d="M43.572,38.73c-.325-3.142-.052-5.962-.252-7.557-.357-2.857.477-8.783.581-9.71.137-1.237,3.415-5.625,6.964-5.223S62.45,15.972,64.459,14.5s4.419-1.139,6.964,1.138,1.808,4.018,1.808,5.023-.871,3.549.536,5.29S75.1,33.117,75.1,33.117c1.855-1.57,3.085-1.122,3.769.052,1.029-2.906.241-4.432.014-5.813C78.61,25.727,76.847,24.164,77.45,23s.535-4.509.535-4.509a4.152,4.152,0,0,1-.535,1.764c.4-1.473-.67-3.549-.67-3.549,1.2-2.545-3.214-6.027-7.031-8.84a17.209,17.209,0,0,0-7.567-3.214c2.21.4,5.424,2.679,5.424,2.679S61.378,3.985,55.652,4.253A17.57,17.57,0,0,0,45.686,8.4a7.247,7.247,0,0,0-5.4,4.888l2.008-1.664A13.266,13.266,0,0,0,39.954,15.7c-.264.737-1.21.335-1.21,1.674s1.541,1.808,1.541,1.808a3.7,3.7,0,0,0-1.139,2.277,2.049,2.049,0,0,0,.808,2.21c-.665,1.138,2.07,10.857,2.07,10.857v3.621Z"/><path class="b" d="M62.249,72.3c-3.746,0-8.211-1.424-8.211-8.21a82.431,82.431,0,0,0-1.808-9.734.476.476,0,0,1,.762-.474,10.277,10.277,0,0,0,4.174,2.186c3.371.69,6.125-.772,8.788-2.187A14.107,14.107,0,0,0,69.2,51.128a.476.476,0,0,1,.822.327v.007c-.047,3.443-.11,10.155,0,10.918.129.932.14,4.949-2.154,7.582A7.081,7.081,0,0,1,62.249,72.3Zm-8.82-16.911a74.487,74.487,0,0,1,1.562,8.7c0,1.8,0,7.258,7.258,7.258a6.171,6.171,0,0,0,4.894-2.007C69.181,67,69.181,63.3,69.071,62.51c-.114-.83-.052-7.122-.019-9.874A12.4,12.4,0,0,1,66.4,54.718c-2.812,1.494-5.719,3.039-9.426,2.278A9.964,9.964,0,0,1,53.429,55.385Z"/><path class="b" d="M32.342,123.674a.476.476,0,0,1-.473-.431c-.017-.179-1.682-17.916-2.112-23.517a.476.476,0,1,1,.949-.073c.43,5.593,2.094,23.322,2.111,23.5a.475.475,0,0,1-.429.518A.362.362,0,0,1,32.342,123.674Z"/><path class="b" d="M27.412,100.047a.5.5,0,0,1-.207-.045c-.334-.152-.6-.273-.253-5.113.428-5.991,1.353-13.939,3.329-17.78,3.714-7.221,8.857-8.2,12.613-8.914a14.51,14.51,0,0,0,3.348-.89c3.647-1.724,8.039-3.637,8.083-3.656a.477.477,0,0,1,.38.874c-.044.019-4.422,1.925-8.056,3.643a15.329,15.329,0,0,1-3.578.965c-3.761.715-8.441,1.606-11.943,8.413-2,3.894-2.88,12.581-3.225,17.413a31.217,31.217,0,0,0-.136,4.13c1.829-.015,10.5-.077,15.133.008a.476.476,0,0,1-.017.952c-4.958-.091-14.571-.013-15.4-.006A.477.477,0,0,1,27.412,100.047Zm.393-.709h0Z"/><path class="b" d="M56.783,39.8a.474.474,0,0,1-.259-.077,2.7,2.7,0,0,1-1.3-1.665,1.856,1.856,0,0,1,.223-1.346.476.476,0,0,1,.8.519c-.087.142-.45.884.8,1.694a.476.476,0,0,1-.26.875Z"/><path class="b" d="M53.677,44.841a8.336,8.336,0,0,1,3.106,0,41.5,41.5,0,0,0,7.81-.06c1.2-.208-.132,2.537-3.214,3.743s-6.965.971-7.7-.8S53.185,44.925,53.677,44.841Z"/><path class="b" d="M68.393,32.23a1.005,1.005,0,0,1,0-2.01c.018,0,.034,0,.051.005a2.287,2.287,0,0,0-2.01-1.822c-1.2,0-2.176,1.321-2.176,2.95s.974,2.95,2.176,2.95a2.378,2.378,0,0,0,2.08-2.085A.954.954,0,0,1,68.393,32.23Z"/><path class="b" d="M53.414,33.386a1.005,1.005,0,0,1,0-2.01c.017,0,.034,0,.051,0a2.288,2.288,0,0,0-2.011-1.822c-1.2,0-2.175,1.321-2.175,2.95s.974,2.95,2.175,2.95a2.378,2.378,0,0,0,2.081-2.085A.972.972,0,0,1,53.414,33.386Z"/><path class="b" d="M46.356,123.762a.477.477,0,0,1-.46-.354c-1.952-7.334-4.633-34.317-4.746-35.462a.476.476,0,0,1,.948-.094c.027.28,2.786,28.052,4.718,35.311a.476.476,0,0,1-.338.583A.465.465,0,0,1,46.356,123.762Z"/><path class="b" d="M60.575,100.813a.478.478,0,0,1-.441-.3l-2.816-6.871a2.225,2.225,0,0,1,1.214-2.9l6.546-2.683a.476.476,0,1,1,.361.881l-6.545,2.683a1.271,1.271,0,0,0-.7,1.66l2.817,6.871a.477.477,0,0,1-.26.621A.487.487,0,0,1,60.575,100.813Z"/><path class="b" d="M73.339,92.639a.477.477,0,0,1-.441-.3L71.52,88.981a.476.476,0,1,1,.881-.362l1.379,3.363a.476.476,0,0,1-.26.621A.464.464,0,0,1,73.339,92.639Z"/><path class="b" d="M68.319,116.838a2.215,2.215,0,0,1-.6-.082.476.476,0,1,1,.255-.917,1.261,1.261,0,0,0,.822-.049l10.561-4.33a.477.477,0,0,1,.361.882L69.16,116.671A2.217,2.217,0,0,1,68.319,116.838Z"/><circle class="b" cx="61.566" cy="94.397" r="0.692"/><path class="b" d="M100.731,100.165H82.561a.477.477,0,0,1-.476-.462c-.011-.388-.259-9.553.647-13.681a.477.477,0,0,1,.931.2c-.768,3.5-.675,11.044-.636,12.987h17.227c-.015-2.849-.228-17.721-2.983-23.152-2.178-4.294-8.055-5.95-12.777-7.281a32.485,32.485,0,0,1-4.5-1.476c-3.957-1.847-10.556-4.389-10.622-4.414A.476.476,0,0,1,69.714,62c.067.025,6.7,2.579,10.683,4.439a31.779,31.779,0,0,0,4.355,1.424c4.9,1.381,11,3.1,13.368,7.766,3.141,6.192,3.091,23.335,3.087,24.062A.475.475,0,0,1,100.731,100.165Z"/><path class="b" d="M91.535,123.762c-5.361,0-10.767-11.313-11.855-13.718-1.539.629-6.82,2.785-9.177,3.692-3.592,1.382-5.879,2.078-6.942,1.546a1.122,1.122,0,0,1-.6-.713c-.067-.237-.234-.833,2.2-2.483-.658.174-1.322.327-1.931.425-1.865.3-3.468-.014-3.991-.787a.9.9,0,0,1-.035-1c.278-.465,2.289-1.345,4.383-2.161-1.267.1-2.656.215-3.7.324-1.281.132-2.918.1-3.449-.778a1.3,1.3,0,0,1,.159-1.468c.427-.638,2.483-1.223,4.67-1.68a3.61,3.61,0,0,1-2.417-1.075,1.071,1.071,0,0,1-.063-1.121c.636-1.271,5.684-1.937,9.807-2.271.357-.029.866-.065,1.442-.107,1.291-.093,3.539-.254,4.367-.372-.058-.365-.2-1-.311-1.534-.226-1.04-.507-2.334-.62-3.339a3.266,3.266,0,0,1,1.643-3.355,1.456,1.456,0,0,1,1.762.6,22.057,22.057,0,0,1,1.891,4.82,20.033,20.033,0,0,0,.711,2.055l7.547,6.642a.476.476,0,1,1-.629.715l-7.587-6.677a.489.489,0,0,1-.04-.039,9.039,9.039,0,0,1-.91-2.409,22.437,22.437,0,0,0-1.757-4.551c-.257-.358-.48-.331-.646-.267a2.373,2.373,0,0,0-1.039,2.359c.108.958.383,2.225.6,3.244.405,1.863.464,2.18.2,2.446-.191.192-.263.264-5.114.612-.573.041-1.079.078-1.434.106-5.5.447-8.761,1.234-9.032,1.748-.047.093-.025.124,0,.161.335.493,2.46,1.091,6.946.714a.476.476,0,0,1,.1.946c-4.128.562-8.858,1.548-9.3,2.16-.063.094-.2.328-.133.446.115.19.792.5,2.535.321,2.529-.261,7.025-.567,7.07-.57a.476.476,0,0,1,.193.923,47.732,47.732,0,0,0-7.012,2.916c.168.239,1.228.655,3.041.362a37.591,37.591,0,0,0,5.872-1.715.476.476,0,0,1,.4.864c-2.43,1.3-5.138,3.047-5.445,3.647a.2.2,0,0,0,.081.063c.894.448,4.46-.924,6.173-1.583,2.752-1.059,9.518-3.832,9.586-3.86a.477.477,0,0,1,.618.252c.058.136,5.921,13.57,11.17,13.57,2.724,0,5.26-.7,5.364-5.821.087-4.271.053-17.168.052-17.3a.477.477,0,0,1,.475-.478h0a.476.476,0,0,1,.476.475c0,.13.035,13.037-.053,17.32C97.756,121.679,95.808,123.762,91.535,123.762ZM60.006,111.244Z"/><path class="b" d="M66.177,54.3c-2.857,1.518-5.625,2.946-9.107,2.232A10.781,10.781,0,0,1,52.7,54.25c.16.727,2.634,6.908,16.786,4.893,0-3.256.062-7.688.062-7.688A14.84,14.84,0,0,1,66.177,54.3Z"/><path class="b" d="M75.552,35.4a.239.239,0,0,1-.206-.357,1.74,1.74,0,0,1,1.232-.966,2.1,2.1,0,0,1,1.55.567.238.238,0,1,1-.329.345h0a1.634,1.634,0,0,0-1.155-.44,1.292,1.292,0,0,0-.885.731A.238.238,0,0,1,75.552,35.4Z"/><path class="b" d="M76.222,38.182a.239.239,0,0,1-.061-.469,1.091,1.091,0,0,0,.738-.575c.5-.978-.158-2.719-.165-2.737a.238.238,0,0,1,.445-.17c.03.079.74,1.959.144,3.124a1.563,1.563,0,0,1-1.04.819A.255.255,0,0,1,76.222,38.182Z"/><path class="b" d="M71.89,77.318H60.43a1.45,1.45,0,0,0-1.449,1.45v6.877A1.45,1.45,0,0,0,60.43,87.1h7.348l1.476,2.746a.127.127,0,0,0,.224,0L70.954,87.1h.936a1.45,1.45,0,0,0,1.449-1.45V78.768A1.45,1.45,0,0,0,71.89,77.318Z"/><polygon class="b" points="97.334 102.004 84.146 99.689 97.427 99.689 97.334 102.004"/><path class="b" d="M30.232,99.539,43.2,102.384l-.31-2.813S31.035,99.535,30.232,99.539Z"/><path class="b" d="M85.137,99.927a.236.236,0,0,1-.166-.067l-2.612-2.549a.238.238,0,0,1,.333-.341L85.3,99.519a.238.238,0,0,1-.166.408Z"/><path class="b" d="M30.882,99.777a.238.238,0,0,1-.17-.072L27.19,96.1a.238.238,0,0,1,.341-.332l3.522,3.607a.238.238,0,0,1-.171.4Z"/><path class="b" d="M70.186,69.5a.235.235,0,0,1-.086-.017.238.238,0,0,1-.136-.308,9.592,9.592,0,0,0,.6-4.291.238.238,0,0,1,.474-.04,10.062,10.062,0,0,1-.629,4.5A.239.239,0,0,1,70.186,69.5Z"/><path class="b" d="M61.757,75.447a10.285,10.285,0,0,1-1.141-.065,10.021,10.021,0,0,1-7.1-3.962,7.065,7.065,0,0,1-1.134-4.434.238.238,0,0,1,.475.036,6.591,6.591,0,0,0,1.06,4.141,9.529,9.529,0,0,0,6.751,3.746A8.441,8.441,0,0,0,67.683,72.6c.188-.186.37-.378.54-.572a.238.238,0,0,1,.358.314c-.177.2-.367.4-.564.6A8.771,8.771,0,0,1,61.757,75.447Z"/><path class="b" d="M123.524,123.762H4.476a.477.477,0,0,1,0-.953H123.524a.477.477,0,0,1,0,.953Z"/></svg>