<svg xmlns="http://www.w3.org/2000/svg" viewBox="0 0 128 128"><defs><style>.a{fill:#fff;}.b{fill:#231f20;}</style></defs><path class="a" d="M54.81,74.429a.477.477,0,0,1,.056.449c-.031.08-3.125,8.017-6.911,17.812a5,5,0,0,1,1.968.812c1.281.992,4.652,3.328,8.268,3.583,1.184.083,2.062.114,2.708.118,2.069-12.152,3.106-21.252,3.116-21.344a.476.476,0,0,1,.072-.2,7.7,7.7,0,0,0,1.022-5.766,4.335,4.335,0,0,0-1.9-2.823c-.639-.374-1.6-.865-2.707-1.435-3.574-1.834-8.023-4.116-8.978-5.949-.7-1.351-1-3.931-1.258-6.206a17.281,17.281,0,0,0-.645-3.764c-.259-.511-1.178-.627-1.511-.629a.6.6,0,0,1-.073-.005.869.869,0,0,0-.6.259c-.334.3-.894,1.153-.891,3.457a40.385,40.385,0,0,0,2.28,10.486A58.511,58.511,0,0,0,54.81,74.429Z"/><path class="a" d="M62.191,98.116c-.279.023-.663.04-1.185.04L62.1,99.3C62.137,98.825,62.168,98.418,62.191,98.116Z"/><path class="a" d="M59.824,116.729a6.99,6.99,0,0,0,.688-1.365,11.363,11.363,0,0,0,.066-2.251c-.049.076-.087.132-.106.16a.476.476,0,0,1-.789-.533c.256-.378.583-.9.874-1.415l0-.008a5.783,5.783,0,0,0,.7-1.583c.08-.648.53-6.422.791-9.793l-1.713-1.8c-.595-.014-1.322-.048-2.214-.111-3.737-.264-7.108-2.481-8.785-3.78a4.891,4.891,0,0,0-2.114-.732h0a11.642,11.642,0,0,0-1.368-.126,44.836,44.836,0,0,0-1.65,5.494c-.114.662-.178,1.348-.245,2.075a15.128,15.128,0,0,1-.734,3.993,28.829,28.829,0,0,1-1.792,3.319,28.046,28.046,0,0,0-2.86,5.711c-.51,2.095-3.228,7.827-4.189,9.821H54.239c.767-3.275,4.168-7.249,4.319-7.425a.239.239,0,0,1,.361.312c-.036.041-3.4,3.967-4.19,7.113h2.562c.2-.83.716-2.882,1.2-4.325A15.1,15.1,0,0,1,59.824,116.729ZM46.309,101.4c-.014,2.282-3.084,7.6-4.913,10.569a.238.238,0,0,1-.405-.249c3.067-4.979,4.832-8.741,4.842-10.323.011-1.827.677-6.138.706-6.32a.238.238,0,1,1,.47.073C47,95.2,46.32,99.609,46.309,101.4Z"/><path class="a" d="M35.915,112.01c.219-.946.426-1.839.557-2.593.227-1.305-1.034-3.693-3.749-7.1a.238.238,0,1,1,.372-.3c2.883,3.616,4.105,5.991,3.847,7.476-.134.767-.342,1.667-.563,2.619-.549,2.365-1.206,5.214-.943,7.2a43.5,43.5,0,0,0,2.214-5.552,28.3,28.3,0,0,1,2.965-5.968,29.228,29.228,0,0,0,1.723-3.178,14.394,14.394,0,0,0,.675-3.741c.067-.712.136-1.45.256-2.148a48.645,48.645,0,0,1,1.808-5.976.477.477,0,0,1,.44-.312A12.018,12.018,0,0,1,47,92.53c.394-1.02.782-2.022,1.159-3-.176.141-.3.246-.3.335,0,.335-.335.469-.76.6a7.792,7.792,0,0,0-1.249.334c-.4.2-.134.335-.2.8s-.469.335-1,.365-.335-.1-1.34-.3-.4.268-.4.268a3.922,3.922,0,0,1-1.071,0c-.8-.067,0,0-.871-.268s-.6.2-1.339,0-.669-.67-2.076-.469-2.41-.8-2.879-1a4.679,4.679,0,0,0-2.009-.737c-.871,0-1.005-.469-1.607-1.071a7.086,7.086,0,0,1-.6-.711,14.59,14.59,0,0,0-3.413,1,4.342,4.342,0,0,1-1.352.889,4.218,4.218,0,0,0-1.186.756,4.059,4.059,0,0,0,.752,1.837.238.238,0,0,1-.076.328.244.244,0,0,1-.126.036.239.239,0,0,1-.2-.112c-.243-.391-1.018-1.71-.789-2.27.129-.313.618-.586,1.407-1a4.652,4.652,0,0,0,1.185-.744c.234-.336,1.874-.779,3.475-1.141-.167-.2-.306-.344-.413-.344-.059,0-.088-.106-.1-.271-1.242.149-2.514.309-2.812.371a5.11,5.11,0,0,0-1.29.993,5.734,5.734,0,0,1-.735.621l-.121.074c-1.508.914-1.8,1.336-1.842,1.506a1.523,1.523,0,0,0,.346,1.044h0l0,0c.006.007.009.014.014.021a.542.542,0,0,1,.037.056,6.173,6.173,0,0,0,2.005,2.436,15.441,15.441,0,0,1,4.881,4.2,2.887,2.887,0,0,0,.232.323.476.476,0,0,1-.751.586,3.8,3.8,0,0,1-.311-.442,14.949,14.949,0,0,0-4.383-3.772,5.789,5.789,0,0,1-2.209-2.343,3.9,3.9,0,0,0-.7.84c-.022.1-.044.535-.065,1.028A8.375,8.375,0,0,0,25.371,96.3c1.979.409,7.15,7.823,7.734,8.667a.239.239,0,0,1-.061.331.233.233,0,0,1-.135.043.237.237,0,0,1-.2-.1c-1.555-2.25-5.922-8.158-7.438-8.472a8.221,8.221,0,0,1-3.4-1.948c-.049,1.215-.111,2.712-.245,3.542C20.14,107.224,19.06,121,18.849,123.81H20.61c.049-1.827.243-8.324.587-10.309.389-2.244,1.34-10.285,1.349-10.366a.238.238,0,0,1,.473.055c-.01.082-.962,8.136-1.353,10.393-.333,1.923-.53,8.407-.579,10.227H33.329c.282-.583.994-2.062,1.766-3.746C34.531,117.984,35.263,114.822,35.915,112.01Z"/><path class="a" d="M71.035,65.632c-1.11.57-2.068,1.061-2.707,1.435a4.339,4.339,0,0,0-1.9,2.823,7.708,7.708,0,0,0,1.022,5.766.476.476,0,0,1,.072.2c.013.109,1.23,10.8,3.667,24.513a20.839,20.839,0,0,0,1.9-1.454A20.333,20.333,0,0,1,78,96.3a22.678,22.678,0,0,0,3.242-1.579A21.741,21.741,0,0,0,83.626,92.8c-3.8-9.843-6.92-17.838-6.952-17.918a.477.477,0,0,1,.056-.449,58.421,58.421,0,0,0,5.984-11.148A40.337,40.337,0,0,0,84.993,52.8c0-2.748-.59-3.688-.942-4a.654.654,0,0,0-.463-.2.274.274,0,0,1-.1.005,1.7,1.7,0,0,0-1.558,1.1,18.753,18.753,0,0,0-.6,3.571c-.276,2.357-.589,5.027-1.316,6.422C79.058,61.516,74.609,63.8,71.035,65.632Z"/><path class="a" d="M48.142,48.132a2.73,2.73,0,0,1,2.331,1.151,15.717,15.717,0,0,1,.742,4.086c.25,2.193.534,4.679,1.156,5.873.816,1.565,5.482,3.959,8.569,5.543,1.122.576,2.091,1.073,2.753,1.459A4.982,4.982,0,0,1,65.77,68.83a4.987,4.987,0,0,1,2.077-2.586c.662-.386,1.631-.883,2.753-1.459,1.727-.886,3.947-2.025,5.711-3.131A27.528,27.528,0,0,0,80,53.327a26.382,26.382,0,0,0-.6-13.1.449.449,0,0,1-.031-.071,4.069,4.069,0,0,0-4-2.883,3.138,3.138,0,0,0-2.393,1.8,2.411,2.411,0,0,0-.037,2.345A3.167,3.167,0,0,0,75,43.046a2.643,2.643,0,0,0,2.095-.98,1.371,1.371,0,0,0-.038-2.133c-.581-.581-1.338-.768-1.525-.582-.208.209-.2.349-.191.4a1.112,1.112,0,0,0,.456.625.476.476,0,0,1-.537.787,2.031,2.031,0,0,1-.867-1.32,1.416,1.416,0,0,1,.466-1.16c.707-.707,2.041-.249,2.872.582a2.306,2.306,0,0,1,.038,3.479,3.7,3.7,0,0,1-2.577,1.27,2.692,2.692,0,0,1-.3-.017,3.947,3.947,0,0,1-2.759-2.067,3.344,3.344,0,0,1-.01-3.274,4.047,4.047,0,0,1,3.161-2.325,4.473,4.473,0,0,1,3.1.932c-.167-.418-.341-.824-.52-1.215a7.459,7.459,0,0,0-2.458-.444,10.411,10.411,0,0,0-4.431,1.39.234.234,0,0,1-.122.034.238.238,0,0,1-.123-.442,10.694,10.694,0,0,1,4.676-1.458,7.772,7.772,0,0,1,2.177.325c-.263-.539-.535-1.049-.814-1.521-.1-.175-.213-.349-.321-.523a46.65,46.65,0,0,0-5.918-.092.481.481,0,0,1-.5-.45.476.476,0,0,1,.45-.5,48.853,48.853,0,0,1,5.32.033c-1.183-1.77-2.562-3.525-3.907-5.234-1.305-1.656-2.537-3.221-3.419-4.6-2.271-3.558-4.827-5.042-8.048-4.671a8.413,8.413,0,0,0-5.25,2.581c-1.023,1.2-4.263,7.3-6.113,13.618a14.9,14.9,0,0,1,4.392-2.956c2.3-.659,8.414,1.348,8.673,1.434a.476.476,0,0,1-.3.9c-1.688-.558-6.435-1.9-8.113-1.423-1.29.369-3.578,2.31-5.115,3.743a29.17,29.17,0,0,0-.813,4.764,76.185,76.185,0,0,0-.2,7.637A1.6,1.6,0,0,1,48.142,48.132ZM69.2,42.886a.477.477,0,0,1,.652.17,3.755,3.755,0,0,1,.52,1.883,1.532,1.532,0,0,1-.718,1.328l-.426-.852a.1.1,0,0,0-.023.013c.007,0,.185-.129.217-.559a2.875,2.875,0,0,0-.392-1.332A.475.475,0,0,1,69.2,42.886ZM62.319,54.432a3.138,3.138,0,0,1,3.3-3.052,2.733,2.733,0,0,1,.929.066,14.983,14.983,0,0,1,1.7.971c1.029.449,2.253.121,3.122.959a1.6,1.6,0,0,1,.3,1.992c-.76,1.965-2.331,3.5-4.581,3.278a8.385,8.385,0,0,1-3.108-1.19,3.245,3.245,0,0,1-1.6-1.415A3.331,3.331,0,0,1,62.319,54.432Zm-.855-14.32a.475.475,0,0,1-.6-.306,4.07,4.07,0,0,0-4-2.884,3.139,3.139,0,0,0-2.393,1.8,2.411,2.411,0,0,0-.037,2.345,3.173,3.173,0,0,0,2.059,1.628,2.643,2.643,0,0,0,2.095-.98,1.371,1.371,0,0,0-.038-2.133c-.582-.582-1.338-.768-1.525-.582-.209.209-.2.35-.191.4a1.139,1.139,0,0,0,.454.623.476.476,0,1,1-.535.788,2.034,2.034,0,0,1-.867-1.321,1.413,1.413,0,0,1,.466-1.159c.707-.708,2.041-.249,2.872.581a2.307,2.307,0,0,1,.038,3.48,3.7,3.7,0,0,1-2.577,1.27,2.692,2.692,0,0,1-.3-.017,3.947,3.947,0,0,1-2.759-2.067,3.348,3.348,0,0,1-.011-3.275,4.05,4.05,0,0,1,3.162-2.324,5.036,5.036,0,0,1,4.99,3.538A.475.475,0,0,1,61.464,40.112ZM51.6,36.244a8.689,8.689,0,0,1,4.317-1.623,13.5,13.5,0,0,1,5.512,1.431.238.238,0,0,1-.213.426A13.22,13.22,0,0,0,55.939,35.1a8.323,8.323,0,0,0-4.053,1.524.238.238,0,1,1-.291-.377Z"/><path class="a" d="M63.888,84.186c-.409,2.9-.936,6.434-1.581,10.37a20.392,20.392,0,0,0,6.575-2.178c-.6-3.747-1.076-7.053-1.44-9.7C66.264,83.188,65.047,83.7,63.888,84.186Z"/><path class="a" d="M71.6,116.69a11.468,11.468,0,0,1-.993-1.937,29.858,29.858,0,0,1-.356-5.162c0-1.285-1.055-7.581-1.065-7.645a.478.478,0,0,1,.254-.5c.008,0,.349-.178.887-.508-.473-2.649-.9-5.189-1.285-7.566a21.163,21.163,0,0,1-6.9,2.171q-.135.811-.276,1.645a3.909,3.909,0,0,0,.7-.078.46.46,0,0,1,.44.073.473.473,0,0,1,.177.417c-.035.462-.865,11.317-.981,12.254a6.1,6.1,0,0,1-.747,1.816,19.751,19.751,0,0,1-.024,3.937,7.284,7.284,0,0,1-.785,1.6,14.038,14.038,0,0,0-1.258,2.58c-.426,1.277-.891,3.1-1.119,4.024H72.829c-.128-.658-.36-1.771-.618-2.631A28.066,28.066,0,0,1,71.6,116.69Zm-3.007-6.581a6.556,6.556,0,0,1-2.6.884c-.041,0-.083,0-.124,0a2.157,2.157,0,0,1-1.69-1.086.238.238,0,1,1,.421-.222,1.677,1.677,0,0,0,1.3.833,5.9,5.9,0,0,0,2.453-.816.238.238,0,0,1,.241.411Z"/><path class="a" d="M110.956,91.267c-.852.511-2.893,1.748-5.122,3.2a.476.476,0,1,1-.519-.8c2.353-1.53,4.5-2.826,5.273-3.289a5.5,5.5,0,0,0-1.16-2.28,14.2,14.2,0,0,0-3.933-1.961.48.48,0,0,1-.259-.214,15.648,15.648,0,0,0-1.328-1.992,12.377,12.377,0,0,0-3.02-1.176,3.933,3.933,0,0,1-1.659.342c-.424-.026-.766-.066-1.048-.109,2.137.941,4.317,1.982,4.617,2.432.129.193.254.4.378.6a3.958,3.958,0,0,0,1.2,1.46,27.282,27.282,0,0,0,3.163.919.238.238,0,0,1-.055.469.264.264,0,0,1-.055-.006,26.715,26.715,0,0,1-3.266-.956,4.2,4.2,0,0,1-1.4-1.638c-.121-.2-.243-.4-.368-.586-.268-.4-3.121-1.713-5.845-2.878a1.767,1.767,0,0,0-.339.179c-.834.545-1.779.095-2.7.8-.985.762-2.073-1.686-3.211-1.083s.2.035-.5.937c-.336.435-.335.4-1,.134s-.4-.569-.8.5-1.777.5-2.045.834-.736.4-1.54.67a3.051,3.051,0,0,1-2.009.134,1.433,1.433,0,0,0-.458-.09c.756,1.952,1.577,4.071,2.435,6.289.383-.325.567-.405.821-.32.179.059.364.121,1.463,2.364a26.119,26.119,0,0,1,1.423,3.385c.107.368.244.934.417,1.651.595,2.458,1.59,6.571,2.679,7.958a7.548,7.548,0,0,1,.744,1.289c1.018-1.548,3.782-5.766,5.175-8.017a15.293,15.293,0,0,1,3.5-3.22.239.239,0,0,1,.286.382,14.954,14.954,0,0,0-3.379,3.088c-1.48,2.391-4.5,6.986-5.343,8.273,1.263,2.79,2.936,7.794,4.2,11.7.1.322.183.567.233.717a21.55,21.55,0,0,0,1,2.449h11.641a99.127,99.127,0,0,0,3.8-15.431C114.035,102.041,113.234,95.545,110.956,91.267Z"/><path class="a" d="M95.464,120.938c-2.491-7.683-4.181-12.123-5.024-13.2-1.218-1.549-2.2-5.625-2.856-8.322-.164-.678-.306-1.263-.406-1.611a31.436,31.436,0,0,0-2.244-4.91c-.133.117-.3.264-.447.4a24,24,0,0,1-2.715,2.208,23.038,23.038,0,0,1-3.4,1.663,20.21,20.21,0,0,0-4.662,2.467,21.935,21.935,0,0,1-1.941,1.492L70.5,104.086c.312,1.986.706,4.663.706,5.5a27.911,27.911,0,0,0,.314,4.882,22.234,22.234,0,0,0,1.817,3.186.475.475,0,0,1-.633.674,16.738,16.738,0,0,0,.424,2.572c.3,1,.556,2.271.677,2.905h1.4c-.816-2.319-1.405-3.591-1.412-3.605a.238.238,0,0,1,.432-.2c.006.014.631,1.363,1.485,3.806H96.553a22.056,22.056,0,0,1-.854-2.149C95.649,121.51,95.569,121.263,95.464,120.938Zm-2.446-.6a.262.262,0,0,1-.061.008.238.238,0,0,1-.23-.178c-.022-.083-2.223-8.375-3.994-11.444-1.8-3.124-3.951-10.93-4.042-11.261a.238.238,0,0,1,.46-.126c.022.081,2.222,8.078,3.994,11.148,1.8,3.125,3.952,11.219,4.042,11.562A.238.238,0,0,1,93.018,120.335Z"/><path class="a" d="M70.355,103.208l.693-1.6c-.363.229-.663.4-.869.517C70.221,102.378,70.283,102.755,70.355,103.208Z"/><path class="b" d="M76.65,62.482a.47.47,0,0,1-.262-.079.476.476,0,0,1-.135-.659A27.58,27.58,0,0,0,80,53.327c1.648-6.777-.518-14.807-3.229-19.4A64.226,64.226,0,0,0,71.9,27.16c-1.305-1.656-2.537-3.221-3.419-4.6-2.271-3.558-4.827-5.042-8.048-4.671a8.413,8.413,0,0,0-5.25,2.581c-1.377,1.616-6.78,12.113-7.388,20.084a75.773,75.773,0,0,0-.176,8.4.476.476,0,0,1-.952.035,76.871,76.871,0,0,1,.178-8.5c.595-7.8,5.907-18.628,7.613-20.63a9.4,9.4,0,0,1,5.866-2.91c3.574-.41,6.505,1.259,8.96,5.106.857,1.342,2.075,2.889,3.364,4.526A65.835,65.835,0,0,1,77.6,33.443C80.4,38.2,82.64,46.516,80.929,53.552a28.543,28.543,0,0,1-3.881,8.717A.477.477,0,0,1,76.65,62.482Z"/><path class="b" d="M47.1,37.063a.476.476,0,0,1-.339-.811c.179-.182,4.423-4.471,6.7-5.123,2.3-.659,8.414,1.348,8.673,1.434a.476.476,0,0,1-.3.9c-1.688-.558-6.435-1.9-8.113-1.423-1.7.485-5.114,3.685-6.288,4.877A.476.476,0,0,1,47.1,37.063Z"/><path class="b" d="M81.491,35.582a.474.474,0,0,1-.32-.124,7.7,7.7,0,0,0-2.514-1.636c-2.3-.808-8.063-.513-8.121-.51a.481.481,0,0,1-.5-.45.476.476,0,0,1,.45-.5c.244-.013,6.015-.307,8.487.562a8.642,8.642,0,0,1,2.839,1.831.476.476,0,0,1-.321.828Z"/><path class="b" d="M61.732,95.59a.476.476,0,0,1-.051-.949,20.332,20.332,0,0,0,7.5-2.415.476.476,0,1,1,.454.836,21.243,21.243,0,0,1-7.848,2.525Z"/><path class="b" d="M70.85,101.645a.476.476,0,0,1-.468-.392c-2.393-13.342-3.653-23.991-3.79-25.177a8.567,8.567,0,0,1-1.087-6.408,5.275,5.275,0,0,1,2.342-3.424c.662-.386,1.631-.883,2.753-1.459,3.088-1.584,7.753-3.978,8.569-5.543.646-1.239.962-3.929,1.216-6.092a17.506,17.506,0,0,1,.671-3.844,2.64,2.64,0,0,1,2.437-1.665,1.558,1.558,0,0,1,1.129.386c.878.724,1.324,2.329,1.324,4.769A41.6,41.6,0,0,1,83.6,63.625a59.464,59.464,0,0,1-5.948,11.143c.549,1.411,3.486,8.953,6.978,17.99a.476.476,0,0,1-.888.343c-3.858-9.983-7.038-18.142-7.07-18.223a.477.477,0,0,1,.056-.449,58.421,58.421,0,0,0,5.984-11.148A40.337,40.337,0,0,0,84.993,52.8c0-2.748-.59-3.688-.942-4a.654.654,0,0,0-.463-.2.274.274,0,0,1-.1.005,1.7,1.7,0,0,0-1.558,1.1,18.753,18.753,0,0,0-.6,3.571c-.276,2.357-.589,5.027-1.316,6.422-.956,1.833-5.405,4.115-8.979,5.949-1.11.57-2.068,1.061-2.707,1.435a4.339,4.339,0,0,0-1.9,2.823,7.708,7.708,0,0,0,1.022,5.766.476.476,0,0,1,.072.2c.013.11,1.273,11.168,3.794,25.226a.474.474,0,0,1-.384.552A.414.414,0,0,1,70.85,101.645Z"/><path class="b" d="M61.3,98.153a.562.562,0,0,1-.081-.006.477.477,0,0,1-.389-.55C62.946,85.247,64,75.952,64.015,75.859a.476.476,0,0,1,.072-.2,7.7,7.7,0,0,0,1.022-5.766,4.335,4.335,0,0,0-1.9-2.823c-.639-.374-1.6-.865-2.707-1.435-3.574-1.834-8.023-4.116-8.978-5.949-.7-1.351-1-3.931-1.258-6.206a17.281,17.281,0,0,0-.645-3.764c-.259-.511-1.178-.627-1.511-.629a.6.6,0,0,1-.073-.005h0a.869.869,0,0,0-.6.259c-.334.3-.894,1.153-.891,3.457a40.385,40.385,0,0,0,2.28,10.486A58.511,58.511,0,0,0,54.81,74.429a.477.477,0,0,1,.056.449c-.032.082-3.238,8.308-7.118,18.347a.476.476,0,1,1-.888-.343c3.513-9.092,6.474-16.7,7.027-18.114a59.447,59.447,0,0,1-5.949-11.143A41.7,41.7,0,0,1,45.6,52.8c0-2.078.418-3.492,1.25-4.2a1.775,1.775,0,0,1,1.3-.459,2.73,2.73,0,0,1,2.331,1.151,15.717,15.717,0,0,1,.742,4.086c.25,2.193.534,4.679,1.156,5.873.816,1.565,5.482,3.959,8.569,5.543,1.122.576,2.091,1.073,2.753,1.459a5.275,5.275,0,0,1,2.342,3.424,8.566,8.566,0,0,1-1.086,6.408c-.126,1.081-1.183,10.026-3.178,21.682A.477.477,0,0,1,61.3,98.153Z"/><path class="b" d="M108.524,45.471c-.8-.067-.4.4-.8-.067a1.476,1.476,0,0,1-.4-.871s-.268.335-.87-.87-.737-1-.536-1.742.736-.133.2-.736-.67-.67-.8-.938a4.639,4.639,0,0,1-.2-1.071,7.385,7.385,0,0,0-.736-.2c-.335-.067-.469.335-.871-.2s-.937-.736-.4-1-.067.268.536-.268.737-.625.737-.915.535-.09,0-.291-.8-.334-.871-.535.4.029-.134-.655-.669-1.339-1.272-1.079-.737.509-.938-.084.067-1.263-.334-1.163c-.116.029-.23.067-.336.1a3.367,3.367,0,0,0,.871-1.417c.67-1.734,1.54-1.6.67-1.734s-1.138.2-1.339-.536a4.671,4.671,0,0,1-.2-1.071h-.536a5.2,5.2,0,0,1,.067-.6c.067-.4.067.469.067-.4V25.649a1.112,1.112,0,0,0-.268-.736c-.2-.268-.067-.2-.268-.67s-.067-.938-.8-.938-.4.2-.737,0a1.187,1.187,0,0,1-.536-.669c-.067-.2.134-.268-.4-.536s-.737-.335-.871-.6-.268-1.406-1.272-1.741-.536.938-1-.335.2-.87-.469-1.272-1.272-.248-1.473-.794a5.5,5.5,0,0,1-.268-1.081s.4-.268-.267-.536-.67-.4-1.072-.4a1.4,1.4,0,0,0-.937.2c-.268.2.067.937-.268.2a11.007,11.007,0,0,1-.536-1.138c-.067-.268.067-.4-.4-.67a12.212,12.212,0,0,1-1.2-.8,2.424,2.424,0,0,1-.871-1.005s.4-.334-.2-.334a6.007,6.007,0,0,0-1.138,0c-.2.066-1.406-2.143-2.143-2.143s-.268.6-.736,0l-.469-.6s.115-.2-.411-.134-.46.469-1,.2a6.029,6.029,0,0,1-.938-.586s.067-.485-.335-.485a3.667,3.667,0,0,0-.87,0c-.2.066-.6-.67-.8-.8s0-.4-.6-.4a5.53,5.53,0,0,0-1.072,0c-.335.067.335.335-.335.067s-1-.736-1.339-.8-.2.133-.67,0-.535-.029-1.138-.015-.96-.588-1.451-.588-.357-.2-.826,0-.268.469-1.138.4a8.922,8.922,0,0,1-1.962-.474,3.448,3.448,0,0,1-.449-.017c-.67-.045-.8-.224-1.071,0s-.435.223-.988.156S63.8,5.1,63.16,5.294a7.869,7.869,0,0,0-1.629.6,1.783,1.783,0,0,1-.685.4c-.4.134-.871-.2-1.272.134a2.052,2.052,0,0,0-.67.938,1.05,1.05,0,0,1-.67.736c-.4.134-.134-.6-.937.268s-.67.335-.8.871-.536.67-.335,1.54c0,0-1.272-1.406-2.544-.6a2.811,2.811,0,0,0-.41.3c0-.125-.156-.342-1-.547-2.008-.488-.535.824-3.08,0s-1.339-2.1-3.08-.957-1.273,2.411-2.076,1.808-.8-1.54-1.741-.6a9.558,9.558,0,0,1-1.473,1.273c-.67.535-1.34.067-.938.87s.36,1-.121,1.273-.816-.8-1.553,0-1.406,1.071-1.138,1.607.4.87-.4.736-.938-.468-1.54-.468-1.139-.469-1.474.2a4.18,4.18,0,0,0-.334,1.684c0,.124-.268.258-.737.325s-1.071-.87-1.339,0-.536,1-.335,1.674.736.268.2.67-.6-.2-.871.4a1.988,1.988,0,0,0,0,1.272.722.722,0,0,1-.6.871c-.67.2-.6-.335-1.541.4s.067.4-.937.736-.8-.669-1.741,0-1.072,1-1.206,1.54a25.661,25.661,0,0,0-1,3.148c-.2,1.205-.268.6-.536,1.473s-.335,1.393,0,1.6-.226,1.312-.226,1.312-.778-.5-.51.3,1.071.284.4.945-1.473.625-2.209,1.079-1.005.186-1.139.722a3.822,3.822,0,0,0,0,1.54c.067.937-.8,1.406-1.272,1.808s-.737.4-1,1,.134.67,0,.938a.909.909,0,0,1-1,.4,4.186,4.186,0,0,1-.737-.335s.268.469,0,.736a.465.465,0,0,0,0,.6,1.108,1.108,0,0,1-.119.6l-.148.2s-.2.468,0,.6.4-.535.2.134-.29.938-.29.938-.647-.067-.312.4a2.492,2.492,0,0,0,.87.736c.2.134.871.134.2.6s-1.2.335-1.167.536-.1.2,0,.736.566.335.5,1.273-.738.736-.537,1.54.336.6.537,1,.468,0,.4.737-1.942-.067-.2,1.2L16.3,54.839a1.967,1.967,0,0,0-.118.207,1.557,1.557,0,0,0-.134,1.511c.134.3.6-.171.6.364s-.334.737-.067.938.268-.469.268.2-.134.937,0,1.138.536.2.737.469.469-.261.469.439-.4.7-.067,1.235a6.783,6.783,0,0,0,.669.871c.2.267.469,1.942-.134,2.544s-.067,1.674,0,2.143.536.737.134,1.741.2,2.076.67,3.214.268,1,.737,2.21,1.607.938,2.076,1.607a4.981,4.981,0,0,1,.87,2.009c.2.871-.469,1.139.268,2.009a3.528,3.528,0,0,0,1.875,1.072s.134-.871.335,0,.669.886,1.071.878.469-.393.8,0-.2.461.535,1.4,1.34.87,1.608,1.339-.067,2.544.2,2.544.737.871,1.34,1.474.736,1.071,1.607,1.071a4.679,4.679,0,0,1,2.009.737c.469.2,1.473,1.2,2.879,1s1.34.268,2.076.469.469-.268,1.339,0,.067.2.871.268a3.922,3.922,0,0,0,1.071,0s-.6-.469.4-.268.8.327,1.34.3.937.1,1-.365-.2-.6.2-.8a7.792,7.792,0,0,1,1.249-.334c.425-.134.76-.268.76-.6,0-.214.713-.515,1.147-1.2,1.995-5.147,2.279-5.878,3.957-10.2.917-2.358,1.463-3.759,1.463-3.759a58.459,58.459,0,0,1-6.04-11.252A40.961,40.961,0,0,1,46.071,52.8c0-2.333.544-3.371,1.072-3.832a76.314,76.314,0,0,1,.176-8.449c.6-7.9,5.96-18.549,7.5-20.357a8.973,8.973,0,0,1,5.558-2.745c3.859-.445,6.5,1.741,8.505,4.888s5.892,7.3,8.3,11.384,5.089,12.321,3.281,19.754A27.982,27.982,0,0,1,76.648,62a8.8,8.8,0,0,0,2.943-2.542c1.181-2.265,1.254-8.5,1.9-9.964a2.169,2.169,0,0,1,2.023-1.38s1.954-.38,1.954,4.678a40.878,40.878,0,0,1-2.311,10.657,58.459,58.459,0,0,1-6.04,11.252s1.788,4.587,4.332,11.149a1.984,1.984,0,0,1,.958.063,3.051,3.051,0,0,0,2.009-.134c.8-.268,1.273-.335,1.54-.67S87.6,85.35,88,84.279s.134-.77.8-.5.669.3,1-.134c.7-.9-.637-.334.5-.937s2.226,1.845,3.211,1.083c.916-.709,1.861-.259,2.7-.8.808-.529.8-.022,3.011.112s5.412-2.871,5.813-2.871a1.832,1.832,0,0,0,1.072-1.875c-.2-.8.268-.871.4-1.607s-.2-.268,0-1.272-.538-.737.032-1.608,1.508-.669,1.039-1.54a10.184,10.184,0,0,1-.67-1.406c-.134-.335-.335-.335.2-1.2s.871-.938.871-2.143.468-1.607,0-1.875-.8-.134-1.273-1.005-.6-.937-.535-1.339,1.138-1.473.535-1.942-.87-.4-.6-.87.4-.335.535-.938.67-.2.134-1.071-.87-.536-.8-1.206a2.85,2.85,0,0,1,.268-1.138c.2-.536.468-.335.4-1.139a4.466,4.466,0,0,0-.2-1.138s-.469.134-.2-.4.268.2.669-.6.469-.335.4-.8.938.2-.067-.469-.736-.067-1-.669a1.492,1.492,0,0,1-.134-1.005s.2,0,.335-.335a1.377,1.377,0,0,0,.133-1c-.133-.268-.669-.067-.133-.268s-.2,0,.535-.2,1.221-.2,1.213-.4.394-.468.394-.468c.268-.938.268-.536.268-.938S109.328,45.538,108.524,45.471Z"/><path class="b" d="M109.586,124.762a.5.5,0,0,1-.16-.027.477.477,0,0,1-.288-.609,98.36,98.36,0,0,0,3.907-15.747c1.023-6.551.133-13.27-2.323-17.536a.476.476,0,0,1,.825-.475c2.56,4.445,3.494,11.4,2.438,18.158a99.316,99.316,0,0,1-3.95,15.92A.477.477,0,0,1,109.586,124.762Z"/><path class="b" d="M56.686,43.657a2.692,2.692,0,0,1-.3-.017,3.947,3.947,0,0,1-2.759-2.067,3.348,3.348,0,0,1-.011-3.275,4.05,4.05,0,0,1,3.162-2.324,5.036,5.036,0,0,1,4.99,3.538.476.476,0,1,1-.905.294,4.07,4.07,0,0,0-4-2.884,3.139,3.139,0,0,0-2.393,1.8,2.411,2.411,0,0,0-.037,2.345,3.173,3.173,0,0,0,2.059,1.628,2.643,2.643,0,0,0,2.095-.98,1.371,1.371,0,0,0-.038-2.133c-.582-.582-1.338-.768-1.525-.582-.209.209-.2.35-.191.4a1.139,1.139,0,0,0,.454.623.476.476,0,1,1-.535.788,2.034,2.034,0,0,1-.867-1.321,1.413,1.413,0,0,1,.466-1.159c.707-.708,2.041-.249,2.872.581a2.307,2.307,0,0,1,.038,3.48A3.7,3.7,0,0,1,56.686,43.657Z"/><path class="b" d="M75.193,44.009a2.692,2.692,0,0,1-.3-.017,3.947,3.947,0,0,1-2.759-2.067,3.344,3.344,0,0,1-.01-3.274,4.047,4.047,0,0,1,3.161-2.325,5.038,5.038,0,0,1,4.99,3.538.476.476,0,1,1-.905.294,4.069,4.069,0,0,0-4-2.883,3.138,3.138,0,0,0-2.393,1.8,2.411,2.411,0,0,0-.037,2.345A3.167,3.167,0,0,0,75,43.046a2.643,2.643,0,0,0,2.095-.98,1.371,1.371,0,0,0-.038-2.133c-.581-.581-1.338-.768-1.525-.582-.208.209-.2.349-.191.4a1.112,1.112,0,0,0,.456.625.476.476,0,0,1-.537.787,2.031,2.031,0,0,1-.867-1.32,1.416,1.416,0,0,1,.466-1.16c.707-.707,2.041-.249,2.872.582a2.306,2.306,0,0,1,.038,3.479A3.7,3.7,0,0,1,75.193,44.009Z"/><path class="b" d="M69.656,46.267l-.426-.852a.1.1,0,0,0-.023.013c.007,0,.185-.129.217-.559a2.875,2.875,0,0,0-.392-1.332.476.476,0,0,1,.822-.481,3.755,3.755,0,0,1,.52,1.883A1.532,1.532,0,0,1,69.656,46.267Z"/><path class="b" d="M68.248,52.417a14.983,14.983,0,0,0-1.7-.971,2.733,2.733,0,0,0-.929-.066,3.137,3.137,0,0,0-3.3,3.052,3.331,3.331,0,0,0,.065,1.609,3.24,3.24,0,0,0,1.6,1.415,8.385,8.385,0,0,0,3.108,1.19c2.25.221,3.821-1.313,4.581-3.278a1.6,1.6,0,0,0-.3-1.992C70.5,52.538,69.277,52.866,68.248,52.417Z"/><path class="b" d="M51.741,36.671a.238.238,0,0,1-.146-.427,8.689,8.689,0,0,1,4.317-1.623,13.5,13.5,0,0,1,5.512,1.431.238.238,0,0,1-.213.426A13.22,13.22,0,0,0,55.939,35.1a8.323,8.323,0,0,0-4.053,1.524A.236.236,0,0,1,51.741,36.671Z"/><path class="b" d="M70.859,37.023a.238.238,0,0,1-.123-.442,10.694,10.694,0,0,1,4.676-1.458,8.241,8.241,0,0,1,4.011,1.108.238.238,0,0,1-.253.4A7.908,7.908,0,0,0,75.412,35.6a10.411,10.411,0,0,0-4.431,1.39A.234.234,0,0,1,70.859,37.023Z"/><path class="b" d="M33.626,124.762a.475.475,0,0,1-.427-.685c.039-.079,3.868-7.913,4.451-10.313a28.3,28.3,0,0,1,2.965-5.968,29.228,29.228,0,0,0,1.723-3.178,14.394,14.394,0,0,0,.675-3.741c.067-.712.136-1.45.256-2.148a48.645,48.645,0,0,1,1.808-5.976.477.477,0,0,1,.44-.312c.123,0,2.995-.03,4.406,1.061,1.281.992,4.652,3.328,8.268,3.583a17.171,17.171,0,0,0,4.378.021.46.46,0,0,1,.44.073.473.473,0,0,1,.177.417c-.035.462-.865,11.317-.981,12.254a12.543,12.543,0,0,1-1.733,3.423.476.476,0,0,1-.789-.533,11.687,11.687,0,0,0,1.577-3.006c.1-.793.752-9.28.931-11.618a28.308,28.308,0,0,1-4.067-.081c-3.737-.264-7.108-2.481-8.785-3.78a7.027,7.027,0,0,0-3.482-.858,44.836,44.836,0,0,0-1.65,5.494c-.114.662-.178,1.348-.245,2.075a15.128,15.128,0,0,1-.734,3.993,28.829,28.829,0,0,1-1.792,3.319,28.046,28.046,0,0,0-2.86,5.711c-.608,2.5-4.362,10.181-4.522,10.507A.476.476,0,0,1,33.626,124.762Z"/><path class="b" d="M57.667,124.762a.465.465,0,0,1-.11-.013.475.475,0,0,1-.354-.572c.028-.117.682-2.884,1.284-4.692a15.1,15.1,0,0,1,1.337-2.756,6.99,6.99,0,0,0,.688-1.365,20.146,20.146,0,0,0-.014-3.772.476.476,0,1,1,.95-.07,21.147,21.147,0,0,1-.014,4.081,7.284,7.284,0,0,1-.785,1.6,14.038,14.038,0,0,0-1.258,2.58c-.589,1.768-1.254,4.581-1.261,4.609A.475.475,0,0,1,57.667,124.762Z"/><path class="b" d="M97.31,124.762a.477.477,0,0,1-.424-.258,22.423,22.423,0,0,1-1.187-2.843c-.05-.151-.13-.4-.235-.723-2.491-7.683-4.181-12.123-5.024-13.2-1.218-1.549-2.2-5.625-2.856-8.322-.164-.678-.306-1.263-.406-1.611a31.436,31.436,0,0,0-2.244-4.91c-.133.117-.3.264-.447.4a24,24,0,0,1-2.715,2.208,23.038,23.038,0,0,1-3.4,1.663,20.21,20.21,0,0,0-4.662,2.467,21.958,21.958,0,0,1-3.535,2.486c.223,1.352,1.022,6.268,1.022,7.466a27.911,27.911,0,0,0,.314,4.882,22.234,22.234,0,0,0,1.817,3.186.476.476,0,1,1-.795.524,22.7,22.7,0,0,1-1.932-3.43,29.858,29.858,0,0,1-.356-5.162c0-1.285-1.055-7.581-1.065-7.645a.478.478,0,0,1,.254-.5,20.578,20.578,0,0,0,3.654-2.524A20.333,20.333,0,0,1,78,96.3a22.678,22.678,0,0,0,3.242-1.579A23.174,23.174,0,0,0,83.846,92.6c.8-.724,1.009-.918,1.36-.8.179.059.364.121,1.463,2.364a26.119,26.119,0,0,1,1.423,3.385c.107.368.244.934.417,1.651.595,2.458,1.59,6.571,2.679,7.958,1.233,1.569,3.548,8.451,5.182,13.49.1.322.183.567.233.717a21.749,21.749,0,0,0,1.13,2.707.476.476,0,0,1-.206.641A.47.47,0,0,1,97.31,124.762ZM84.738,92.6Z"/><path class="b" d="M73.4,124.762a.476.476,0,0,1-.469-.393c0-.019-.334-1.894-.723-3.19a29.5,29.5,0,0,1-.621-4.608.476.476,0,0,1,.951-.06,29.227,29.227,0,0,0,.582,4.394c.405,1.351.735,3.22.749,3.3a.475.475,0,0,1-.469.558Z"/><path class="b" d="M91.743,109.4a.244.244,0,0,1-.131-.039.239.239,0,0,1-.068-.33c.039-.058,3.844-5.829,5.563-8.606a15.293,15.293,0,0,1,3.5-3.22.239.239,0,0,1,.286.382,14.954,14.954,0,0,0-3.379,3.088c-1.723,2.783-5.532,8.56-5.57,8.618A.24.24,0,0,1,91.743,109.4Z"/><path class="b" d="M105.575,94.542a.476.476,0,0,1-.26-.876c2.353-1.53,4.5-2.826,5.273-3.289a5.5,5.5,0,0,0-1.16-2.28,14.2,14.2,0,0,0-3.933-1.961.48.48,0,0,1-.259-.214,15.648,15.648,0,0,0-1.328-1.992,17.078,17.078,0,0,0-4.044-1.468.476.476,0,0,1,.248-.92c.905.244,3.9,1.092,4.5,1.746a14.892,14.892,0,0,1,1.362,2.007,14.394,14.394,0,0,1,4.128,2.129,6.89,6.89,0,0,1,1.5,3.09.476.476,0,0,1-.225.5c-.026.015-2.624,1.551-5.542,3.449A.474.474,0,0,1,105.575,94.542Z"/><path class="b" d="M18.337,124.762H18.3a.477.477,0,0,1-.441-.509c.012-.16,1.165-16.147,2.831-26.047.126-.779.186-2.266.235-3.462a15.744,15.744,0,0,1,.115-1.8,4.14,4.14,0,0,1,1.121-1.46,2.123,2.123,0,0,1-.283-1.49c.176-.741,1.2-1.447,2.275-2.1l.115-.07a6.127,6.127,0,0,0,.587-.508A4.587,4.587,0,0,1,26.6,86.089c.65-.136,4.919-.622,5.1-.643a.48.48,0,0,1,.527.42.475.475,0,0,1-.42.526c-1.223.139-4.507.523-5.011.629a5.11,5.11,0,0,0-1.29.993,5.734,5.734,0,0,1-.735.621l-.121.074c-1.508.914-1.8,1.336-1.842,1.506a1.53,1.53,0,0,0,.348,1.048.478.478,0,0,1-.053.652,5.937,5.937,0,0,0-1.133,1.251c-.03.14-.062.924-.09,1.616-.049,1.221-.111,2.74-.246,3.578-1.66,9.858-2.809,25.8-2.821,25.96A.475.475,0,0,1,18.337,124.762Z"/><path class="b" d="M35.459,120.652a.238.238,0,0,1-.221-.151c-.816-2.055-.023-5.474.677-8.491.219-.946.426-1.839.557-2.593.227-1.305-1.034-3.693-3.749-7.1a.238.238,0,1,1,.372-.3c2.883,3.616,4.105,5.991,3.847,7.476-.134.767-.342,1.667-.563,2.619-.65,2.8-1.459,6.292-.7,8.209a.239.239,0,0,1-.134.309A.246.246,0,0,1,35.459,120.652Z"/><path class="b" d="M29.947,99.066a.473.473,0,0,1-.375-.183,3.8,3.8,0,0,1-.311-.442,14.949,14.949,0,0,0-4.383-3.772c-1.219-.452-2.388-2.64-2.518-2.889a.476.476,0,0,1,.845-.44,6.173,6.173,0,0,0,2.005,2.436,15.441,15.441,0,0,1,4.881,4.2,2.887,2.887,0,0,0,.232.323.477.477,0,0,1-.376.769Z"/><path class="b" d="M64.488,75.913s-.366,3.244-1.11,8.486c1.45-.6,3.033-1.27,4.517-1.916-.564-4.1-.843-6.57-.843-6.57a8.227,8.227,0,0,1-1.271-4.782H65.76A8.235,8.235,0,0,1,64.488,75.913Z"/><path class="b" d="M70.071,104.7a.227.227,0,0,1-.094-.02.238.238,0,0,1-.124-.313l1.69-3.905a.238.238,0,1,1,.437.189l-1.69,3.905A.238.238,0,0,1,70.071,104.7Z"/><path class="b" d="M62.517,100.323a.237.237,0,0,1-.172-.074l-2.308-2.418a.238.238,0,0,1,.345-.329L62.69,99.92a.239.239,0,0,1-.173.4Z"/><path class="b" d="M32.909,105.341a.237.237,0,0,1-.2-.1c-1.555-2.25-5.922-8.158-7.438-8.472a9.449,9.449,0,0,1-4.017-2.537.238.238,0,0,1,.347-.327,9.16,9.16,0,0,0,3.766,2.4c1.979.409,7.15,7.823,7.734,8.667a.239.239,0,0,1-.061.331A.233.233,0,0,1,32.909,105.341Z"/><path class="b" d="M107.488,88.869a.264.264,0,0,1-.055-.006,26.715,26.715,0,0,1-3.266-.956,4.2,4.2,0,0,1-1.4-1.638c-.121-.2-.243-.4-.368-.586-.361-.541-5.423-2.738-8.53-4a.238.238,0,0,1,.179-.442c1.364.553,8.2,3.351,8.747,4.174.129.193.254.4.378.6a3.958,3.958,0,0,0,1.2,1.46,27.282,27.282,0,0,0,3.163.919.238.238,0,0,1-.055.469Z"/><path class="b" d="M25.044,92.53a.239.239,0,0,1-.2-.112c-.243-.391-1.018-1.71-.789-2.27.129-.313.618-.586,1.407-1a4.652,4.652,0,0,0,1.185-.744c.373-.535,4.3-1.339,5.977-1.66a.238.238,0,1,1,.09.467c-2.579.5-5.409,1.18-5.68,1.471a4.342,4.342,0,0,1-1.352.889,4.218,4.218,0,0,0-1.186.756,4.063,4.063,0,0,0,.752,1.837.238.238,0,0,1-.076.328A.244.244,0,0,1,25.044,92.53Z"/><path class="b" d="M20.836,124.524h0a.238.238,0,0,1-.233-.244c.009-.346.206-8.51.6-10.779.389-2.244,1.34-10.285,1.349-10.366a.238.238,0,0,1,.473.055c-.01.082-.962,8.136-1.353,10.393-.387,2.233-.59,10.624-.592,10.709A.238.238,0,0,1,20.836,124.524Z"/><path class="b" d="M92.957,120.343a.238.238,0,0,1-.23-.178c-.022-.083-2.223-8.375-3.994-11.444-1.8-3.124-3.951-10.93-4.042-11.261a.238.238,0,0,1,.46-.126c.022.081,2.222,8.078,3.994,11.148,1.8,3.125,3.952,11.219,4.042,11.562a.238.238,0,0,1-.169.291A.262.262,0,0,1,92.957,120.343Z"/><path class="b" d="M41.193,112.084a.239.239,0,0,1-.2-.363c3.067-4.979,4.832-8.741,4.842-10.323.011-1.827.677-6.138.706-6.32a.238.238,0,1,1,.47.073c-.007.044-.689,4.458-.7,6.25-.014,2.282-3.084,7.6-4.913,10.569A.239.239,0,0,1,41.193,112.084Z"/><path class="b" d="M54.386,124.524a.234.234,0,0,1-.038,0,.239.239,0,0,1-.2-.273c.541-3.346,4.25-7.68,4.408-7.863a.239.239,0,0,1,.361.312c-.038.043-3.78,4.414-4.3,7.627A.238.238,0,0,1,54.386,124.524Z"/><path class="b" d="M75.62,124.524a.239.239,0,0,1-.226-.161c-.915-2.67-1.6-4.143-1.6-4.158a.238.238,0,0,1,.432-.2c.007.015.7,1.508,1.623,4.2a.238.238,0,0,1-.148.3A.235.235,0,0,1,75.62,124.524Z"/><path class="b" d="M65.989,110.993c-.041,0-.083,0-.124,0a2.157,2.157,0,0,1-1.69-1.086.238.238,0,1,1,.421-.222h0a1.677,1.677,0,0,0,1.3.833,5.9,5.9,0,0,0,2.453-.816.238.238,0,0,1,.241.411A6.556,6.556,0,0,1,65.989,110.993Z"/><path class="b" d="M123.524,124.762H4.476a.476.476,0,1,1,0-.952H123.524a.476.476,0,0,1,0,.952Z"/></svg>