<svg xmlns="http://www.w3.org/2000/svg" viewBox="0 0 128 128"><defs><style>.a{fill:#fff;}.b{fill:#231f20;}</style></defs><path class="a" d="M64.453,85.133a13.884,13.884,0,0,1-3.441,3.121c.358.383.72.763,1.073,1.126l4.32-2.36C65.757,86.458,65.08,85.79,64.453,85.133Z"/><path class="a" d="M67.5,94.066l-.154-.852A17.223,17.223,0,0,1,65,93.722a8.084,8.084,0,0,1-1.968-1.261l-.676,3.106Z"/><path class="a" d="M61.511,99.461l.928.031,5.714-1.816-.565-3.139L62.244,96.1Z"/><path class="a" d="M96.018,110.107c-2.39-.457-4.525-.806-5.657-.894a68.337,68.337,0,0,0,7.32,3.548l.348.155a.476.476,0,0,1-.289.9c-4.349-.89-9.379-1.583-10.554-1.267.96.8,5.9,2.217,8.094,2.846,1.094.314,1.958.562,2.446.732a.476.476,0,0,1-.221.921,48.559,48.559,0,0,0-8.684-.6,17.316,17.316,0,0,0,3.483,1.129.609.609,0,0,1,.071.017c1.337.327,2.747.61,3.737.757.411.033.78.076,1.049.111a.476.476,0,0,1,.413.509.468.468,0,0,1-.487.439,8.5,8.5,0,0,1-.88-.093,7.9,7.9,0,0,0-2.495.058c.019.789.22.922.519,1.028a13.445,13.445,0,0,0,3.365.2h.175c1.574,0,4.53-1.617,5.63-7.678.874-4.823-1.2-8.64-2.353-9.031-.116-.039-.186-.052-.284.137-.884,1.712-.567,5.048-.156,6.282a.476.476,0,0,1-.552.616c-1.321-.287-2.687-.566-3.981-.813A.572.572,0,0,1,96.018,110.107Z"/><path class="a" d="M68.238,98.149l-4.37,1.389q2.307.07,4.643.124Z"/><path class="a" d="M68.973,88.4a.647.647,0,0,1-.185.024h-.007c-.335.441-.884,1.137-1.482,1.822L69,99.673c8.9.191,17.944.156,25.794-.32q-.081-.568-.17-1.128a.475.475,0,0,1-.251-.355c-.443-3.19-.93-5.762-1.415-7.784A19.87,19.87,0,0,0,90.9,84.462c-1.6-2-8.155-3.572-12.492-4.612-1.35-.323-2.48-.595-3.316-.836a36.123,36.123,0,0,1-3.541,5.41C69.645,88.211,69.246,88.325,68.973,88.4ZM84.44,83.249a.238.238,0,0,1,.3-.16c.49.146,4.808,1.458,5.285,2.573.451,1.056,1.617,7.517,1.667,7.792a.238.238,0,0,1-.192.276.215.215,0,0,1-.043,0,.239.239,0,0,1-.234-.2c-.012-.067-1.206-6.682-1.636-7.689-.294-.686-3.212-1.777-4.983-2.3A.239.239,0,0,1,84.44,83.249Z"/><path class="a" d="M63.373,90.668a8.458,8.458,0,0,0,1.377,1.181.454.454,0,0,0,.06.026.143.143,0,0,0,.03-.006h0a4.619,4.619,0,0,0,1.335-1.105c.04-.04.08-.082.121-.125l.1-.109c.07-.074.141-.151.213-.229s.157-.173.24-.266c.476-.534.971-1.132,1.423-1.728a6.245,6.245,0,0,1-1.483-.958L62.43,89.733C62.764,90.072,63.082,90.387,63.373,90.668Z"/><path class="a" d="M81.314,41.86a1.654,1.654,0,0,0-.429-1.385,1.525,1.525,0,0,0-1.174-.071c-.009.879-.034,3.237-.066,4.721A4.276,4.276,0,0,0,81.314,41.86Z"/><path class="a" d="M55.259,71.442c.433,1.818,1.06,4.4,1.511,6,3.185,1.688,6.935,3.4,7.576,3.275.593-.216,3.07-2.752,4.8-4.656C60.3,75.945,56.705,73.348,55.259,71.442Z"/><path class="a" d="M91.551,118.367c-3.842-.989-3.908-1.627-3.944-1.975a.649.649,0,0,1,.2-.54c.468-.453,2.389-.467,4.572-.314-3.824-1.154-5.858-1.963-6.2-2.755a.732.732,0,0,1,.011-.635c.255-.507.976-.983,6.328-.208.529.077,1.057.159,1.563.242-.594-.276-1.2-.565-1.781-.851-3.452-1.7-3.6-2.151-3.428-2.64.158-.453.283-.81,6.042.242l.927.173c1.462-3.624,3.015-7.563,3.638-9.148-1.312.118-2.674.221-4.073.31h0a.489.489,0,0,1-.066,0h-.007c-5.165.327-10.859.46-16.7.46-19.112,0-39.788-1.418-48.607-2.1h-.006a.565.565,0,0,1-.071-.005l-.006,0c-1.7-.131-2.95-.235-3.652-.294.279,1.258.91,4.1,1.311,5.936a5.623,5.623,0,0,1-.412,4.416.476.476,0,1,1-.761-.572,4.622,4.622,0,0,0,.45-2.691l-.194-.889a3.175,3.175,0,0,0-.488-.918c-.131-.168-.2-.143-.3-.083-1.057.594-2.4,4.728-.662,9.309,2.375,6.249,5.962,6.563,7,6.512.273-.014.658-.028,1.114-.044a54.853,54.853,0,0,0,6.113-.447,50.581,50.581,0,0,0-6.963-.79.476.476,0,0,1-.072-.941c1.363-.293,6.561-2.462,7.784-3.493a48.565,48.565,0,0,0-8.428,2.178.476.476,0,0,1-.385-.866c.448-.256,1.252-.658,2.27-1.166,2.039-1.019,6.64-3.318,7.438-4.278-1.215-.095-6.031,1.5-10.145,3.176a.476.476,0,0,1-.448-.834l.316-.216a68.031,68.031,0,0,0,6.545-4.827c-1.7.456-5.645,1.963-9.216,3.462a.476.476,0,1,1-.369-.878c.025-.011,2.536-1.063,5.059-2.026,5.47-2.087,5.659-1.759,5.9-1.343.257.45.2.917-2.886,3.221-.518.388-1.063.783-1.6,1.164.483-.174.986-.352,1.492-.524,5.122-1.741,5.916-1.4,6.26-.952a.735.735,0,0,1,.127.622c-.2.842-2.049,2.009-5.6,3.843,2.119-.55,4.009-.887,4.553-.528a.65.65,0,0,1,.3.494c.031.364.087,1.04-3.972,2.873-.851.384-1.729.748-2.507,1.05,5.8.474,5.955,1.151,6.023,1.46a.622.622,0,0,1-.122.525c-.333.431-1.456.674-4.247.846.461.955,1.091,2.44,1.505,3.417l.118.278H89.171c.37-.748.916-2.032,1.447-3.28C90.96,119.725,91.288,118.953,91.551,118.367Z"/><path class="a" d="M60.42,87.468c.566-.041,2.329-1.753,3.643-3.353a.477.477,0,0,1,.353-.174.484.484,0,0,1,.364.151c1.464,1.569,3.343,3.257,3.917,3.382.635-.6,2.821-4.989,4.7-9.154-1.294-.706-2.837-1.4-3.484-1.679-1.066,1.175-4.246,4.612-5.254,4.979a.871.871,0,0,1-.291.041c-1.539,0-6.188-2.386-8.223-3.471a.479.479,0,0,1-.234-.289c-.126-.443-.269-.973-.418-1.546-1.125,1.4-2.209,2.784-2.6,3.352C56.049,83.407,59.658,87.245,60.42,87.468Z"/><path class="a" d="M62.894,90.872c-.834-.807-1.754-1.778-2.389-2.462a1.012,1.012,0,0,1-.106.012c-.229,0-.6,0-2.209-1.543A59.913,59.913,0,0,1,50.8,81.112c-.95.455-2.378,1.117-4.544,2.113-4.474,2.055-10.043,4.614-11.664,5.741-1.791,1.247-3.074,3.705-3.813,7.308l-.214,1.447c6.228.476,17.768,1.272,30.468,1.723ZM50.3,83.933c-.115.054-11.535,5.356-12.62,5.95a.238.238,0,1,1-.229-.417c1.1-.6,12.178-5.746,12.649-5.965a.238.238,0,0,1,.2.432Z"/><path class="a" d="M67.2,71.647c.034-.014.068-.027.1-.042q.138-.058.276-.12l.3-.138.215-.1q.209-.1.419-.218l.145-.079c.168-.094.337-.19.507-.293h0l.01-.006c.145-.088.286-.179.428-.272s.3-.2.468-.323l.013-.007C75.5,66.186,78.158,58.694,78.668,46c.049-1.25.089-5.513.093-5.91-.062-.543-.954-8.367-1.227-12.183-.1-1.329-.394-1.869-.643-1.932-.1-.025-1.065-.144-3.489,3.666C71.9,32,69.252,32.612,66.453,33.257c-2.378.547-4.836,1.114-6.745,2.811-2.685,2.387-6.4,1.773-9.115,1.325-1.617-.268-3.145-.52-3.588.035A5.257,5.257,0,0,0,46.14,39.7a9.063,9.063,0,0,1-.307,1.178c-.276,3.284-.335,6.85-.674,6.85-.467,0-1.284-3.88-1.557-5.248-.032,0-.06.005-.092.005a.48.48,0,0,1-.155-.026,2.846,2.846,0,0,0-2.171.2,3.047,3.047,0,0,0-1.166,2.369A4.9,4.9,0,0,0,42,49.948a2.254,2.254,0,0,0,2.629-.332.479.479,0,0,1,.3-.109.5.5,0,0,1,.152.025.477.477,0,0,1,.311.342c.028.119,2.857,11.952,6.8,16.724C54.378,69.234,59.96,74.631,67.2,71.647ZM43.577,48.494a1.234,1.234,0,0,1-.349.054.881.881,0,0,1-.565-.2,2.278,2.278,0,0,1-.561-1.634,2,2,0,0,1-.671.182H41.41a.238.238,0,0,1-.022-.475c1.281-.117,1.661-1.692,1.665-1.708a.238.238,0,0,1,.464.107,3.273,3.273,0,0,1-.937,1.586c-.014.406.03,1.287.382,1.571a.48.48,0,0,0,.48.054.238.238,0,0,1,.135.457Zm26.21,3.3a1.248,1.248,0,0,1-.9-.413.565.565,0,1,0-.522-1,2.767,2.767,0,0,1-.074-.634c0-1.131.668-2.048,1.491-2.048s1.491.917,1.491,2.048S70.61,51.794,69.787,51.794Zm2.6-4.065a.239.239,0,0,1-.328.077,3.842,3.842,0,0,0-2.846-.722,1.89,1.89,0,0,0-1.144.768.24.24,0,0,1-.2.115.242.242,0,0,1-.121-.033.238.238,0,0,1-.083-.325,2.366,2.366,0,0,1,1.427-.984,4.267,4.267,0,0,1,3.222.776A.239.239,0,0,1,72.383,47.729Zm-7.076-3.25a.477.477,0,0,1,.606-.288,4.941,4.941,0,0,0,2.214-.019A14.968,14.968,0,0,0,70.821,43.1c1.774-.813,3.6-1.654,4.858-1.569a.477.477,0,0,1-.065.951c-1.006-.07-2.886.792-4.4,1.484A14.918,14.918,0,0,1,68.3,45.109a8.162,8.162,0,0,1-1.455.141,3.879,3.879,0,0,1-1.249-.161A.476.476,0,0,1,65.307,44.479ZM53.794,52.361a1.311,1.311,0,0,1-1.036-.577.566.566,0,1,0-.418-1.025,2.7,2.7,0,0,1-.037-.446c0-1.131.668-2.048,1.491-2.048s1.491.917,1.491,2.048S54.617,52.361,53.794,52.361Zm2.111-4.336a.239.239,0,0,1-.333.045c-.059-.045-1.426-1.04-3.866-.117a.238.238,0,0,1-.168-.446c2.7-1.022,4.259.135,4.324.184A.238.238,0,0,1,55.905,48.025Zm3.511-2.01a4.92,4.92,0,0,1-.493.023,36.574,36.574,0,0,1-8.382-1.684,2.514,2.514,0,0,0-2.532.453.476.476,0,0,1-.673-.673,3.452,3.452,0,0,1,3.516-.681c1.9.655,6.779,1.787,8.467,1.615a.476.476,0,1,1,.1.947Zm2.265,13.5a1.364,1.364,0,0,1-1.041-.494c-1.554-1.769-.727-8.567-.627-9.337a.476.476,0,1,1,.944.122c-.354,2.742-.558,7.5.4,8.586a.413.413,0,0,0,.326.171h0a1.6,1.6,0,0,0,.912-.355.477.477,0,0,1,.558.773,2.521,2.521,0,0,1-1.47.534Zm.386,4.724c0-.992.51-1.8,1.139-1.8s1.139.8,1.139,1.8-.51,1.8-1.139,1.8S62.067,65.232,62.067,64.24Z"/><path class="b" d="M50.412,80.768s6.684,6.1,9.347,6.85L52.3,79.754Z"/><path class="b" d="M79.143,46.49a.476.476,0,0,1-.2-.907,4.394,4.394,0,0,0,2.373-3.723,1.654,1.654,0,0,0-.429-1.385,1.793,1.793,0,0,0-1.461.023.476.476,0,0,1-.374-.876,2.7,2.7,0,0,1,2.37.065,2.39,2.39,0,0,1,.845,2.2,5.349,5.349,0,0,1-2.921,4.556A.477.477,0,0,1,79.143,46.49Z"/><path class="b" d="M62.925,73.5c-5.5,0-9.621-4.066-11.461-6.292-3.579-4.328-6.164-13.815-6.831-16.441a3.106,3.106,0,0,1-3.088.021c-1.769-.962-2.763-3.318-2.473-5.863a3.92,3.92,0,0,1,1.609-3.071,3.727,3.727,0,0,1,2.9-.316c1.154-.024,1.336-.649,1.629-2.03a6.077,6.077,0,0,1,1.053-2.671c.792-.991,2.423-.721,4.488-.38,2.664.44,5.981.988,8.326-1.1,2.092-1.86,4.67-2.454,7.164-3.028,2.6-.6,5.063-1.167,6.359-3.2C74.525,26.1,76,24.764,77.125,25.047c.8.2,1.24,1.112,1.359,2.787.28,3.914,1.217,12.089,1.227,12.172a.563.563,0,0,1,0,.058c0,.189-.042,4.65-.095,5.969-.372,9.259-1.84,20.517-9.963,25.434A12.877,12.877,0,0,1,62.925,73.5ZM44.932,49.507a.5.5,0,0,1,.152.025.477.477,0,0,1,.311.342c.028.119,2.857,11.952,6.8,16.724,2.373,2.869,8.776,9.01,16.965,4.054C75.2,67,78.13,59.394,78.668,46c.049-1.25.089-5.513.093-5.91-.062-.543-.954-8.367-1.227-12.183-.1-1.329-.394-1.869-.643-1.932-.1-.025-1.065-.144-3.489,3.666C71.9,32,69.252,32.612,66.453,33.257c-2.378.547-4.836,1.114-6.745,2.811-2.685,2.387-6.4,1.773-9.115,1.325-1.617-.268-3.145-.52-3.588.035A5.257,5.257,0,0,0,46.14,39.7c-.277,1.3-.592,2.785-2.63,2.785a.48.48,0,0,1-.155-.026,2.846,2.846,0,0,0-2.171.2,3.047,3.047,0,0,0-1.166,2.369A4.9,4.9,0,0,0,42,49.948a2.254,2.254,0,0,0,2.629-.332A.479.479,0,0,1,44.932,49.507Zm34.211-3.493h0Z"/><path class="b" d="M64.366,81.661c-1.539,0-6.188-2.386-8.223-3.471a.479.479,0,0,1-.234-.289c-.751-2.628-2.061-8.3-2.074-8.354a.476.476,0,0,1,.776-.467c3.218,2.788,8.354,5.323,14.552,1.572h0c.28-.169.568-.36.906-.6a.476.476,0,0,1,.75.435l-.557,5.63a.475.475,0,0,1-.12.271c-.723.8-4.388,4.834-5.484,5.233A.871.871,0,0,1,64.366,81.661Zm-7.6-4.216c3.185,1.688,6.935,3.4,7.576,3.275.613-.224,3.246-2.933,4.983-4.854l.442-4.47-.115.071h0c-4.833,2.925-9.964,2.633-14.578-.791C55.5,72.458,56.251,75.594,56.77,77.445ZM69.409,71.06h0Z"/><path class="b" d="M30.015,98.635a.565.565,0,0,1-.071-.005.477.477,0,0,1-.4-.541l.29-1.968.005-.026c.8-3.911,2.176-6.5,4.2-7.91,1.691-1.176,7.3-3.754,11.81-5.826,2.754-1.265,5.6-2.571,6.066-2.9.413-.715,2.505-3.309,3.428-4.444a.476.476,0,0,1,.739.6c-1.527,1.876-3.195,4-3.344,4.319-.124.311-.343.461-6.491,3.286-4.474,2.055-10.043,4.614-11.664,5.741-1.791,1.247-3.074,3.705-3.813,7.308l-.289,1.954A.476.476,0,0,1,30.015,98.635ZM51.861,79.577h0Zm.008-.019-.008.019Z"/><path class="b" d="M94.841,98.28a.476.476,0,0,1-.471-.41c-1.125-8.093-2.53-12.232-3.47-13.408-1.6-2-8.155-3.572-12.492-4.612a26.346,26.346,0,0,1-4.636-1.32c-1.72-.983-4.146-2.013-4.17-2.023a.476.476,0,1,1,.371-.877c.1.043,2.5,1.062,4.272,2.073a29.016,29.016,0,0,0,4.385,1.221c4.73,1.134,11.208,2.687,13.013,4.943,1.32,1.651,2.693,6.836,3.67,13.872a.475.475,0,0,1-.406.537A.487.487,0,0,1,94.841,98.28Z"/><path class="b" d="M68.788,88.427c-.96,0-2.8-1.685-4.335-3.294-.962,1.126-2.952,3.289-4.054,3.289-.321,0-.917,0-4.824-4.25-1.867-2.031-3.617-4.089-3.635-4.109a.476.476,0,0,1,.726-.617c3.211,3.778,6.974,7.794,7.754,8.022.566-.041,2.329-1.753,3.643-3.353a.477.477,0,0,1,.353-.174.484.484,0,0,1,.364.151c1.464,1.569,3.343,3.257,3.917,3.382.655-.618,2.962-5.273,4.877-9.552a.476.476,0,0,1,.869.389c-.011.024-1.088,2.429-2.259,4.834-2.456,5.042-2.91,5.172-3.211,5.258A.647.647,0,0,1,68.788,88.427Zm-.14-.912Z"/><path class="b" d="M58.923,46.038a36.574,36.574,0,0,1-8.382-1.684,2.512,2.512,0,0,0-2.534.455.476.476,0,0,1-.671-.675,3.452,3.452,0,0,1,3.516-.681c1.9.655,6.779,1.787,8.467,1.615a.476.476,0,1,1,.1.947A4.92,4.92,0,0,1,58.923,46.038Z"/><path class="b" d="M66.842,45.25a3.879,3.879,0,0,1-1.249-.161.477.477,0,0,1,.32-.9,4.941,4.941,0,0,0,2.214-.019A14.968,14.968,0,0,0,70.821,43.1c1.774-.813,3.6-1.654,4.858-1.569a.477.477,0,0,1-.065.951c-1.006-.07-2.886.792-4.4,1.484A14.918,14.918,0,0,1,68.3,45.109,8.162,8.162,0,0,1,66.842,45.25Z"/><path class="b" d="M61.683,59.516h0a1.364,1.364,0,0,1-1.041-.494c-1.554-1.769-.727-8.567-.627-9.337a.476.476,0,1,1,.944.122c-.354,2.742-.558,7.5.4,8.586a.413.413,0,0,0,.326.171h0a1.6,1.6,0,0,0,.912-.355.477.477,0,0,1,.558.773A2.521,2.521,0,0,1,61.683,59.516Z"/><ellipse class="b" cx="63.206" cy="64.24" rx="1.139" ry="1.796"/><path class="b" d="M69.409,71.059c-5.859,3.547-11.152,1.81-15.11-1.619h0l.074.32c.388,1.322,2.693,6.309,15.414,6.309l.557-5.63C70.041,70.655,69.732,70.864,69.409,71.059Z"/><path class="b" d="M53.794,48.265c-.823,0-1.491.917-1.491,2.048a2.7,2.7,0,0,0,.037.446.566.566,0,1,1,.418,1.025,1.311,1.311,0,0,0,1.036.577c.823,0,1.491-.917,1.491-2.048S54.617,48.265,53.794,48.265Z"/><path class="b" d="M69.787,47.7c-.823,0-1.491.917-1.491,2.048a2.767,2.767,0,0,0,.074.634.564.564,0,1,1,.522,1,1.248,1.248,0,0,0,.9.413c.823,0,1.491-.917,1.491-2.048S70.61,47.7,69.787,47.7Z"/><path class="b" d="M89.462,124.762a.476.476,0,0,1-.42-.7c.364-.682.98-2.131,1.576-3.532.459-1.081.893-2.1,1.179-2.692a.476.476,0,1,1,.857.415c-.276.57-.7,1.58-1.16,2.649-.6,1.42-1.228,2.889-1.612,3.608A.475.475,0,0,1,89.462,124.762Z"/><path class="b" d="M96.134,110.123a.47.47,0,0,1-.178-.035.476.476,0,0,1-.263-.619c1.5-3.721,3.141-7.873,3.785-9.511-6.178.559-13.4.775-20.85.775-22.882,0-48.012-2.033-52.342-2.4.335,1.51,1.178,5.311,1.521,6.9a.476.476,0,1,1-.931.2c-.43-1.991-1.648-7.471-1.66-7.526a.476.476,0,0,1,.507-.578c.474.042,47.771,4.184,74.436,1.607a.477.477,0,0,1,.489.648c-.022.054-2.155,5.5-4.072,10.24A.475.475,0,0,1,96.134,110.123Z"/><path class="b" d="M37.869,124.762a.476.476,0,0,1-.438-.289l-.242-.57c-.491-1.156-1.4-3.309-1.8-3.976a.476.476,0,1,1,.82-.484c.426.721,1.32,2.829,1.854,4.089l.241.566a.475.475,0,0,1-.438.664Z"/><path class="b" d="M32.056,120.31c-1.425,0-5.257-.648-7.72-7.129-1.793-4.717-.6-9.533,1.086-10.478a1.131,1.131,0,0,1,1.522.329,5.442,5.442,0,0,1,.241,5.654.476.476,0,1,1-.761-.572,4.584,4.584,0,0,0-.232-4.5c-.131-.168-.2-.143-.3-.083-1.057.594-2.4,4.728-.662,9.309,2.375,6.249,5.962,6.563,7,6.512.273-.014.658-.028,1.114-.044a54.853,54.853,0,0,0,6.113-.447,50.581,50.581,0,0,0-6.963-.79.476.476,0,0,1-.072-.941c1.363-.293,6.56-2.462,7.784-3.493a48.565,48.565,0,0,0-8.428,2.178.476.476,0,0,1-.385-.866c.448-.256,1.252-.658,2.27-1.166,2.039-1.019,6.64-3.318,7.438-4.278-1.215-.095-6.031,1.5-10.145,3.176a.476.476,0,0,1-.448-.834l.316-.216a68.031,68.031,0,0,0,6.545-4.827c-1.7.456-5.645,1.963-9.216,3.462a.476.476,0,1,1-.369-.878c.025-.011,2.536-1.063,5.059-2.026,5.47-2.087,5.659-1.759,5.9-1.343.257.45.2.917-2.886,3.221-.518.388-1.063.783-1.6,1.164.483-.174.986-.352,1.492-.524,5.122-1.741,5.916-1.4,6.26-.952a.735.735,0,0,1,.127.622c-.2.842-2.049,2.009-5.6,3.843,2.119-.55,4.009-.887,4.553-.528a.65.65,0,0,1,.3.494c.031.364.087,1.04-3.972,2.873-.851.384-1.729.748-2.507,1.05,5.8.474,5.955,1.151,6.023,1.46a.622.622,0,0,1-.122.525c-.439.568-2.245.809-7.434.993-.45.016-.83.029-1.1.043C32.21,120.308,32.137,120.31,32.056,120.31Zm8.389-6.948Zm.852-3.81Z"/><path class="b" d="M97.431,121.557a12.234,12.234,0,0,1-3.519-.256c-1.014-.36-1.154-1.2-1.154-2.047a.735.735,0,0,1,.24-.54c-.319-.071-.641-.146-.959-.224-4.327-1.06-4.395-1.735-4.432-2.1a.649.649,0,0,1,.2-.54c.468-.453,2.389-.467,4.572-.314-3.824-1.154-5.858-1.963-6.2-2.755a.732.732,0,0,1,.011-.635c.255-.507.976-.983,6.328-.208.529.077,1.057.159,1.563.242-.594-.276-1.2-.565-1.781-.851-3.452-1.7-3.6-2.151-3.428-2.64.158-.453.283-.81,6.042.242,1.8.329,3.608.7,4.59.907-.349-1.7-.463-4.543.415-6.244a1.132,1.132,0,0,1,1.437-.6c1.826.621,3.883,5.138,2.983,10.1-1.212,6.678-4.7,8.46-6.567,8.46h-.34Zm-3.719-2.181c.019.789.22.922.519,1.028a13.445,13.445,0,0,0,3.365.2h.175c1.574,0,4.53-1.617,5.63-7.678.874-4.823-1.2-8.64-2.353-9.031-.116-.039-.186-.052-.284.137-.884,1.712-.567,5.048-.156,6.282a.476.476,0,0,1-.552.616,98.433,98.433,0,0,0-9.695-1.718,68.337,68.337,0,0,0,7.32,3.548l.348.155a.476.476,0,0,1-.289.9c-4.349-.89-9.379-1.583-10.554-1.267.96.8,5.9,2.217,8.094,2.846,1.094.314,1.958.562,2.446.732a.476.476,0,0,1-.221.921,48.559,48.559,0,0,0-8.684-.6,32.9,32.9,0,0,0,7.291,1.9c.411.033.78.076,1.049.111a.476.476,0,0,1,.413.509.468.468,0,0,1-.487.439,8.5,8.5,0,0,1-.88-.093A7.9,7.9,0,0,0,93.712,119.376Z"/><path class="b" d="M64.8,92.351l-.041,0c-.624-.07-3.376-2.99-4.53-4.242a.238.238,0,1,1,.35-.323,30.277,30.277,0,0,0,4.239,4.092h0c.425,0,2.472-2.166,3.835-4.069a.238.238,0,0,1,.388.277C68.525,88.8,65.772,92.351,64.8,92.351Z"/><path class="b" d="M62.041,96.146a.238.238,0,0,1-.066-.466l5.733-1.674a.238.238,0,0,1,.134.457l-5.734,1.674A.257.257,0,0,1,62.041,96.146Z"/><path class="b" d="M61.767,100.194a.238.238,0,0,1-.072-.465l6.658-2.117a.238.238,0,0,1,.144.454l-6.658,2.117A.251.251,0,0,1,61.767,100.194Z"/><path class="b" d="M37.562,89.913a.238.238,0,0,1-.115-.447c1.1-.6,12.178-5.746,12.649-5.965a.238.238,0,0,1,.2.432c-.115.054-11.535,5.356-12.62,5.95A.237.237,0,0,1,37.562,89.913Z"/><path class="b" d="M91.454,93.734a.239.239,0,0,1-.234-.2c-.012-.067-1.206-6.682-1.636-7.689-.293-.686-3.212-1.777-4.983-2.3a.238.238,0,1,1,.136-.456c.49.146,4.808,1.458,5.285,2.573.451,1.056,1.617,7.517,1.667,7.792a.238.238,0,0,1-.192.276A.215.215,0,0,1,91.454,93.734Z"/><path class="b" d="M41.41,46.9a.238.238,0,0,1-.022-.475c1.281-.117,1.661-1.692,1.665-1.708a.238.238,0,0,1,.464.107c-.018.078-.459,1.927-2.086,2.075Z"/><path class="b" d="M43.228,48.548a.881.881,0,0,1-.565-.2c-.648-.522-.565-1.92-.553-2.077a.234.234,0,0,1,.255-.22.239.239,0,0,1,.22.255c-.025.335-.008,1.362.377,1.672a.48.48,0,0,0,.48.054.238.238,0,0,1,.135.457A1.234,1.234,0,0,1,43.228,48.548Z"/><path class="b" d="M55.716,48.118a.237.237,0,0,1-.144-.048c-.059-.045-1.426-1.04-3.866-.117a.238.238,0,0,1-.168-.446c2.7-1.022,4.259.135,4.324.184a.238.238,0,0,1-.146.427Z"/><path class="b" d="M67.86,47.967a.242.242,0,0,1-.121-.033.238.238,0,0,1-.083-.325,2.366,2.366,0,0,1,1.427-.984,4.267,4.267,0,0,1,3.222.776.238.238,0,1,1-.25.4,3.842,3.842,0,0,0-2.846-.722,1.89,1.89,0,0,0-1.144.768A.24.24,0,0,1,67.86,47.967Z"/><path class="b" d="M62.042,89.913a.238.238,0,0,1-.115-.447l5.014-2.739a.238.238,0,0,1,.228.418l-5.014,2.739A.243.243,0,0,1,62.042,89.913Z"/><path class="b" d="M68.842,100.393h0c-2.473-.054-5.057-.128-7.681-.22a.239.239,0,0,1-.224-.289l1.991-9.145a.238.238,0,0,1,.164-.177.24.24,0,0,1,.235.057,6.346,6.346,0,0,0,1.486,1.256c.151-.006.766-.4,2.058-1.853a.239.239,0,0,1,.413.116l1.8,9.974a.239.239,0,0,1-.234.281Zm-7.384-.686c2.421.084,4.806.152,7.1.2L66.9,90.7c-1.577,1.712-2,1.665-2.142,1.65h0c-.177-.02-.482-.174-1.456-1.093Z"/><path class="b" d="M67.58,93.154l-.536-2.974c-.959,1.08-1.905,1.972-2.264,1.932a6.366,6.366,0,0,1-1.624-1.322L62.827,92.3A9.387,9.387,0,0,0,65,93.722,19.468,19.468,0,0,0,67.58,93.154Z"/><path class="b" d="M95.335,100.274a.477.477,0,0,1-.471-.411c-1.051-7.562-2.9-14.068-3.964-15.4-1.6-2-8.155-3.572-12.492-4.612a26.346,26.346,0,0,1-4.636-1.32c-1.72-.983-4.146-2.013-4.17-2.023a.476.476,0,1,1,.371-.877c.1.043,2.5,1.062,4.272,2.073a29.016,29.016,0,0,0,4.385,1.221c4.73,1.134,11.208,2.687,13.013,4.943,1.308,1.635,3.176,8.752,4.164,15.865a.475.475,0,0,1-.406.537A.489.489,0,0,1,95.335,100.274Z"/><path class="b" d="M70.122,86.123a36.211,36.211,0,0,0,5.192-7.54L73.9,78.052S71.6,84.035,70.122,86.123Z"/><path class="b" d="M79.107,25.974c.041-.383.085-.79.131-1.225.756-7.183-1.323-10.774-3.308-10.3,0,0,.945-6.9-4.725-7.277s-13.7-4.536-22.3.662-11.53,12.475-8.695,22.3c1.462,5.068,2.571,9.127,3.3,11.874h0s1.082,5.72,1.649,5.72c.455,0,.405-6.4,1.052-9.95a4.15,4.15,0,0,1,.422-.65c1.512-1.89,8.5,2.363,12.758-1.418S70.354,33.539,73,29.38s4.726-5.481,5.009-1.512c.031.431.07.914.114,1.429.017.367.043.769.081,1.209.391,4.568.939,8.721.939,8.721a58.221,58.221,0,0,0,1.628-8.788A7.364,7.364,0,0,0,79.107,25.974Z"/><path class="b" d="M123.524,124.762H4.476a.476.476,0,1,1,0-.952H123.524a.476.476,0,0,1,0,.952Z"/></svg>