<svg xmlns="http://www.w3.org/2000/svg" viewBox="0 0 128 128"><defs><style>.a{fill:#fff;}.b{fill:#231f20;}</style></defs><path class="a" d="M34.344,103.1a4.753,4.753,0,0,1,.128,2.214H35.65a.477.477,0,1,1,0,.953h-1.8l-.024,0a.283.283,0,0,1-.05,0,.343.343,0,0,1-.044-.009l-.022,0a10.892,10.892,0,0,1-4.4-2.465.465.465,0,0,1-.134-.131,8.719,8.719,0,0,1-1.037-1.238l-1.261.266a32.586,32.586,0,0,0,1.146,10.566c.5,1.692,1.662,5.656,4.317,6.589,1.506.529,3.374.052,5.552-1.413l-1.716-16.375A15.217,15.217,0,0,1,34.344,103.1Z"/><path class="a" d="M67.251,76.9l-5.967-1.434a2.951,2.951,0,0,1-2.744,1.883,2.975,2.975,0,0,1-.606-.062L41.286,73.828A2.956,2.956,0,0,1,38.94,70.8L33.205,69.4l2.129,16.662c1.36-.556,3.388-1.374,5.424-2.151,2.077-.792,3.755-1.388,4.988-1.769,2.269-.7,2.785-.622,3.03-.193.361.632,0,1.531-7.4,6.718,1.055-.392,2.244-.821,3.442-1.229,6.712-2.282,8.076-2.02,8.548-1.4a.842.842,0,0,1,.144.713C53.22,88,50.09,89.835,44.051,92.89q.375-.106.754-.211c6.316-1.746,6.995-1.3,7.322-1.08a.721.721,0,0,1,.334.548c.036.429.11,1.322-5.449,3.832-1.5.677-3.057,1.308-4.317,1.776.911.073,1.987.168,3.063.284,5.838.63,5.977,1.254,6.068,1.667a.688.688,0,0,1-.135.578c-.566.731-3.155,1.063-10.26,1.315-.631.023-1.164.041-1.542.06-.106.006-1.093.009-1.97.009H37.1l1.737,16.584,15.923,2.741Z"/><path class="a" d="M30.511,103.042c2.489.307,5.728-2.2,5.761-2.23.007-.006.015-.009.022-.014a.313.313,0,0,1,.03-.02l.022-.013c.011-.006.022-.01.033-.015l.027-.011.026-.009a.274.274,0,0,1,.037-.008l.03-.006.017,0h.009c.012,0,.023,0,.035,0l.026,0c.187.008,3.078.006,3.256,0,.381-.019.918-.038,1.555-.061,2.221-.078,7.808-.276,9.257-.8-1.3-.518-6.165-1.066-10.441-1.312a.476.476,0,0,1-.073-.941c2.112-.452,10.386-3.967,11.3-5.25-1.277-.212-7.2,1.36-12.3,3.044a.476.476,0,0,1-.386-.866c.623-.356,1.746-.917,3.168-1.628,2.133-1.065,4.788-2.392,6.951-3.629,3.039-1.738,3.59-2.448,3.689-2.666-.244-.085-1.563-.268-7.654,1.819-3.523,1.206-6.9,2.574-6.931,2.587a.476.476,0,0,1-.448-.834l.44-.3c6.7-4.582,8.964-6.473,9.666-7.251-1.773.335-7.263,2.389-12.511,4.561-.012,0-.024.011-.036.015q-.521.215-1.037.432a.476.476,0,0,1-.66-.423c-.1-3-2.436-7.147-5.01-7.711a.62.62,0,0,0-.134-.018,8.115,8.115,0,0,0,.194,2.279,34.311,34.311,0,0,1,.476,7.9,21.5,21.5,0,0,1-.518,2.939c-.277,1.267-.622,2.844-.872,4.759a7.653,7.653,0,0,0,2.262,5.591C30,102.974,30.239,103.008,30.511,103.042Z"/><path class="a" d="M27.065,100.285c-.063.569-.12,1.209-.162,1.905l.959-.2A8.841,8.841,0,0,1,27.065,100.285Z"/><path class="a" d="M59.9,63.607a30.627,30.627,0,0,0,3.325-1.115h0c4.081-1.625,7.893-4.065,9.675-6.143.07-.083.138-.164.2-.246.025-.031.048-.062.072-.093.076-.1.149-.2.215-.3,3-4.458,1.807-11.135,1.688-11.754l-.01-.051a.479.479,0,0,1,.158-.462.5.5,0,0,1,.456-.086l.026.007c.1.038.189.07.281.1l.092.026c.06.018.119.034.177.047.036.009.072.016.107.023.052.011.1.02.155.028q.052.009.1.015c.051.006.1.01.149.013l.1.006q.078,0,.153,0c.027,0,.055,0,.082,0,.055,0,.109-.008.163-.015l.06-.007c.06-.009.117-.02.174-.033l.041-.008a2.639,2.639,0,0,0,1.417-.938,5.917,5.917,0,0,0,.4-6.169c-.508-.774-1.024-1.17-1.533-1.178h-.016a1.828,1.828,0,0,0-1.24.711c-.041.331-.087.67-.138,1.01a2.344,2.344,0,0,1,1.342-.47,1.273,1.273,0,0,1,1.014.607,4.217,4.217,0,0,1-.107,3.908,2.547,2.547,0,0,1-1.922,1.648h-.014a.238.238,0,0,1-.014-.476c.544-.032,1.113-.549,1.522-1.383A3.779,3.779,0,0,0,78.4,37.4a.811.811,0,0,0-.645-.4,2.427,2.427,0,0,0-1.426.666c-.307,1.788-.767,3.435-1.432,3.677a.624.624,0,0,1-.569-.063c-.38-.255-.4-.8-.445-1.872a14.747,14.747,0,0,0-.3-2.8l-5.137,3.9c.292,1.216.253,5.027-.959,6.912-1.036,1.611-3.487,2.366-5.985,2.366a11.838,11.838,0,0,1-3.345-.47c-2.937-.88-4.827-5.454-5.38-6.968a5.028,5.028,0,0,1-1.642.277,5.294,5.294,0,0,1-.914-.081,9.941,9.941,0,0,1-.493,4.749,2.69,2.69,0,0,1-1.585,1.586,9.866,9.866,0,0,1-2.947.454,8.408,8.408,0,0,1-2.111-.261,21.931,21.931,0,0,0,2.551,6.447q.225.381.452.769c2.315,3.949,4.709,8.033,9.121,8.033a18.394,18.394,0,0,0,4.669-.7C59.881,63.616,59.89,63.61,59.9,63.607ZM49.621,53.454c-1.287-.636-1.136-2.245-.844-3.1a.477.477,0,0,1,.9.308c-.005.015-.5,1.508.364,1.934a.476.476,0,0,1-.422.854Zm5.2,4.935c-1.347.2-3.289-.741-4.042-1.084s-1.231-.8-.626-.64A14.29,14.29,0,0,0,53.9,57.2c1.923-.02,5.113-1.229,5.173-.932S56.164,58.19,54.816,58.389Z"/><path class="a" d="M48.479,40.838l.006,0a4.743,4.743,0,0,1,1.054.538,4.283,4.283,0,0,0,3.318-.09c5.53-2.831,11.684-2.118,14.871-1.437l5.537-4.2a3.4,3.4,0,0,0-.692-1.05,12.891,12.891,0,0,0-1.691-1.407A2.915,2.915,0,0,1,69.3,30.081c.088-1.445-.237-3.446-1.442-4.331a3.385,3.385,0,0,0-3.3-.077C60.382,27.262,53.675,28.355,48.809,27c-1.744-.486-2.75-.852-3.485-1.12a4.747,4.747,0,0,0-1.82-.437c-.2,0-.433.014-.714.042-.831.083-1.717,1.946-1.832,3.073a43.465,43.465,0,0,0,.766,8.554,23.243,23.243,0,0,1,7.312,2.318.476.476,0,0,1-.221.9.472.472,0,0,1-.221-.054,23.078,23.078,0,0,0-6.712-2.187c.092.557.179,1.063.254,1.5a20.073,20.073,0,0,1,4.184.559C47.267,40.409,47.962,40.634,48.479,40.838Zm4.779-1.529c.264-.159,6.543-3.861,13.412-2.008a.476.476,0,1,1-.248.92c-6.469-1.746-12.613,1.868-12.674,1.9a.476.476,0,1,1-.49-.816Z"/><path class="a" d="M47.841,47.971a1.682,1.682,0,0,0,.939-.917,8.777,8.777,0,0,0,.468-4.524l-.027-.063a.664.664,0,0,0-.186-.266,5.478,5.478,0,0,1-.97-.5c-.452-.174-1.091-.382-2-.636a18.4,18.4,0,0,0-3.76-.513l.034.192a15.053,15.053,0,0,1,.115,2.057,32.518,32.518,0,0,0,.415,5.2A8.287,8.287,0,0,0,47.841,47.971ZM43.109,42.7a.476.476,0,0,1,.669-.056,3.252,3.252,0,0,0,3.72-.049.476.476,0,1,1,.472.827,4.956,4.956,0,0,1-2.477.715,3.769,3.769,0,0,1-2.33-.766A.476.476,0,0,1,43.109,42.7Z"/><path class="a" d="M53.646,41.96c.485,1.329,2.25,5.684,4.778,6.441,3.2.959,7.135.245,8.256-1.5,1.042-1.621,1.058-5.255.857-6.119C64.544,40.144,58.826,39.468,53.646,41.96Zm11.123.826a.475.475,0,0,1-.2.643,8.6,8.6,0,0,1-4.03,1.066,6.569,6.569,0,0,1-3.765-1.108.476.476,0,0,1,.573-.76c.113.084,2.818,2.04,6.779-.041A.476.476,0,0,1,64.769,42.786Z"/><path class="a" d="M76.72,44.571h0c-.094-.007-.188-.016-.284-.03h0c-.1-.014-.194-.031-.293-.052.266,1.791.683,6.309-1.065,10.157-.02.043-.042.086-.062.129-.115.245-.238.488-.372.726s-.292.5-.455.743c-.073.108-.153.218-.237.328l-.057.075-.04.052c-1.454,2.237-4.252,5.331-9.595,9.269l.48,3.95,13.782-8.687c.239-2.293-.661-11.54-1.231-16.665A3.614,3.614,0,0,1,76.72,44.571Z"/><path class="a" d="M69.629,102.381c2.3-3.017,4.8-7.516,4.036-12.19-1.825-2.576-4.658-6.489-5.16-6.955a8.7,8.7,0,0,0-1.75-1.093l-4.3,15.182c.843.254,2.148.663,2.712.919A36.146,36.146,0,0,1,69.629,102.381Z"/><path class="a" d="M100.784,72.939c-.814-.72-8.322-4.343-14.331-7.154-5.746,6.3-14.147,15.714-14.486,16.629a.238.238,0,1,1-.446-.165C71.979,81.011,83.408,68.421,86,65.574c-.7-.329-1.382-.644-2.024-.941L70.585,76.918a.476.476,0,0,1-.644-.7L83.064,64.178l-4.087-2.114L64.906,70.933l.951,3.251a.477.477,0,0,1-.915.267l-.885-3.026-1.194.657a.476.476,0,1,1-.459-.835l1.432-.788L63,63.614c-.86.324-1.727.61-2.586.85l-1.389,5.658A.476.476,0,1,1,58.1,69.9l.532-2.165-8.268,1.95L59.135,71.5a2.946,2.946,0,0,1,2.347,3.031l6.474,1.556a.476.476,0,0,1,.346.593L67.019,81.21a10.1,10.1,0,0,1,2.134,1.328c.737.684,4.814,6.431,5.339,7.173.4.457,8.536,9.8,12.366,15.477a.476.476,0,0,1-.79.533C82.993,101.165,77.1,94.2,74.753,91.47c.251,5.978-3.958,11.318-6.335,13.839l-.482,2.747A123.353,123.353,0,0,0,78.013,123.81H99.867C101.343,111.346,101.407,75.125,100.784,72.939ZM82.853,95.865a.236.236,0,0,1-.236.217H82.6a.238.238,0,0,1-.216-.258l1.272-14.4a.238.238,0,0,1,.475.042Zm16.891,4.69a.238.238,0,0,1-.238.237h0a.238.238,0,0,1-.237-.239c.04-7.143.118-25.746.009-26.654a19.422,19.422,0,0,0-3.924-2.1.238.238,0,1,1,.194-.435c1.5.666,4.035,1.864,4.188,2.4C99.883,74.282,99.769,96.172,99.744,100.555Z"/><path class="a" d="M66.084,106.585l-.005-.022a.5.5,0,0,1-.007-.122v-.01c0-.032.291-3.14.562-5.7a13.558,13.558,0,0,0-1.864-1.624c-.515-.234-1.8-.636-2.578-.87l-6.638,23.423a.474.474,0,0,1-.457.346.443.443,0,0,1-.081-.007l-8.655-1.49-.221,3.3H59.776l1.236-14.277-.135-1.981a.238.238,0,0,1,.475-.033l.063.93,3.084-7.981a.238.238,0,0,1,.444.172l-3.458,8.949L60.254,123.81H76.8a136.356,136.356,0,0,1-10.68-17.116A.49.49,0,0,1,66.084,106.585ZM58,120.975a1.069,1.069,0,1,1,1.069-1.068A1.068,1.068,0,0,1,58,120.975Z"/><path class="a" d="M67.828,105.917c-.283.283-.519.508-.688.664.1.19.247.465.43.8Z"/><path class="b" d="M55.1,122.01a.443.443,0,0,1-.081-.007l-16.7-2.874a.477.477,0,0,1-.392-.42l-1.831-17.473a.477.477,0,0,1,.948-.1l1.792,17.114,15.923,2.741L67.251,76.9l-6.4-1.539a.476.476,0,1,1,.222-.926l6.885,1.655a.476.476,0,0,1,.346.593L55.554,121.664A.474.474,0,0,1,55.1,122.01Z"/><path class="b" d="M34.94,87.219a.477.477,0,0,1-.472-.416l-2.3-17.965a.475.475,0,0,1,.584-.523l6.816,1.655a.476.476,0,1,1-.224.925L33.205,69.4l2.208,17.278a.477.477,0,0,1-.412.533C34.98,87.217,34.96,87.219,34.94,87.219Z"/><path class="b" d="M59.038,71.967,42.391,68.51a2.478,2.478,0,1,0-1.008,4.852L58.03,76.818a2.477,2.477,0,1,0,1.008-4.851Z"/><path class="b" d="M58.54,77.347a2.975,2.975,0,0,1-.606-.062L41.286,73.828a2.954,2.954,0,0,1,1.2-5.784L59.135,71.5h0a2.954,2.954,0,0,1-.595,5.846ZM41.886,68.935A2,2,0,0,0,41.48,72.9l16.647,3.456a2,2,0,0,0,.814-3.919L42.294,68.976A2.031,2.031,0,0,0,41.886,68.935Z"/><path class="b" d="M55.2,65.271c-4.958,0-7.606-4.518-9.942-8.5q-.227-.387-.451-.766A25.072,25.072,0,0,1,41.5,42.815a14.719,14.719,0,0,0-.1-1.913l-.092-.528c-.475-2.719-1.587-9.088-1.3-11.916.136-1.325,1.15-3.77,2.686-3.923a5.281,5.281,0,0,1,2.954.448c.72.263,1.706.622,3.414,1.1,3.993,1.113,10.223.579,15.151-1.3,1.72-.655,3.136-.588,4.208.2,1.511,1.11,1.936,3.391,1.829,5.156-.083,1.362.238,1.594,1.189,2.283a13.75,13.75,0,0,1,1.8,1.505c1.426,1.425,1.522,3.843,1.586,5.442.005.136.011.281.018.423a25.157,25.157,0,0,0,.793-4.056.481.481,0,0,1,.083-.216,2.874,2.874,0,0,1,2.086-1.2h.031a2.95,2.95,0,0,1,2.314,1.607,6.783,6.783,0,0,1-.458,7.292,3.442,3.442,0,0,1-3.566,1.27c.3,2.047.805,7.656-1.954,11.755C71.526,60.185,61.847,65.271,55.2,65.271ZM43.5,25.441c-.2,0-.433.014-.714.042-.831.083-1.717,1.946-1.832,3.073-.278,2.7.859,9.2,1.287,11.654l.093.531a15.053,15.053,0,0,1,.115,2.057A24.206,24.206,0,0,0,45.63,55.517q.225.381.452.769c2.315,3.949,4.709,8.033,9.121,8.033,6.266,0,15.71-4.929,18.186-8.607l.4.266-.4-.266c3.133-4.655,1.693-11.734,1.678-11.805a.476.476,0,0,1,.64-.541,2.618,2.618,0,0,0,3.253-.747,5.917,5.917,0,0,0,.4-6.169c-.507-.772-1.021-1.168-1.529-1.178a1.842,1.842,0,0,0-1.26.711c-.285,2.3-.805,5.041-1.678,5.359a.624.624,0,0,1-.569-.063c-.38-.255-.4-.8-.445-1.872-.057-1.451-.145-3.644-1.307-4.807a12.891,12.891,0,0,0-1.691-1.407A2.915,2.915,0,0,1,69.3,30.081c.088-1.445-.237-3.446-1.442-4.331a3.385,3.385,0,0,0-3.3-.077C60.382,27.262,53.675,28.355,48.809,27c-1.744-.486-2.75-.852-3.485-1.12A4.747,4.747,0,0,0,43.5,25.441ZM74.526,40.469Z"/><path class="b" d="M45.19,49.331a7.573,7.573,0,0,1-6.739-3.815c-2.486-4.035-2.457-5.241-2.388-5.514a.475.475,0,0,1,.429-.36c.263-.018,6.484-.432,9.828.5,3.122.873,3.51,1.32,3.778,1.952l.027.062a9.583,9.583,0,0,1-.4,5.133,2.69,2.69,0,0,1-1.585,1.586A9.866,9.866,0,0,1,45.19,49.331Zm-8.138-8.767a17.6,17.6,0,0,0,2.21,4.453c2.81,4.558,7.64,3.261,8.579,2.954a1.682,1.682,0,0,0,.939-.917,8.777,8.777,0,0,0,.468-4.524l-.027-.063c-.106-.25-.252-.594-3.157-1.405C43.4,40.318,38.6,40.486,37.052,40.564Z"/><path class="b" d="M61.5,49.784a11.838,11.838,0,0,1-3.345-.47c-3.455-1.035-5.463-7.187-5.547-7.449a.476.476,0,0,1,.236-.568c5.542-2.845,11.715-2.126,14.9-1.444l.169.036a.575.575,0,0,1,.449.361c.372.8.438,5.121-.878,7.168C66.445,49.029,63.994,49.784,61.5,49.784Zm-7.85-7.824c.485,1.329,2.25,5.684,4.778,6.441,3.2.959,7.135.245,8.256-1.5,1.042-1.621,1.058-5.255.857-6.119C64.544,40.144,58.826,39.468,53.646,41.96Zm14.118-1.131.018,0Z"/><path class="b" d="M51.129,42.623a5.747,5.747,0,0,1-3.12-.963.476.476,0,0,1,.558-.772,4.509,4.509,0,0,0,4.292.4.476.476,0,0,1,.4.866A5.058,5.058,0,0,1,51.129,42.623Z"/><path class="b" d="M67.845,40.836a.476.476,0,0,1-.289-.855l8.709-6.607a.476.476,0,0,1,.576.759l-8.709,6.606A.469.469,0,0,1,67.845,40.836Z"/><path class="b" d="M36.525,40.593a.475.475,0,0,1-.363-.784l4.4-5.168a.476.476,0,1,1,.725.617l-4.395,5.168A.476.476,0,0,1,36.525,40.593Z"/><path class="b" d="M40.484,28.507c.12-1.166,1.051-3.377,2.259-3.5,2.04-.2,1.749.292,6.193,1.531s10.858.437,15.448-1.312,5.538,2.477,5.392,4.882,1.021,2.04,3.134,4.153,1.02,6.923,1.821,6.631,1.385-5.1,1.385-5.1,1.395-1.983,3.043-.352c.675-6.649.675-16.748-.493-19.541C76.99,11.893,72.837,5.238,60.484,5.238S45.949,11.966,42.451,15.391a11.677,11.677,0,0,0-3.729,6.849s-.861.292-1.007,4.008,3.085,7.8,3.085,7.8h0A28.431,28.431,0,0,1,40.484,28.507Z"/><path class="b" d="M60.539,44.5a6.569,6.569,0,0,1-3.765-1.108.476.476,0,0,1,.573-.76h0c.113.084,2.818,2.04,6.779-.041a.476.476,0,1,1,.443.843A8.6,8.6,0,0,1,60.539,44.5Z"/><path class="b" d="M45.493,44.136a3.769,3.769,0,0,1-2.33-.766.476.476,0,0,1,.615-.727,3.252,3.252,0,0,0,3.72-.049.476.476,0,1,1,.472.827A4.956,4.956,0,0,1,45.493,44.136Z"/><path class="b" d="M49.831,53.5a.482.482,0,0,1-.21-.049c-1.287-.636-1.136-2.245-.844-3.1a.477.477,0,0,1,.9.308h0c-.005.015-.5,1.508.364,1.934a.476.476,0,0,1-.212.9Z"/><path class="b" d="M50.148,56.665a14.293,14.293,0,0,0,3.757.535c1.922-.02,5.112-1.229,5.172-.932s-2.913,1.922-4.261,2.121-3.289-.741-4.042-1.084S49.543,56.508,50.148,56.665Z"/><path class="b" d="M53.5,40.193a.476.476,0,0,1-.245-.884c.264-.159,6.543-3.861,13.412-2.008a.476.476,0,1,1-.248.92c-6.469-1.746-12.613,1.868-12.674,1.9A.475.475,0,0,1,53.5,40.193Z"/><path class="b" d="M48.815,40.326a.472.472,0,0,1-.221-.054c-.046-.024-4.6-2.39-8.24-2.263a.476.476,0,1,1-.032-.952c3.891-.132,8.519,2.269,8.714,2.371a.476.476,0,0,1-.221.9Z"/><path class="b" d="M64.348,71.2a.476.476,0,0,1-.473-.418l-.946-7.787a.476.476,0,0,1,.3-.5c4.505-1.795,8.685-4.583,10.164-6.78,3.133-4.655,1.693-11.734,1.678-11.805a.476.476,0,0,1,.64-.541,3.021,3.021,0,0,0,1.872.183.477.477,0,0,1,.586.368c0,.013,0,.028.006.041.07.614,1.7,15.075,1.252,17.639a.477.477,0,0,1-.215.322L64.6,71.124A.474.474,0,0,1,64.348,71.2Zm-.43-7.958.812,6.679,13.782-8.687c.239-2.293-.661-11.542-1.231-16.667a3.757,3.757,0,0,1-1.148-.076c.3,2.047.805,7.657-1.954,11.756C72.617,58.565,68.521,61.351,63.918,63.239Z"/><path class="b" d="M76.747,42.687a.238.238,0,0,1-.014-.476c.544-.032,1.113-.549,1.522-1.383A3.779,3.779,0,0,0,78.4,37.4a.811.811,0,0,0-.645-.4c-.8-.035-1.862,1.015-2.207,1.425a.238.238,0,0,1-.364-.306c.056-.068,1.405-1.653,2.595-1.595a1.273,1.273,0,0,1,1.014.607,4.217,4.217,0,0,1-.107,3.908,2.547,2.547,0,0,1-1.922,1.648Z"/><path class="b" d="M62.634,72.141a.476.476,0,0,1-.23-.894l1.432-.788L63,63.6c-.873.33-1.738.616-2.582.853l-1.392,5.67A.476.476,0,1,1,58.1,69.9l1.458-5.94a.226.226,0,0,1,.011-.037.477.477,0,0,1,.327-.311,30.627,30.627,0,0,0,3.325-1.115.475.475,0,0,1,.649.384l.947,7.788a.477.477,0,0,1-.244.475l-1.714.943A.476.476,0,0,1,62.634,72.141Z"/><path class="b" d="M70.263,77.043a.476.476,0,0,1-.322-.827L83.064,64.178l-4.087-2.114L64.906,70.933l.951,3.251a.477.477,0,0,1-.915.267l-1.051-3.6a.477.477,0,0,1,.2-.537l14.606-9.2a.474.474,0,0,1,.472-.02l4.935,2.552a.477.477,0,0,1,.1.774l-13.625,12.5A.475.475,0,0,1,70.263,77.043Z"/><path class="b" d="M75.363,52.34h0a11.681,11.681,0,0,1-1.579,3.637c-1.574,2.338-5.84,5.147-10.383,6.956h0l.408,3.358C76.54,57.041,75.363,52.34,75.363,52.34Z"/><path class="b" d="M77.774,124.752a.473.473,0,0,1-.372-.179C71.749,117.5,66.179,106.8,66.123,106.694a.477.477,0,0,1,.111-.579c.089-.077,8.85-7.8,7.415-16.026a.477.477,0,0,1,.828-.4c.084.1,8.474,9.708,12.381,15.5a.476.476,0,0,1-.79.533C82.993,101.165,77.1,94.2,74.753,91.47c.309,7.362-6.145,13.755-7.613,15.111.976,1.842,5.965,11.089,11.006,17.4a.476.476,0,0,1-.372.774Z"/><path class="b" d="M100.292,124.752a.426.426,0,0,1-.061,0,.477.477,0,0,1-.413-.532c1.524-12.064,1.6-49.067.966-51.277-.946-.837-10.926-5.592-17.1-8.438a.476.476,0,1,1,.4-.865c2.758,1.272,16.559,7.672,17.456,8.718.167.2.4.464.513,7.094.07,4.027.073,9.337.006,14.952-.161,13.577-.647,24.768-1.3,29.935A.476.476,0,0,1,100.292,124.752Zm.529-51.778h0Zm-.051-.079Z"/><path class="b" d="M74.119,90.483a.477.477,0,0,1-.39-.2c-1.821-2.574-4.716-6.575-5.224-7.046A10.363,10.363,0,0,0,66.252,81.9a.476.476,0,1,1,.4-.865,11.517,11.517,0,0,1,2.5,1.5c.744.69,4.884,6.53,5.354,7.194a.475.475,0,0,1-.114.663A.465.465,0,0,1,74.119,90.483Z"/><path class="b" d="M69.675,103.59a.478.478,0,0,1-.344-.146,42.583,42.583,0,0,0-4.561-4.333c-.643-.292-2.489-.845-3.039-1.008A.476.476,0,1,1,62,97.19c.724.214,2.483.745,3.163,1.054.842.383,4.192,3.85,4.854,4.541a.475.475,0,0,1-.343.805Z"/><path class="b" d="M66.546,106.475a27.74,27.74,0,0,0,3.128-3.361l-2.541-2.56C66.852,103.176,66.546,106.475,66.546,106.475Z"/><path class="b" d="M66.546,106.951a.464.464,0,0,1-.217-.053.475.475,0,0,1-.257-.467c0-.033.309-3.332.587-5.928a.477.477,0,0,1,.812-.285l2.541,2.56a.477.477,0,0,1,.035.632,27.871,27.871,0,0,1-3.189,3.424A.475.475,0,0,1,66.546,106.951Zm.955-5.35c-.136,1.321-.269,2.691-.361,3.649.5-.509,1.177-1.226,1.9-2.1Z"/><path class="b" d="M66.546,106.951a.464.464,0,0,1-.217-.053.475.475,0,0,1-.257-.467c0-.033.309-3.332.587-5.928a.477.477,0,0,1,.812-.285l2.541,2.56a.477.477,0,0,1,.035.632,27.871,27.871,0,0,1-3.189,3.424A.475.475,0,0,1,66.546,106.951Zm.955-5.35c-.136,1.321-.269,2.691-.361,3.649.5-.509,1.177-1.226,1.9-2.1Z"/><path class="b" d="M69.675,103.59a.476.476,0,1,1,.336-.813h0a.476.476,0,0,1-.336.812Z"/><path class="b" d="M48.168,70.186a.476.476,0,0,1-.109-.939l11.115-2.623a.476.476,0,0,1,.219.927L48.278,70.174A.522.522,0,0,1,48.168,70.186Z"/><path class="b" d="M82.617,96.082H82.6a.238.238,0,0,1-.216-.258l1.272-14.4a.238.238,0,0,1,.475.042l-1.273,14.4A.236.236,0,0,1,82.617,96.082Z"/><path class="b" d="M30.942,104.02a4.542,4.542,0,0,1-.548-.033c-.347-.043-.644-.087-.908-.133a.476.476,0,1,1,.165-.938c.248.044.529.085.86.126,2.489.307,5.728-2.2,5.761-2.23a.476.476,0,0,1,.588.749C36.724,101.667,33.7,104.02,30.942,104.02Z"/><path class="b" d="M37.919,101.668c-.671,0-1.278,0-1.373-.006a.476.476,0,0,1,.04-.952c.187.008,3.078.006,3.256,0,.381-.019.918-.038,1.555-.061,2.221-.078,7.808-.276,9.257-.8-1.3-.518-6.165-1.066-10.441-1.312a.476.476,0,0,1-.073-.941c2.112-.452,10.386-3.967,11.3-5.25-1.276-.21-7.2,1.36-12.3,3.044a.476.476,0,0,1-.386-.866c.623-.356,1.746-.917,3.168-1.628,2.133-1.065,4.788-2.392,6.951-3.629,3.039-1.738,3.59-2.448,3.689-2.666-.244-.085-1.563-.268-7.654,1.819-3.523,1.206-6.9,2.574-6.931,2.587a.476.476,0,0,1-.448-.834l.44-.3c6.7-4.582,8.964-6.473,9.666-7.251-1.895.358-8.031,2.678-13.584,5.008a.476.476,0,0,1-.66-.423c-.1-3-2.436-7.147-5.01-7.711a.62.62,0,0,0-.134-.018,8.115,8.115,0,0,0,.194,2.279,34.311,34.311,0,0,1,.476,7.9,21.5,21.5,0,0,1-.518,2.939c-.278,1.27-.624,2.851-.874,4.772a.476.476,0,1,1-.944-.123c.255-1.961.606-3.564.887-4.853a20.865,20.865,0,0,0,.5-2.8A33.5,33.5,0,0,0,27.5,81.9c-.265-1.712-.41-2.655.1-3.135a1.036,1.036,0,0,1,.983-.2c2.849.625,5.3,4.671,5.705,7.934,1.158-.479,3.809-1.566,6.469-2.581,2.077-.792,3.755-1.388,4.988-1.769,2.269-.7,2.785-.622,3.03-.193.361.632,0,1.531-7.4,6.718,1.055-.392,2.244-.821,3.442-1.229,6.712-2.282,8.076-2.02,8.548-1.4a.842.842,0,0,1,.144.713C53.22,88,50.09,89.835,44.051,92.89q.375-.106.754-.211c6.316-1.746,6.995-1.3,7.322-1.08a.721.721,0,0,1,.334.548c.036.429.11,1.322-5.449,3.832-1.5.677-3.057,1.308-4.317,1.776.911.073,1.987.168,3.063.284,5.838.63,5.977,1.254,6.068,1.667a.688.688,0,0,1-.135.578c-.566.731-3.155,1.063-10.26,1.315-.631.023-1.164.041-1.542.06C39.783,101.665,38.8,101.668,37.919,101.668ZM51.513,92.2Z"/><path class="b" d="M33.607,121a4.741,4.741,0,0,1-1.582-.264c-2.745-.965-4.025-4.19-4.914-7.219A35.231,35.231,0,0,1,26.59,97.19a.476.476,0,0,1,.938.147c-.017.234-.337,5.652,6,7.852a3.808,3.808,0,0,0-.219-2.16.476.476,0,0,1,.884-.356,4.61,4.61,0,0,1,.1,3.306.477.477,0,0,1-.579.271c-4.194-1.287-5.933-3.89-6.648-5.965a33.993,33.993,0,0,0,.959,12.963c.5,1.692,1.662,5.656,4.317,6.589,1.559.547,3.5.02,5.783-1.568a.476.476,0,0,1,.545.781A9.152,9.152,0,0,1,33.607,121Z"/><path class="b" d="M33.754,102.851a6.528,6.528,0,0,1-3.3.663c-.321-.039-.613-.081-.879-.128a10.434,10.434,0,0,0,4.279,2.409,4.14,4.14,0,0,0-.1-2.944Z"/><path class="b" d="M45.632,124.752H45.6a.476.476,0,0,1-.443-.507l.289-4.321a.476.476,0,1,1,.95.063l-.289,4.321A.477.477,0,0,1,45.632,124.752Z"/><path class="b" d="M59.974,124.524h-.021a.239.239,0,0,1-.217-.258l1.278-14.75a.244.244,0,0,1,.015-.066l3.47-8.981a.238.238,0,0,1,.444.172l-3.458,8.949-1.274,14.717A.239.239,0,0,1,59.974,124.524Z"/><path class="b" d="M71.744,82.57a.238.238,0,0,1-.223-.321c.487-1.317,13.395-15.486,14.865-17.1a.238.238,0,0,1,.352.32c-5.749,6.3-14.426,16.012-14.771,16.942A.239.239,0,0,1,71.744,82.57Z"/><path class="b" d="M61.251,109.773a.239.239,0,0,1-.238-.222l-.136-2a.238.238,0,0,1,.475-.033l.136,2a.238.238,0,0,1-.221.254Z"/><circle class="b" cx="57.996" cy="119.907" r="1.069"/><path class="b" d="M35.65,106.271h-1.8a.477.477,0,0,1,0-.953h1.8a.477.477,0,1,1,0,.953Z"/><path class="b" d="M67.621,108.712a.3.3,0,0,1-.042,0,.238.238,0,0,1-.193-.276l.65-3.7a.238.238,0,1,1,.469.083l-.65,3.7A.238.238,0,0,1,67.621,108.712Z"/><path class="b" d="M26.4,102.777a.238.238,0,0,1-.049-.471l2.081-.439a.238.238,0,1,1,.1.466l-2.082.439A.281.281,0,0,1,26.4,102.777Z"/><path class="b" d="M99.506,100.792h0a.238.238,0,0,1-.237-.239c.04-7.143.118-25.746.009-26.654a19.422,19.422,0,0,0-3.924-2.1.238.238,0,1,1,.194-.435c1.5.666,4.035,1.864,4.188,2.4.148.517.034,22.407.009,26.79A.238.238,0,0,1,99.506,100.792Zm-.224-26.883h0Z"/><path class="b" d="M123.524,124.762H4.476a.476.476,0,1,1,0-.952H123.524a.476.476,0,0,1,0,.952Z"/></svg>