<svg xmlns="http://www.w3.org/2000/svg" viewBox="0 0 128 128"><defs><style>.a{fill:#fff;}.b{fill:#231f20;}</style></defs><path class="a" d="M57.168,65.105c2.343,10.737,3.253,12.186,3.485,12.37a5.491,5.491,0,0,0,3.991.439,2.726,2.726,0,0,0,1.813-1.3,12.293,12.293,0,0,0,.378-3.561q.012-1,.044-1.941c.02-1.517.014-3.446-.029-5.894-1.629,1.128-3.5,2.222-4.541,2.156C61.116,67.294,58.89,66.12,57.168,65.105Z"/><path class="a" d="M45.684,20.232a1.549,1.549,0,0,0-2.19-2.19l-1.166,1.166a.478.478,0,0,1-.674,0l-1.165-1.166a1.549,1.549,0,1,0-2.19,2.19l3.692,3.693Z"/><path class="a" d="M47.671,123.81h1.16c-.214-.361-.433-.707-.658-1.042Z"/><path class="a" d="M45.606,119.454a18.466,18.466,0,0,1-3-5.606,11.761,11.761,0,0,1-4.85-1.4c-.962-.9-4.567-26.357-4.568-37.707a21.927,21.927,0,0,0-1.331,4.626c-1.057,5.947-2.261,20.523-2.273,20.669a.239.239,0,0,1-.238.219h-.019a.238.238,0,0,1-.218-.257c.012-.146,1.218-14.745,2.28-20.714A21.484,21.484,0,0,1,33.2,73.532c.021-.785.064-1.483.134-2.068.081-.692.158-1.5.232-2.39a14.776,14.776,0,0,0-3.116,6.512c-1.855,8.287-4.438,43.55-4.775,48.224H47.143l.72-1.5C47.164,121.323,46.412,120.409,45.606,119.454Z"/><path class="a" d="M77.726,44.993l-1.043-1.044a1.336,1.336,0,1,0-1.89,1.89l3.27,3.269,3.269-3.269a1.336,1.336,0,0,0-1.889-1.89L78.4,44.993a.477.477,0,0,1-.673,0Z"/><path class="a" d="M45.257,37.937c.28,2.932-.365,3.911-.884,4.7a2.719,2.719,0,0,0-.525,1.179c-.284,1.841-.154,3.03.383,3.533a1.64,1.64,0,0,0,1.521.216.475.475,0,0,1,.575.407c.011.086,1.082,8.621,3.727,10.95A19.565,19.565,0,0,0,56.369,62.6c.009,0,.018,0,.028.005a18.132,18.132,0,0,0,4.408.953l.074.006q.3.025.606.039l.15.008c.231.009.462.015.693.015.173,0,.349-.006.527-.016l.082-.007c.158-.01.317-.024.479-.042l.037-.005a14.719,14.719,0,0,0,3.652-.974.485.485,0,0,1,.075-.019c3.825-1.528,7.343-4.35,8.329-6.065a23.21,23.21,0,0,0,1.8-6.8L74.12,46.512a2.288,2.288,0,0,1,3.236-3.236l.677.677.027-.261c.315-3.073.528-10.763-.89-13.6-2.006-4.012-5.012-8.5-7.2-9.489-2.373-1.068-11.168-2.527-16.709-.391C47.957,22.255,44.867,33.841,45.257,37.937ZM54.271,46.6l-.6.6a.24.24,0,0,1-.337,0,.238.238,0,0,1,0-.337l.6-.6a.238.238,0,0,1,.336.337Zm1.164,0-.6.6a.238.238,0,1,1-.336-.337l.6-.6a.238.238,0,0,1,.337.337Zm-.15-6.812a8.945,8.945,0,0,0-3.433,1.171.469.469,0,0,1-.244.068.476.476,0,0,1-.244-.885,9.773,9.773,0,0,1,3.884-1.306,7.927,7.927,0,0,1,3.362.665.476.476,0,1,1-.41.86A7.014,7.014,0,0,0,55.285,39.788ZM70.5,46.6l-.6.6a.238.238,0,0,1-.336-.337l.6-.6a.238.238,0,1,1,.337.337Zm1.163,0-.6.6a.24.24,0,0,1-.337,0,.238.238,0,0,1,0-.337l.6-.6a.238.238,0,0,1,.337.337ZM74.7,40.8a.478.478,0,0,1-.41.232.468.468,0,0,1-.243-.068,8.983,8.983,0,0,0-3.434-1.171,7.006,7.006,0,0,0-2.915.573.476.476,0,0,1-.409-.86,7.879,7.879,0,0,1,3.362-.665,9.779,9.779,0,0,1,3.884,1.306A.477.477,0,0,1,74.7,40.8Zm-8.431-6.814c1.081-.343,6.534-2.037,7.728-1.7a5.358,5.358,0,0,1,2.358,1.879.476.476,0,1,1-.777.551A4.353,4.353,0,0,0,73.74,33.2c-.612-.172-4.134.725-7.183,1.691a.456.456,0,0,1-.144.023.476.476,0,0,1-.144-.93ZM64.381,46.027a1.714,1.714,0,0,0,.693-.837,1.992,1.992,0,0,0-.312-1.177.476.476,0,0,1,.812-.5A2.873,2.873,0,0,1,66,45.42a2.645,2.645,0,0,1-1.114,1.416.476.476,0,1,1-.5-.809ZM62.309,53.6a9.832,9.832,0,0,0,5.028-1.62.476.476,0,1,1,.551.777,10.677,10.677,0,0,1-5.579,1.8,10.538,10.538,0,0,1-5.554-1.8.476.476,0,0,1,.554-.775A9.718,9.718,0,0,0,62.309,53.6ZM47.563,34.4a7.265,7.265,0,0,1,3.408-1.593c1.821-.331,7.422,1.013,8.055,1.167a.476.476,0,1,1-.226.925c-1.664-.406-6.283-1.4-7.659-1.155A6.372,6.372,0,0,0,48.209,35.1a.476.476,0,1,1-.646-.7Z"/><path class="a" d="M81.5,123.81h1.237c-.024-.241-.055-.555-.093-.935Z"/><path class="a" d="M102.234,75.933c-.413-3.963-2.812-7.819-5.313-10.928a13.426,13.426,0,0,0-7.356-1.984,12.07,12.07,0,0,0-5.41.905c-2.849,2.052-4.909,6.9-5.155,10.8-.249,3.954,3.74,44.33,4.212,49.08h17.57C101.01,119.258,102.855,81.9,102.234,75.933ZM84.761,66.356a20.7,20.7,0,0,0-3.083,9.678c.089,2.645.531,10.717.536,10.8a.238.238,0,0,1-.225.251h-.013a.237.237,0,0,1-.237-.225c-.005-.081-.448-8.158-.536-10.808a20.9,20.9,0,0,1,3.167-9.965.238.238,0,1,1,.391.271Z"/><path class="a" d="M81.516,111.336c-1.3,1.2-8.2,4.33-8.808,4.162-.67-.186-.938-.885-2.545-6.778-1.041-3.818-2.7-19-3.243-31.088a3.915,3.915,0,0,1-2.03,1.2,6.576,6.576,0,0,1-1.687.21,6.4,6.4,0,0,1-2.6-.514c.174.566.346,1.26.509,2.059a12.514,12.514,0,0,0,3.5-.139.238.238,0,0,1,.084.469,13.331,13.331,0,0,1-2.367.214c-.39,0-.763-.018-1.117-.05,1.349,7.151,1.859,21.486-4.041,27.948-4.18,4.578-9.875,5.275-14.031,4.876a17.753,17.753,0,0,0,2.791,5.192,53.912,53.912,0,0,1,7.777,3.437.238.238,0,0,1-.251.405,48.622,48.622,0,0,0-6.914-3.108,27.571,27.571,0,0,1,2.835,3.977H80.743l1.841-1.5C82.359,120.028,81.969,116.054,81.516,111.336Zm-16.549,6.753a.237.237,0,0,1-.2.11.24.24,0,0,1-.128-.037,4.091,4.091,0,0,0-4.874-.019.238.238,0,0,1-.308-.363,4.626,4.626,0,0,1,5.438-.02A.238.238,0,0,1,64.967,118.089Z"/><path class="b" d="M62.328,64.574a19.947,19.947,0,0,1-12.9-4.94c-2.553-2.249-3.7-9.137-3.976-11.059a2.273,2.273,0,0,1-1.867-.533c-1.056-.988-.891-2.969-.675-4.374a3.638,3.638,0,0,1,.672-1.558c.481-.73.979-1.485.731-4.083-.421-4.427,2.818-16.472,8.607-18.7,5.873-2.264,14.888-.737,17.442.412,3.314,1.491,6.965,8.534,7.664,9.931,1.676,3.354,1.2,11.993.985,14.123l-.051.5a.476.476,0,1,1-.947-.1l.051-.495c.315-3.073.528-10.763-.89-13.6-2.006-4.012-5.012-8.5-7.2-9.489-2.373-1.068-11.168-2.527-16.709-.391-5.3,2.043-8.391,13.629-8,17.725.28,2.932-.365,3.911-.884,4.7a2.719,2.719,0,0,0-.525,1.179c-.284,1.841-.154,3.03.383,3.533a1.64,1.64,0,0,0,1.521.216.475.475,0,0,1,.575.407c.011.086,1.082,8.621,3.727,10.95a18.973,18.973,0,0,0,12.274,4.7c5.247,0,11.778-4.688,13.181-7.128.666-1.157,1.3-3.59,1.834-7.035a.476.476,0,0,1,.941.146c-.56,3.61-1.216,6.088-1.95,7.364C74.8,59.64,67.989,64.574,62.328,64.574Z"/><path class="b" d="M63.2,79.044a5.79,5.79,0,0,1-3.085-.782c-.365-.245-1.337-.9-4.344-15.112A.477.477,0,0,1,56.4,62.6a17.985,17.985,0,0,0,5.931,1.021,13.207,13.207,0,0,0,4.777-1.044.476.476,0,0,1,.651.432c.3,12.492-.259,13.641-.443,14.018a3.581,3.581,0,0,1-2.423,1.806A6.576,6.576,0,0,1,63.2,79.044ZM56.877,63.759c2.56,11.966,3.535,13.525,3.776,13.716a5.491,5.491,0,0,0,3.991.439,2.726,2.726,0,0,0,1.813-1.3c.189-.387.6-2.425.362-12.907a13.518,13.518,0,0,1-4.491.871A18.834,18.834,0,0,1,56.877,63.759Z"/><path class="b" d="M101.235,124.762h-.025a.475.475,0,0,1-.451-.5c.021-.42,2.133-42.01,1.475-48.329-.69-6.618-6.918-12.94-9.91-15.978-3.654-3.709-12.417-4.749-12.5-4.759a.476.476,0,1,1,.108-.946c.373.042,9.185,1.087,13.075,5.037,3.069,3.115,9.455,9.6,10.179,16.547.666,6.392-1.384,46.761-1.471,48.476A.476.476,0,0,1,101.235,124.762Z"/><path class="b" d="M83.02,124.524a.239.239,0,0,1-.237-.215C82.6,122.458,78.259,78.92,78.525,74.7c.288-4.569,2.926-10.418,6.684-11.9,2.607-1.028,7.494-.8,10.176-.573a.238.238,0,1,1-.04.474c-2.641-.223-7.445-.45-9.961.542-3.472,1.368-6.1,7.045-6.384,11.487-.263,4.181,4.212,49.079,4.257,49.532a.239.239,0,0,1-.213.261Z"/><path class="b" d="M25.163,124.762h-.034a.477.477,0,0,1-.441-.509c.115-1.628,2.838-39.969,4.831-48.874,2.053-9.166,9.267-10.793,9.34-10.809a.476.476,0,0,1,.2.932c-.286.062-6.695,1.547-8.607,10.085-1.978,8.836-4.783,48.335-4.811,48.733A.477.477,0,0,1,25.163,124.762Z"/><path class="b" d="M49.377,124.524a.239.239,0,0,1-.209-.124,29.159,29.159,0,0,0-3.562-4.946c-3.62-4.29-4.7-12.37-4.742-12.712a.238.238,0,0,1,.206-.267.241.241,0,0,1,.267.206c.01.082,1.1,8.284,4.633,12.466a29.57,29.57,0,0,1,3.616,5.024.237.237,0,0,1-.095.323A.234.234,0,0,1,49.377,124.524Z"/><path class="b" d="M66.413,34.911a.476.476,0,0,1-.144-.93c1.081-.343,6.534-2.037,7.728-1.7a5.358,5.358,0,0,1,2.358,1.879.476.476,0,1,1-.777.551A4.353,4.353,0,0,0,73.74,33.2c-.612-.172-4.134.725-7.183,1.691A.456.456,0,0,1,66.413,34.911Z"/><path class="b" d="M47.886,35.223a.476.476,0,0,1-.323-.825,7.265,7.265,0,0,1,3.408-1.593c1.821-.331,7.422,1.013,8.055,1.167a.476.476,0,1,1-.226.925c-1.664-.406-6.283-1.4-7.659-1.155A6.372,6.372,0,0,0,48.209,35.1.471.471,0,0,1,47.886,35.223Z"/><path class="b" d="M64.766,118.2a.24.24,0,0,1-.128-.037,4.091,4.091,0,0,0-4.874-.019.238.238,0,0,1-.308-.363,4.626,4.626,0,0,1,5.438-.02.238.238,0,0,1-.128.439Z"/><path class="b" d="M67.32,64.883c-.012-.623-.025-1.246-.04-1.862A13.819,13.819,0,0,1,62.328,64.1a18.477,18.477,0,0,1-6.088-1.047c.119.563.242,1.139.368,1.72,1.768,1.071,4.374,2.515,5.7,2.6C63.456,67.442,65.6,66.117,67.32,64.883Z"/><path class="b" d="M53.505,47.267a.238.238,0,0,1-.168-.406l.6-.6a.238.238,0,0,1,.336.337l-.6.6A.241.241,0,0,1,53.505,47.267Z"/><path class="b" d="M54.669,47.267a.238.238,0,0,1-.168-.406l.6-.6a.238.238,0,0,1,.337.337l-.6.6A.237.237,0,0,1,54.669,47.267Z"/><path class="b" d="M69.729,47.267a.238.238,0,0,1-.168-.406l.6-.6a.238.238,0,1,1,.337.337l-.6.6A.237.237,0,0,1,69.729,47.267Z"/><path class="b" d="M70.892,47.267a.238.238,0,0,1-.168-.406l.6-.6a.238.238,0,0,1,.337.337l-.6.6A.241.241,0,0,1,70.892,47.267Z"/><path class="b" d="M62.309,54.554a10.538,10.538,0,0,1-5.554-1.8.476.476,0,0,1,.554-.775h0a9.718,9.718,0,0,0,5,1.619,9.832,9.832,0,0,0,5.028-1.62.476.476,0,1,1,.551.777A10.677,10.677,0,0,1,62.309,54.554Z"/><path class="b" d="M64.633,46.908a.476.476,0,0,1-.252-.881,1.714,1.714,0,0,0,.693-.837,1.992,1.992,0,0,0-.312-1.177.476.476,0,0,1,.812-.5A2.873,2.873,0,0,1,66,45.42a2.645,2.645,0,0,1-1.114,1.416A.475.475,0,0,1,64.633,46.908Z"/><path class="b" d="M51.608,41.027a.476.476,0,0,1-.244-.885,9.773,9.773,0,0,1,3.884-1.306,7.927,7.927,0,0,1,3.362.665.476.476,0,1,1-.41.86,7.014,7.014,0,0,0-2.915-.573,8.945,8.945,0,0,0-3.433,1.171A.469.469,0,0,1,51.608,41.027Z"/><path class="b" d="M74.29,41.027a.468.468,0,0,1-.243-.068,8.983,8.983,0,0,0-3.434-1.171,7.006,7.006,0,0,0-2.915.573.476.476,0,0,1-.409-.86,7.879,7.879,0,0,1,3.362-.665,9.779,9.779,0,0,1,3.884,1.306.476.476,0,0,1-.245.885Z"/><path class="b" d="M41.991,25.074h0a.479.479,0,0,1-.337-.139l-4.029-4.03a2.5,2.5,0,0,1,3.537-3.537l.829.829.829-.829a2.5,2.5,0,0,1,3.537,0h0a2.5,2.5,0,0,1,0,3.537l-4.029,4.03A.479.479,0,0,1,41.991,25.074Zm-2.6-7.485A1.548,1.548,0,0,0,38.3,20.232l3.692,3.693,3.693-3.693a1.552,1.552,0,0,0,0-2.19h0a1.55,1.55,0,0,0-2.19,0l-1.166,1.166a.479.479,0,0,1-.337.139h0a.479.479,0,0,1-.337-.139l-1.165-1.166A1.545,1.545,0,0,0,39.394,17.589Z"/><path class="b" d="M78.063,50.258a.476.476,0,0,1-.337-.14L74.12,46.512a2.288,2.288,0,0,1,3.236-3.236l.707.707.706-.707a2.289,2.289,0,0,1,3.236,0h0a2.289,2.289,0,0,1,0,3.236L78.4,50.118A.475.475,0,0,1,78.063,50.258Zm-2.325-6.7a1.336,1.336,0,0,0-.945,2.281l3.27,3.269,3.269-3.269a1.336,1.336,0,0,0-1.889-1.89L78.4,44.993a.475.475,0,0,1-.336.139h0a.476.476,0,0,1-.337-.139l-1.043-1.044A1.33,1.33,0,0,0,75.738,43.558Z"/><path class="b" d="M62.33,81.133a11.127,11.127,0,0,1-5.3-1.225.238.238,0,1,1,.241-.411,11.56,11.56,0,0,0,7.338.953.238.238,0,0,1,.084.469A13.331,13.331,0,0,1,62.33,81.133Z"/><path class="b" d="M29.342,100.253h-.019a.238.238,0,0,1-.218-.257c.012-.146,1.218-14.745,2.28-20.714,1.072-6.034,3.643-8.553,3.752-8.657a.238.238,0,1,1,.33.343c-.026.025-2.571,2.532-3.614,8.4-1.057,5.947-2.261,20.523-2.273,20.669A.239.239,0,0,1,29.342,100.253Z"/><path class="b" d="M53.583,122.976a.237.237,0,0,1-.125-.035,55.643,55.643,0,0,0-7.75-3.416.238.238,0,0,1,.16-.449,54.882,54.882,0,0,1,7.841,3.46.238.238,0,0,1-.126.44Z"/><path class="b" d="M81.976,87.083a.237.237,0,0,1-.237-.225c-.005-.081-.448-8.158-.536-10.808a20.9,20.9,0,0,1,3.167-9.965.238.238,0,1,1,.391.271,20.7,20.7,0,0,0-3.083,9.678c.089,2.645.531,10.717.536,10.8a.238.238,0,0,1-.225.251Z"/><path class="b" d="M47.178,124.524a.235.235,0,0,1-.1-.024.238.238,0,0,1-.112-.318l.96-2a.239.239,0,0,1,.43.207l-.961,1.995A.238.238,0,0,1,47.178,124.524Z"/><path class="b" d="M80.537,124.524a.238.238,0,0,1-.151-.423l2.3-1.876a.238.238,0,1,1,.3.368l-2.3,1.877A.238.238,0,0,1,80.537,124.524Z"/><path class="b" d="M89.815,45.439c-1.76-2.3-4.321-8.042-5.7-11.28-.517-3.456-.986-6.207-1.1-7.293C82.685,23.584,79.27,5.3,62.362,5.738a12.43,12.43,0,0,0-9.878,1.273c-3.393,2.15-7.16,5.888-10.428,11.8l1.1-1.1a2.025,2.025,0,0,1,2.863,2.864l-1.165,1.165L41.991,24.6l-1.875-1.875c-.593,1.337-1.16,2.759-1.694,4.277C34.6,37.848,34.337,62.959,33.333,71.464s3.348,39.978,4.419,40.982,12.389,4.286,19.42-3.415,4.959-26.588,3.212-31.164c-.977-.657-2.807-8.5-4.144-14.816h0a19.816,19.816,0,0,1-6.5-3.775c-2.813-2.477-3.884-11.25-3.884-11.25-3.014.67-2.746-2.544-2.478-4.285s1.808-1.541,1.406-5.759,2.746-16.072,8.3-18.215,14.4-.8,17.076.4,5.893,6.63,7.433,9.71,1.2,11.25.937,13.862c-.015.148-.032.316-.051.495l.624-.623a1.812,1.812,0,0,1,2.563,2.563l-1.044,1.043-2.562,2.563-.25-.25c-.434,2.8-1.054,5.743-1.891,7.2-1.081,1.879-4.732,4.745-8.642,6.289.049,2.017-.649,7.58-.395,13.8.5,12.2,2.213,28,3.278,31.9,1.607,5.893,1.875,6.592,2.545,6.778s9.094-3.683,9.018-4.48c-1.315-13.732-3.136-33.562-2.963-36.3a18.375,18.375,0,0,1,1.952-6.866c.009-.053.015-.1.023-.153q.561-.95,1.1-2.03c2.266-2.436,4.846-2.645,7.728-2.645,5.8,0,8.694,2.914,9.058,3.433C98.623,66.454,95.988,53.542,89.815,45.439Z"/><path class="b" d="M123.524,124.762H4.476a.476.476,0,1,1,0-.952H123.524a.476.476,0,0,1,0,.952Z"/></svg>