<svg xmlns="http://www.w3.org/2000/svg" viewBox="0 0 128 128"><defs><style>.a{fill:#fff;}.b{fill:#231f20;}</style></defs><polygon class="a" points="61.675 88.868 66.736 92.305 66.227 88.045 62.194 84.528 61.675 88.868"/><path class="a" d="M61.37,91.42l5.393,3.557.217-.637-.169-1.409-5.2-3.531Z"/><polygon class="a" points="64.663 69.69 70.13 76.507 76.217 65.341 71.796 63.717 65.709 68.814 64.663 69.69"/><path class="a" d="M64,69l6.811-5.7.3-.247a35.953,35.953,0,0,1-1.649-3.972,10.265,10.265,0,0,1-5.168,1.957c-1.923,0-4.057-1.174-5.637-2.274a36.588,36.588,0,0,1-1.76,4.289l.3.247Z"/><path class="a" d="M70.731,35.33a.415.415,0,1,0,.415.415A.415.415,0,0,0,70.731,35.33Z"/><path class="a" d="M59.174,55.559a16.393,16.393,0,0,0,9.724.2.441.441,0,0,1,.07-.016,6.876,6.876,0,0,0,2.958-1.817c3.21-3.589,5.551-10.3,5.574-10.372a.476.476,0,0,1,.614-.292c.176.064.712.259,1.434-.771,1.991-2.845,2.5-10.133,1.948-10.9a.663.663,0,0,0-.52-.043,2.137,2.137,0,0,0-.958,1.017.477.477,0,0,1-.9-.138c-1.71-12.363-5.08-13.125-8.985-12.831a41.123,41.123,0,0,1-6.722-.487c-4.355-.521-9.774-1.169-11.13.332-2.227,2.465-3.38,12.868-3.391,12.973a.476.476,0,0,1-.905.149,2.142,2.142,0,0,0-.958-1.015.665.665,0,0,0-.529.048c-.58.674-.366,7.07,1.362,9.717.7,1.072,1.265.867,1.477.789a.468.468,0,0,1,.163-.029.476.476,0,0,1,.446.307c.035.094,3.58,9.358,7.385,12.236a6.987,6.987,0,0,0,1.745.916A.511.511,0,0,1,59.174,55.559Zm9.8-9.139c-.956,1.111-2.58,3.24-4.972,3.24-2.51,0-3.868-2.259-4.555-3.4a.493.493,0,0,1,.634-.7,10.231,10.231,0,0,0,8.342.08A.493.493,0,0,1,68.972,46.42Zm2.49-9.07a2.378,2.378,0,0,1-2.047-2.607,2.379,2.379,0,0,1,2.047-2.608,1.874,1.874,0,0,1,1.5.84h0a.582.582,0,0,0,0,1.163.572.572,0,0,0,.441-.215,3.223,3.223,0,0,1,.1.821A2.378,2.378,0,0,1,71.462,37.35Zm-4.584-6.627a7.969,7.969,0,0,1,9.137-.022.476.476,0,0,1-.264.873.471.471,0,0,1-.262-.08,6.9,6.9,0,0,0-8.024-.021.476.476,0,0,1-.587-.75ZM62.65,40.77a.476.476,0,0,1,.671.027,1.536,1.536,0,0,0,.954.446,1.4,1.4,0,0,0,1-.466.476.476,0,1,1,.659.687A2.337,2.337,0,0,1,64.3,42.2h-.066a2.5,2.5,0,0,1-1.616-.751A.476.476,0,0,1,62.65,40.77Zm-10.4-9.2a.476.476,0,0,1-.264-.873,7.966,7.966,0,0,1,9.137.022.476.476,0,1,1-.588.749,6.9,6.9,0,0,0-8.023.022A.471.471,0,0,1,52.249,31.574Zm4.289,5.776a2.378,2.378,0,0,1-2.046-2.607,2.379,2.379,0,0,1,2.046-2.608,1.873,1.873,0,0,1,1.5.84h0a.582.582,0,0,0,0,1.163.574.574,0,0,0,.442-.215,3.268,3.268,0,0,1,.105.821A2.378,2.378,0,0,1,56.538,37.35Z"/><path class="a" d="M55.807,35.33a.415.415,0,1,0,.416.415A.415.415,0,0,0,55.807,35.33Z"/><path class="a" d="M71.586,77.046a1.536,1.536,0,0,1-.483-.333l-.479.878a.474.474,0,0,1-.376.246l-.042,0a.478.478,0,0,1-.372-.178l-1.283-1.6C67.2,77.454,66.273,78.382,65.624,79L67.3,92.988c1.027-4.4,2-8.2,2.478-9.022,1.12-1.935,11.1-14.1,13.243-16.71-1.49-.451-2.969-.873-4.351-1.237C77.39,68.123,71.879,77.158,71.586,77.046Z"/><path class="a" d="M61.656,73.308l4.821,3.506c.245-.247.5-.5.75-.76l-4.745-3.776Z"/><path class="a" d="M92.892,101.618l-.016.026c-.033.052-.063.1-.092.153-.015.027-.031.053-.044.079s-.034.066-.05.1-.039.078-.055.116c-.009.02-.017.04-.025.061-.019.045-.037.09-.051.134a.388.388,0,0,0-.014.045c-.015.045-.028.09-.038.132-.005.02-.008.039-.011.059a1.042,1.042,0,0,0-.019.1,1.187,1.187,0,0,0-.011.154c0,.052,0,.112,0,.171a66.576,66.576,0,0,0,1.328,9.323.305.305,0,0,1,.005.041,12.737,12.737,0,0,0,1.071,3.392c.287-1.069.186-4.72-.1-7.876a.477.477,0,0,1,.3-.487.484.484,0,0,1,.174-.033.474.474,0,0,1,.376.184,75.2,75.2,0,0,0,6.034,6.758.411.411,0,0,1,.03.029,14.672,14.672,0,0,0,4.628,3.36,1.42,1.42,0,0,0,.254.061c-.022-1.147-3.7-6.274-7.239-10.544a.476.476,0,0,1,.639-.7c7.9,5.494,15.316,7.306,16.992,7.162-.029-.024-.061-.051-.1-.079-2.708-2.093-13.8-9.373-13.908-9.446a.476.476,0,0,1,.427-.845c.062.023,6.293,2.314,10.682,2.68,2.767.23,4.094-.057,4.407-.269a2.7,2.7,0,0,0-.9-.579c-2.572-1.225-11.422-4.15-11.512-4.18a.476.476,0,0,1,.163-.928,8.692,8.692,0,0,0,5.125-1.63,4.815,4.815,0,0,0,1.172-3.491,25.808,25.808,0,0,0-4.79.685c-.948.185-1.844.359-2.468.447C98.025,97.006,94.115,99.726,92.892,101.618Zm3.2,1.283c3.105-.757,3.529-2.479,3.533-2.5a.238.238,0,0,1,.465.1,3.817,3.817,0,0,1-2.366,2.34,2.21,2.21,0,0,1,.512,1.838.238.238,0,0,1-.233.188.218.218,0,0,1-.05,0,.238.238,0,0,1-.183-.282,1.7,1.7,0,0,0-.524-1.541,8.774,8.774,0,0,1-1.041.319.22.22,0,0,1-.056.007.238.238,0,0,1-.057-.469Z"/><polygon class="a" points="66.142 87.34 65.939 85.639 62.44 82.472 62.263 83.956 66.142 87.34"/><path class="a" d="M62.807,79.407l-.3,2.485,3.343,3.027-.66-5.512c-.911.835-1.061.836-1.193.836S63.718,80.242,62.807,79.407Z"/><path class="a" d="M60.05,75.311C61.664,76.978,63.4,78.7,64,79.2c.375-.311,1.188-1.1,2.137-2.045L61.358,73.68Z"/><path class="a" d="M67.95,75.311l-3-3.735-1.875-.044-.3.374,4.781,3.806C67.691,75.578,67.821,75.445,67.95,75.311Z"/><path class="a" d="M61.306,91.948l-.288,2.406.005.021c1.08,3.2,2.886,8.5,2.977,8.452s1.526-4.232,2.6-7.385Z"/><path class="a" d="M32.93,107.344a.477.477,0,0,1,.3.487,36.488,36.488,0,0,0-.1,7.872,12.906,12.906,0,0,0,1.074-3.409l0-.02a66.576,66.576,0,0,0,1.328-9.323c0-.059,0-.119,0-.171a1.187,1.187,0,0,0-.011-.154,1.042,1.042,0,0,0-.019-.1c0-.02-.006-.039-.011-.059-.01-.042-.023-.087-.038-.132a.388.388,0,0,0-.014-.045c-.014-.044-.032-.089-.051-.134-.008-.021-.016-.041-.025-.061-.016-.038-.036-.077-.055-.116s-.032-.065-.05-.1-.029-.052-.044-.079c-.029-.05-.059-.1-.092-.153l-.016-.026c-1.223-1.892-5.133-4.612-12.371-5.627-.624-.088-1.52-.262-2.468-.447a25.83,25.83,0,0,0-4.79-.685,4.815,4.815,0,0,0,1.172,3.491,8.646,8.646,0,0,0,5.125,1.63h.013a.476.476,0,0,1,.15.928c-.09.03-8.94,2.955-11.511,4.18a2.7,2.7,0,0,0-.9.579c.313.211,1.64.5,4.407.269,4.391-.366,10.62-2.657,10.682-2.68a.476.476,0,0,1,.427.845c-.112.073-11.2,7.353-13.908,9.446-.037.028-.069.055-.1.079,1.679.149,9.089-1.668,16.992-7.162a.48.48,0,0,1,.272-.085.476.476,0,0,1,.367.78c-3.539,4.27-7.217,9.4-7.239,10.544a1.42,1.42,0,0,0,.254-.061A14.629,14.629,0,0,0,26.3,114.3a.3.3,0,0,1,.031-.031A75.222,75.222,0,0,0,32.38,107.5.476.476,0,0,1,32.93,107.344Zm-.846-4.156a.239.239,0,0,1-.232.182.22.22,0,0,1-.056-.007,8.774,8.774,0,0,1-1.041-.319,1.7,1.7,0,0,0-.524,1.541.239.239,0,0,1-.184.282.283.283,0,0,1-.05,0,.238.238,0,0,1-.232-.188,2.21,2.21,0,0,1,.512-1.838,3.817,3.817,0,0,1-2.366-2.34.238.238,0,0,1,.465-.1c.007.028.438,1.741,3.533,2.5A.238.238,0,0,1,32.084,103.188Z"/><polygon class="a" points="72.247 95.998 78.441 95.998 75.509 91.567 72.247 95.998"/><path class="a" d="M60.544,94.421c-1.125-4.911-2.232-9.354-2.732-10.216C56.7,82.287,46.289,69.6,44.488,67.406,38.705,69.175,32.9,71.3,32.149,71.9,30.787,72.991,28.3,87.005,27,95.882A21.746,21.746,0,0,1,32.967,98.4c.666.344,5.516,2.868,6.533,4.066.414.487.524,1.555-1.806,5.781-1.113,2.021-2.338,3.942-2.58,4.319-.45,1.994-.983,3.62-1.56,4.082a.718.718,0,0,1-.824.111c-.409-.219-.833-.8-.7-4.9.03-.924.083-1.84.133-2.573a70.623,70.623,0,0,1-4.867,5.371c1.821,2.379,4.961,5.8,6.39,5.755,1.551-.045,6.884-4.054,10.2-6.828,0-7.829.009-12.047.04-12.57.021-.359-.223-2.838-2.093-15.4a.476.476,0,1,1,.942-.14c2.164,14.536,2.117,15.334,2.1,15.6-.041.689-.05,8.552-.027,22.74H63.762V115.2a1.756,1.756,0,0,1,0-3.479v-2.482L60.544,94.421ZM41.828,69.847c-3.818,1.391-8.04,3.093-8.343,3.507a49.746,49.746,0,0,0-1.853,6.955.238.238,0,0,1-.465-.1c.143-.655,1.413-6.42,1.932-7.134s7.227-3.185,8.565-3.673a.238.238,0,1,1,.164.447ZM54.915,88.632a1.757,1.757,0,1,1,1.757-1.757A1.757,1.757,0,0,1,54.915,88.632Z"/><polygon class="a" points="75.811 91.16 79.012 95.998 80.321 95.998 76.41 90.37 75.811 91.16"/><path class="a" d="M84.991,113.847c3.161,2.613,8.438,6.519,10.016,6.565h.027c1.43,0,4.15-3.381,5.692-5.734a70.414,70.414,0,0,1-4.888-5.392c.05.733.1,1.649.133,2.573.132,4.1-.292,4.679-.7,4.9a.718.718,0,0,1-.824-.111c-.577-.462-1.11-2.088-1.56-4.082-.242-.377-1.467-2.3-2.58-4.319-2.33-4.226-2.22-5.294-1.806-5.781,1.017-1.2,5.867-3.722,6.533-4.066A21.746,21.746,0,0,1,101,95.882c-1.3-8.877-3.791-22.891-5.153-23.979-.754-.6-6.556-2.728-12.339-4.5-1.8,2.19-12.214,14.881-13.324,16.8-.5.863-1.607,5.309-2.733,10.222l-.2.93a.232.232,0,0,1-.019.215.225.225,0,0,1-.037.043l-2.959,13.62v2.482a1.756,1.756,0,0,1,0,3.479v8.614H83.805c-.3-10.456-.636-21.893-.686-22.74-.015-.262-.062-1.061,2.105-15.618a.476.476,0,0,1,.942.141c-1.873,12.58-2.117,15.062-2.1,15.421.035.59.2,5.977.4,12.777A.477.477,0,0,1,84.991,113.847ZM81.9,96.474H69.533a.238.238,0,0,1,0-.476h2.123l3.672-4.988h0l.9-1.187a.246.246,0,0,1,.2-.095.239.239,0,0,1,.19.1L80.9,96h1a.238.238,0,0,1,0,.476Zm4.959-25.86a.238.238,0,0,1,.3-.16c1.168.352,7.023,2.156,7.493,3.155.454.965,2.509,9.719,2.6,10.091a.238.238,0,0,1-.178.286.248.248,0,0,1-.054.006.239.239,0,0,1-.232-.184c-.735-3.135-2.217-9.26-2.563-10-.278-.591-4.378-2.053-7.2-2.9A.237.237,0,0,1,86.858,70.614Z"/><polygon class="a" points="63.337 69.69 62.291 68.814 56.204 63.717 51.783 65.341 57.87 76.507 63.337 69.69"/><path class="a" d="M60.7,92.988,62.376,79c-.649-.62-1.579-1.548-2.927-2.942l-1.283,1.6a.478.478,0,0,1-.372.178l-.042,0a.474.474,0,0,1-.376-.246l-.462-.848a1.467,1.467,0,0,1-.451.3c-.294.112-5.824-8.955-7.089-11.038-1.394.366-2.888.793-4.393,1.248,2.147,2.611,12.123,14.775,13.243,16.71C58.7,84.791,59.675,88.584,60.7,92.988Z"/><path class="b" d="M58.038,34.137a.582.582,0,0,1,0-1.163h0a1.873,1.873,0,0,0-1.5-.84,2.379,2.379,0,0,0-2.046,2.608,2.378,2.378,0,0,0,2.046,2.607,2.378,2.378,0,0,0,2.047-2.607,3.268,3.268,0,0,0-.105-.821A.575.575,0,0,1,58.038,34.137ZM55.807,36.16a.415.415,0,1,1,.416-.415A.415.415,0,0,1,55.807,36.16Z"/><path class="b" d="M101.536,96.712a.476.476,0,0,1-.47-.408c-1.282-8.847-3.831-23.3-5.215-24.4-1.061-.847-12.127-4.716-19.062-6.355a.476.476,0,0,1,.219-.927c6.421,1.517,18.047,5.427,19.437,6.537,2.089,1.668,5,21.126,5.563,25.01a.475.475,0,0,1-.4.539A.4.4,0,0,1,101.536,96.712Z"/><path class="b" d="M106.626,118.657a2,2,0,0,1-.607-.109c-3.139-1.012-8.093-6.722-10.181-9.262.05.733.1,1.649.133,2.573.132,4.1-.292,4.679-.7,4.9a.718.718,0,0,1-.824-.111c-1.644-1.315-2.933-12.077-2.933-13.866,0-2.348,4.328-6.429,13.617-7.732h0c.6-.084,1.483-.257,2.419-.439,4.113-.8,5.366-.944,5.743-.334.7,1.137-.347,3.974-1.329,4.8a8.059,8.059,0,0,1-3.531,1.62c2.814.953,7.689,2.644,9.55,3.53.416.2,1.681.8,1.445,1.674-.313,1.161-3.134,1.175-5.445.983a39.833,39.833,0,0,1-7.519-1.608c3.522,2.334,9.115,6.076,10.979,7.516.848.655.688,1.142.518,1.375-.783,1.068-5.134-.294-6.448-.737a48.217,48.217,0,0,1-9.578-4.545c.646.825,1.391,1.794,2.117,2.782,4.059,5.531,3.572,6.25,3.31,6.636A.827.827,0,0,1,106.626,118.657ZM95.244,107.311a.474.474,0,0,1,.376.184c.07.089,6.995,8.954,10.692,10.147a1.42,1.42,0,0,0,.254.061c-.022-1.147-3.7-6.274-7.239-10.544a.476.476,0,0,1,.639-.7c7.9,5.494,15.316,7.306,16.992,7.162-.029-.024-.061-.051-.1-.079-2.708-2.093-13.8-9.373-13.908-9.446a.476.476,0,0,1,.427-.845c.062.023,6.293,2.314,10.682,2.68,2.767.23,4.094-.057,4.407-.269a2.7,2.7,0,0,0-.9-.579c-2.572-1.225-11.422-4.15-11.512-4.18a.476.476,0,0,1,.163-.928,8.692,8.692,0,0,0,5.125-1.63,4.815,4.815,0,0,0,1.172-3.491,25.808,25.808,0,0,0-4.79.685c-.948.185-1.844.359-2.468.447h0c-8.933,1.253-12.8,5.1-12.8,6.789,0,2.365,1.32,11.283,2.407,12.927.287-1.069.186-4.72-.1-7.876a.477.477,0,0,1,.3-.487A.484.484,0,0,1,95.244,107.311Zm-.2,8.592h0Z"/><path class="b" d="M96.148,103.37a.238.238,0,0,1-.057-.469c3.105-.757,3.529-2.479,3.533-2.5a.238.238,0,0,1,.465.1c-.017.082-.466,2.024-3.885,2.857A.22.22,0,0,1,96.148,103.37Z"/><path class="b" d="M98,104.872a.218.218,0,0,1-.05,0,.238.238,0,0,1-.183-.282,1.686,1.686,0,0,0-.621-1.623.238.238,0,0,1,.286-.38,2.164,2.164,0,0,1,.8,2.1A.238.238,0,0,1,98,104.872Z"/><path class="b" d="M84.3,124.762a.476.476,0,0,1-.476-.463c-.3-10.584-.649-22.368-.7-23.229-.015-.262-.062-1.061,2.105-15.618a.476.476,0,0,1,.942.141c-1.873,12.58-2.117,15.062-2.1,15.421.051.875.389,12.312.7,23.258a.477.477,0,0,1-.462.49Z"/><path class="b" d="M95.027,121.365H94.98c-2.41-.071-9.765-6.1-10.6-6.783a.476.476,0,1,1,.607-.734c3.161,2.613,8.438,6.519,10.016,6.565,1.479.042,4.427-3.693,5.93-6.059a.476.476,0,1,1,.8.51C101.316,115.532,97.541,121.365,95.027,121.365Z"/><path class="b" d="M88.863,102.772c1-1.177,6.415-3.964,6.415-3.964h0c-2.2,1.4-3.288,2.9-3.288,3.972a64.653,64.653,0,0,0,1.342,9.6h0S87.863,103.949,88.863,102.772Z"/><path class="b" d="M93.332,112.853a.475.475,0,0,1-.4-.217c-.014-.021-1.391-2.147-2.627-4.391-2.33-4.226-2.22-5.294-1.806-5.781,1.03-1.214,6-3.79,6.56-4.079a.476.476,0,0,1,.473.825c-2.264,1.436-3.067,2.82-3.067,3.57a64.138,64.138,0,0,0,1.331,9.494.476.476,0,0,1-.465.579Zm-4.1-9.781c-.253.556,1.108,3.478,3.141,6.869a58.507,58.507,0,0,1-.86-7.161,3.167,3.167,0,0,1,.573-1.674A14.922,14.922,0,0,0,89.232,103.072Z"/><path class="b" d="M64.439,57.365c-3.055,0-6.062-.758-7.686-1.986-3.608-2.729-6.818-10.428-7.55-12.271-.734.082-1.781-.248-2.652-2.228-1.347-3.06-1.868-9.413-.517-10.115a1.626,1.626,0,0,1,1.3-.115,2.119,2.119,0,0,1,.753.469c.383-2.893,1.513-10.131,3.485-12.314,1.686-1.866,6.9-1.242,11.95-.638a40.816,40.816,0,0,0,6.537.483c4.917-.373,8.132,1.589,9.831,12.492a2.144,2.144,0,0,1,.778-.492,1.626,1.626,0,0,1,1.3.115c1.429.742.425,7.9-.933,10.985-.935,2.124-1.962,2.6-2.776,2.516-.565,1.539-2.71,7.042-5.621,10.3C70.867,56.539,67.627,57.364,64.439,57.365ZM49.5,42.076a.476.476,0,0,1,.446.307c.035.094,3.58,9.358,7.385,12.236,2.988,2.261,11.493,2.779,14.6-.692,3.208-3.586,5.551-10.3,5.574-10.373a.477.477,0,0,1,.614-.291c.176.064.712.259,1.434-.771,1.991-2.845,2.5-10.133,1.948-10.9a.663.663,0,0,0-.52-.043,2.137,2.137,0,0,0-.958,1.017.477.477,0,0,1-.9-.138c-1.71-12.363-5.08-13.125-8.985-12.831a41.123,41.123,0,0,1-6.722-.487c-4.355-.521-9.774-1.169-11.13.332-2.227,2.465-3.38,12.868-3.391,12.973a.476.476,0,0,1-.905.149,2.142,2.142,0,0,0-.958-1.015.665.665,0,0,0-.529.048c-.58.674-.366,7.07,1.362,9.717.7,1.072,1.265.867,1.477.789A.468.468,0,0,1,49.5,42.076ZM46.5,31.589Z"/><path class="b" d="M70.206,77.839a.478.478,0,0,1-.372-.178l-6.206-7.739a.477.477,0,0,1,.066-.663l7.7-6.449a.475.475,0,0,1,.47-.082l5.2,1.91a.477.477,0,0,1,.254.675L70.624,77.591a.474.474,0,0,1-.376.246ZM64.663,69.69l5.467,6.817,6.087-11.166L71.8,63.717Z"/><path class="b" d="M75.751,31.574a.471.471,0,0,1-.262-.08,6.9,6.9,0,0,0-8.024-.021.476.476,0,0,1-.587-.75,7.969,7.969,0,0,1,9.137-.022.476.476,0,0,1-.264.873Z"/><path class="b" d="M52.249,31.574a.476.476,0,0,1-.264-.873,7.966,7.966,0,0,1,9.137.022.476.476,0,1,1-.588.749,6.9,6.9,0,0,0-8.023.022A.471.471,0,0,1,52.249,31.574Z"/><path class="b" d="M68.421,45.636a10.231,10.231,0,0,1-8.342-.08.493.493,0,0,0-.634.7c.687,1.144,2.045,3.4,4.555,3.4,2.392,0,4.016-2.129,4.972-3.24A.493.493,0,0,0,68.421,45.636Z"/><path class="b" d="M64,70.1a.477.477,0,0,1-.306-.111l-7.7-6.449a.476.476,0,0,1-.119-.582,38.733,38.733,0,0,0,2.68-7.08.477.477,0,0,1,.62-.319,16.393,16.393,0,0,0,9.724.2.474.474,0,0,1,.606.321,38.42,38.42,0,0,0,2.622,6.877.476.476,0,0,1-.119.582l-7.7,6.449A.477.477,0,0,1,64,70.1Zm-7.107-7.048L64,69l7.107-5.951a39.4,39.4,0,0,1-2.383-6.244,17.742,17.742,0,0,1-9.39-.191A39.739,39.739,0,0,1,56.893,63.052Z"/><path class="b" d="M64.3,42.2h-.066a2.5,2.5,0,0,1-1.616-.751.476.476,0,0,1,.7-.646,1.536,1.536,0,0,0,.954.446,1.4,1.4,0,0,0,1-.466.476.476,0,1,1,.659.687A2.337,2.337,0,0,1,64.3,42.2Z"/><path class="b" d="M48.413,32.365s1.156-10.633,3.511-13.24,13.712.336,18.17,0,7.8.993,9.493,13.24c0,0,.864-1.851,2.159-1.178a.757.757,0,0,1,.285.484c1.733-6.285,2.38-14.327-1.17-19.584-5.832-8.636-18.73-7.4-24.834-5.384s-6.346,5.272-6.346,5.272-4.6-1.01-5.72,3.589,2.293,15.623,2.293,15.623C47.549,30.514,48.413,32.365,48.413,32.365Z"/><path class="b" d="M64,109.447a.261.261,0,0,1-.048-.005.238.238,0,0,1-.185-.281c.194-.941,4.77-23.055,6.009-25.2C71.005,81.842,82.9,67.4,83.409,66.781a.238.238,0,0,1,.368.3c-.124.15-12.379,15.031-13.589,17.121-1.2,2.073-5.907,24.822-5.955,25.052A.238.238,0,0,1,64,109.447Z"/><path class="b" d="M26.464,96.712a.4.4,0,0,1-.069-.005.475.475,0,0,1-.4-.539c.562-3.884,3.474-23.342,5.563-25.01,1.39-1.11,13.016-5.02,19.437-6.537a.476.476,0,0,1,.219.927c-6.935,1.639-18,5.508-19.062,6.355-1.384,1.1-3.933,15.554-5.215,24.4A.476.476,0,0,1,26.464,96.712Z"/><path class="b" d="M21.374,118.657a.827.827,0,0,1-.735-.353c-.262-.386-.749-1.105,3.31-6.636.726-.988,1.471-1.957,2.117-2.782a48.217,48.217,0,0,1-9.578,4.545c-1.314.443-5.664,1.805-6.448.737-.17-.233-.33-.72.518-1.375,1.864-1.44,7.457-5.182,10.979-7.516a39.833,39.833,0,0,1-7.519,1.608c-2.312.192-5.132.178-5.445-.983-.236-.874,1.029-1.476,1.445-1.674,1.861-.886,6.736-2.577,9.55-3.53a8.059,8.059,0,0,1-3.531-1.62c-.982-.829-2.032-3.666-1.329-4.8.377-.61,1.63-.468,5.743.334.936.182,1.819.355,2.419.439h0c9.289,1.3,13.617,5.384,13.617,7.732,0,1.789-1.289,12.551-2.933,13.866a.718.718,0,0,1-.824.111c-.409-.219-.833-.8-.7-4.9.03-.924.083-1.84.133-2.573-2.088,2.54-7.042,8.25-10.181,9.262A2,2,0,0,1,21.374,118.657Zm6.932-12.278a.476.476,0,0,1,.367.78c-3.539,4.27-7.217,9.4-7.239,10.544a1.42,1.42,0,0,0,.254-.061c3.7-1.193,10.622-10.058,10.692-10.147a.476.476,0,0,1,.85.336,36.488,36.488,0,0,0-.1,7.872c1.093-1.672,2.408-10.563,2.408-12.923,0-1.687-3.864-5.536-12.8-6.789-.624-.088-1.52-.262-2.468-.447a25.83,25.83,0,0,0-4.79-.685,4.815,4.815,0,0,0,1.172,3.491,8.646,8.646,0,0,0,5.125,1.63h.013a.476.476,0,0,1,.15.928c-.09.03-8.94,2.955-11.511,4.18a2.7,2.7,0,0,0-.9.579c.313.211,1.64.5,4.407.269,4.389-.366,10.62-2.657,10.682-2.68a.476.476,0,0,1,.427.845c-.112.073-11.2,7.353-13.908,9.446-.037.028-.069.055-.1.079,1.679.149,9.089-1.668,16.992-7.162A.48.48,0,0,1,28.306,106.379Z"/><path class="b" d="M31.852,103.37a.22.22,0,0,1-.056-.007c-3.419-.833-3.868-2.775-3.885-2.857a.238.238,0,0,1,.465-.1c.007.028.438,1.741,3.533,2.5a.238.238,0,0,1-.057.469Z"/><path class="b" d="M30,104.872a.238.238,0,0,1-.232-.188,2.164,2.164,0,0,1,.8-2.1.238.238,0,0,1,.286.38,1.687,1.687,0,0,0-.621,1.623.239.239,0,0,1-.184.282A.283.283,0,0,1,30,104.872Z"/><path class="b" d="M44.378,124.762a.477.477,0,0,1-.476-.475c-.024-14.717-.015-22.547.028-23.273.021-.359-.223-2.838-2.093-15.4a.476.476,0,1,1,.942-.14c2.164,14.536,2.117,15.334,2.1,15.6-.041.7-.05,8.724-.027,23.215a.476.476,0,0,1-.475.477Z"/><path class="b" d="M33.666,121.365c-2.5,0-6.892-5.807-7.387-6.473a.476.476,0,0,1,.764-.568c1.769,2.377,5.145,6.139,6.642,6.088,1.578-.046,7.069-4.193,10.375-6.97a.476.476,0,0,1,.612.73c-.868.729-8.548,7.121-10.959,7.192Z"/><path class="b" d="M39.137,102.772c-1-1.177-6.415-3.964-6.415-3.964h0c2.2,1.4,3.288,2.9,3.288,3.972a64.653,64.653,0,0,1-1.342,9.6h0S40.137,103.949,39.137,102.772Z"/><path class="b" d="M34.668,112.853a.476.476,0,0,1-.465-.579,64.138,64.138,0,0,0,1.331-9.494c0-.75-.8-2.134-3.067-3.57a.476.476,0,0,1,.473-.825c.563.289,5.53,2.865,6.56,4.079.414.487.524,1.555-1.806,5.781-1.236,2.244-2.613,4.37-2.627,4.391A.475.475,0,0,1,34.668,112.853Zm1.246-11.747a3.167,3.167,0,0,1,.573,1.674,58.507,58.507,0,0,1-.86,7.161c2.033-3.391,3.394-6.313,3.141-6.869A14.922,14.922,0,0,0,35.914,101.106Zm2.86,1.974h0Z"/><path class="b" d="M57.794,77.839l-.042,0a.474.474,0,0,1-.376-.246L50.683,65.313a.477.477,0,0,1,.254-.675l5.2-1.91a.475.475,0,0,1,.47.082l7.7,6.449a.477.477,0,0,1,.066.663l-6.206,7.739A.478.478,0,0,1,57.794,77.839Zm-6.011-12.5L57.87,76.507l5.467-6.817L56.2,63.717Z"/><path class="b" d="M64,124.524a.238.238,0,0,1-.238-.238V109.233c-.178-.857-4.766-22.985-5.95-25.028-1.21-2.09-13.465-16.971-13.589-17.121a.238.238,0,0,1,.368-.3C45.1,67.4,57,81.842,58.224,83.966c1.239,2.14,5.815,24.254,6.009,25.2a.252.252,0,0,1,0,.048v15.077A.238.238,0,0,1,64,124.524Z"/><path class="b" d="M64,80.243c-.232,0-.52,0-4.927-4.572a.476.476,0,0,1,.686-.661c1.692,1.756,3.6,3.66,4.241,4.19.639-.53,2.549-2.434,4.241-4.19a.476.476,0,0,1,.686.661C64.52,80.243,64.232,80.243,64,80.243Z"/><path class="b" d="M64,109.447a.239.239,0,0,1-.233-.188L60.544,94.421a.232.232,0,0,1,0-.079l1.886-15.758a.238.238,0,0,1,.473.056L61.018,94.359,64,108.087l2.982-13.728L65.1,78.64a.238.238,0,0,1,.208-.264.235.235,0,0,1,.265.208L67.46,94.342a.232.232,0,0,1,0,.079l-3.223,14.838A.239.239,0,0,1,64,109.447Z"/><path class="b" d="M66.164,85.761a.238.238,0,0,1-.159-.062L62.1,82.162a.238.238,0,1,1,.319-.353l3.906,3.537a.238.238,0,0,1-.16.415Z"/><path class="b" d="M66.452,88.164a.234.234,0,0,1-.156-.059l-4.441-3.873a.238.238,0,0,1,.313-.359l4.441,3.873a.238.238,0,0,1-.157.418Z"/><path class="b" d="M67.035,93.033a.237.237,0,0,1-.134-.041L61.287,89.18a.238.238,0,0,1,.268-.394L67.168,92.6a.238.238,0,0,1-.133.435Z"/><path class="b" d="M67.035,95.679a.233.233,0,0,1-.131-.039l-5.919-3.9a.238.238,0,1,1,.262-.4l5.919,3.9a.238.238,0,0,1-.131.436Z"/><path class="b" d="M66.7,77.506a.234.234,0,0,1-.139-.046l-5.576-4.054a.238.238,0,0,1,.28-.385l5.576,4.054a.239.239,0,0,1-.141.431Z"/><path class="b" d="M67.768,76.419a.237.237,0,0,1-.148-.052l-5.51-4.385a.238.238,0,0,1,.3-.373l5.509,4.385a.238.238,0,0,1-.148.425Z"/><path class="b" d="M72.962,34.137a.582.582,0,0,1,0-1.163h0a1.874,1.874,0,0,0-1.5-.84,2.379,2.379,0,0,0-2.047,2.608,2.107,2.107,0,1,0,4.093,0,3.268,3.268,0,0,0-.1-.821A.572.572,0,0,1,72.962,34.137ZM70.731,36.16a.415.415,0,1,1,.415-.415A.415.415,0,0,1,70.731,36.16Z"/><path class="b" d="M58.248,58.475c1.606,1.172,3.95,2.562,6.042,2.562,1.9,0,4-1.143,5.575-2.231-.311-.893-.583-1.768-.819-2.594a16.855,16.855,0,0,1-10.033-.205C58.793,56.791,58.538,57.623,58.248,58.475Z"/><path class="b" d="M81.9,96.474H69.533a.238.238,0,0,1,0-.476H81.9a.238.238,0,0,1,0,.476Z"/><path class="b" d="M78.884,96.474H71.776a.239.239,0,0,1-.192-.379l3.744-5.085a.226.226,0,0,1,.2-.1.238.238,0,0,1,.192.107l3.365,5.085a.238.238,0,0,1-.2.369ZM72.247,96h6.194l-2.932-4.431Z"/><path class="b" d="M80.777,96.474H78.884a.236.236,0,0,1-.2-.107l-3.365-5.084a.237.237,0,0,1,.009-.275l.9-1.187a.246.246,0,0,1,.2-.095.239.239,0,0,1,.19.1L80.972,96.1a.238.238,0,0,1-.195.374ZM79.012,96h1.309L76.41,90.37l-.6.79Z"/><circle class="b" cx="64" cy="113.456" r="1.757"/><circle class="b" cx="54.915" cy="86.875" r="1.757"/><path class="b" d="M31.4,80.5a.239.239,0,0,1-.233-.289c.143-.655,1.413-6.42,1.932-7.134s7.227-3.185,8.565-3.673a.238.238,0,1,1,.164.447c-3.818,1.391-8.04,3.093-8.343,3.507a49.746,49.746,0,0,0-1.853,6.955A.238.238,0,0,1,31.4,80.5Z"/><path class="b" d="M97.012,83.992a.239.239,0,0,1-.232-.184c-.735-3.135-2.217-9.26-2.563-10-.278-.591-4.378-2.053-7.2-2.9a.238.238,0,0,1,.138-.456c1.168.352,7.023,2.156,7.493,3.155.454.965,2.509,9.719,2.6,10.091a.238.238,0,0,1-.178.286A.248.248,0,0,1,97.012,83.992Z"/><polygon class="b" points="64 69.624 62.481 71.518 65.577 71.59 64 69.624"/><path class="b" d="M49.116,65.584s7.015,11.589,7.347,11.462a2.252,2.252,0,0,0,.79-.676L51.2,65.085Z"/><path class="b" d="M78.932,65.584s-7.015,11.589-7.346,11.462a2.252,2.252,0,0,1-.79-.676l6.057-11.285Z"/><path class="b" d="M60.227,92.009S63.87,102.894,64,102.827s3.773-10.818,3.773-10.818-1.011,4.353-1.239,5.409-2.4,12.424-2.534,11.791S60.227,92.009,60.227,92.009Z"/><path class="b" d="M123.524,124.762H4.476a.476.476,0,1,1,0-.952H123.524a.476.476,0,0,1,0,.952Z"/></svg>