<svg xmlns="http://www.w3.org/2000/svg" viewBox="0 0 128 128"><defs><style>.a{fill:#fff;}.b{fill:#231f20;}</style></defs><path class="a" d="M84.034,120.027c3.4-.372,3.916-.777,3.994-.893.319-.517.384-3.472-.124-7.929-.523-4.6-1.242-7.116-1.608-7.5a49.046,49.046,0,0,0-7.049-.1h-.018a.285.285,0,0,1-.029,0,.223.223,0,0,1-.036,0l-.025,0a.429.429,0,0,1-.071-.016l-.017-.006a.413.413,0,0,1-.068-.03l-.017-.009c-.019-.012-.038-.025-.056-.039l-.02-.018a.426.426,0,0,1-.042-.043l-.021-.027a.44.44,0,0,1-.03-.045l-.018-.036c-.007-.015-.013-.031-.019-.047s-.008-.027-.012-.041a.417.417,0,0,1-.009-.051.185.185,0,0,1,0-.023.176.176,0,0,1,0-.023c0-.008,0-.016,0-.024.047-2.378-.3-4.129-.975-4.93a1.814,1.814,0,0,0-2-.794,1.866,1.866,0,0,0-.914,1.977,23.979,23.979,0,0,1-.855,6c0,.016-.01.03-.015.045l-.007.024a.484.484,0,0,1-.036.072l0,.006a.5.5,0,0,1-.056.072l-.009.009a.463.463,0,0,1-.058.05l-.007.006c-1.121.787-2.272,1.7-3.287,2.5a14.007,14.007,0,0,1-2.611,1.87,4.5,4.5,0,0,1-1.088.072c-.748,0-1.913-.035-3.653-.1a50.06,50.06,0,0,1,.738,8.422,15.392,15.392,0,0,0,.146,3.092c3.351-.4,7.406-.639,11.336-.868C78.621,120.462,81.686,120.284,84.034,120.027Z"/><path class="a" d="M58.482,61.435a16.862,16.862,0,0,0,2.288.524l.124.02c.1.015.206.029.309.042s.213.027.321.039l.226.025c.194.018.388.035.585.048l.684.042.055,0c7.154.416,11.971.034,13.886-2.886.921-1.405,2.63-10.574,3.21-13.988a.477.477,0,0,1,.823-.24c.268.3.462.264.631.185.953-.444,2.027-3.094,1.765-4.979a2.049,2.049,0,0,0-.21-.769,2.723,2.723,0,0,0-.7.854.476.476,0,0,1-.89-.279c.439-4.386-.942-9.81-1.531-12.127l-.006-.023c-.134-.527-.286-1.256-.461-2.1-.552-2.654-1.385-6.666-2.5-7.986-.978-1.158-10.221-1.044-15.743-.975-2.511.031-4.68.059-6.095,0a3.727,3.727,0,0,0-2.949.918c-1.351,1.368-1.2,4.146-1.1,6.175l.014.277A13.21,13.21,0,0,1,49.425,32c-.519.726-.811,3.617-1,5.53-.261,2.582-.351,3.159-.709,3.4a.616.616,0,0,1-.585.063c-.5-.2-.676-.977-1.063-2.859-.119-.58-.242-1.179-.384-1.771a2.305,2.305,0,0,0-2.408-1.5c-1.23.116-1.987,1.253-2.077,3.12a7.973,7.973,0,0,0,4,7.717,2.071,2.071,0,0,0,2.067.019.468.468,0,0,1,.262-.079.473.473,0,0,1,.464.372c.141.627.232,1.2.329,1.817a41.962,41.962,0,0,0,1.368,6.025c.748,2.545,3.841,6.061,8.772,7.573C58.462,61.432,58.472,61.432,58.482,61.435Zm-12.7-18.346a.239.239,0,0,1-.23.177.225.225,0,0,1-.062-.008.238.238,0,0,1-.169-.291,1.9,1.9,0,0,0-.14-1.729,1.549,1.549,0,0,0-1.184-.44.238.238,0,0,1-.038-.474,2.016,2.016,0,0,1,1.587.61A2.328,2.328,0,0,1,45.778,43.089Zm29.565-3.562a2.09,2.09,0,0,1-1.832,1.237,2.542,2.542,0,0,1,0-5.016,2.19,2.19,0,0,1,2.015,1.706,1.059,1.059,0,0,0-.183,2.073Zm-5.592-6.484c1.557-.137,6.715-.537,7.744.063A9.214,9.214,0,0,1,79.4,34.665a.476.476,0,1,1-.7.641,8.341,8.341,0,0,0-1.682-1.377c-.523-.306-4.135-.205-7.18.063a.476.476,0,0,1-.084-.949Zm-.65,9.34a.476.476,0,0,1,.662.119c.063.092,1.541,2.26.321,4.066a.476.476,0,0,1-.789-.533c.853-1.263-.3-2.973-.315-2.99A.476.476,0,0,1,69.1,42.383Zm2.889,9.971a.476.476,0,0,1,.3.905,21.557,21.557,0,0,1-6.079.952c-2.512,0-5.257-.575-7.09-2.614a.476.476,0,1,1,.708-.637C63.523,55.074,71.906,52.382,71.99,52.354ZM53.808,35.706a.476.476,0,0,1-.289-.854,25.743,25.743,0,0,1,2.7-1.792c1.318-.73,6.661-.175,7.719-.056a.476.476,0,1,1-.106.946c-2.333-.261-6.337-.508-7.151-.057A25.65,25.65,0,0,0,54.1,35.608.467.467,0,0,1,53.808,35.706Zm2.406,2.55a2.342,2.342,0,0,1,2.128-2.508,2.19,2.19,0,0,1,2.016,1.712,1.044,1.044,0,0,0-.179-.018,1.065,1.065,0,0,0-.028,2.129,2.08,2.08,0,0,1-1.809,1.193A2.342,2.342,0,0,1,56.214,38.256Z"/><path class="a" d="M72,69.934c.046,1.426-.216,4.928-3.677,6.423a.244.244,0,0,1-.095.019.238.238,0,0,1-.094-.456c3.355-1.449,3.452-4.959,3.384-6.139q-.644-.2-1.264-.4a6.211,6.211,0,0,1-12.362-.065C51.162,70.645,35,74.384,32.8,77.461c-1.27,1.777-2.079,10.285-1.925,20.231.169,10.869,1.382,19.519,3.167,22.573,1,1.714,4.985,3.569,18.27,2.672h.008a90.154,90.154,0,0,1,11.163.792,19.249,19.249,0,0,1-.54-5.366,51.254,51.254,0,0,0-.757-8.395c-.579-.022-1.209-.048-1.9-.076-4.487-.182-10.121-.411-14.145-.379h-.009a32.109,32.109,0,0,0-4.154.222.476.476,0,1,1-.149-.94,30.389,30.389,0,0,1,3.876-.228c.4-4.213.5-11.776.383-17.263a.476.476,0,1,1,.952-.02c.117,5.472.021,13-.378,17.275,4.018-.01,9.364.207,13.663.381,3.529.144,6.863.279,7.287.187a20.678,20.678,0,0,0,2.3-1.708c.981-.778,2.086-1.652,3.18-2.429a23.055,23.055,0,0,0,.8-5.544,2.781,2.781,0,0,1,1.5-2.933,2.7,2.7,0,0,1,3.093,1.061c.793.939,1.2,2.635,1.2,5.043.723-.043,1.466-.059,2.184-.058-.166-5.011-.521-11.187-.524-11.251a.238.238,0,1,1,.475-.027c0,.064.359,6.261.526,11.281,2.168.024,3.991.186,4.1.2.429.04.68.445.831.746,1.258,2.514,2.62,14.4,1.554,16.131-.69,1.121-4.419,1.445-13.408,1.968-2.811.164-5.687.331-8.316.56a3.968,3.968,0,0,1-1.152,1.648H83.821l-.331-1.7a.238.238,0,1,1,.467-.091l.349,1.793H97.142c.059-16.447-3.358-44.391-4.282-45.754C91.852,76.614,80.587,72.66,72,69.934ZM38.27,77.147c-1,.195-3.659.9-4.036,1.816-.39.947-.729,5.634-.853,7.98a.238.238,0,0,1-.238.226H33.13a.239.239,0,0,1-.225-.251c.015-.28.371-6.879.889-8.136.541-1.314,3.993-2.026,4.385-2.1a.238.238,0,0,1,.091.468ZM56.042,90.575l-2.054,2.836a.6.6,0,0,1-.973,0L50.96,90.575a.6.6,0,0,1-.039-.643l.385-.7a.6.6,0,0,1,.526-.31H55.17a.6.6,0,0,1,.526.31l.385.7A.6.6,0,0,1,56.042,90.575Zm5.7-13.424c-5.149,0-6.177-5.513-6.187-5.569a.238.238,0,0,1,.469-.083c.037.212.972,5.176,5.718,5.176a.238.238,0,0,1,0,.476Zm32.63,24.136h-.007a.239.239,0,0,1-.238-.232c-.071-2.608-2.326-18.576-2.349-18.737a.238.238,0,0,1,.472-.067c.093.659,2.281,16.157,2.353,18.791A.238.238,0,0,1,94.375,101.287Z"/><path class="a" d="M63.609,63.162l-.56-.031-.134-.008-.641-.039c-.26-.017-.516-.041-.771-.069-.094-.01-.188-.022-.282-.033q-.229-.028-.456-.063c-.125-.019-.251-.038-.375-.059-.055-.009-.109-.021-.164-.031-.473-.085-.944-.185-1.407-.308v6.227a5.259,5.259,0,0,0,10.517,0V63.231a55.228,55.228,0,0,1-5.681-.066Z"/><path class="b" d="M67.371,63.275c-1.544,0-3.242-.073-5.1-.191-6.938-.445-12.316-4.905-13.507-8.96a42.815,42.815,0,0,1-1.4-6.145c-.066-.419-.126-.8-.2-1.187a3.014,3.014,0,0,1-2.445-.258,8.9,8.9,0,0,1-4.484-8.595c.169-3.491,2.292-3.961,2.938-4.022a3.266,3.266,0,0,1,3.424,2.221c.146.608.271,1.215.391,1.8.087.423.184.894.279,1.3.07-.54.138-1.209.2-1.8.289-2.865.56-5.125,1.176-5.989a12.191,12.191,0,0,0,1.625-7.161l-.014-.276c-.116-2.206-.276-5.227,1.371-6.894a4.663,4.663,0,0,1,3.664-1.2c1.39.055,3.548.029,6.045,0,8.909-.111,15.306-.082,16.483,1.312,1.27,1.5,2.1,5.494,2.7,8.407.173.833.323,1.552.452,2.059l.006.023a43.818,43.818,0,0,1,1.64,11.014,1,1,0,0,1,.744-.185c.684.128.877.973.964,1.6.309,2.235-.876,5.305-2.306,5.973a1.372,1.372,0,0,1-1.042.07c-.5,2.836-2.158,12-3.229,13.631h0C76.027,62.452,72.577,63.275,67.371,63.275ZM47.52,45.642a.473.473,0,0,1,.464.372c.141.627.232,1.2.329,1.817a41.962,41.962,0,0,0,1.368,6.025c.928,3.16,5.467,7.817,12.654,8.277,7.561.485,12.645.178,14.625-2.841h0c.921-1.405,2.63-10.574,3.21-13.988a.477.477,0,0,1,.823-.24c.268.3.462.264.631.185.953-.444,2.027-3.094,1.765-4.979a2.049,2.049,0,0,0-.21-.769,2.723,2.723,0,0,0-.7.854.476.476,0,0,1-.89-.279c.439-4.386-.942-9.81-1.531-12.127l-.006-.023c-.134-.527-.286-1.256-.461-2.1-.552-2.654-1.385-6.666-2.5-7.986-.978-1.158-10.221-1.044-15.743-.975-2.511.031-4.68.059-6.095,0a3.727,3.727,0,0,0-2.949.918c-1.351,1.368-1.2,4.146-1.1,6.175l.014.277A13.21,13.21,0,0,1,49.425,32c-.519.726-.811,3.617-1,5.53-.261,2.582-.351,3.159-.709,3.4a.616.616,0,0,1-.585.063c-.5-.2-.676-.977-1.063-2.859-.119-.58-.242-1.179-.384-1.771a2.305,2.305,0,0,0-2.408-1.5c-1.23.116-1.987,1.253-2.077,3.12a7.973,7.973,0,0,0,4,7.717,2.071,2.071,0,0,0,2.067.019A.468.468,0,0,1,47.52,45.642ZM77.358,59.553h0ZM47.085,40.234Z"/><path class="b" d="M46.142,36.25c.53,2.2.815,4.608,1.3,4.281s.57-7.381,1.59-8.808a12.7,12.7,0,0,0,1.713-7.462c-.164-3.181-.571-8.074,4.526-7.87S75.91,15.7,77.459,17.533s2.488,8.033,3.058,10.276,2,7.829,1.55,12.314c0,0,.856-1.539,1.412-1h0C86.5,23.424,80.354,17.3,80.354,17.3s4.35-.434.762-7.72S60.455,5.992,54.691,7.732s-6.089,5.22-6.089,5.22c-2.12-.979-4.458,4.621-4.73,12.777a46.782,46.782,0,0,0,.5,8.8A2.6,2.6,0,0,1,46.142,36.25Z"/><path class="b" d="M79.05,35.462a.477.477,0,0,1-.353-.156,8.341,8.341,0,0,0-1.682-1.377c-.523-.306-4.135-.205-7.18.063a.476.476,0,0,1-.084-.949c1.557-.137,6.715-.537,7.744.063A9.214,9.214,0,0,1,79.4,34.665a.477.477,0,0,1-.352.8Z"/><path class="b" d="M53.808,35.706a.476.476,0,0,1-.289-.854,25.743,25.743,0,0,1,2.7-1.792c1.318-.73,6.661-.175,7.719-.056a.476.476,0,1,1-.106.946c-2.333-.261-6.337-.508-7.151-.057A25.723,25.723,0,0,0,54.1,35.608.467.467,0,0,1,53.808,35.706Z"/><path class="b" d="M69.689,46.778a.477.477,0,0,1-.394-.743c.853-1.263-.3-2.973-.315-2.99a.476.476,0,0,1,.783-.543c.063.092,1.541,2.26.321,4.066A.476.476,0,0,1,69.689,46.778Z"/><path class="b" d="M66.208,54.211c-2.512,0-5.257-.575-7.09-2.614a.476.476,0,1,1,.708-.637c3.692,4.109,12.08,1.421,12.164,1.394a.476.476,0,0,1,.3.905A21.557,21.557,0,0,1,66.208,54.211Z"/><path class="b" d="M64.078,74.959a6.218,6.218,0,0,1-6.211-6.211V61.89a.475.475,0,0,1,.615-.455,16.928,16.928,0,0,0,3.853.7h0a57.562,57.562,0,0,0,7.445.118.476.476,0,0,1,.509.475v6.022A6.218,6.218,0,0,1,64.078,74.959ZM58.819,62.521v6.227a5.259,5.259,0,0,0,10.517,0V63.231a62.69,62.69,0,0,1-7.062-.147A17.9,17.9,0,0,1,58.819,62.521Z"/><path class="b" d="M46.094,124.119c-7.242,0-11.563-1.129-12.875-3.374-2.225-3.81-3.162-14.4-3.3-23.039-.135-8.7.462-18.5,2.1-20.8,2.941-4.118,25.28-8.445,26.229-8.627a.476.476,0,1,1,.18.935C52.069,70.437,35.058,74.3,32.8,77.461c-1.27,1.777-2.079,10.285-1.925,20.231.169,10.869,1.382,19.519,3.167,22.573,1,1.714,4.985,3.569,18.27,2.672a.47.47,0,0,1,.508.443.477.477,0,0,1-.443.507Q48.938,124.12,46.094,124.119Z"/><path class="b" d="M66.809,110.106c-1.1,0-3.1-.076-6.522-.215-6.478-.263-15.349-.623-18.308-.157a.476.476,0,1,1-.149-.94c3.051-.482,11.978-.12,18.5.145,3.529.144,6.863.279,7.287.187a20.678,20.678,0,0,0,2.3-1.708c1.026-.813,2.188-1.735,3.332-2.539a.476.476,0,0,1,.547.78c-1.121.787-2.272,1.7-3.287,2.5a14.007,14.007,0,0,1-2.611,1.87A4.5,4.5,0,0,1,66.809,110.106Z"/><path class="b" d="M63.636,122.524a.476.476,0,0,1-.059-.948c3.436-.438,7.687-.685,11.8-.925,3.245-.189,6.31-.367,8.658-.624,3.4-.372,3.916-.777,3.994-.893.319-.517.384-3.472-.124-7.929-.523-4.6-1.242-7.116-1.608-7.5a49.046,49.046,0,0,0-7.049-.1.476.476,0,0,1-.075-.95,50.546,50.546,0,0,1,7.282.106c.429.04.68.445.831.746,1.258,2.514,2.62,14.4,1.554,16.131-.69,1.121-4.419,1.445-13.408,1.968-4.095.238-8.33.485-11.734.919A.608.608,0,0,1,63.636,122.524Z"/><path class="b" d="M64.119,124.762a.426.426,0,0,1-.061,0c-.082-.011-8.275-1.047-11.689-.871a.476.476,0,0,1-.049-.951,90.154,90.154,0,0,1,11.163.792,19.249,19.249,0,0,1-.54-5.366,55.457,55.457,0,0,0-.819-8.776.477.477,0,0,1,.94-.158,55.064,55.064,0,0,1,.83,9,19.343,19.343,0,0,0,.682,5.725.476.476,0,0,1-.457.61Z"/><path class="b" d="M46.138,109.512a.436.436,0,0,1-.051,0,.475.475,0,0,1-.423-.523A173.958,173.958,0,0,0,46.089,91.3a.476.476,0,1,1,.952-.02,174.886,174.886,0,0,1-.43,17.8A.476.476,0,0,1,46.138,109.512Z"/><path class="b" d="M64.119,124.286a3.914,3.914,0,0,0,2.645-2.57l-3.127.332A7.556,7.556,0,0,0,64.119,124.286Z"/><path class="b" d="M64.118,124.762a.477.477,0,0,1-.118-.938h0a3.4,3.4,0,0,0,2.305-2.236.476.476,0,1,1,.917.255,4.364,4.364,0,0,1-2.986,2.9A.483.483,0,0,1,64.118,124.762Z"/><path class="b" d="M73.522,105.745a.473.473,0,0,1-.465-.582,23.714,23.714,0,0,0,.835-5.718,2.781,2.781,0,0,1,1.5-2.933,2.7,2.7,0,0,1,3.093,1.061c.849,1.006,1.252,2.877,1.2,5.563a.477.477,0,1,1-.953-.019c.047-2.378-.3-4.129-.975-4.93a1.814,1.814,0,0,0-2-.794,1.866,1.866,0,0,0-.914,1.977,23.979,23.979,0,0,1-.855,6A.477.477,0,0,1,73.522,105.745Z"/><path class="b" d="M97.616,124.762h0a.476.476,0,0,1-.472-.48c.127-16.378-3.347-44.85-4.28-46.226-1.1-1.577-14.471-6.159-23.188-8.853a.476.476,0,1,1,.281-.91c2.252.7,22.045,6.867,23.688,9.218,1.345,1.924,4.571,31.328,4.451,46.778A.477.477,0,0,1,97.616,124.762Z"/><path class="b" d="M82.128,103.276a.238.238,0,0,1-.238-.231c-.159-5.087-.536-11.672-.54-11.738a.238.238,0,1,1,.475-.027c0,.066.382,6.656.541,11.75a.239.239,0,0,1-.23.246Z"/><path class="b" d="M61.745,77.151c-5.149,0-6.177-5.513-6.187-5.569a.238.238,0,0,1,.469-.083c.037.212.972,5.176,5.718,5.176a.238.238,0,0,1,0,.476Z"/><path class="b" d="M68.23,76.376a.238.238,0,0,1-.094-.456c4.036-1.743,3.378-6.34,3.348-6.535a.238.238,0,1,1,.471-.073c.007.051.747,5.155-3.63,7.045A.244.244,0,0,1,68.23,76.376Z"/><path class="b" d="M33.143,87.169H33.13a.239.239,0,0,1-.225-.251c.015-.28.371-6.879.889-8.136.541-1.314,3.993-2.026,4.385-2.1a.238.238,0,0,1,.091.468c-1,.195-3.659.9-4.036,1.816-.39.947-.729,5.634-.853,7.98A.238.238,0,0,1,33.143,87.169Z"/><path class="b" d="M94.368,101.287a.239.239,0,0,1-.238-.232c-.071-2.608-2.326-18.576-2.349-18.737a.238.238,0,0,1,.472-.067c.093.659,2.281,16.157,2.353,18.791a.238.238,0,0,1-.231.245Z"/><path class="b" d="M84.156,124.524a.237.237,0,0,1-.233-.193l-.433-2.223a.238.238,0,1,1,.467-.091l.433,2.223a.238.238,0,0,1-.188.279A.249.249,0,0,1,84.156,124.524Z"/><path class="b" d="M56.081,89.932l-.385-.7a.6.6,0,0,0-.526-.31H51.832a.6.6,0,0,0-.526.31l-.385.7a.6.6,0,0,0,.039.643l2.055,2.836a.6.6,0,0,0,.973,0l2.054-2.836A.6.6,0,0,0,56.081,89.932Z"/><path class="b" d="M45.548,43.266a.225.225,0,0,1-.062-.008.238.238,0,0,1-.169-.291,1.9,1.9,0,0,0-.139-1.726,1.564,1.564,0,0,0-1.186-.443.238.238,0,0,1-.037-.474,2.016,2.016,0,0,1,1.587.61,2.328,2.328,0,0,1,.236,2.155A.239.239,0,0,1,45.548,43.266Z"/><path class="b" d="M59.113,38.508a1.067,1.067,0,0,1,1.066-1.066,1.044,1.044,0,0,1,.179.018,2.19,2.19,0,0,0-2.016-1.712,2.542,2.542,0,0,0,0,5.016,2.08,2.08,0,0,0,1.809-1.193A1.065,1.065,0,0,1,59.113,38.508Z"/><path class="b" d="M74.573,38.508a1.062,1.062,0,0,1,.953-1.054,2.19,2.19,0,0,0-2.015-1.706,2.542,2.542,0,0,0,0,5.016,2.09,2.09,0,0,0,1.832-1.237A1.062,1.062,0,0,1,74.573,38.508Z"/><path class="b" d="M123.524,124.762H4.476a.476.476,0,1,1,0-.952H123.524a.476.476,0,0,1,0,.952Z"/><path class="b" d="M62.305,62.608a17.306,17.306,0,0,1-3.962-.718v1.844a18.931,18.931,0,0,0,11.469,2.432v-3.44A59.012,59.012,0,0,1,62.305,62.608Z"/></svg>