<svg xmlns="http://www.w3.org/2000/svg" viewBox="0 0 128 128"><defs><style>.a{fill:#fff;}.b{fill:#231f20;}</style></defs><path class="a" d="M62.575,53.559c.075.029.149.059.224.086.1.038.2.075.3.11l.079.027c.124.043.247.083.369.121l.012,0c.259.08.512.15.758.208h.005c.119.028.236.053.351.076l.034.007c.106.02.21.039.313.055l.079.011c.088.013.176.025.262.034.049.006.1.009.146.014l.191.015c.113.007.224.011.334.011a2.687,2.687,0,0,0,.292-.02c.059-.007.118-.015.179-.026l.062-.012a10.535,10.535,0,0,0,4.56-2.937.474.474,0,0,1,.114-.081c3.021-2.961,6-7.52,6.851-11.22a.478.478,0,0,1,.166-.265c.691-.554,2.463-2.282,2.367-3.612a12.254,12.254,0,0,0-.844-3.3c-.358-1.05-.848-2.488-1.481-4.633-.082-.277-.154-.55-.224-.821a12.547,12.547,0,0,1-2.232.787,5.152,5.152,0,0,1,.978,1.66.476.476,0,0,1-.309.6.486.486,0,0,1-.145.022.477.477,0,0,1-.454-.332,4.288,4.288,0,0,0-1.171-1.7,30.936,30.936,0,0,1-5.368.5c-.222.125-.415.242-.559.336a.476.476,0,0,1-.659-.139.465.465,0,0,1-.072-.2c-.686-.015-1.1-.043-1.1-.043a24.518,24.518,0,0,1-1.77-3.309,18.39,18.39,0,0,1-.252,3.242c-1.476.119-2.853.2-4.132.258.394.3.645.526.679.556a.477.477,0,0,1-.638.708,12.166,12.166,0,0,0-1.637-1.206c-1.792.052-3.354.049-4.673.019a4.478,4.478,0,0,0-.753,1.036.476.476,0,0,1-.862-.405,4.777,4.777,0,0,1,.406-.669c-.958-.038-1.749-.088-2.362-.137l-.011.073c-.386,2.6-.5,3.385-1.113,3.482-.207.032-.5-.026-.732-.489a.512.512,0,0,1-.03-.077,1.25,1.25,0,0,0-.545-.714.79.79,0,0,0-.669.071,1.922,1.922,0,0,0-.758,1.275,6.126,6.126,0,0,0,.606,4.514,1.7,1.7,0,0,0,1.117.819,1.192,1.192,0,0,0,.849-.288.482.482,0,0,1,.325-.126.47.47,0,0,1,.133.019.476.476,0,0,1,.328.334c.016.063,1.679,6.326,3.689,9.439,1.418,2.194,4.954,4.845,8.233,6.172ZM49.3,37.132a.624.624,0,0,1-.18.027.691.691,0,0,1-.386-.125A4.04,4.04,0,0,1,47.7,34.256c-.077-.835.034-1.361.339-1.608a.59.59,0,0,1,.527-.115.238.238,0,0,1-.134.457.117.117,0,0,0-.1.034c-.058.051-.241.289-.158,1.188A3.739,3.739,0,0,0,49,36.638a.176.176,0,0,0,.161.039.238.238,0,1,1,.139.455Zm22.52-5.674c1.085,0,1.964,1.219,1.964,2.723S72.9,36.9,71.816,36.9s-1.964-1.219-1.964-2.723S70.731,31.458,71.816,31.458Zm-9.659,8.01a.474.474,0,0,1,.672.014,3.689,3.689,0,0,0,2.421,1.1,2.494,2.494,0,0,0,1.924-1.031.476.476,0,0,1,.8.513,3.455,3.455,0,0,1-2.7,1.47h-.092a4.725,4.725,0,0,1-3.044-1.4A.476.476,0,0,1,62.157,39.468Zm-5.966-5.287c0-1.5.879-2.723,1.964-2.723s1.964,1.219,1.964,2.723S59.24,36.9,58.155,36.9,56.191,35.685,56.191,34.181Zm2.992,9.863a.475.475,0,0,1,.613-.278c.061.022,6.147,2.259,10.275.027a.476.476,0,1,1,.453.837c-.154.084-.312.158-.471.231.407.875,1.09,2.766.2,4.16a2.442,2.442,0,0,1-1.988,1.251,1.8,1.8,0,0,1-.406-.046,2.216,2.216,0,0,1-1.59-2.074,5.825,5.825,0,0,0-.767-2.408,19.274,19.274,0,0,1-6.041-1.087A.476.476,0,0,1,59.183,44.044Z"/><path class="a" d="M65.5,76.464c7.559-3.156,14.939-12.26,15.567-13.651a9.849,9.849,0,0,0-2.986-.625c-.44-.06-.928-.128-1.467-.206a9.131,9.131,0,0,1-5.542-3.476.476.476,0,0,1-.089-.277V53.945c-1.293,1.886-4.363,4.635-10.967,3.653v.631a.482.482,0,0,1-.088.277,9.131,9.131,0,0,1-5.542,3.476c-.539.078-1.027.146-1.467.206a9.858,9.858,0,0,0-2.987.625C50.559,64.2,57.939,73.308,65.5,76.464Z"/><path class="a" d="M68.07,49.3a1.39,1.39,0,0,0,1.38-.789c.612-.957.107-2.483-.283-3.3a10.759,10.759,0,0,1-2.6.5,7.366,7.366,0,0,1,.648,2.332C67.3,48.723,67.617,49.194,68.07,49.3Z"/><path class="a" d="M100.786,95.863c.875.186,1.589.375,2.066.512-.015-.48-.038-1.2-.068-2.086A7.244,7.244,0,0,0,100.786,95.863Z"/><path class="a" d="M87.18,98.825a41.321,41.321,0,0,0-.035,5.928c1.066.064,2.066.129,2.978.194a.476.476,0,0,1-.033.951h-.034c-10.718-.764-33.427-1.488-36.6-1.388-1.752.055-4.967.168-7.631.263,2.066.683,4.589,1.538,7.358,2.517,7.082,2.5,25.394,9.852,26.4,10.257l.5.092c4.547.837,13.012,2.394,16.886.4,5.134-2.645,5.816-18.106,5.893-20.663C100.98,96.819,91.654,94.381,87.18,98.825Z"/><path class="a" d="M41.459,114.568c2.918.609,6.221,1.175,9.864,1.683,10.391,1.446,21.393,2.069,26.357,1.559-4.744-1.9-18.824-7.5-24.818-9.623-7.226-2.556-12.782-4.262-12.837-4.279A.476.476,0,1,1,40.3,103c.011,0,.264.081.716.223a34.407,34.407,0,0,0-.075-7c-1.53-6.628-13.233-8.012-15.769-8.234-.078,2.571-.307,14.584,1.952,20.661.769,2.066,5.906,4.157,14.222,5.9A.491.491,0,0,1,41.459,114.568Z"/><path class="a" d="M79.912,118.575l-.451-.083a30.662,30.662,0,0,1-6.148.437,174.531,174.531,0,0,1-22.121-1.735c-2.739-.381-6.093-.911-9.446-1.595a21.391,21.391,0,0,1-1.921,8.211H91.74a12.633,12.633,0,0,1-2.585-3.92A82.87,82.87,0,0,1,79.912,118.575Z"/><path class="a" d="M25.494,84.467c-.135,1.147-.219,2.049-.263,2.562.391.032.991.089,1.733.187A16.823,16.823,0,0,0,25.494,84.467Z"/><path class="a" d="M41.246,94.294a24.706,24.706,0,0,0-1.254-12.178.476.476,0,1,1,.88-.363c2.674,6.468,1.221,13.531,1.025,14.4a34.149,34.149,0,0,1,.046,7.355q.561.178,1.287.412a.543.543,0,0,1,.107-.017c2.758-.1,7.736-.276,10.086-.35,2.835-.089,21.186.475,32.76,1.14a43.985,43.985,0,0,1,.061-6.127l0-.022s0-.008,0-.012c.089-.576,2.207-14.139,4.3-17.142a.476.476,0,1,1,.781.545c-1.605,2.3-3.332,11.9-3.925,15.434,3.706-2.768,9.315-2.3,12.843-1.619a7.572,7.572,0,0,1,2.52-1.991c-.151-4.305-.453-11.82-.844-16.07-.443-4.814-3.747-8.749-9.822-11.7a41.242,41.242,0,0,0-10.041-3.233c-.008.279-.238.83-1.371,2.293A47.577,47.577,0,0,1,77.012,69.2c-2.235,2.26-6.68,6.333-11.334,8.217a.468.468,0,0,1-.179.035.46.46,0,0,1-.179-.035c-4.654-1.884-9.1-5.957-11.334-8.217a47.577,47.577,0,0,1-3.676-4.146c-1.538-1.986-1.415-2.293-1.325-2.518a1.185,1.185,0,0,1,.117-.217c-.683.095-1.4.2-2.135.319a43.386,43.386,0,0,0,14.77,15.272.238.238,0,0,1-.122.443.234.234,0,0,1-.122-.034,43.868,43.868,0,0,1-15.025-15.6c-7.017,1.157-15.711,3.35-17.555,7.252s-2.846,9.9-3.331,13.765a17.5,17.5,0,0,1,1.923,3.552C31.541,87.879,38.807,89.574,41.246,94.294ZM66.9,78.7c.074-.028,7.394-2.9,14.491-11.779a.238.238,0,1,1,.372.3C74.579,76.2,67.145,79.115,67.07,79.144a.25.25,0,0,1-.085.015.238.238,0,0,1-.085-.46Zm-3.426,5.568a.239.239,0,0,1,.334-.043,2.534,2.534,0,0,0,1.04.493,2.012,2.012,0,0,0,1.015-.356.238.238,0,1,1,.267.394,2.565,2.565,0,0,1-1.229.44c-.03,0-.061,0-.091,0a3.045,3.045,0,0,1-1.294-.591A.238.238,0,0,1,63.474,84.267Z"/><path class="b" d="M66.035,55.29c-4.151,0-10.534-4.166-12.655-7.45-1.735-2.686-3.164-7.412-3.642-9.1a1.982,1.982,0,0,1-.964.155,2.572,2.572,0,0,1-1.81-1.215,6.97,6.97,0,0,1-.753-5.306,2.719,2.719,0,0,1,1.271-1.9,1.7,1.7,0,0,1,1.47-.078,1.814,1.814,0,0,1,.742.644c.112-.562.233-1.371.344-2.119.453-3.051,1.138-7.661,2.853-10.9,1.337-2.523,4.617-3.71,7.132-4.26,5.31-1.163,12.134-.528,14.6,1.358,2.657,2.03,3.1,4.854,3.619,8.124a36.292,36.292,0,0,0,.968,4.71c.627,2.125,1.114,3.552,1.47,4.595a13.137,13.137,0,0,1,.892,3.541c.134,1.867-2.029,3.837-2.593,4.317C77.524,46.352,70.408,55.29,66.035,55.29Zm-16-17.758a.47.47,0,0,1,.133.019.476.476,0,0,1,.328.334c.016.063,1.679,6.326,3.689,9.439,1.978,3.062,8.082,7.014,11.855,7.014,3.683,0,10.67-8.284,12.058-14.3a.478.478,0,0,1,.166-.265c.691-.554,2.463-2.282,2.367-3.612a12.254,12.254,0,0,0-.844-3.3c-.358-1.05-.848-2.488-1.481-4.633a36.826,36.826,0,0,1-1-4.83c-.5-3.195-.9-5.718-3.256-7.516-2.244-1.713-8.832-2.278-13.822-1.185-3.278.718-5.585,2.059-6.495,3.775-1.638,3.091-2.309,7.605-2.752,10.591-.386,2.6-.5,3.385-1.113,3.482-.207.032-.5-.026-.732-.489a.512.512,0,0,1-.03-.077,1.25,1.25,0,0,0-.545-.714.79.79,0,0,0-.669.071,1.922,1.922,0,0,0-.758,1.275,6.126,6.126,0,0,0,.606,4.514,1.7,1.7,0,0,0,1.117.819,1.192,1.192,0,0,0,.849-.288A.482.482,0,0,1,50.03,37.532Z"/><path class="b" d="M65.5,77.455a.46.46,0,0,1-.179-.035c-4.654-1.884-9.1-5.957-11.334-8.217a47.577,47.577,0,0,1-3.676-4.146c-1.538-1.986-1.415-2.293-1.325-2.518.326-.815,1.344-.955,3.8-1.294.438-.061.923-.128,1.459-.206a8.2,8.2,0,0,0,4.816-2.971V52.6a.476.476,0,0,1,.717-.411,13.629,13.629,0,0,0,6.255,2.147c1.269,0,3.125-1.092,5.093-2.995a.476.476,0,0,1,.807.343v6.382a8.2,8.2,0,0,0,4.816,2.971c.535.078,1.021.145,1.459.206,2.459.339,3.476.479,3.8,1.294.09.225.213.532-1.324,2.518A47.577,47.577,0,0,1,77.012,69.2c-2.235,2.26-6.68,6.333-11.334,8.217A.468.468,0,0,1,65.5,77.455ZM49.931,62.813c.628,1.391,8.008,10.5,15.568,13.651,7.559-3.156,14.939-12.26,15.567-13.651a9.849,9.849,0,0,0-2.986-.625c-.44-.06-.928-.128-1.467-.206a9.131,9.131,0,0,1-5.542-3.476.476.476,0,0,1-.089-.277V52.772c-1.458,1.277-3.3,2.518-4.947,2.518a13.478,13.478,0,0,1-6.02-1.873v4.812a.482.482,0,0,1-.088.277,9.131,9.131,0,0,1-5.542,3.476c-.539.078-1.027.146-1.467.206A9.858,9.858,0,0,0,49.931,62.813Zm31.2.08h0ZM81.1,62.71Zm-31.211,0Z"/><path class="b" d="M41.414,96.607h0a.476.476,0,0,1-.462-.37c-1.687-7.421-16.112-8.283-16.258-8.291a.476.476,0,0,1-.449-.509c.032-.469.835-11.574,3.809-17.87,3.414-7.225,26.728-8.866,27.719-8.932a.476.476,0,1,1,.063.95c-.237.016-23.745,1.666-26.921,8.389-2.558,5.415-3.493,14.84-3.682,17.055,2.441.2,12.977,1.385,16.015,7.265a24.706,24.706,0,0,0-1.254-12.178.476.476,0,1,1,.88-.363c2.8,6.761,1.08,14.176,1.005,14.488A.475.475,0,0,1,41.414,96.607Z"/><path class="b" d="M73.313,118.929a174.531,174.531,0,0,1-22.121-1.735c-8.626-1.2-23.338-3.866-24.956-8.218C23.643,102,24.216,88.04,24.242,87.45a.476.476,0,1,1,.951.041c-.006.143-.59,14.359,1.935,21.153,1.041,2.8,10.086,5.642,24.2,7.607,10.391,1.446,21.393,2.069,26.357,1.559-4.744-1.9-18.824-7.5-24.818-9.623-7.226-2.556-12.782-4.262-12.837-4.279A.476.476,0,1,1,40.3,103c.055.017,5.629,1.729,12.876,4.292s26.256,10.2,26.447,10.275a.476.476,0,0,1-.061.9A29.583,29.583,0,0,1,73.313,118.929Z"/><path class="b" d="M41.415,104.319a.39.39,0,0,1-.076-.006.475.475,0,0,1-.395-.545,32.947,32.947,0,0,0,0-7.579.477.477,0,0,1,.946-.116,33.328,33.328,0,0,1,0,7.846A.475.475,0,0,1,41.415,104.319Z"/><path class="b" d="M90.09,105.9h-.034c-10.718-.764-33.427-1.488-36.6-1.388-2.348.074-7.324.251-10.082.35a.476.476,0,0,1-.034-.952c2.758-.1,7.736-.276,10.086-.35,3.186-.1,25.961.625,36.7,1.39a.476.476,0,0,1-.033.951Z"/><path class="b" d="M91.405,119.97a67.066,67.066,0,0,1-11.493-1.395l-.548-.1a.476.476,0,1,1,.171-.937l.549.1c4.547.837,13.012,2.394,16.886.4,5.134-2.645,5.816-18.106,5.893-20.663-1.9-.559-11.374-3.038-15.8,1.566a.477.477,0,0,1-.814-.4c.089-.576,2.207-14.139,4.3-17.142a.476.476,0,1,1,.781.545c-1.605,2.3-3.332,11.9-3.925,15.434,5.627-4.2,15.645-.95,16.1-.8a.475.475,0,0,1,.327.459c-.011.763-.342,18.721-6.419,21.852A13.538,13.538,0,0,1,91.405,119.97Z"/><path class="b" d="M103.348,97.5a.475.475,0,0,1-.475-.462c0-.132-.384-13.177-.951-19.345-.443-4.814-3.747-8.749-9.822-11.7a40.641,40.641,0,0,0-12.575-3.6.476.476,0,0,1,.084-.949c5.7.5,22.194,4.555,23.261,16.159.57,6.2.951,19.274.954,19.405a.476.476,0,0,1-.462.49Z"/><path class="b" d="M86.718,105.681a.477.477,0,0,1-.471-.412,40,40,0,0,1,0-6.7.477.477,0,0,1,.95.077,39.7,39.7,0,0,0,0,6.493.477.477,0,0,1-.407.537A.487.487,0,0,1,86.718,105.681Z"/><path class="b" d="M64.9,85.2c-.03,0-.061,0-.091,0a3.045,3.045,0,0,1-1.294-.591.238.238,0,0,1,.292-.377,2.534,2.534,0,0,0,1.04.493,1.979,1.979,0,0,0,1.015-.356.238.238,0,1,1,.267.394A2.565,2.565,0,0,1,64.9,85.2Z"/><path class="b" d="M39,124.762a.477.477,0,0,1-.4-.735c1.219-1.88,1.972-4.921,2.237-9.039a.476.476,0,0,1,.95.062c-.279,4.342-1.061,7.448-2.388,9.5A.477.477,0,0,1,39,124.762Z"/><path class="b" d="M93.11,124.762a.477.477,0,0,1-.25-.071,10.829,10.829,0,0,1-3.829-5.076.477.477,0,0,1,.874-.38,10.07,10.07,0,0,0,3.455,4.645.476.476,0,0,1-.25.882Z"/><path class="b" d="M76.369,30.476a.477.477,0,0,1-.454-.332,3.982,3.982,0,0,0-2.247-2.328c-1.393-.487-3.974.894-4.851,1.467a.477.477,0,0,1-.521-.8c.145-.094,3.568-2.307,5.686-1.569a4.89,4.89,0,0,1,2.841,2.94.476.476,0,0,1-.309.6A.486.486,0,0,1,76.369,30.476Z"/><path class="b" d="M61.191,30.476a.474.474,0,0,1-.319-.122c-.716-.644-2.9-2.285-4.417-2.156a3.685,3.685,0,0,0-2.646,2,.476.476,0,0,1-.862-.405,4.583,4.583,0,0,1,3.426-2.549c2.237-.2,5.019,2.292,5.137,2.4a.476.476,0,0,1-.319.83Z"/><ellipse class="b" cx="58.155" cy="34.181" rx="1.964" ry="2.723"/><ellipse class="b" cx="71.816" cy="34.181" rx="1.964" ry="2.723"/><path class="b" d="M65.573,45.745a19.216,19.216,0,0,1-6.112-1.088.476.476,0,0,1,.335-.891c.061.022,6.147,2.259,10.275.027a.476.476,0,1,1,.453.837A10.389,10.389,0,0,1,65.573,45.745Z"/><path class="b" d="M68.265,50.272a1.8,1.8,0,0,1-.406-.046,2.216,2.216,0,0,1-1.59-2.074,5.225,5.225,0,0,0-.886-2.579.476.476,0,0,1,.72-.623,5.966,5.966,0,0,1,1.111,3.088c.083.685.4,1.156.856,1.259a1.39,1.39,0,0,0,1.38-.789c.714-1.117-.093-3.009-.463-3.644a.476.476,0,1,1,.822-.481c.066.114,1.614,2.807.444,4.638A2.442,2.442,0,0,1,68.265,50.272Z"/><path class="b" d="M65.185,41.539a4.725,4.725,0,0,1-3.044-1.4.476.476,0,0,1,.688-.659,3.689,3.689,0,0,0,2.421,1.1,2.494,2.494,0,0,0,1.924-1.031.476.476,0,0,1,.8.513,3.455,3.455,0,0,1-2.7,1.47Z"/><path class="b" d="M47.686,30.908c1.407-.67,1.875.937,1.875.937.938,1.875.8-8.035,3.75-13.594s17.344-5.558,21.027-2.745,2.88,7.366,4.42,12.589,2.21,6.161,2.344,8.036-2.545,4.018-2.545,4.018c-.87,3.77-3.945,8.486-7.1,11.537v6.543a8.714,8.714,0,0,0,5.223,3.281c1.2.176,2.153.3,2.885.411h0a30.353,30.353,0,0,1,3.292.513c6.181-6.615,5.606-19.231,3.912-24.072C84.9,33,88.557,24.524,78.557,13.654s-21.25-6.273-25.179-3.327-5.357,8.572-6.9,12.054c-.953,2.15-.073,6.16.74,8.917A1.358,1.358,0,0,1,47.686,30.908Z"/><circle class="b" cx="64.472" cy="9.323" r="4.085"/><path class="b" d="M70.856,12.024c-5.357-.8-17.692-1.206-19.293,2.745s-2.142,14.063-2.142,14.063a77.27,77.27,0,0,0,15.542,0,18.39,18.39,0,0,0,.252-3.242,24.4,24.4,0,0,0,1.77,3.309s10.032.692,13.179-3S76.213,12.827,70.856,12.024Z"/><path class="b" d="M49.116,37.159a.691.691,0,0,1-.386-.125A4.04,4.04,0,0,1,47.7,34.256c-.077-.835.034-1.361.339-1.608a.59.59,0,0,1,.527-.115.238.238,0,0,1-.134.457.117.117,0,0,0-.1.034c-.058.051-.241.289-.158,1.188A3.739,3.739,0,0,0,49,36.638a.176.176,0,0,0,.161.039.238.238,0,1,1,.139.455A.624.624,0,0,1,49.116,37.159Z"/><path class="b" d="M71.459,53.157V51.686c-1.944,1.88-3.918,3.128-5.424,3.128a14.1,14.1,0,0,1-6.5-2.212v4.922C67.511,58.894,70.526,54.938,71.459,53.157Z"/><path class="b" d="M61.615,78.356a.234.234,0,0,1-.122-.034A43.718,43.718,0,0,1,46.264,62.341a.238.238,0,1,1,.426-.213A43.214,43.214,0,0,0,61.737,77.913a.238.238,0,0,1-.122.443Z"/><path class="b" d="M66.985,79.159a.238.238,0,0,1-.085-.46c.074-.028,7.394-2.9,14.491-11.779a.238.238,0,1,1,.372.3C74.579,76.2,67.145,79.115,67.07,79.144A.25.25,0,0,1,66.985,79.159Z"/><path class="b" d="M27.415,88.005a.236.236,0,0,1-.227-.167,17.323,17.323,0,0,0-2.251-4.187.238.238,0,1,1,.382-.283A17.394,17.394,0,0,1,27.643,87.7a.239.239,0,0,1-.158.3A.242.242,0,0,1,27.415,88.005Z"/><path class="b" d="M100.164,96.472a.232.232,0,0,1-.145-.05.238.238,0,0,1-.044-.334,7.065,7.065,0,0,1,3.309-2.53.238.238,0,0,1,.13.458h0a6.736,6.736,0,0,0-3.061,2.363A.242.242,0,0,1,100.164,96.472Z"/><path class="b" d="M123.524,124.762H4.476a.476.476,0,1,1,0-.952H123.524a.476.476,0,0,1,0,.952Z"/></svg>