<svg xmlns="http://www.w3.org/2000/svg" viewBox="0 0 128 128"><defs><style>.a{fill:#fff;}.b{fill:#231f20;}</style></defs><path class="a" d="M63.388,65.491c-.151-.4-.31-.772-.465-1.134A9,9,0,0,1,62.005,59a21.278,21.278,0,0,1,.617-2.716,5.645,5.645,0,0,1-2.167.77c-1.048,0-5.44-5.894-7.75-9.642.5,3.76,1.123,9.289.873,11.861a11.935,11.935,0,0,1-1.193,4.73l8.758,4.844Zm-2.57-6.1A1.869,1.869,0,0,1,59.407,60.4c-.047,0-.093.007-.139.007a2.294,2.294,0,0,1-1.589-.9.238.238,0,0,1,.38-.288c.005.008.6.78,1.3.709a1.39,1.39,0,0,0,1.027-.737.238.238,0,0,1,.431.2Z"/><path class="a" d="M58.47,52.479c.078.038.162.076.249.113l.086.036c.063.026.128.052.2.077l.1.038c.091.034.186.067.285.1l.124.04c.068.023.137.045.208.067l.143.043c.079.024.159.047.241.07l.11.032a63.6,63.6,0,0,0,12.519,1.665c2.554,0,8.277-5.583,9.1-10.538.654-3.927-.447-8.812-.976-11.159-.137-.606-.236-1.044-.271-1.308a10.42,10.42,0,0,1-.049-1.2,23.513,23.513,0,0,0-.126-2.5,3.742,3.742,0,0,0-1.5-.3,14.24,14.24,0,0,0-4.466,1.113,2.361,2.361,0,0,0-.008.769c.007.013.191.389.47.974a1.406,1.406,0,0,1,1.17-.92,1.488,1.488,0,0,1,1.24,1.07.772.772,0,0,0,.083,1.54.74.74,0,0,0,.177-.023,2.706,2.706,0,0,1-.933,2.157,15.236,15.236,0,0,1,1.232,3.587c.016,1.4-1.714,2.555-1.911,2.682a.476.476,0,1,1-.518-.8c.386-.251,1.486-1.134,1.477-1.872-.011-.979-2.983-7.32-3.326-7.946a3.062,3.062,0,0,1-.05-1.646.475.475,0,0,1,.288-.355,15.782,15.782,0,0,1,5.138-1.281,7.249,7.249,0,0,1,1.28.182,16.856,16.856,0,0,0-1.134-3.769c-2.115-4.9-4.366-7.284-6.884-7.284-3.749,0-13.364,1.022-14.081,1.953-.788,1.182-4.746,12.353-4.828,14.066-.019.4-.02,1.078-.021,1.858-.007,4.315-.115,5.918-.708,6.32a.624.624,0,0,1-.589.062c-.42-.168-.629-.634-.894-1.224-.649-1.446-1.255-2.414-3.169-1.685a1.718,1.718,0,0,0-1.077,1.637A5.273,5.273,0,0,0,49.155,43.4a1.972,1.972,0,0,0,2.26-.118l.011,0a.484.484,0,0,1,.116-.058l.006,0h0a.446.446,0,0,1,.125-.019l.014,0H51.7a.485.485,0,0,1,.108.015h0l.014.006a.444.444,0,0,1,.072.027l.028.016a.461.461,0,0,1,.054.036l.025.02a.544.544,0,0,1,.047.049l.018.021a.5.5,0,0,1,.051.083C52.157,43.548,55.743,51.155,58.47,52.479ZM50.547,41.79a.172.172,0,0,1-.039,0,.239.239,0,0,1-.235-.2,1.077,1.077,0,0,0-.5-.873,1.232,1.232,0,0,0-.932.074,2.049,2.049,0,0,0,.539.569.238.238,0,0,1-.141.43.242.242,0,0,1-.142-.047,2.1,2.1,0,0,1-.92-1.429,2.364,2.364,0,0,1,.5-1.637.238.238,0,0,1,.367.3,1.91,1.91,0,0,0-.393,1.281.852.852,0,0,0,.016.088,1.683,1.683,0,0,1,1.307-.063,1.5,1.5,0,0,1,.773,1.227A.237.237,0,0,1,50.547,41.79ZM63.5,35.645c-.887,0-1.606-1.179-1.606-2.633s.719-2.633,1.606-2.633c.581,0,1.089.508,1.371,1.266l-.028,0a.924.924,0,1,0,0,1.847.945.945,0,0,0,.239-.035C64.953,34.7,64.3,35.645,63.5,35.645Zm8.965,2.936a2.147,2.147,0,0,1,2.064-.023.476.476,0,0,1-.45.84,1.205,1.205,0,0,0-1.086-.024.476.476,0,0,1-.528-.793Zm4.007,6.3c1.071.179-.313,1.429-.313,1.429a5.615,5.615,0,0,1-4.821,1.964c-2.813-.178-2.724-3.125-2.758-3.393S75.4,44.7,76.472,44.881ZM57.356,29.273a19.871,19.871,0,0,1,3.071-1.056c2.063-.562,6.7.617,6.9.668a.476.476,0,1,1-.237.922c-1.27-.327-4.9-1.083-6.408-.672a19.649,19.649,0,0,0-2.911,1,.469.469,0,0,1-.205.047.476.476,0,0,1-.206-.906Z"/><path class="a" d="M60.557,69.615,51.665,64.7c-.517.227-1.143.5-1.839.822l7.482,7.934Z"/><path class="a" d="M82.339,98.325c-.448-.14-.954-.3-1.078-.793A3.2,3.2,0,0,0,79.8,96.066c-.094-.033-.219-.063-.284-.014a22.453,22.453,0,0,0-2.494,3.524c2.293-.186,4.591-.338,6.462-.381C83.379,98.68,82.957,98.518,82.339,98.325Z"/><path class="a" d="M82.17,97.249a2.864,2.864,0,0,0,.453.167,2.16,2.16,0,0,1,1.814,1.767,16.176,16.176,0,0,1,2.266.12.476.476,0,0,1-.144.942,17.237,17.237,0,0,0-2.553-.111.4.4,0,0,1-.077,0h0c-3.928.053-10.25.683-14.03,1.059-1.872.187-2.784.276-3.066.276-.563,0-4.438.423-10.4,1.135.308,1.771.615,3.76.834,5.688,1.955.094,4.465.251,6.125.494.7.046,1.552.193,2.731.395.859.147,1.831.314,3.027.492,2.137.319,7.444.724,12.382.977a.417.417,0,0,1,.112.006,71.553,71.553,0,0,0,9.882.1c1.829-.392,2.049-2.213,1.87-6.419-.142-3.357-4.4-10.273-5.3-11.7a23.548,23.548,0,0,0-7.6,2.7A4.1,4.1,0,0,1,82.17,97.249Z"/><path class="a" d="M87.238,90.814,87,91.886c.246-.053.464-.1.646-.131C87.542,91.512,87.4,91.193,87.238,90.814Z"/><path class="a" d="M35.379,98.969c.3-.206.716-.473,1.224-.769a.482.482,0,0,1,.181-.105l.11-.061-1.865-.974C35.128,97.715,35.244,98.354,35.379,98.969Z"/><path class="a" d="M64.557,71.335,66.8,66.868c-1.227-.388-2.2-.649-2.673-.771L61.942,69.37Z"/><path class="a" d="M75.207,114.393c-2.361,1.25-19.439,4.755-27.628,5.341a17.367,17.367,0,0,0,.582,1.645c.653.247,1.7.54,1.717.544a.476.476,0,0,1-.128.935.464.464,0,0,1-.127-.018c-.041-.011-.809-.225-1.466-.451l-.523,1.421h21.2a24.293,24.293,0,0,1,.016-4.556,13.075,13.075,0,0,0-.043-2.061.238.238,0,0,1,.225-.251.235.235,0,0,1,.25.224,11.687,11.687,0,0,1,.033,2.192,24.5,24.5,0,0,0,0,4.452H81.46v-3.25l-2.207,1.419a.237.237,0,0,1-.329-.072.239.239,0,0,1,.071-.329l2.465-1.584v-.023c0-1.208-1.847-5.285-2.772-7.2C77.573,113.24,76.314,113.807,75.207,114.393Zm-8.294,6.451a.857.857,0,1,1,.857-.857A.857.857,0,0,1,66.913,120.844Z"/><path class="a" d="M74.761,113.551c1.484-.785,3.228-1.534,4.557-2.071-4.374-.26-8.6-.609-10.311-.863-1.207-.18-2.227-.356-3.048-.5-1.135-.195-1.961-.337-2.606-.382h0a.534.534,0,0,1-.069-.005c-1.581-.234-3.994-.389-5.917-.482.053.544.1,1.079.133,1.6a.477.477,0,0,1-.444.507h-.032a.477.477,0,0,1-.475-.445,108.785,108.785,0,0,0-2.134-13.667,20.294,20.294,0,0,0-16.979,1.573c.186,1.641,1.04,9.19,1.335,12.5a9.173,9.173,0,0,0,5.146,7.384,8.013,8.013,0,0,0,2.963.13h.027a121.828,121.828,0,0,0,12.292-1.69C66.487,115.847,73.469,114.235,74.761,113.551Zm-29.222,2.791a.239.239,0,0,1-.232.184.2.2,0,0,1-.054-.007,4.075,4.075,0,0,1-2.989-2.784.238.238,0,0,1,.461-.119,3.6,3.6,0,0,0,2.637,2.44A.238.238,0,0,1,45.539,116.342Z"/><path class="a" d="M54.152,96.142a61.547,61.547,0,0,1-1.33-8.2.476.476,0,1,1,.949-.081,60.468,60.468,0,0,0,1.513,8.911v.007l0,.009c.009.04.47,2.092.975,4.881,3.788-.452,9.747-1.148,10.568-1.148.247,0,1.449-.12,2.972-.271,1.661-.166,3.809-.379,6.035-.572a32.965,32.965,0,0,1,2.886-4.19,103.372,103.372,0,0,0-1.959-11.271.476.476,0,1,1,.917-.258A97.033,97.033,0,0,1,79.6,94.793,21.251,21.251,0,0,1,86.489,92l.424-1.925c-1.957-4.422-6.418-14.154-9.159-17.393-2.117-2.5-6.7-4.4-10.036-5.517l-2.566,5.106a.476.476,0,0,1-.711.166L61.86,70.5l-1.749,1.118-2.42,2.858a.476.476,0,0,1-.351.168.459.459,0,0,1-.359-.149l-8.07-8.557C44.658,67.9,38.6,70.868,37.438,72.24c-1.559,1.834-3.765,14.7-2.491,24.239l2.451,1.28A21.208,21.208,0,0,1,54.152,96.142ZM62.6,86.128a.857.857,0,1,1,.857-.857A.856.856,0,0,1,62.6,86.128Zm1.714,7.8a.857.857,0,1,1,.857-.857A.857.857,0,0,1,64.315,93.925Zm4.99-24.757a.237.237,0,0,1,.309-.133c.229.092,5.624,2.251,6.689,3.519a26.611,26.611,0,0,1,2.316,3.6.238.238,0,0,1-.1.323.242.242,0,0,1-.113.028.238.238,0,0,1-.21-.125,26.681,26.681,0,0,0-2.261-3.517c-.989-1.177-6.446-3.361-6.5-3.384A.237.237,0,0,1,69.305,69.168Zm-7.329,3.307a.238.238,0,0,1,.285.18c1.785,7.849,3.991,17.492,4.369,18.859.324,1.171.771,4.893,1.089,7.81a.238.238,0,0,1-.211.262h-.026a.237.237,0,0,1-.236-.212,75.639,75.639,0,0,0-1.075-7.734c-.38-1.376-2.588-11.027-4.374-18.881A.238.238,0,0,1,61.976,72.475Zm-1.089,4.143a.857.857,0,1,1-.857.857A.857.857,0,0,1,60.887,76.618ZM46.948,68.847c-3.709,1.737-7.794,3.854-8.06,4.36a86.42,86.42,0,0,0-2.026,9.487.238.238,0,0,1-.476,0,83.407,83.407,0,0,1,2.081-9.709c.46-.875,6.978-3.96,8.279-4.569a.238.238,0,1,1,.2.431Z"/><path class="b" d="M36.794,98.626s.328,1.661.364,1.98-1.526-.381-1.743-.546S35.847,98.962,36.794,98.626Z"/><path class="b" d="M72.729,55.713c-2.9,0-11.68-.922-14.675-2.377-2.634-1.279-5.71-7.241-6.568-8.989a2.9,2.9,0,0,1-2.8-.117,6.249,6.249,0,0,1-2.762-5.37,2.665,2.665,0,0,1,1.688-2.454c2.9-1.1,3.861,1.035,4.377,2.185.051.113.109.242.166.362a42.664,42.664,0,0,0,.2-5.132c0-.791,0-1.475.023-1.9.086-1.822,4.113-13.239,4.988-14.551,1.107-1.66,13.051-2.375,14.872-2.375,2.939,0,5.477,2.571,7.758,7.858a18.535,18.535,0,0,1,1.491,7.7,10.069,10.069,0,0,0,.041,1.079c.03.222.129.665.256,1.224.542,2.407,1.671,7.415.986,11.525C81.914,49.525,75.874,55.713,72.729,55.713ZM51.69,43.2a.465.465,0,0,1,.122.016.478.478,0,0,1,.309.258c.036.077,3.622,7.684,6.349,9.008,2.826,1.373,11.5,2.282,14.259,2.282,2.554,0,8.277-5.583,9.1-10.538.654-3.927-.447-8.812-.976-11.159-.137-.606-.236-1.044-.271-1.308a10.42,10.42,0,0,1-.049-1.2,17.658,17.658,0,0,0-1.413-7.329c-2.115-4.9-4.366-7.284-6.884-7.284-3.749,0-13.364,1.022-14.081,1.953-.788,1.182-4.746,12.353-4.828,14.066-.019.4-.02,1.078-.021,1.858-.007,4.315-.115,5.918-.708,6.32a.624.624,0,0,1-.589.062c-.42-.168-.629-.634-.894-1.224-.649-1.446-1.255-2.414-3.169-1.685a1.718,1.718,0,0,0-1.077,1.637A5.273,5.273,0,0,0,49.155,43.4a1.972,1.972,0,0,0,2.26-.118A.477.477,0,0,1,51.69,43.2Z"/><path class="b" d="M47.78,36.851c3.494-1.331,3.577,2.579,4.409,2.912s.582-6.073.665-7.82,4.077-13.062,4.909-14.31S69.077,15.47,72.239,15.47s5.49,3.328,7.321,7.571a17.189,17.189,0,0,1,1.371,5.44,5.252,5.252,0,0,0,1.291-4.359c-.61-3.383-1.2-3.826-1.208-4.88s1.152-8.486-4.283-10.816S68.245,3.879,61.812,6.263s-14.975,5.879-13.7,11.648a11.554,11.554,0,0,0-3.771,8.1c-.088,2.726,1.621,7.108,3.436,10.844Z"/><path class="b" d="M35.079,100.25a.477.477,0,0,1-.462-.361c-2.378-9.508-.015-25.783,2.1-28.266,1.935-2.276,14.264-7.665,14.787-7.893a.476.476,0,0,1,.421.02l9.607,5.313a.478.478,0,0,1,.133.724l-3.969,4.688a.476.476,0,0,1-.351.168.459.459,0,0,1-.359-.149l-8.07-8.557C44.658,67.9,38.6,70.868,37.438,72.24c-1.7,2-4.168,17.113-2.059,26.729,2.129-1.454,9.676-5.885,18.773-2.827a61.547,61.547,0,0,1-1.33-8.2.476.476,0,1,1,.949-.081,60.468,60.468,0,0,0,1.513,8.911.476.476,0,0,1-.631.565c-10.586-4.063-19.189,2.741-19.275,2.81A.473.473,0,0,1,35.079,100.25ZM49.826,65.519l7.482,7.934,3.249-3.838L51.665,64.7C51.148,64.924,50.522,65.2,49.826,65.519Z"/><path class="b" d="M79.227,96.146a.476.476,0,0,1-.473-.419,107.956,107.956,0,0,0-1.989-11.513.476.476,0,1,1,.917-.258A97.033,97.033,0,0,1,79.6,94.793a22.888,22.888,0,0,1,8.051-3.038c-1.206-2.787-6.71-15.31-9.894-19.072-2.117-2.5-6.7-4.4-10.036-5.517l-2.566,5.106a.476.476,0,0,1-.711.166L61.01,69.86a.476.476,0,0,1-.11-.645l2.623-3.926a.476.476,0,0,1,.506-.2c.436.1,10.733,2.582,14.452,6.977C82.146,76.4,88.493,91.3,88.761,91.934a.476.476,0,0,1-.367.657c-.057.008-5.788.9-8.863,3.445A.477.477,0,0,1,79.227,96.146ZM61.942,69.37l2.615,1.965L66.8,66.868c-1.227-.388-2.2-.649-2.673-.771Z"/><path class="b" d="M55.875,102.668a.476.476,0,0,1-.056-.949c3.746-.449,10.158-1.2,11.012-1.2.247,0,1.449-.12,2.972-.271,4.883-.486,13.972-1.389,16.9-.944a.476.476,0,0,1-.144.942c-2.809-.43-11.821.468-16.662.949-1.872.187-2.784.276-3.066.276-.579,0-4.653.447-10.9,1.2A.544.544,0,0,1,55.875,102.668Z"/><path class="b" d="M76.121,100.605a.476.476,0,0,1-.408-.721c.4-.662,2.419-3.994,3.23-4.6a1.2,1.2,0,0,1,1.172-.118,4.022,4.022,0,0,1,2.055,2.08,2.864,2.864,0,0,0,.453.167A2.088,2.088,0,0,1,84.444,99.7a.477.477,0,0,1-.95-.079c.073-.867-.392-1.058-1.155-1.3-.448-.14-.954-.3-1.078-.793A3.2,3.2,0,0,0,79.8,96.066c-.094-.033-.219-.063-.284-.014a28.652,28.652,0,0,0-2.982,4.322A.475.475,0,0,1,76.121,100.605Z"/><path class="b" d="M57.023,111.358a.477.477,0,0,1-.475-.445A111.134,111.134,0,0,0,54.359,97a.476.476,0,1,1,.929-.21A112.337,112.337,0,0,1,57.5,110.85a.477.477,0,0,1-.444.507Z"/><path class="b" d="M88.9,111.84c-5.555,0-16.811-.765-19.889-1.223-1.207-.18-2.227-.356-3.048-.5-1.135-.195-1.961-.337-2.606-.382h0a.534.534,0,0,1-.069-.005c-1.736-.257-4.475-.418-6.468-.508a.476.476,0,1,1,.043-.951c2,.09,4.754.252,6.531.512.7.046,1.552.193,2.731.395.859.147,1.831.314,3.027.492,4.138.617,20.168,1.561,22.376,1.087,1.829-.392,2.049-2.213,1.87-6.419-.159-3.735-5.417-11.881-5.47-11.963a.476.476,0,0,1,.8-.518c.223.343,5.453,8.447,5.623,12.44.142,3.327.288,6.768-2.622,7.392A17.27,17.27,0,0,1,88.9,111.84Z"/><path class="b" d="M45.545,119.819a5.332,5.332,0,0,1-2.055-.263,10.12,10.12,0,0,1-5.669-8.151c-.328-3.7-1.359-12.71-1.369-12.8A.476.476,0,1,1,37.4,98.5c.01.09,1.042,9.117,1.372,12.824a9.173,9.173,0,0,0,5.146,7.384c1.037.519,7.035-.094,15.282-1.561,7.289-1.3,14.271-2.908,15.563-3.592a62.14,62.14,0,0,1,6.639-2.875.476.476,0,1,1,.323.9,60.714,60.714,0,0,0-6.516,2.821C72.627,115.759,52.469,119.819,45.545,119.819Z"/><path class="b" d="M37.193,101.4a.465.465,0,0,1-.17-.032c-1.81-.693-2.249-1.194-2.34-1.331l.791-.528a.129.129,0,0,0-.017-.025,5.409,5.409,0,0,0,1.907,1,.476.476,0,0,1-.171.921Z"/><path class="b" d="M49.75,122.858a.464.464,0,0,1-.127-.018c-.051-.014-1.239-.345-1.925-.619-.336-.135-.466-.465-1.047-2.26l-.165-.507a.476.476,0,0,1,.905-.3l.166.51c.211.652.47,1.451.6,1.711.653.247,1.7.54,1.717.544a.476.476,0,0,1-.128.935Z"/><path class="b" d="M46.951,124.763a.478.478,0,0,1-.447-.642l.924-2.507a.476.476,0,0,1,.894.329l-.924,2.508A.477.477,0,0,1,46.951,124.763Z"/><path class="b" d="M81.937,124.762a.477.477,0,0,1-.477-.476v-4.315c0-1.3-2.143-5.93-2.968-7.6a.476.476,0,0,1,.854-.422c.314.637,3.067,6.268,3.067,8.025v4.315A.476.476,0,0,1,81.937,124.762Z"/><path class="b" d="M69.1,124.524a.238.238,0,0,1-.237-.22,28.835,28.835,0,0,1-.019-5.05,13.075,13.075,0,0,0-.043-2.061.238.238,0,0,1,.225-.251.235.235,0,0,1,.25.224,11.687,11.687,0,0,1,.033,2.192,29.329,29.329,0,0,0,.029,4.91.238.238,0,0,1-.219.255Z"/><path class="b" d="M67.482,99.587a.237.237,0,0,1-.236-.212,75.639,75.639,0,0,0-1.075-7.734c-.38-1.376-2.588-11.027-4.374-18.881a.238.238,0,1,1,.464-.105c1.785,7.849,3.991,17.492,4.369,18.859.324,1.171.771,4.893,1.089,7.81a.238.238,0,0,1-.211.262Z"/><circle class="b" cx="60.887" cy="77.475" r="0.857"/><circle class="b" cx="62.601" cy="85.271" r="0.857"/><circle class="b" cx="64.315" cy="93.068" r="0.857"/><circle class="b" cx="66.913" cy="119.987" r="0.857"/><path class="b" d="M75.709,40.793a.476.476,0,0,1-.259-.876c.386-.251,1.486-1.134,1.477-1.872-.011-.979-2.983-7.32-3.326-7.946a3.062,3.062,0,0,1-.05-1.646.475.475,0,0,1,.288-.355,15.782,15.782,0,0,1,5.138-1.281c1.494.1,2.289.431,2.364.988a.476.476,0,0,1-.9.278,3.359,3.359,0,0,0-1.53-.316,14.24,14.24,0,0,0-4.466,1.113,2.361,2.361,0,0,0-.008.769c.031.055,3.424,7.006,3.439,8.385.016,1.4-1.714,2.555-1.911,2.682A.474.474,0,0,1,75.709,40.793ZM80.4,27.933Zm0,0h0Zm0,0h0Z"/><path class="b" d="M57.562,30.179a.476.476,0,0,1-.206-.906,19.871,19.871,0,0,1,3.071-1.056c2.063-.562,6.7.617,6.9.668a.476.476,0,1,1-.237.922c-1.27-.327-4.9-1.083-6.408-.672a19.649,19.649,0,0,0-2.911,1A.469.469,0,0,1,57.562,30.179Z"/><path class="b" d="M74.3,39.453a.472.472,0,0,1-.223-.055,1.205,1.205,0,0,0-1.086-.024.476.476,0,0,1-.528-.793,2.147,2.147,0,0,1,2.064-.023.476.476,0,0,1-.227.9Z"/><path class="b" d="M76.159,46.31s1.384-1.25.313-1.429-7.927-.268-7.892,0-.055,3.215,2.758,3.393A5.615,5.615,0,0,0,76.159,46.31Z"/><path class="b" d="M63.919,66.03a.476.476,0,0,1-.448-.316c-.174-.484-.364-.928-.548-1.357A9,9,0,0,1,62.005,59a26.843,26.843,0,0,1,1.107-4.3,21.159,21.159,0,0,1-5.058-1.371c-1.942-.943-4.125-4.434-5.482-6.9.51,3.706,1.279,10.037,1.006,12.843-.4,4.057-1.447,5.131-1.566,5.24a.476.476,0,0,1-.645-.7s.906-.962,1.263-4.632c.378-3.888-1.393-15.322-1.411-15.438a.476.476,0,0,1,.9-.275c.036.077,3.622,7.684,6.349,9.008a22.437,22.437,0,0,0,5.357,1.385.476.476,0,0,1,.368.632,27.362,27.362,0,0,0-1.246,4.628,8.109,8.109,0,0,0,.849,4.858c.19.442.386.9.569,1.41a.476.476,0,0,1-.448.638Z"/><path class="b" d="M51.69,43.673s.168,1.081.391,2.694c2.024,3.562,7.221,10.691,8.374,10.691a8.746,8.746,0,0,0,2.739-1.029c.169-.572.357-1.153.554-1.7a23.277,23.277,0,0,1-5.486-1.426C55.35,51.493,51.69,43.673,51.69,43.673Z"/><path class="b" d="M36.624,82.932a.239.239,0,0,1-.238-.238,83.407,83.407,0,0,1,2.081-9.709c.46-.875,6.978-3.96,8.279-4.569a.238.238,0,1,1,.2.431c-3.709,1.737-7.794,3.854-8.06,4.36a86.42,86.42,0,0,0-2.026,9.487A.238.238,0,0,1,36.624,82.932Z"/><path class="b" d="M78.41,76.5a.238.238,0,0,1-.21-.125,26.681,26.681,0,0,0-2.261-3.517c-.989-1.177-6.446-3.361-6.5-3.384a.238.238,0,0,1,.176-.442c.229.092,5.624,2.251,6.689,3.519a26.611,26.611,0,0,1,2.316,3.6.238.238,0,0,1-.1.323A.242.242,0,0,1,78.41,76.5Z"/><path class="b" d="M37.637,98.391a.229.229,0,0,1-.11-.027l-3.172-1.656a.239.239,0,0,1,.221-.423l3.171,1.657a.238.238,0,0,1-.11.449Z"/><path class="b" d="M86.631,92.7a.229.229,0,0,1-.051-.006.237.237,0,0,1-.181-.283l.618-2.8a.238.238,0,1,1,.465.1l-.618,2.8A.239.239,0,0,1,86.631,92.7Z"/><path class="b" d="M45.307,116.526a.2.2,0,0,1-.054-.007,4.075,4.075,0,0,1-2.989-2.784.238.238,0,0,1,.461-.119h0a3.6,3.6,0,0,0,2.637,2.44.238.238,0,0,1-.055.47Z"/><path class="b" d="M79.124,122.017a.239.239,0,0,1-.129-.439l2.813-1.808a.238.238,0,1,1,.257.4l-2.812,1.808A.236.236,0,0,1,79.124,122.017Z"/><polygon class="b" points="58.752 72.485 62.288 70.225 61.296 69.48 58.752 72.485"/><path class="b" d="M49.236,41.794a.242.242,0,0,1-.142-.047,2.1,2.1,0,0,1-.92-1.429,2.364,2.364,0,0,1,.5-1.637.238.238,0,0,1,.367.3,1.91,1.91,0,0,0-.393,1.281,1.643,1.643,0,0,0,.73,1.1.238.238,0,0,1-.141.43Z"/><path class="b" d="M50.508,41.794a.239.239,0,0,1-.235-.2,1.072,1.072,0,0,0-.5-.872,1.459,1.459,0,0,0-1.133.17.238.238,0,0,1-.245-.409,1.917,1.917,0,0,1,1.577-.194,1.5,1.5,0,0,1,.773,1.227.237.237,0,0,1-.2.274A.172.172,0,0,1,50.508,41.794Z"/><path class="b" d="M59.268,60.406a2.294,2.294,0,0,1-1.589-.9.238.238,0,0,1,.38-.288h0c.005.008.6.78,1.3.709a1.381,1.381,0,0,0,1.028-.738.238.238,0,0,1,.43.205A1.869,1.869,0,0,1,59.407,60.4C59.36,60.4,59.314,60.406,59.268,60.406Z"/><path class="b" d="M64.843,33.489a.924.924,0,1,1,0-1.847l.028,0c-.282-.758-.79-1.266-1.371-1.266-.887,0-1.606,1.179-1.606,2.633s.719,2.633,1.606,2.633c.8,0,1.453-.948,1.582-2.191A.945.945,0,0,1,64.843,33.489Z"/><path class="b" d="M77.4,32.313a.772.772,0,0,1-.083-1.54,1.488,1.488,0,0,0-1.24-1.07c-.633,0-1.174.642-1.4,1.55.434.924,1.008,2.178,1.519,3.37.748-.1,1.34-1.1,1.377-2.333A.74.74,0,0,1,77.4,32.313Z"/><path class="b" d="M123.524,124.762H4.476a.476.476,0,1,1,0-.952H123.524a.476.476,0,0,1,0,.952Z"/></svg>