<svg xmlns="http://www.w3.org/2000/svg" viewBox="0 0 128 128"><defs><style>.a{fill:#fff;}.b{fill:#231f20;}</style></defs><path class="a" d="M59.905,85.686c.1-.009.289-.019.539-.033,4.465-.255,5.71-.645,6.052-.866-.88-.726-6.318-1.847-7.6-1.316a35.351,35.351,0,0,0-5,3.526c-1.96,1.685-7.228,6.49-7.962,8.376-.212.547-.77,1.789-1.661,3.7h0c-.249.534-.525,1.123-.826,1.761l4.156,5.37a2.5,2.5,0,0,1,.605-1c.152-.121.456-.337.868-.613a.453.453,0,0,1,.046-.03c2.177-1.453,7.274-4.533,9.751-4.946a15.359,15.359,0,0,0,4.224-1.253,50.733,50.733,0,0,0-7.41.094c-.4.021-.558.029-.619.029a.488.488,0,0,1-.487-.461c-.017-.475-.017-.475,4.359-1.531a52.851,52.851,0,0,1,5.4-1.1,4,4,0,0,0,2.609-1.031A5.626,5.626,0,0,0,64,93.333c-.818,0-6.454.866-8.556,1.2a.476.476,0,0,1-.265-.906c.049-.022,4.912-2.144,5.482-2.407a7.158,7.158,0,0,1,1.986-.183c1.264-.048,4.588-.173,5.025-.679-.374-.953-4.884-1.644-6.723-1.644a27.349,27.349,0,0,0-4.362.854.476.476,0,0,1-.473-.784C56.957,87.876,59.014,85.76,59.905,85.686Z"/><path class="a" d="M101.262,86.937c-.115.1-.233.2-.357.3-6.518,5-14.643-.8-16.072-10.089-1.147-7.456-6.158-9.481-9.125-11.292l-4.723,2.91a.238.238,0,0,1-.108.035l-3.433.251a1.017,1.017,0,0,0-.056,2.033l3.412.133a.238.238,0,0,1,.221.177c1.683,6.313,5.465,21.02,5.745,23.6a55.871,55.871,0,0,1-.445,7.623.238.238,0,0,1-.237.215h-.023a.239.239,0,0,1-.214-.26,55.866,55.866,0,0,0,.446-7.525c-.275-2.53-3.986-16.967-5.687-23.359l-3.237-.126a1.493,1.493,0,0,1,.058-2.984l3.358-.247,4.474-2.757a7.03,7.03,0,0,1-.9-.685l-2.2-.853a.389.389,0,0,1-.039.032l-.872.557a9.405,9.405,0,0,1-10.1.021c-.5.047-2.144.209-3.97.454l5.243,2.99a.238.238,0,0,1,.1.292l-1.044,2.729a.238.238,0,0,1-.222.153.233.233,0,0,1-.085-.016.238.238,0,0,1-.137-.308l.97-2.538-5.6-3.194a29.071,29.071,0,0,0-4.348.876c-5.266,1.748-13.838,9.122-16.526,11.9-2.343,2.423-9.078,21.607-9.787,25.062-.631,3.076,1.407,18.093,1.778,20.768H42.059c1.521-2.824,6.036-13.068,6.083-13.177a.238.238,0,0,1,.436.192c-.19.431-4.356,9.884-5.98,12.985h2.215L49.7,110.485c-2.086-2.7-7.576-9.79-9.153-11.827a237.867,237.867,0,0,0-11,21.117.476.476,0,0,1-.869-.389,240.434,240.434,0,0,1,11.41-21.819l.006-.007a.476.476,0,0,1,.065-.083l.011-.009a.486.486,0,0,1,.071-.056l.03-.017a.488.488,0,0,1,.066-.029l.034-.011a.485.485,0,0,1,.076-.014l.022,0h.007a.532.532,0,0,1,.1.006l.017,0a14.319,14.319,0,0,1,3.011.905c.767-1.651,1.251-2.733,1.441-3.222.969-2.493,7.94-8.505,8.236-8.76a35.012,35.012,0,0,1,5.255-3.678c1.452-.6,7.124.367,8.548,1.455a.909.909,0,0,1,.44.844c-.106.839-1.288,1.388-7.018,1.714-.238.014-.416.024-.514.032a8.087,8.087,0,0,0-2,1.6,16.531,16.531,0,0,1,2.966-.479c.07,0,7.008.249,7.644,2.347a.878.878,0,0,1-.126.777c-.6.842-2.875.994-5.784,1.1a15.935,15.935,0,0,0-1.639.1c-.256.117-1.148.51-2.142.946,2.134-.319,4.527-.656,5.1-.656a6.292,6.292,0,0,1,3.648,1.345.848.848,0,0,1,.2.926c-.329.884-2.049,1.589-3.45,1.693a46.5,46.5,0,0,0-4.95,1.006,14.613,14.613,0,0,1,4.369.226.722.722,0,0,1,.5.758c-.168,1.352-5.254,2.215-5.3,2.224-2.153.358-6.826,3.106-9.1,4.6a15.026,15.026,0,0,1,.7,3.11c2.131.416,12.854,2.456,18.163,2.456.878,0,1.7-.029,2.457-.08a.628.628,0,0,0,1.189-.1,20.8,20.8,0,0,0,6.123-1.451c0-.077,0-.154,0-.23,0-2.287-1.866-3.174-4.956-4.642-1.136-.54-2.424-1.152-3.818-1.932-1.141-.638-2.094-2.05-2.913-4.317a.476.476,0,0,1,.9-.323c.727,2.013,1.562,3.294,2.481,3.809,1.368.764,2.64,1.369,3.763,1.9,3.192,1.518,5.5,2.614,5.5,5.5,0,4.22-1.336,7.713-17.753,7.713a58.446,58.446,0,0,1-10.46-.736.476.476,0,0,1-.288-.179,6.017,6.017,0,0,1-1.943-.678l-3.234,8.825H55.954l-.8-5.614a.238.238,0,0,1,.471-.067l.808,5.681H73.1c.224-1.2.851-4.635,1.078-6.48a.238.238,0,1,1,.473.058c-.224,1.815-.829,5.143-1.066,6.422H85.9c.842-7.239,2.3-20.541,2.092-21.9-.265-1.766-2.125-14.958-2.143-15.091a.238.238,0,0,1,.471-.067c.019.133,1.878,13.323,2.143,15.087.249,1.661-1.708,18.729-2.084,21.971h15.955c.227-2.249,1.236-12.183,1.551-14.218.346-2.235-3.175-17.273-3.211-17.424a.238.238,0,1,1,.464-.109c.146.623,3.577,15.281,3.217,17.606-.311,2.01-1.307,11.811-1.542,14.145h3.422c.1-2.025.486-10.354.178-14.129C106.192,106.981,103.82,95.564,101.262,86.937Zm-33.544-16.5a.357.357,0,1,1,.358-.357A.357.357,0,0,1,67.718,70.439Zm6.691,5.811a.357.357,0,1,1,.357-.357A.357.357,0,0,1,74.409,76.25ZM45.476,91.728h-.012a.237.237,0,0,1-.237-.226c-.2-4.113-.384-10.56-.386-10.625a.238.238,0,1,1,.476-.014c0,.065.188,6.508.386,10.616A.239.239,0,0,1,45.476,91.728ZM59.006,68a.239.239,0,0,1,.327-.083l1.091.647a.239.239,0,0,1,.086.321l-.669,1.2a.24.24,0,0,1-.209.123.239.239,0,0,1-.208-.354l.558-1-.892-.53A.238.238,0,0,1,59.006,68Zm7.479,8.73H64.962c.018.82.072,2.624.216,4.895a.477.477,0,0,1-.446.506H64.7a.477.477,0,0,1-.475-.447c-.13-2.055-.187-3.733-.211-4.655l-4.56,1.1c-.023.63-.055,1.394-.1,2.256a.476.476,0,0,1-.951-.051c.088-1.652.125-2.943.14-3.6H57.021a2.128,2.128,0,0,1,0-4.256h6.161a.477.477,0,0,1,0,.953H57.021a1.176,1.176,0,1,0,0,2.351h9.464a1.176,1.176,0,1,0,0-2.351H65.324a.477.477,0,0,1,0-.953h1.161a2.128,2.128,0,0,1,0,4.256ZM57.333,105.2a.89.89,0,1,1,.89-.889A.889.889,0,0,1,57.333,105.2Zm10.506.978a.975.975,0,1,1-.975.975A.976.976,0,0,1,67.839,106.181Zm2.923-7.672a.238.238,0,0,1-.336,0,2.075,2.075,0,0,0-1.4-.461.239.239,0,0,1,0-.477,2.54,2.54,0,0,1,1.73.6A.239.239,0,0,1,70.762,98.509Zm6.155-13.07a.357.357,0,1,1,.357-.357A.357.357,0,0,1,76.917,85.439Zm1.756,9.685a.357.357,0,1,1,.357-.357A.357.357,0,0,1,78.673,95.124Z"/><path class="a" d="M50.784,46.574a1.226,1.226,0,0,0,1.015-.1.493.493,0,0,1,.177-.034.484.484,0,0,1,.2.044.475.475,0,0,1,.251.28c.036.106,3.392,9.762,11.129,11.369l.223.044c.081.015.162.03.245.043.161.026.323.049.486.068l.108.01c.15.016.3.029.453.038l.147.009c.184.009.368.015.553.015.17,0,.338,0,.506-.009l.067,0c.15-.005.3-.012.446-.022l.03,0a13.471,13.471,0,0,0,2.886-.511.279.279,0,0,1,.04-.007c7-2.086,8.8-9.357,8.817-9.443.61-3.049,1.372-8.791-.375-12.982a8.462,8.462,0,0,0-2.854-3.457,9.132,9.132,0,0,0-6.165,2.088.476.476,0,0,1-.636-.709,10.229,10.229,0,0,1,5.5-2.336l-.01-.008c-2.15-1.534-4.372-3.121-5.3-6.622-1.583-6-3.845-6.8-5.647-6.81-.452.064-6.394,1-9.174,5.746-2.934,5-2.882,16.25-2.881,16.363a.475.475,0,0,1-.155.355,6.374,6.374,0,0,0-1.01,1.29c.3,1.567.918,3.458,1.541,3.448a.238.238,0,0,1,.014.476h-.021c-.976,0-1.578-1.918-1.876-3.226a2.934,2.934,0,0,0-.1,2.036C49.842,45.27,50.241,46.325,50.784,46.574Zm10.948-7.949a6.328,6.328,0,0,1-2.2.9,1.558,1.558,0,0,1-1.542,1.351,1.516,1.516,0,0,1-.253-.023.389.389,0,0,0,.055-.2.4.4,0,0,0-.777-.124,1.555,1.555,0,0,1-.528-.81,5.006,5.006,0,0,1-2.273-.973.476.476,0,0,1,.62-.723,4.646,4.646,0,0,0,3.8.725,6.526,6.526,0,0,0,2.543-.9.476.476,0,0,1,.563.768ZM54.378,35.97a6.064,6.064,0,0,1,6.424-.461.238.238,0,0,1-.241.411,5.483,5.483,0,0,0-5.9.431.238.238,0,1,1-.286-.381Zm15.4-.889c.02-.009.049-.025.086-.046a7.407,7.407,0,0,1,6.029-.243.238.238,0,1,1-.149.453,6.953,6.953,0,0,0-5.652.208.523.523,0,0,1-.256.1.238.238,0,0,1-.058-.469Zm-.194,1.926a.476.476,0,0,1,.65.141c.026.035.675.864,3,.9,2.417.042,3.166-1.221,3.173-1.234a.476.476,0,0,1,.826.474,3.861,3.861,0,0,1-2.593,1.585,1.559,1.559,0,0,1-1.99,1.15.387.387,0,0,0,.046-.182.4.4,0,0,0-.714-.242,1.561,1.561,0,0,1-.393-.773,3.27,3.27,0,0,1-2.159-1.165A.475.475,0,0,1,69.581,37.007ZM69.1,50.029a.476.476,0,0,1,.672.675,5.084,5.084,0,0,1-3.58,1.7c-.06,0-.121,0-.182,0a5.173,5.173,0,0,1-3.412-1.727.476.476,0,1,1,.728-.613,4.267,4.267,0,0,0,2.735,1.388A4.109,4.109,0,0,0,69.1,50.029ZM52.642,33.412c.046-.077,1.181-1.877,4.24-1.768,3.128.112,4.448.859,5.408,1.649,1.341,1.1,2.8,2.881,2.18,6.869-.115.746-.226,1.376-.315,1.882-.358,2.031-.423,2.4.224,3.248.748.983,2.629.378,2.648.372a.476.476,0,0,1,.3.9A5.323,5.323,0,0,1,65.8,46.8a2.625,2.625,0,0,1-2.182-.936c-.9-1.182-.774-1.889-.4-3.989.093-.528.2-1.127.313-1.863.543-3.492-.628-4.986-1.845-5.988-.831-.684-1.992-1.33-4.837-1.432-2.477-.089-3.36,1.259-3.4,1.317a.476.476,0,0,1-.809-.5Z"/><path class="a" d="M69.43,58.878c-.755.936-2.625,2.579-6.233,2.11A12.445,12.445,0,0,1,61.929,64a8.465,8.465,0,0,0,8.807-.187l.471-.3a14.524,14.524,0,0,1-1.747-4.645Z"/><path class="a" d="M49.1,105.721c-.125.09-.231.169-.308.231a4.686,4.686,0,0,0-.527,1.124l1.464,1.892A14.382,14.382,0,0,0,49.1,105.721Z"/><path class="a" d="M60.662,111.678a.629.629,0,1,0-.628.629A.629.629,0,0,0,60.662,111.678Z"/><path class="a" d="M43.194,99.113a12.593,12.593,0,0,0-1.5-.525l1.086,1.4C42.925,99.687,43.063,99.392,43.194,99.113Z"/><circle class="a" cx="74.409" cy="112.307" r="0.889"/><path class="b" d="M72.43,110.546a.628.628,0,0,1-1.189.1c-.76.051-1.579.08-2.457.08-5.912,0-18.538-2.529-18.538-2.529A9.185,9.185,0,0,1,50,111.049l-1.314,3.585s.675,1.758,10.457,1.467,19.554.475,19.889-7.236A18.166,18.166,0,0,1,72.43,110.546Zm-12.4,1.761a.629.629,0,1,1,.628-.629A.629.629,0,0,1,60.034,112.307Zm14.375.889a.89.89,0,1,1,.889-.889A.889.889,0,0,1,74.409,113.2Z"/><path class="b" d="M66.485,76.726H57.021a2.128,2.128,0,0,1,0-4.256h6.161a.477.477,0,0,1,0,.953H57.021a1.176,1.176,0,1,0,0,2.351h9.464a1.176,1.176,0,1,0,0-2.351H65.324a.477.477,0,0,1,0-.953h1.161a2.128,2.128,0,0,1,0,4.256Z"/><path class="b" d="M64.7,82.128a.477.477,0,0,1-.475-.447c-.145-2.3-.2-4.132-.218-4.955H59.5c-.015.661-.053,1.973-.142,3.653a.476.476,0,0,1-.951-.051c.129-2.42.149-4.067.15-4.083a.476.476,0,0,1,.476-.471h5.446a.476.476,0,0,1,.476.471c0,.022.029,2.264.226,5.376a.477.477,0,0,1-.446.506Z"/><path class="b" d="M61.753,116.578a58.446,58.446,0,0,1-10.46-.736.476.476,0,0,1,.177-.936,57.549,57.549,0,0,0,10.283.719c16.8,0,16.8-3.748,16.8-6.76,0-2.287-1.866-3.174-4.956-4.642-1.136-.54-2.424-1.152-3.818-1.932-1.141-.638-2.094-2.05-2.913-4.317a.476.476,0,0,1,.9-.323c.727,2.013,1.562,3.294,2.481,3.809,1.368.764,2.64,1.369,3.763,1.9,3.192,1.518,5.5,2.614,5.5,5.5C79.506,113.085,78.17,116.578,61.753,116.578Z"/><path class="b" d="M47.725,107.632a.492.492,0,0,1-.168-.03.477.477,0,0,1-.278-.614c.5-1.316.734-1.633.918-1.78.943-.755,7.692-5.093,10.665-5.589a15.359,15.359,0,0,0,4.224-1.253,50.733,50.733,0,0,0-7.41.094c-.4.021-.558.029-.619.029a.488.488,0,0,1-.487-.461c-.017-.475-.017-.475,4.359-1.531a52.851,52.851,0,0,1,5.4-1.1,4,4,0,0,0,2.609-1.031A5.626,5.626,0,0,0,64,93.333c-.818,0-6.454.866-8.556,1.2a.476.476,0,0,1-.265-.906c.049-.022,4.912-2.144,5.482-2.407a7.158,7.158,0,0,1,1.986-.183c1.264-.048,4.588-.173,5.025-.679-.374-.953-4.884-1.644-6.723-1.644a27.349,27.349,0,0,0-4.362.854.476.476,0,0,1-.473-.784c.843-.907,2.9-3.023,3.791-3.1.1-.009.289-.019.539-.033,4.465-.255,5.71-.645,6.052-.866-.88-.726-6.318-1.847-7.6-1.316a35.351,35.351,0,0,0-5,3.526c-1.96,1.685-7.228,6.49-7.962,8.376-.28.721-1.159,2.648-2.612,5.728a.476.476,0,1,1-.862-.406c1.444-3.061,2.315-4.967,2.587-5.667.969-2.493,7.94-8.505,8.236-8.76a35.012,35.012,0,0,1,5.255-3.678c1.452-.6,7.124.367,8.548,1.455a.909.909,0,0,1,.44.844c-.106.839-1.288,1.388-7.018,1.714-.238.014-.416.024-.514.032a8.087,8.087,0,0,0-2,1.6,16.531,16.531,0,0,1,2.966-.479c.07,0,7.008.249,7.644,2.347a.878.878,0,0,1-.126.777c-.6.842-2.875.994-5.784,1.1a15.935,15.935,0,0,0-1.639.1c-.256.117-1.148.51-2.142.946,2.134-.319,4.527-.656,5.1-.656a6.292,6.292,0,0,1,3.648,1.345.848.848,0,0,1,.2.926c-.329.884-2.049,1.589-3.45,1.693a46.5,46.5,0,0,0-4.95,1.006,14.613,14.613,0,0,1,4.369.226.722.722,0,0,1,.5.758c-.168,1.352-5.254,2.215-5.3,2.224-2.646.441-9.1,4.492-10.227,5.393a5.624,5.624,0,0,0-.622,1.372A.475.475,0,0,1,47.725,107.632ZM61.06,92.084h0Z"/><path class="b" d="M65.771,59.315c-4.154,0-7.939-2.127-10.945-6.151a24.779,24.779,0,0,1-3.138-5.65,1.919,1.919,0,0,1-1.3-.074c-.89-.408-1.338-1.547-1.875-3.112-.776-2.263,1-4.317,1.559-4.885,0-1.612.133-11.737,3.012-16.648,3.119-5.321,9.631-6.18,9.906-6.214a.39.39,0,0,1,.059,0c3.192,0,5.227,2.319,6.6,7.52.835,3.168,2.823,4.588,4.927,6.09,1.736,1.24,3.532,2.522,4.494,4.831,1.843,4.425,1.06,10.379.429,13.535A14.963,14.963,0,0,1,76.3,54.587,13.466,13.466,0,0,1,65.771,59.315Zm-13.8-12.872a.484.484,0,0,1,.2.044.475.475,0,0,1,.251.28c.04.116,4.028,11.6,13.344,11.6,10.329,0,12.772-9.9,12.792-10,.61-3.049,1.372-8.791-.375-12.982-.857-2.058-2.465-3.206-4.167-4.422-2.15-1.534-4.372-3.121-5.3-6.622-1.583-6-3.845-6.8-5.647-6.81-.452.064-6.394,1-9.174,5.746-2.934,5-2.882,16.25-2.881,16.363a.475.475,0,0,1-.155.355c-.021.019-2.147,2.009-1.456,4.025.429,1.251.828,2.306,1.371,2.555a1.226,1.226,0,0,0,1.015-.1A.493.493,0,0,1,51.976,46.443Z"/><path class="b" d="M66.179,66.1A9.4,9.4,0,0,1,61,64.549a.476.476,0,0,1-.126-.673,13.17,13.17,0,0,0,1.876-5.385.477.477,0,0,1,.578-.4,11.054,11.054,0,0,0,2.443.272,13.859,13.859,0,0,0,3.935-.547.477.477,0,0,1,.606.385,13.33,13.33,0,0,0,1.941,5.184.476.476,0,0,1-.132.677l-.872.557A9.4,9.4,0,0,1,66.179,66.1ZM61.929,64a8.465,8.465,0,0,0,8.807-.187l.471-.3a14.524,14.524,0,0,1-1.747-4.645,15.032,15.032,0,0,1-3.689.444,12.064,12.064,0,0,1-2.153-.193A14.11,14.11,0,0,1,61.929,64Z"/><path class="b" d="M61.262,71.258a.233.233,0,0,1-.085-.016.238.238,0,0,1-.137-.308l.97-2.538L56,64.969a.238.238,0,0,1,.236-.414l6.188,3.529a.238.238,0,0,1,.1.292l-1.044,2.729A.238.238,0,0,1,61.262,71.258Z"/><path class="b" d="M27.11,124.762a.476.476,0,0,1-.471-.409c-.105-.732-2.548-17.98-1.826-21.5.682-3.321,7.377-22.782,10.035-25.532,2.736-2.83,11.487-10.344,16.911-12.144,2.652-.88,9.184-1.472,9.46-1.5a.476.476,0,0,1,.085.949c-.066.006-6.7.606-9.245,1.452-5.266,1.748-13.838,9.122-16.526,11.9-2.343,2.423-9.078,21.607-9.787,25.062-.689,3.362,1.81,21,1.836,21.177a.476.476,0,0,1-.405.538A.378.378,0,0,1,27.11,124.762Z"/><path class="b" d="M106.686,124.762h-.026a.475.475,0,0,1-.449-.5c0-.1.552-10.286.2-14.579-.339-4.161-5.789-29.025-9.152-32.474-3.379-3.465-21.146-11.38-21.325-11.46a.476.476,0,0,1,.386-.87c.738.328,18.115,8.07,21.621,11.665,3.576,3.667,9.067,28.741,9.419,33.062.356,4.357-.177,14.287-.2,14.708A.477.477,0,0,1,106.686,124.762Z"/><path class="b" d="M45.146,124.762a.469.469,0,0,1-.164-.029.476.476,0,0,1-.283-.611l5-13.637c-2.086-2.7-7.576-9.79-9.153-11.827a237.867,237.867,0,0,0-11,21.117.476.476,0,0,1-.869-.389,240.434,240.434,0,0,1,11.41-21.819.476.476,0,0,1,.381-.23.47.47,0,0,1,.4.184s7.467,9.643,9.744,12.589a.475.475,0,0,1,.07.455L45.593,124.45A.476.476,0,0,1,45.146,124.762Z"/><path class="b" d="M45.464,91.728a.237.237,0,0,1-.237-.226c-.2-4.113-.384-10.56-.386-10.625a.238.238,0,1,1,.476-.014c0,.065.188,6.508.386,10.616a.239.239,0,0,1-.227.249Z"/><path class="b" d="M86.084,124.524l-.028,0a.238.238,0,0,1-.209-.264c.832-7.123,2.352-20.96,2.144-22.348-.265-1.766-2.125-14.958-2.143-15.091a.238.238,0,0,1,.471-.067c.019.133,1.878,13.323,2.143,15.087.269,1.8-2.044,21.631-2.142,22.475A.238.238,0,0,1,86.084,124.524Z"/><path class="b" d="M73.249,124.524a.228.228,0,0,1-.045,0,.238.238,0,0,1-.189-.278c.008-.047.881-4.661,1.158-6.912a.238.238,0,1,1,.473.058c-.279,2.266-1.155,6.9-1.164,6.942A.237.237,0,0,1,73.249,124.524Z"/><path class="b" d="M56.262,124.524a.239.239,0,0,1-.236-.2l-.87-6.123a.238.238,0,0,1,.471-.067l.871,6.123a.239.239,0,0,1-.2.27Z"/><path class="b" d="M101.619,64.375c.8-6.161-2.946-12.947-8.661-21.072s-3.393-17.41-9.91-27.857-16.7-11.161-22.5-9.553-5.029,6.071-5.029,6.071l4.1,6.051a15.121,15.121,0,0,1,3.425-.962c2.165,0,4.531,1.072,6.138,7.166s7.433,6.16,9.442,10.982c1.715,4.115,1.039,9.644.6,12.216-.019.108-.037.212-.055.309v.008c-.017.094-.033.182-.049.266l0,.019c-.014.077-.028.149-.041.216l-.006.029c-.013.071-.026.137-.038.2s-.024.108-.039.171l-.015.058c-.012.048-.026.1-.041.152l-.021.074c-.017.059-.035.12-.055.184l-.022.068c-.058.182-.129.385-.213.6l-.021.055c-.037.094-.075.19-.116.289l-.032.077c-.043.1-.088.207-.136.314l-.025.056c-.117.26-.25.534-.4.818l-.02.038c-.066.126-.136.254-.209.384l-.043.076c-.072.126-.146.252-.224.38l-.036.06c-.183.3-.383.6-.6.909l-.039.053q-.139.2-.291.39l-.077.1c-.094.12-.192.24-.292.36l-.077.093c-.126.147-.255.294-.389.439h0a12.681,12.681,0,0,1-5.755,3.611,13.659,13.659,0,0,0,2.024,5.387l2.113.819c2,2.515,9.427,3.378,10.855,12.664s9.554,15.089,16.072,10.089S100.815,70.535,101.619,64.375Z"/><path class="b" d="M65.8,46.8a2.625,2.625,0,0,1-2.182-.936c-.9-1.182-.774-1.889-.4-3.989.093-.528.2-1.127.313-1.863.543-3.492-.628-4.986-1.845-5.988-.831-.684-1.992-1.33-4.837-1.432-2.477-.089-3.36,1.259-3.4,1.317a.476.476,0,0,1-.809-.5c.046-.077,1.181-1.877,4.24-1.768,3.128.112,4.448.859,5.408,1.649,1.341,1.1,2.8,2.881,2.18,6.869-.115.746-.226,1.376-.315,1.882-.358,2.031-.423,2.4.224,3.248.748.983,2.629.378,2.648.372a.476.476,0,0,1,.3.9A5.323,5.323,0,0,1,65.8,46.8Z"/><path class="b" d="M68.852,34.136a.476.476,0,0,1-.319-.83c.154-.138,3.832-3.375,8.42-2.045a.476.476,0,0,1-.266.915C72.616,31,69.2,33.985,69.169,34.015A.477.477,0,0,1,68.852,34.136Z"/><path class="b" d="M57.526,39.817a5.3,5.3,0,0,1-3.316-1.064.476.476,0,0,1,.62-.723,4.646,4.646,0,0,0,3.8.725,6.526,6.526,0,0,0,2.543-.9.476.476,0,0,1,.563.768,7.368,7.368,0,0,1-2.923,1.064A6.649,6.649,0,0,1,57.526,39.817Z"/><path class="b" d="M73.344,39h-.126c-2.9-.048-3.706-1.208-3.788-1.34a.476.476,0,0,1,.8-.515c.026.035.675.864,3,.9,2.417.042,3.166-1.221,3.173-1.234a.476.476,0,0,1,.826.474C77.192,37.361,76.217,39,73.344,39Z"/><path class="b" d="M54.521,36.4a.238.238,0,0,1-.143-.429,6.064,6.064,0,0,1,6.424-.461.238.238,0,0,1-.241.411,5.483,5.483,0,0,0-5.9.431A.239.239,0,0,1,54.521,36.4Z"/><path class="b" d="M69.833,35.55a.238.238,0,0,1-.058-.469c.02-.009.049-.025.086-.046a7.407,7.407,0,0,1,6.029-.243.238.238,0,1,1-.149.453,6.953,6.953,0,0,0-5.652.208A.523.523,0,0,1,69.833,35.55Z"/><path class="b" d="M51.976,46.919c-1.674.67-2.21-.4-3.013-2.745s1.585-4.531,1.585-4.531-.09-11.429,2.946-16.608,9.554-5.982,9.554-5.982-2.022-6.607-7.529-6.607c0,0-4.7.447-7.561,8.036S42.6,34.553,44.3,43.125c1.276,6.447,1.546,17.032,5.874,23.214a15.448,15.448,0,0,1,1.737-.713c2.63-.873,9.353-1.474,9.353-1.474a13.488,13.488,0,0,0,1.96-5.6C55.29,56.75,51.976,46.919,51.976,46.919Z"/><circle class="b" cx="67.718" cy="70.082" r="0.357"/><circle class="b" cx="74.409" cy="75.893" r="0.357"/><circle class="b" cx="76.917" cy="85.082" r="0.357"/><circle class="b" cx="78.673" cy="94.767" r="0.357"/><path class="b" d="M76.084,102.827h-.023a.239.239,0,0,1-.214-.26,55.866,55.866,0,0,0,.446-7.525c-.275-2.53-3.986-16.967-5.687-23.359l-3.237-.126a1.493,1.493,0,0,1,.058-2.984l3.358-.247,4.81-2.964-3.816-1.479a.238.238,0,0,1,.172-.444l4.263,1.652a.238.238,0,0,1,.039.425l-5.268,3.246a.238.238,0,0,1-.108.035l-3.433.251a1.017,1.017,0,0,0-.056,2.033l3.412.133a.238.238,0,0,1,.221.177c1.683,6.313,5.465,21.02,5.745,23.6a55.871,55.871,0,0,1-.445,7.623A.238.238,0,0,1,76.084,102.827Z"/><path class="b" d="M63.222,58.555a16.5,16.5,0,0,1-.5,2.36c5.337.934,7.12-2.642,7.12-2.642a14.287,14.287,0,0,1-4.07.566A11.421,11.421,0,0,1,63.222,58.555Z"/><path class="b" d="M59.517,39.042c-.241.062-.506.122-.8.18a5.787,5.787,0,0,1-2.284.007c0,.031-.005.061-.005.093a1.555,1.555,0,0,0,.583,1.214.4.4,0,0,1,.777.124.389.389,0,0,1-.055.2,1.516,1.516,0,0,0,.253.023,1.558,1.558,0,0,0,1.557-1.558A1.611,1.611,0,0,0,59.517,39.042Z"/><path class="b" d="M74.672,38.446a5.768,5.768,0,0,1-2.284-.007c-.294-.057-.559-.118-.8-.18a1.53,1.53,0,0,0-.027.281,1.551,1.551,0,0,0,.42,1.061.4.4,0,0,1,.714.242.387.387,0,0,1-.046.182,1.559,1.559,0,0,0,2.027-1.485C74.677,38.508,74.674,38.477,74.672,38.446Z"/><path class="b" d="M58.975,78.238l5.515-1.325-.014-.663H59.03S59.021,77,58.975,78.238Z"/><circle class="b" cx="67.839" cy="107.156" r="0.975"/><circle class="b" cx="57.333" cy="104.314" r="0.889"/><path class="b" d="M43.832,99.347a.477.477,0,0,1-.2-.046,13.11,13.11,0,0,0-3.223-1.021.476.476,0,0,1,.174-.936,13.988,13.988,0,0,1,3.458,1.1.476.476,0,0,1-.2.906Z"/><path class="b" d="M50.236,110.877H50.2a.476.476,0,0,1-.443-.507,13.977,13.977,0,0,0-.86-5.225.476.476,0,1,1,.892-.334,14.691,14.691,0,0,1,.918,5.624A.475.475,0,0,1,50.236,110.877Z"/><path class="b" d="M59.632,70.209a.239.239,0,0,1-.208-.354l.558-1-.892-.53a.238.238,0,1,1,.243-.409l1.091.647a.239.239,0,0,1,.086.321l-.669,1.2A.24.24,0,0,1,59.632,70.209Z"/><path class="b" d="M42.065,124.524a.239.239,0,0,1-.2-.359c1.273-2.165,6.232-13.418,6.282-13.532a.238.238,0,0,1,.436.192c-.2.464-5.02,11.392-6.307,13.582A.24.24,0,0,1,42.065,124.524Z"/><path class="b" d="M102.525,124.524H102.5a.237.237,0,0,1-.213-.261c.012-.123,1.242-12.384,1.6-14.67.346-2.235-3.175-17.273-3.211-17.424a.238.238,0,1,1,.464-.109c.146.623,3.577,15.281,3.217,17.606-.352,2.274-1.58,14.521-1.593,14.645A.237.237,0,0,1,102.525,124.524Z"/><path class="b" d="M70.592,98.58a.237.237,0,0,1-.166-.068,2.075,2.075,0,0,0-1.4-.461.239.239,0,0,1,0-.477,2.54,2.54,0,0,1,1.73.6.238.238,0,0,1-.168.408Z"/><path class="b" d="M66.188,52.4c-.06,0-.121,0-.182,0a5.173,5.173,0,0,1-3.412-1.727.476.476,0,1,1,.728-.613,4.267,4.267,0,0,0,2.735,1.388A4.109,4.109,0,0,0,69.1,50.029a.476.476,0,0,1,.672.675A5.084,5.084,0,0,1,66.188,52.4Z"/><path class="b" d="M51.393,45.209c-1.332,0-1.968-3.572-2.083-4.292a.238.238,0,0,1,.471-.075c.259,1.627.936,3.9,1.619,3.89a.238.238,0,0,1,.014.476Z"/><path class="b" d="M123.524,124.762H4.476a.476.476,0,1,1,0-.952H123.524a.476.476,0,0,1,0,.952Z"/></svg>