<svg xmlns="http://www.w3.org/2000/svg" viewBox="0 0 128 128"><defs><style>.a{fill:#fff;}.b{fill:#231f20;}</style></defs><path class="a" d="M38.718,83.321c2.168-3.127,4.8-7.281,5.083-8.7.268-1.334,1.42-2.823,2.534-4.263a22.688,22.688,0,0,0,1.535-2.135,7.1,7.1,0,0,0,1.056-2.517,37.643,37.643,0,0,0-3.605,3.424C42.5,72,42.275,72.18,41.825,71.9a.544.544,0,0,1-.2-.678,26.615,26.615,0,0,1,3.68-5.512,16.291,16.291,0,0,1,2.837-2.1c.3-.191.631-.4.769-.507.1-.294.117-.485.051-.583-.051-.076-.306-.325-1.453-.353a6.81,6.81,0,0,0-5.045,1.958,44.09,44.09,0,0,0-2.9,4.073.477.477,0,0,1-.8-.519,46.478,46.478,0,0,1,3.024-4.228,7.706,7.706,0,0,1,5.087-2.225.473.473,0,0,1,.14-.042,3.093,3.093,0,0,0,1.77-.774.655.655,0,0,0,.133-.52c-.007-.048-.1-.179-.432-.328a9.689,9.689,0,0,0-3.206-.569.471.471,0,0,1-.13-.006,9.667,9.667,0,0,0-3.783.379c-.8.515-3.279,4.088-4.648,6.218a.476.476,0,0,1-.8-.515c.374-.582,3.69-5.709,4.935-6.5a9.862,9.862,0,0,1,4.338-.534c1.069-.357,2.007-.969,1.921-1.264s-.39-.533-.9-.7c-2.386-.784-7.462.343-7.984.74-.75.643-6.409,10.251-6.741,11.772-.175.8-.031,5.463.1,9.573.129,4.195.241,7.818.1,8.684-.066.4-.333,1.649-.737,3.544-1.3,6.113-4.017,18.834-4.018,22.185,0,4.34,1.918,9.054,5.593,9.668,3.309.553,5.344-2.443,6.594-9.716.638-3.708.132-12.056-.274-18.763C38.4,86.527,38.287,83.943,38.718,83.321Z"/><path class="a" d="M47.059,58.207a7.26,7.26,0,0,1,1.826.49,1.662,1.662,0,0,1,.906.812c2.191-.79,4.093-1.777,4.231-2.217-.448-2.1-2.444-3.217-3.6-3.7a5.338,5.338,0,0,0-3.134-.544c-.443.363-.484,1.583-.432,2.25a1.931,1.931,0,0,1,1.166,1.2C48.235,57.211,47.707,57.787,47.059,58.207ZM52.18,55.98a.5.5,0,1,1-.5.5A.5.5,0,0,1,52.18,55.98Zm-1.956-1.152a.5.5,0,1,1-.5.5A.5.5,0,0,1,50.224,54.828Zm-.248,2.006a.5.5,0,1,1-.5.5A.5.5,0,0,1,49.976,56.834Zm-2.283-2.381a.5.5,0,1,1,.5.5A.5.5,0,0,1,47.693,54.453Z"/><path class="a" d="M58.887,68.505c.527,2.109,1.1,4.544,1.337,6.051a.238.238,0,0,1-.2.272.243.243,0,0,1-.038,0,.237.237,0,0,1-.234-.2c-.166-1.049-.5-2.557-.86-4.088-.4.168-1.2.483-2.741,1.059a.479.479,0,0,1,.025.214c-.014.114-1.373,11.359-1.967,14.84a8.657,8.657,0,0,0,1.61,6.609,9.323,9.323,0,0,0,6.773,3.385c11.548,1.1,13.825-5.376,14.165-6.686.661-2.549,1.953-10.637,2.69-15.407A20.364,20.364,0,0,1,72.806,68.1a27.269,27.269,0,0,1-4.163-7.521C67.006,62.642,63.765,66.941,58.887,68.505Zm7.48,24.6c-.991.068-1.965,1.387-1.974,1.4a.238.238,0,0,1-.193.1.231.231,0,0,1-.077-.013.238.238,0,0,1-.161-.233,2.233,2.233,0,0,0-.933-1.715.238.238,0,0,1,.268-.394,2.851,2.851,0,0,1,1.08,1.538,3.327,3.327,0,0,1,1.957-1.156.241.241,0,0,1,.255.221A.238.238,0,0,1,66.367,93.1Z"/><path class="a" d="M45.667,54.965c.076.012.151.026.224.04a3.538,3.538,0,0,1,.8-2.7c.626-.512,2.247-.267,3.576.2a9.045,9.045,0,0,1,3,1.756c.5.066,1.2.173,2.093.349,1.836.358,2.531,1.044,2.223,1.542a6.659,6.659,0,0,1-3.01,1.935c-.843.908-2.9,1.775-4.788,2.426a1.642,1.642,0,0,1-.253.473,2.244,2.244,0,0,1-.506.466,1.47,1.47,0,0,1,.716.53,1.423,1.423,0,0,1,.125,1.212,7.13,7.13,0,0,0,2.6,1.26c4.279.629,13.333-2.852,15.623-6.011,2.389-3.294,2.073-13.811.477-16.815-.3-.556-.658-1.212-1.041-1.906-1.017-1.841-2.228-4.036-3.218-6.186A25.63,25.63,0,0,0,57.6,34.995a.47.47,0,0,1-.171.032.476.476,0,0,1-.172-.921,26.335,26.335,0,0,1,6.651-1.492,18.246,18.246,0,0,1-1.421-4.556c-.47-3.568-1.808-4.414-5.233-5.763-1.364-.538-2.349-1-3.069-1.334A5.527,5.527,0,0,0,51.95,20.2c-1.688,0-2.216.581-4.159,3.548-1.343,2.049-2.329,5.457-2.9,8.708,2.2-.589,4.67.852,4.795.926a.476.476,0,1,1-.486.819c-.029-.017-2.612-1.52-4.484-.673-.152,1.015-.263,2-.329,2.9-.077,1.062-.222,2.095-.362,3.095a25.064,25.064,0,0,0,.349,10.885C44.813,52.146,45.238,53.638,45.667,54.965ZM55.915,39.122c.21-.134,5.2-3.253,8.431-.371a.238.238,0,1,1-.317.355,4.126,4.126,0,0,0-1.446-.836,1.657,1.657,0,1,1-2.574-.168,11.237,11.237,0,0,0-3.839,1.422.238.238,0,0,1-.255-.4ZM52.353,36.91a.477.477,0,0,1,.271.617c-1.132,2.9-2.937,7.811-2.964,8.674-.027.892,1.454,1.786,2.363,1.854a.476.476,0,0,1-.035.951l-.035,0c-1.128-.083-3.3-1.159-3.244-2.832.039-1.311,2.722-8.209,3.027-8.991A.477.477,0,0,1,52.353,36.91Zm-7.678.653a6.291,6.291,0,0,1,2.589-.511,3.105,3.105,0,0,1,3.026,1.8.238.238,0,0,1-.138.307.245.245,0,0,1-.084.016.238.238,0,0,1-.222-.153,1.953,1.953,0,0,0-.221-.387v.018a1.3,1.3,0,1,1-1.985-1.111,3.773,3.773,0,0,0-.377-.019,5.879,5.879,0,0,0-2.378.462.238.238,0,0,1-.211-.427Z"/><path class="a" d="M44.689,90.091a5.185,5.185,0,0,0,.69-.682c.315-.63,2.636-9.326,4.186-15.267a30.141,30.141,0,0,0-6.051,3.417c-1.3,2.332-3.233,5.18-4,6.292-.277.646.019,5.532.28,9.845.053.877.108,1.782.162,2.7A18.273,18.273,0,0,1,44.689,90.091Z"/><path class="a" d="M95.767,82.408c-.686-.571-1.192-2.157-4.108-3.079-1.85-.584-3.859-1.155-5.9-1.871-.522,5.6-1.193,13.1-1.206,14.82a17.468,17.468,0,0,0,.617,3.942,30.112,30.112,0,0,1,.9,10.217A24.622,24.622,0,0,1,82.551,116.9a15.608,15.608,0,0,0-1.617,3.56,28.658,28.658,0,0,0-.426,3.352H92.9c1.618-7.693,3.567-18.751,3.859-28.5A49.518,49.518,0,0,0,95.767,82.408Z"/><path class="a" d="M85.129,106.357a29.294,29.294,0,0,0-.883-9.923,18.141,18.141,0,0,1-.641-4.163c.014-1.8.7-9.514,1.232-15.149a32.758,32.758,0,0,1-4.5-2.048c-.746,4.82-1.991,12.573-2.654,15.128-.345,1.332-2.5,7.526-12.549,7.526-.822,0-1.7-.042-2.627-.131a10.245,10.245,0,0,1-7.439-3.754A9.622,9.622,0,0,1,53.272,86.5c.54-3.168,1.724-12.848,1.929-14.54-.666.248-1.439.532-2.335.86-.821.3-1.58.6-2.288.893a.472.472,0,0,1,.012.279c-.4,1.523-3.89,14.909-4.359,15.848a4.029,4.029,0,0,1-.905.964,17.336,17.336,0,0,0-5.248,7.852c.292,5.44.471,10.984-.011,13.929a15.872,15.872,0,0,0,2.747,5.709,4.924,4.924,0,0,1,.954,1.741c.053.4.08,1.642.085,3.78h35.7a29.368,29.368,0,0,1,.456-3.573,16.16,16.16,0,0,1,1.708-3.8A23.819,23.819,0,0,0,85.129,106.357ZM64.744,120.266a.238.238,0,0,1-.163.064.234.234,0,0,1-.174-.076,3.135,3.135,0,0,0-4.047-.644.238.238,0,0,1-.26-.4,3.667,3.667,0,0,1,4.655.718A.239.239,0,0,1,64.744,120.266Z"/><path class="b" d="M33.263,123.25a5.492,5.492,0,0,1-.9-.077c-4.2-.7-6.391-5.868-6.389-10.609,0-3.45,2.628-15.766,4.039-22.383.387-1.814.667-3.125.73-3.5.129-.773.008-4.7-.109-8.5a88.849,88.849,0,0,1-.074-9.805c.384-1.766,6.17-11.573,7.069-12.308.79-.646,6.2-1.737,8.811-.93a2.137,2.137,0,0,1,1.587,1.36c.42,1.43-2.136,2.313-2.652,2.475a.476.476,0,1,1-.286-.908c1.111-.351,2.114-.994,2.025-1.3s-.39-.533-.9-.7c-2.386-.784-7.462.343-7.984.74-.75.643-6.409,10.251-6.741,11.772-.175.8-.031,5.463.1,9.573.129,4.195.241,7.818.1,8.684-.066.4-.333,1.649-.737,3.544-1.3,6.113-4.017,18.834-4.018,22.185,0,4.34,1.918,9.054,5.593,9.668,3.309.553,5.344-2.443,6.594-9.716.638-3.708.132-12.056-.274-18.763-.437-7.227-.552-9.811-.121-10.433,2.168-3.127,4.8-7.281,5.083-8.7.268-1.334,1.42-2.823,2.534-4.263a22.688,22.688,0,0,0,1.535-2.135,7.1,7.1,0,0,0,1.056-2.517,37.643,37.643,0,0,0-3.605,3.424C42.5,72,42.275,72.18,41.825,71.9a.544.544,0,0,1-.2-.678,26.615,26.615,0,0,1,3.68-5.512,16.291,16.291,0,0,1,2.837-2.1c.3-.191.631-.4.769-.507.1-.294.117-.485.051-.583-.051-.076-.306-.325-1.453-.353a6.81,6.81,0,0,0-5.045,1.958,44.09,44.09,0,0,0-2.9,4.073.477.477,0,0,1-.8-.519,46.478,46.478,0,0,1,3.024-4.228,7.736,7.736,0,0,1,5.742-2.236c1.179.029,1.884.275,2.219.773a1.655,1.655,0,0,1,.015,1.547c-.08.211-.229.311-1.111.877a16.168,16.168,0,0,0-2.645,1.94,31.717,31.717,0,0,0-2.234,2.992c.291-.293.588-.595.866-.878,2.355-2.4,3.525-3.542,4.082-3.7a.845.845,0,0,1,.967.248c.583.755-.376,2.64-1,3.7a23.331,23.331,0,0,1-1.6,2.234,11.771,11.771,0,0,0-2.353,3.867c-.392,1.953-4.085,7.394-5.225,9.039-.277.646.019,5.532.28,9.845.409,6.757.918,15.166.262,18.982C39.258,117.294,37.7,123.25,33.263,123.25ZM39.5,83.861l0,0Z"/><path class="b" d="M36.319,65.8a.477.477,0,0,1-.4-.734c.374-.582,3.69-5.709,4.935-6.5,1.144-.732,6.056-.776,8.031.132a1.467,1.467,0,0,1,.977,1.062,1.612,1.612,0,0,1-.322,1.234,3.983,3.983,0,0,1-2.409,1.137.476.476,0,1,1-.115-.945,3.093,3.093,0,0,0,1.77-.774.655.655,0,0,0,.133-.52c-.007-.048-.1-.179-.432-.328-1.717-.79-6.308-.716-7.119-.2s-3.279,4.088-4.648,6.218A.476.476,0,0,1,36.319,65.8Z"/><path class="b" d="M53.635,65.491a8.932,8.932,0,0,1-1.294-.088,8.174,8.174,0,0,1-3.33-1.672.476.476,0,0,1,.616-.726,7.319,7.319,0,0,0,2.853,1.456c4.279.629,13.333-2.852,15.623-6.011,2.389-3.294,2.073-13.811.477-16.815-.3-.556-.658-1.212-1.041-1.906-1.948-3.526-4.616-8.355-5.052-11.671-.47-3.568-1.808-4.414-5.233-5.763-1.364-.538-2.349-1-3.069-1.334A5.527,5.527,0,0,0,51.95,20.2c-1.688,0-2.216.581-4.159,3.548-1.917,2.925-3.109,8.622-3.406,12.678-.077,1.062-.222,2.095-.362,3.095a25.064,25.064,0,0,0,.349,10.885c.468,1.843.917,3.413,1.374,4.8a.476.476,0,1,1-.9.3c-.464-1.408-.92-3-1.393-4.863a25.87,25.87,0,0,1-.369-11.252c.144-1.03.28-2,.355-3.033.306-4.174,1.55-10.063,3.559-13.13,1.937-2.956,2.721-3.979,4.956-3.979a6.245,6.245,0,0,1,2.638.848c.748.349,1.679.784,3.015,1.311,3.249,1.28,5.269,2.28,5.828,6.525.413,3.137,3.03,7.875,4.941,11.334.386.7.75,1.357,1.05,1.921,1.773,3.339,2.112,14.152-.548,17.82C66.55,62.216,58.589,65.491,53.635,65.491Z"/><path class="b" d="M57.429,35.027a.476.476,0,0,1-.172-.921,23.765,23.765,0,0,1,9.2-1.489.476.476,0,0,1-.087.948,23.207,23.207,0,0,0-8.772,1.43A.47.47,0,0,1,57.429,35.027Z"/><path class="b" d="M49.44,34.271A.473.473,0,0,1,49.2,34.2h0c-.032-.019-3.185-1.854-5.049-.322a.476.476,0,1,1-.605-.736c2.381-1.957,5.988.149,6.14.239a.476.476,0,0,1-.244.886Z"/><path class="b" d="M51.988,49.006l-.035,0c-1.128-.083-3.3-1.159-3.244-2.832.039-1.311,2.722-8.209,3.027-8.991a.477.477,0,1,1,.888.346c-1.132,2.9-2.937,7.811-2.964,8.674-.027.892,1.454,1.786,2.363,1.854a.476.476,0,0,1-.035.951Z"/><path class="b" d="M59.988,74.831a.237.237,0,0,1-.234-.2c-.483-3.063-2.373-10.033-2.392-10.1a.238.238,0,0,1,.459-.125c.019.071,1.917,7.066,2.4,10.154a.238.238,0,0,1-.2.272A.243.243,0,0,1,59.988,74.831Z"/><path class="b" d="M93.287,124.762a.475.475,0,0,1-.466-.575c1.633-7.7,3.642-18.969,3.938-28.872.338-11.258-1.568-18.148-5.665-20.48a29.156,29.156,0,0,0-10.2-3.218c-2.8-.481-5.222-.9-6.981-2.4-3.545-3.024-5.787-10.05-5.88-10.347a.476.476,0,1,1,.908-.286c.022.07,2.254,7.063,5.59,9.909,1.56,1.33,3.861,1.725,6.525,2.183a29.96,29.96,0,0,1,10.507,3.328c9.988,5.685,5.658,34,2.188,50.378A.477.477,0,0,1,93.287,124.762Z"/><path class="b" d="M97.42,50.6c0-8.756-4.532-19.2-12.076-32.72S59.63,3.213,52.957,7.36,48.57,17.5,48.57,17.5l1.286,2.839a3.172,3.172,0,0,1,2.094-.611c1.194,0,2.1.793,5.479,2.125s5.018,2.253,5.53,6.144S67.26,38.135,69,41.412s1.946,13.928-.512,17.318l-.041.051c.755,1.59,1.568,3.43,2.425,5.556C75.2,75.075,84.593,77.1,91.659,79.329c3.69,1.166,3.52,3.4,4.74,3.289,1.116-.1,3.726-2.4,4.708-4.283C103.161,74.4,97.42,59.359,97.42,50.6Z"/><path class="b" d="M38.438,56.241a20.93,20.93,0,0,1,6.856-.883c-.523-1.587-.978-3.235-1.384-4.831-1.638-6.452-.307-9.934,0-14.133s1.537-9.934,3.482-12.9c1.274-1.944,1.99-2.952,2.884-3.419l-.132-1.906s-5.926.512-8.589,5.223-.2,12.289,0,17.41C41.745,45.544,38.505,53.191,38.438,56.241Z"/><path class="b" d="M79.99,124.762a.282.282,0,0,1-.041,0,.475.475,0,0,1-.434-.514,32.422,32.422,0,0,1,.493-4.009,16.16,16.16,0,0,1,1.708-3.8,23.819,23.819,0,0,0,3.413-10.083,29.294,29.294,0,0,0-.883-9.923,18.141,18.141,0,0,1-.641-4.163c.022-2.856,1.746-20.557,1.82-21.309a.476.476,0,0,1,.948.093c-.018.184-1.794,18.41-1.816,21.223a17.468,17.468,0,0,0,.617,3.942,30.112,30.112,0,0,1,.9,10.217A24.622,24.622,0,0,1,82.551,116.9a15.608,15.608,0,0,0-1.617,3.56,32.555,32.555,0,0,0-.47,3.868A.476.476,0,0,1,79.99,124.762Z"/><path class="b" d="M65.131,97.728c-.822,0-1.7-.042-2.627-.131a10.245,10.245,0,0,1-7.439-3.754A9.622,9.622,0,0,1,53.272,86.5c.59-3.458,1.947-14.681,1.96-14.794a.476.476,0,0,1,.946.114c-.014.114-1.373,11.359-1.967,14.84a8.657,8.657,0,0,0,1.61,6.609,9.323,9.323,0,0,0,6.773,3.385c11.548,1.1,13.825-5.376,14.165-6.686.953-3.675,3.218-18.871,3.241-19.025a.476.476,0,0,1,.942.141c-.093.627-2.295,15.4-3.262,19.123C77.335,91.534,75.181,97.728,65.131,97.728Z"/><path class="b" d="M39.6,99.058a.47.47,0,0,1-.152-.025.475.475,0,0,1-.3-.6,18.458,18.458,0,0,1,5.542-8.339,5.185,5.185,0,0,0,.69-.682c.322-.644,2.741-9.719,4.289-15.662a.476.476,0,1,1,.922.24c-.4,1.523-3.89,14.909-4.359,15.848a4.029,4.029,0,0,1-.905.964,17.349,17.349,0,0,0-5.277,7.935A.475.475,0,0,1,39.6,99.058Z"/><path class="b" d="M43.377,124.762a.476.476,0,0,1-.476-.476c0-2.935-.043-3.867-.077-4.132a5.955,5.955,0,0,0-.794-1.324,16.6,16.6,0,0,1-2.914-6.136.476.476,0,1,1,.933-.193,15.785,15.785,0,0,0,2.765,5.788,4.924,4.924,0,0,1,.954,1.741c.056.432.084,1.824.085,4.256a.476.476,0,0,1-.476.476Z"/><path class="b" d="M49.392,60.629a.476.476,0,0,1-.152-.927c2.414-.815,4.632-1.934,4.782-2.41-.448-2.1-2.444-3.217-3.6-3.7a5.338,5.338,0,0,0-3.134-.544c-.479.392-.489,1.789-.418,2.4a.476.476,0,0,1-.946.11c-.029-.245-.251-2.421.766-3.253.626-.512,2.247-.267,3.576.2,1.211.429,4.093,1.736,4.69,4.609.266,1.28-2.8,2.6-5.415,3.483A.481.481,0,0,1,49.392,60.629Z"/><circle class="b" cx="52.18" cy="56.479" r="0.499"/><circle class="b" cx="50.224" cy="55.327" r="0.499"/><circle class="b" cx="49.976" cy="57.334" r="0.499"/><circle class="b" cx="48.192" cy="54.453" r="0.499"/><path class="b" d="M55.368,54.617a26.5,26.5,0,0,0-2.953-.444l0,0a5.145,5.145,0,0,1,2.076,3.042c.057.273-.167.585-.538.9h0c1.16.244,3.329-1.463,3.636-1.96S57.2,54.975,55.368,54.617Z"/><path class="b" d="M50.068,39.18a.238.238,0,0,1-.222-.153,2.646,2.646,0,0,0-2.582-1.5,5.879,5.879,0,0,0-2.378.462.238.238,0,0,1-.211-.427,6.291,6.291,0,0,1,2.589-.511,3.105,3.105,0,0,1,3.026,1.8.238.238,0,0,1-.138.307A.245.245,0,0,1,50.068,39.18Z"/><path class="b" d="M56.043,39.561a.238.238,0,0,1-.128-.439c.21-.134,5.2-3.253,8.431-.371a.238.238,0,1,1-.317.355c-2.966-2.641-7.81.387-7.859.418A.237.237,0,0,1,56.043,39.561Z"/><circle class="b" cx="61.228" cy="39.222" r="1.657"/><circle class="b" cx="48.322" cy="38.658" r="1.304"/><path class="b" d="M64.581,120.33a.234.234,0,0,1-.174-.076,3.148,3.148,0,0,0-4.047-.644.238.238,0,0,1-.26-.4,3.667,3.667,0,0,1,4.655.718.238.238,0,0,1-.174.4Z"/><path class="b" d="M68.473,58.833c-4.064,4.477-10.882,5.632-10.882,5.632.182.535,1.07,4.113,1.07,4.113,5.452-1.635,8.9-6.717,10.389-8.5Q68.756,59.432,68.473,58.833Z"/><path class="b" d="M59.1,70.388l-1.067-6.012s-5.682,1.185-7.2.089a4.958,4.958,0,0,0-1.752-.9,23.787,23.787,0,0,0-3.428,2.472,26.846,26.846,0,0,0-3.582,5.343c-.382,1.145,5.778-5.867,6.78-6.153s.524,1.384-.574,3.245-3.629,4.341-4.012,6.25a16.136,16.136,0,0,1-1.852,3.789s2.508-2.789,10.45-5.693S59.1,70.388,59.1,70.388Z"/><path class="b" d="M64.2,94.6a.231.231,0,0,1-.077-.013.238.238,0,0,1-.161-.233,2.233,2.233,0,0,0-.933-1.715.238.238,0,0,1,.268-.394,2.851,2.851,0,0,1,1.08,1.538,3.327,3.327,0,0,1,1.957-1.156.241.241,0,0,1,.255.221.238.238,0,0,1-.222.254c-.988.068-1.965,1.387-1.974,1.4A.238.238,0,0,1,64.2,94.6Z"/><path class="b" d="M123.524,124.762H4.476a.476.476,0,1,1,0-.952H123.524a.476.476,0,0,1,0,.952Z"/></svg>