<svg xmlns="http://www.w3.org/2000/svg" viewBox="0 0 128 128"><defs><style>.a{fill:#fff;}.b{fill:#231f20;}</style></defs><path class="a" d="M93.356,74a78.442,78.442,0,0,1-7.051,15.188A15.228,15.228,0,0,1,71.753,96.04c-2.855-3.926-2.388-11.625-2.177-13.9a3,3,0,0,1-1.48.328,7.675,7.675,0,0,1-1.745-.234,11.272,11.272,0,0,1-2.622-1.012A11.56,11.56,0,0,1,62.51,82.5a11.765,11.765,0,0,0,5.122,1.674.238.238,0,0,1-.022.475h-.023a12.16,12.16,0,0,1-5.458-1.814c-7.379,6.224-23.591,6.772-23.591,6.772a18.5,18.5,0,0,1-4.174-.414c-3.817,8.212-10.37,24.632-14.24,34.616H39.688A20.182,20.182,0,0,0,40,119.325a13.289,13.289,0,0,0-.716-2.876c-.88-2.77-2.084-6.563-.308-10.214a65.3,65.3,0,0,1,4.486-7.561,21.592,21.592,0,0,0,.233-2.9.239.239,0,0,1,.238-.236h0a.239.239,0,0,1,.237.24c0,.062-.01,1.009-.113,2.026.819-1.18,1.378-1.927,1.393-1.947a.476.476,0,1,1,.761.572,75.443,75.443,0,0,0-6.381,10.225c-1.61,3.309-.518,6.747.359,9.509a13.692,13.692,0,0,1,.76,3.116,20.838,20.838,0,0,1-.3,4.533h45.58c-.029-1.038.368-3.368,2.568-8.5,3.087-7.2-2.449-17.236-2.506-17.337a.476.476,0,1,1,.831-.465,29.91,29.91,0,0,1,1.526,3.286,8.175,8.175,0,0,1,1.381-3.071.238.238,0,0,1,.367.3,8.338,8.338,0,0,0-1.433,3.591c1.383,3.742,2.72,9.377.71,14.068-2.307,5.383-2.518,7.454-2.492,8.127H107.9c.138-4.095,1.023-34.394-2.653-42.482C103,76.387,97.532,74.616,93.356,74ZM66.52,103.515a4.77,4.77,0,0,1-2.741.96l-.164,0a3.7,3.7,0,0,1-2.677-1.933.238.238,0,1,1,.419-.226c.009.016.894,1.623,2.278,1.683a4.285,4.285,0,0,0,2.586-.851.238.238,0,1,1,.3.37Zm39.089-9.624h-.02a.237.237,0,0,1-.237-.218,88.065,88.065,0,0,0-1.469-9.547,9.317,9.317,0,0,0-5.672-6.7.238.238,0,0,1,.15-.452,9.807,9.807,0,0,1,5.988,7.052,88.326,88.326,0,0,1,1.477,9.605A.237.237,0,0,1,105.609,93.891Z"/><path class="a" d="M48.989,35.619c.689,1.5.947,2.056.716,3.059l-.009.03A17.051,17.051,0,0,0,49.7,46.89c.072.283.148.592.23.923,1.183,4.769,3.643,14.693,8.219,14.693a36.622,36.622,0,0,0,5.575-.5h0a30.859,30.859,0,0,0,10.951-3.755.426.426,0,0,1,.073-.032,12.222,12.222,0,0,0,5.1-5.72c3.407-8.575,3.087-13.633-1.269-20.043a50.481,50.481,0,0,1-5.05-10.788c-1.026-2.763-2.086-5.62-2.942-5.72a.461.461,0,0,0-.053,0c-.95,0-3.885,2.568-6.481,4.839-3.384,2.96-7.219,6.315-10.252,7.623a11.481,11.481,0,0,0-4.328,2.919,4.262,4.262,0,0,1,.749.02c2.269.26,3.877,1.075,4.2,2.127.143.469-.173,1.6-1.044,4.491-.644,2.135-1.446,4.791-1.363,5.542.118,1.059,2.164,2.132,2.872,2.424a.476.476,0,1,1-.363.881c-.333-.137-3.255-1.39-3.456-3.2-.089-.806.4-2.588,1.18-5.2a2.078,2.078,0,0,1-1.017-1.941,2.448,2.448,0,0,1,.473-1.5,9.653,9.653,0,0,0-1.477-.149,1.537,1.537,0,0,0-.39.227.238.238,0,0,1-.284-.382,1.873,1.873,0,0,1,.542-.3,18.275,18.275,0,0,1,3.222.376,4.546,4.546,0,0,0,.189-1.013c-.186-.547-1.4-1.213-3.389-1.441a2.706,2.706,0,0,0-1.34.146c-.022.051-.046.1-.066.154a3.234,3.234,0,0,0,.065,2.561Zm21.936-2.174a.237.237,0,0,1-.328.076,7.669,7.669,0,0,0-2.289-.6,1.958,1.958,0,0,0-.349-.018,3.272,3.272,0,0,1,.437,1.074,1.092,1.092,0,0,0-.152,2.157,2.049,2.049,0,0,1-1.781,1.491c-1.116,0-2.021-1.266-2.021-2.829a3.766,3.766,0,0,1,.179-1.151c-.977.306-2.1.7-3.351,1.182a.233.233,0,0,1-.085.016.238.238,0,0,1-.086-.461c2.129-.818,5.907-2.155,7.285-1.931a7.585,7.585,0,0,1,2.465.669A.237.237,0,0,1,70.925,33.445ZM58.3,30.372c.242-.113,5.958-2.786,8.357-2.786a10.547,10.547,0,0,1,4.817,1.44.476.476,0,1,1-.5.813,9.742,9.742,0,0,0-4.322-1.3c-2.188,0-7.895,2.67-7.952,2.7a.49.49,0,0,1-.2.045.477.477,0,0,1-.2-.908ZM55.089,44.505a.475.475,0,0,1,.388-.548,2.586,2.586,0,0,1,2.606,1.029.476.476,0,1,1-.832.462c-.413-.742-1.6-.555-1.614-.552A.478.478,0,0,1,55.089,44.505Zm-1.724,7.844a24.84,24.84,0,0,1,4.808-.721c1.5.07,3.9.281,3.921.283a.476.476,0,1,1-.084.948c-.023,0-2.4-.211-3.881-.28a23.417,23.417,0,0,0-4.56.7.443.443,0,0,1-.1.011.476.476,0,0,1-.1-.941Z"/><path class="a" d="M64.423,80.32l-.186.1a9.486,9.486,0,0,0,3.738,1.09,1.758,1.758,0,0,0,1.32-.347c.692-.745,2.372-9.019,3.6-15.06.329-1.619.646-3.183.945-4.614-2.4,1.5-6.036,3.7-9.036,5.155,1.4,11.54,1.221,12.072,1.156,12.258A2.876,2.876,0,0,1,64.423,80.32Z"/><path class="b" d="M58.151,63.459c-5.321,0-7.807-10.029-9.143-15.417-.082-.329-.158-.636-.229-.918a17.727,17.727,0,0,1,0-8.674c.148-.656.021-.962-.656-2.432l-.213-.465a4.167,4.167,0,0,1-.088-3.3c.7-1.83,2.59-3.417,5.6-4.717,2.9-1.249,6.671-4.552,10-7.466,3.809-3.332,6.024-5.215,7.271-5.066,1.435.167,2.346,2.621,3.725,6.334A49.774,49.774,0,0,0,79.37,31.924c4.512,6.638,4.869,12.115,1.367,20.93C77.28,61.553,63.261,63.459,58.151,63.459Zm12.387-47.51c-.95,0-3.885,2.568-6.481,4.839-3.384,2.96-7.219,6.315-10.252,7.623-2.732,1.178-4.493,2.625-5.093,4.185a3.234,3.234,0,0,0,.065,2.561l.212.462c.689,1.5.947,2.056.716,3.059l-.009.03A17.051,17.051,0,0,0,49.7,46.89c.072.283.148.592.23.923,1.183,4.769,3.643,14.693,8.219,14.693,4.93,0,18.44-1.8,21.7-10,3.407-8.575,3.087-13.633-1.269-20.043a50.481,50.481,0,0,1-5.05-10.788c-1.026-2.763-2.086-5.62-2.942-5.72A.461.461,0,0,0,70.538,15.949ZM49.24,38.571h0Z"/><path class="b" d="M58.5,31.28a.477.477,0,0,1-.2-.908c.242-.113,5.958-2.786,8.357-2.786a10.547,10.547,0,0,1,4.817,1.44.476.476,0,1,1-.5.813,9.742,9.742,0,0,0-4.322-1.3c-2.188,0-7.895,2.67-7.952,2.7A.49.49,0,0,1,58.5,31.28Z"/><path class="b" d="M54.706,46.851a.479.479,0,0,1-.181-.036c-.333-.137-3.255-1.39-3.456-3.2-.1-.879.491-2.915,1.4-5.922a27.3,27.3,0,0,0,1.04-3.956c-.186-.547-1.4-1.213-3.389-1.441a2.06,2.06,0,0,0-2.284.976.476.476,0,1,1-.878-.368,2.972,2.972,0,0,1,3.27-1.554c2.269.26,3.877,1.075,4.2,2.127.143.469-.173,1.6-1.044,4.491-.644,2.135-1.446,4.791-1.363,5.542.118,1.059,2.164,2.132,2.872,2.424a.477.477,0,0,1-.182.917Z"/><path class="b" d="M57.667,45.693a.475.475,0,0,1-.416-.245c-.413-.742-1.6-.555-1.614-.552a.476.476,0,0,1-.16-.939,2.586,2.586,0,0,1,2.606,1.029.476.476,0,0,1-.416.707Z"/><path class="b" d="M53.467,53.29a.476.476,0,0,1-.1-.941,24.84,24.84,0,0,1,4.808-.721c1.5.07,3.9.281,3.921.283a.476.476,0,1,1-.084.948c-.023,0-2.4-.211-3.881-.28a23.417,23.417,0,0,0-4.56.7A.443.443,0,0,1,53.467,53.29Z"/><path class="b" d="M68.1,82.466a7.675,7.675,0,0,1-1.745-.234c-.64-.155-3.078-.895-3.3-1.689a.557.557,0,0,1,.142-.551,3.377,3.377,0,0,1,.78-.511c.441-.237.939-.506,1.08-.872.078-.553-.331-5.053-1.718-16.071a.476.476,0,0,1,.4-.529,30.859,30.859,0,0,0,10.951-3.755.476.476,0,0,1,.716.508c-.458,2.048-1,4.712-1.571,7.532-1.787,8.805-3.02,14.643-3.833,15.518A2.512,2.512,0,0,1,68.1,82.466Zm-3.859-2.045a9.486,9.486,0,0,0,3.738,1.09,1.758,1.758,0,0,0,1.32-.347c.692-.745,2.372-9.019,3.6-15.06.479-2.36.936-4.61,1.341-6.487a32.726,32.726,0,0,1-9.9,3.256C66.244,78.078,66.029,78.7,65.958,78.9a2.876,2.876,0,0,1-1.535,1.417Z"/><path class="b" d="M19.429,124.763a.469.469,0,0,1-.172-.033.477.477,0,0,1-.273-.616c.6-1.54,14.621-37.744,17.34-40.462,2.694-2.694,16.185-10.292,16.758-10.614a.476.476,0,1,1,.467.83C53.41,73.946,39.6,81.723,37,84.325c-2.062,2.063-12.1,27.154-17.124,40.133A.477.477,0,0,1,19.429,124.763Z"/><path class="b" d="M108.357,124.762h-.019a.477.477,0,0,1-.457-.5c.014-.342,1.289-34.3-2.636-42.939-3.837-8.441-17.078-7.632-17.212-7.623a.476.476,0,0,1-.066-.95c.571-.04,14.038-.857,18.145,8.179,4.018,8.841,2.776,41.965,2.721,43.371A.476.476,0,0,1,108.357,124.762Z"/><path class="b" d="M64.348,66.863A103.539,103.539,0,0,0,74.4,61.137c.187-.894.367-1.729.534-2.479a31.173,31.173,0,0,1-11.126,3.821C63.954,63.649,64.146,65.192,64.348,66.863Z"/><path class="b" d="M40.078,124.762a.5.5,0,0,1-.108-.012.476.476,0,0,1-.356-.572,19.954,19.954,0,0,0,.39-4.853,13.289,13.289,0,0,0-.716-2.876c-.88-2.77-2.084-6.563-.308-10.214a76.518,76.518,0,0,1,6.476-10.38.476.476,0,1,1,.761.572,75.443,75.443,0,0,0-6.381,10.225c-1.61,3.309-.518,6.747.359,9.509a13.692,13.692,0,0,1,.76,3.116,20.448,20.448,0,0,1-.414,5.117A.476.476,0,0,1,40.078,124.762Z"/><path class="b" d="M86.385,124.529c-.209-.351-.651-2.055,2.42-9.221,3.084-7.194-2.449-17.236-2.506-17.337a.476.476,0,1,1,.831-.465c.24.427,5.82,10.549,2.551,18.177-2.943,6.867-2.476,8.345-2.454,8.4a.145.145,0,0,0-.023-.045Z"/><path class="b" d="M67.61,84.651h-.023a10.9,10.9,0,0,1-6.919-2.992.238.238,0,0,1,.355-.317,10.642,10.642,0,0,0,6.609,2.835.238.238,0,0,1-.022.475Z"/><path class="b" d="M63.779,104.475l-.164,0a3.7,3.7,0,0,1-2.677-1.933.238.238,0,1,1,.419-.226c.009.016.894,1.623,2.278,1.683a4.285,4.285,0,0,0,2.586-.851.238.238,0,1,1,.3.37A4.77,4.77,0,0,1,63.779,104.475Z"/><path class="b" d="M105.589,93.892a.237.237,0,0,1-.237-.218,88.065,88.065,0,0,0-1.469-9.547,9.317,9.317,0,0,0-5.672-6.7.238.238,0,0,1,.15-.452,9.807,9.807,0,0,1,5.988,7.052,88.326,88.326,0,0,1,1.477,9.605.237.237,0,0,1-.217.257Z"/><path class="b" d="M43.549,99.637a.256.256,0,0,1-.066-.009.237.237,0,0,1-.162-.3,17.61,17.61,0,0,0,.378-3.561.238.238,0,0,1,.238-.236h0a.239.239,0,0,1,.237.24,17.7,17.7,0,0,1-.4,3.689A.237.237,0,0,1,43.549,99.637Z"/><path class="b" d="M88.651,102.4l-.027,0a.237.237,0,0,1-.209-.263,8.872,8.872,0,0,1,1.622-4.417.238.238,0,0,1,.367.3,8.578,8.578,0,0,0-1.517,4.168A.237.237,0,0,1,88.651,102.4Z"/><path class="b" d="M61.185,34.84a.238.238,0,0,1-.086-.461c2.129-.818,5.907-2.155,7.285-1.931a7.585,7.585,0,0,1,2.465.669.238.238,0,0,1-.252.4,7.669,7.669,0,0,0-2.289-.6c-.929-.152-3.493.543-7.038,1.906A.233.233,0,0,1,61.185,34.84Z"/><path class="b" d="M53.728,35.3a.269.269,0,0,1-.04,0,27.909,27.909,0,0,0-3.46-.465,1.537,1.537,0,0,0-.39.227.238.238,0,0,1-.284-.382,1.873,1.873,0,0,1,.542-.3,22.582,22.582,0,0,1,3.673.453.238.238,0,0,1-.041.472Z"/><path class="b" d="M51.232,36.476c0,1.124.65,2.035,1.453,2.035l.034,0c.381-1.267.766-2.517,1.009-3.447,0,0-.921-.16-1.83-.293A2.312,2.312,0,0,0,51.232,36.476Z"/><path class="b" d="M67.38,35.061A1.093,1.093,0,0,1,68.4,33.974a3.134,3.134,0,0,0-.6-1.306,14.911,14.911,0,0,0-3.072.693,3.7,3.7,0,0,0-.281,1.432c0,1.563.905,2.829,2.021,2.829a2.049,2.049,0,0,0,1.781-1.491A1.094,1.094,0,0,1,67.38,35.061Z"/><path class="b" d="M103.8,64.762c-1.951-3.36-9.293-28.317-10.645-34.626C91.577,22.754,87.812,3.985,74.932,8.1c0,0-10.384-6.432-20.015,0s-10.9,21.511-9.209,27.311.128,21.214-2.208,27.353c-2.781,7.3-9.561,20.234-13.577,20.2,0,0-2.5,6.652,8.615,6.652,0,0,19.54-.659,25.482-8.766h0c-.385-.222-.589-.416-.491-.514.421-.421,1.687-.738,1.98-1.581.228-.659-1.106-11.525-1.7-16.268a36.759,36.759,0,0,1-5.655.5c-5.273,0-7.751-11.388-8.911-15.975a17.366,17.366,0,0,1,0-8.436c.214-.928-.052-1.37-.9-3.216s-.474-4.9,5.273-7.381S68.379,15.215,70.646,15.479s3.744,9.964,8.33,16.713,4.64,12.126,1.319,20.486a12.722,12.722,0,0,1-5.363,5.98c-1.58,7.076-4.185,21.642-5.288,22.83,0,0-1.265,9.912,2.109,14.552a15.228,15.228,0,0,0,14.552-6.854,79.607,79.607,0,0,0,7.22-15.655c4.268.642,9.827,2.482,12.154,7.6a17.286,17.286,0,0,1,1,3.128h0C110.221,79.619,106.214,68.914,103.8,64.762Z"/><path class="b" d="M123.524,124.762H4.476a.476.476,0,1,1,0-.952H123.524a.476.476,0,0,1,0,.952Z"/></svg>