<svg xmlns="http://www.w3.org/2000/svg" viewBox="0 0 128 128"><defs><style>.a{fill:#fff;}.b{fill:#231f20;}</style></defs><path class="a" d="M50.358,38.734a3.136,3.136,0,0,0-1.935-.332,3.088,3.088,0,0,0-2.2,1.506,3.172,3.172,0,0,0-.107,2.122Z"/><path class="a" d="M61.417,55.621a33.372,33.372,0,0,0,8.053,2.84,27.518,27.518,0,0,0,4.377.336c2.775,0,6.107-1.89,6.454-4.6.123-.963.144-1.417.172-1.991.057-1.205.136-2.856,1.162-10.34a27.806,27.806,0,0,0-.782-10.635,14.513,14.513,0,0,0-2.465.648.476.476,0,1,1-.33-.893,15.619,15.619,0,0,1,2.544-.678,42.087,42.087,0,0,0-2.6-6.756,6.27,6.27,0,0,1-5.43.659,32.449,32.449,0,0,0-13.713-1.15l-.043.008a4.9,4.9,0,0,0-2.2,1.208,1.765,1.765,0,0,0-.491,1.568A7.861,7.861,0,0,0,57.2,28.314c.915,1.591,1.951,3.393.282,5.486A8.726,8.726,0,0,1,54.1,38.093c.012.024.025.047.036.073Zm5.932-16.716c-.231-1.588.5-3.009,1.624-3.173a2.222,2.222,0,0,1,2.17,1.562c-.021,0-.042-.007-.064-.007a.943.943,0,1,0,.391,1.8,2.327,2.327,0,0,1-1.66,2.4C68.682,41.648,67.58,40.493,67.349,38.905ZM79.41,35.16a1.606,1.606,0,0,1,1.567,1.179.58.58,0,0,0,.187,1.129l.022,0a1.681,1.681,0,0,1-1.181,1.784c-.8.116-1.585-.7-1.75-1.834S78.608,35.277,79.41,35.16Zm-3.177,9.208c.018,0,1.861-.281,1.931-1.257.068-.955-1.082-4.856-1.872-7.244a.476.476,0,1,1,.9-.3c.208.626,2.021,6.163,1.918,7.611-.126,1.763-2.648,2.119-2.755,2.133a.476.476,0,1,1-.126-.944Zm.523,4.808c2.429-.486,1.579,1.214-1.032,2.065S68.983,49.6,70.5,48.629C70.5,48.629,74.327,49.662,76.756,49.176Zm-12.842-15.8c1.764-1.193,6.955-1.987,7.176-2.021a.476.476,0,0,1,.142.942c-.052.008-5.2.8-6.784,1.868a.476.476,0,1,1-.534-.789Z"/><path class="a" d="M39.545,63.513C35.957,66.4,29.091,72.384,28.45,75.16c-.293,1.271-1.224,3.771-2.3,6.666-.961,2.581-2.019,5.422-2.789,7.837l1.521,1.67,3.067.095a.476.476,0,0,1-.015.952h-.014l-3.493-.108v10.984c2.989-7.858,12.53-27.541,13.286-29.1Z"/><path class="a" d="M22.871,91.272l1.345.041-1.023-1.124C23.077,90.563,22.969,90.925,22.871,91.272Z"/><path class="a" d="M86.246,121.214a.476.476,0,1,1-.656-.69c.028-.027,2.668-2.535,3.292-3.144.1-.71.276-5.257.1-30.085,0-.513-.006-.82-.006-.876a.477.477,0,0,1,.953,0c0,.055,0,.36,0,.869.012,1.672.039,5.649.056,10.182l1.9,2.233h13.27a58.418,58.418,0,0,0-2-19.174c-1.962-7.069-3.585-9.617-4.6-10.51-4.09-3.6-18.274-10.558-20.3-11.546a8.856,8.856,0,0,1-3.044,1.152c-.1,1.629-.626,7.716-3.216,9.466a6.6,6.6,0,0,1-3.738,1.051,9.991,9.991,0,0,1-3.231-.552.476.476,0,0,1,.336-.891c.035.013,3.575,1.308,6.1-.4,1.088-.735,1.785-2.6,2.214-4.508-1.671.41-7.878-1.7-11.325-5.92l3.205,7.679a1.471,1.471,0,0,1-.591,1.83l-9.719,5.972a.477.477,0,0,1-.5-.812l9.72-5.971a.525.525,0,0,0,.21-.652L53.254,38.532a.528.528,0,0,0-.81-.213l-9.421,7.32a.528.528,0,0,0-.161.624l4.2,9.682.234-.208c5.392-4.787,5.7-4.539,6.1-4.225.43.341.546.836-1.67,4.464-.447.732-.928,1.491-1.4,2.212.518-.464,1.073-.953,1.636-1.434,4.56-3.9,5.5-3.894,6.031-3.577a.762.762,0,0,1,.363.553c.149.976-1.415,3.073-4.579,6.7,3.957-2.981,4.6-2.847,4.914-2.783a.667.667,0,0,1,.476.358c.164.327.5,1.008-2.919,4.563-.794.825-1.631,1.637-2.361,2.311.6-.184,1.273-.384,1.947-.572,4.235-1.185,4.813-.939,5.1-.525a.722.722,0,0,1,.082.621c-.4,1.428-5.669,5.26-7.246,5.991-2.1,1.111-7.7,4.326-8.622,5.942a75.079,75.079,0,0,0-1.45,8.3c-1.637,10.867-3.4,21.584-5.646,28.377l1.837,10.8H87.479c.051-.533.15-.792.349-.931a7.631,7.631,0,0,0-.354-2.834C86.837,120.653,86.3,121.166,86.246,121.214ZM52.087,43.5a.688.688,0,1,1,.687-.687A.687.687,0,0,1,52.087,43.5ZM74.936,70.857c-1.455,1.611-3.9,2.167-6.329,2.167a15.029,15.029,0,0,1-7.1-1.607.238.238,0,0,1,.27-.392c1.844,1.268,9.779,2.868,12.81-.487,3.069-3.4,2.653-9.78,2.648-9.844a.239.239,0,1,1,.476-.034C77.726,60.93,78.142,67.308,74.936,70.857Zm7.628,22.462h-3.7a.642.642,0,1,1,0-1.283h3.7a.642.642,0,0,1,0,1.283Zm0-2h-3.7a.642.642,0,1,1,0-1.283h3.7a.642.642,0,0,1,0,1.283Zm0-2h-3.7a.642.642,0,0,1,0-1.284h3.7a.642.642,0,0,1,0,1.284Z"/><path class="a" d="M42.759,84.489c.812-5.4,1.218-8.019,1.565-8.626,1.23-2.152,8.222-5.9,9.015-6.317l.024-.012a27.543,27.543,0,0,0,6.617-5.148A45.43,45.43,0,0,0,51.936,66.5a.476.476,0,0,1-.417-.846c1.353-.909,6.063-5.542,6.711-7-1.219.465-4.909,3.229-7.99,5.819a.476.476,0,0,1-.679-.661c.358-.45,1.024-1.2,1.868-2.148,1.742-1.957,5.715-6.423,5.98-7.637-1.176.243-5.639,3.994-9.323,7.539a.476.476,0,0,1-.726-.608L47.6,60.6a68.584,68.584,0,0,0,4.885-7.926c-.975.674-2.876,2.28-5.05,4.219a.471.471,0,0,1-.523.469c-1.3,1.163-2.666,2.424-3.981,3.663a.476.476,0,0,1-.8-.354c.023-1.677-.9-5.506-2.669-6.543a.447.447,0,0,0-.218-.075.218.218,0,0,0-.166.087c-.742.767-.714,4.377,1.556,7.975a.179.179,0,0,1,.012.024.258.258,0,0,1,.019.037.413.413,0,0,1,.017.045c0,.014.009.027.012.041a.369.369,0,0,1,.008.046c0,.014,0,.028,0,.042a.385.385,0,0,1,0,.048c0,.014,0,.027,0,.041v.011L38.638,74.386a.439.439,0,0,1-.041.127c-.135.278-13.519,27.849-14.1,31.623A15.919,15.919,0,0,0,27.961,117a6.188,6.188,0,0,0,5,2.293c1.319-.059,3.4-2.286,5.833-12.569C40.491,99.551,41.8,90.845,42.759,84.489Z"/><path class="a" d="M90,98.209q0,.741,0,1.494h1.265Z"/><path class="a" d="M90.006,100.781c0,1.144,0,2.3,0,3.432,0,13.382-.151,13.537-.366,13.752-.163.164-.745.721-1.382,1.329.664,2.361.735,3.8.21,4.291a1.832,1.832,0,0,0-.036.225h11.631v-3.439c0-.988.824-10.25,1.464-17.3Z"/><polygon class="a" points="90.28 100.656 90.005 100.656 90.005 100.667 90.28 100.656"/><path class="b" d="M73.847,59.75a26.759,26.759,0,0,1-6.34-.712.476.476,0,0,1,.227-.925,25.8,25.8,0,0,0,6.113.684c2.775,0,6.107-1.89,6.454-4.6.123-.963.144-1.417.172-1.991.057-1.205.136-2.856,1.162-10.34,1.083-7.893-2.2-15.636-4.252-19.549a.476.476,0,1,1,.843-.443c2.106,4.014,5.471,11.965,4.353,20.122-1.021,7.441-1.1,9.068-1.155,10.256-.029.595-.051,1.065-.179,2.065C80.83,57.566,77.085,59.75,73.847,59.75Z"/><path class="b" d="M55.281,36.441a.477.477,0,0,1-.391-.747c.66-.954,1.272-1.777,1.818-2.447,1.31-1.606.586-2.865-.331-4.458A8.529,8.529,0,0,1,55.186,26a2.73,2.73,0,0,1,.731-2.371c1.477-1.6,5-2.327,9.427-1.946a.476.476,0,0,1-.082.949c-4.073-.351-7.385.279-8.646,1.643a1.765,1.765,0,0,0-.491,1.568A7.861,7.861,0,0,0,57.2,28.314c.923,1.6,1.968,3.421.244,5.535-.531.65-1.127,1.453-1.773,2.387A.476.476,0,0,1,55.281,36.441Z"/><path class="b" d="M55,73.424a.476.476,0,0,1-.25-.882l9.72-5.971a.525.525,0,0,0,.21-.652L53.254,38.532a.528.528,0,0,0-.81-.213l-9.421,7.32a.528.528,0,0,0-.161.624L47.394,56.7a.477.477,0,0,1-.874.38l-4.533-10.44a1.482,1.482,0,0,1,.452-1.752l9.42-7.32a1.481,1.481,0,0,1,2.274.6L65.561,65.552a1.471,1.471,0,0,1-.591,1.83l-9.719,5.972A.472.472,0,0,1,55,73.424Z"/><path class="b" d="M73.354,6.153c-6.132-.6-10.669.8-18.072-.7S38.805,10.54,40.2,14.828c0,0-2.543,1.7-2.992,7.727S41.957,36.709,45.865,39.4c0,0,2.55-2.955,5.248-.654l1.039-.807a1,1,0,0,1,1.541.406s5.438-3.031,3.777-8.528c-1.059-3.505-3.882-5.911,1.392-6.762a32.432,32.432,0,0,1,13.713,1.149,6.337,6.337,0,0,0,8.01-3.906l.048-.14C82.228,15.476,79.486,6.751,73.354,6.153Z"/><path class="b" d="M32.683,120.25a7.14,7.14,0,0,1-5.431-2.616,16.779,16.779,0,0,1-3.695-11.643c.594-3.861,13.277-30.027,14.154-31.834l2.014-11.691c-2.235-3.644-2.559-7.727-1.338-8.989a1.2,1.2,0,0,1,1.551-.172c1.886,1.1,2.837,4.254,3.078,6.333.926-.861,2.595-2.4,4.284-3.9,5.392-4.787,5.7-4.539,6.1-4.225.43.341.546.836-1.67,4.464-.447.732-.928,1.491-1.4,2.212.518-.464,1.073-.953,1.636-1.434,4.56-3.9,5.5-3.894,6.031-3.577a.762.762,0,0,1,.363.553c.149.976-1.415,3.073-4.579,6.7,3.957-2.981,4.6-2.847,4.914-2.783a.667.667,0,0,1,.476.358c.164.327.5,1.008-2.919,4.563-.794.825-1.631,1.637-2.361,2.311.6-.184,1.273-.384,1.947-.572,4.235-1.185,4.813-.939,5.1-.525a.722.722,0,0,1,.082.621c-.4,1.428-5.669,5.26-7.246,5.991-2.1,1.111-7.7,4.326-8.622,5.942a75.079,75.079,0,0,0-1.45,8.3c-2.7,17.9-5.742,35.393-10.7,35.612C32.9,120.248,32.789,120.25,32.683,120.25Zm6.555-66.2a.218.218,0,0,0-.166.087c-.742.767-.714,4.377,1.556,7.975a.48.48,0,0,1,.067.335L38.638,74.386a.439.439,0,0,1-.041.127c-.135.278-13.519,27.849-14.1,31.623A15.919,15.919,0,0,0,27.961,117a6.188,6.188,0,0,0,5,2.293c1.319-.059,3.4-2.286,5.833-12.569,1.7-7.172,3.008-15.878,3.965-22.234.812-5.4,1.218-8.019,1.565-8.626,1.23-2.152,8.222-5.9,9.015-6.317l.024-.012a27.543,27.543,0,0,0,6.617-5.148A45.43,45.43,0,0,0,51.936,66.5a.476.476,0,0,1-.417-.846c1.353-.909,6.063-5.542,6.711-7-1.219.465-4.909,3.229-7.99,5.819a.476.476,0,0,1-.679-.661c.358-.45,1.024-1.2,1.868-2.148,1.742-1.957,5.715-6.423,5.98-7.637-1.176.243-5.639,3.994-9.323,7.539a.476.476,0,0,1-.726-.608L47.6,60.6a68.584,68.584,0,0,0,4.885-7.926,125.005,125.005,0,0,0-9.554,8.351.476.476,0,0,1-.8-.354c.023-1.677-.9-5.506-2.669-6.543A.447.447,0,0,0,39.238,54.052ZM58.3,58.372Z"/><path class="b" d="M60.716,55.177s2.044,1.659,9.092,3.367a24.044,24.044,0,0,0,5.164.639s0,3.979-1.088,4.54C72.345,64.516,63.32,61.417,60.716,55.177Z"/><path class="b" d="M68.262,70.142a9.991,9.991,0,0,1-3.231-.552.476.476,0,0,1,.336-.891c.035.013,3.575,1.308,6.1-.4,2.1-1.42,2.746-7.054,2.816-9.105a.476.476,0,0,1,.952.033c-.011.321-.3,7.879-3.235,9.862A6.6,6.6,0,0,1,68.262,70.142Z"/><path class="b" d="M105.61,100.656H89.667a.477.477,0,0,1,0-.953h15.5a58.418,58.418,0,0,0-2-19.174c-1.962-7.069-3.585-9.617-4.6-10.51-4.386-3.857-20.388-11.587-20.549-11.664a.476.476,0,1,1,.414-.858c.662.319,16.28,7.864,20.764,11.807,1.619,1.423,3.264,5.114,4.89,10.971a59.411,59.411,0,0,1,2,19.936A.476.476,0,0,1,105.61,100.656Z"/><path class="b" d="M27.931,92.38h-.014l-5.679-.175a.476.476,0,0,1-.446-.6c.732-2.782,2.183-6.678,3.463-10.115,1.067-2.863,1.988-5.337,2.267-6.548.925-4.007,11.943-12.59,12.411-12.953a.476.476,0,1,1,.584.752C37.4,65.162,29.155,72.106,28.45,75.16c-.293,1.271-1.224,3.771-2.3,6.666-1.185,3.182-2.517,6.759-3.276,9.446l5.075.156a.476.476,0,0,1-.015.952Z"/><path class="b" d="M100.543,124.762a.476.476,0,0,1-.476-.476v-3.915c0-1.134,1.085-13.164,1.732-20.235a.476.476,0,1,1,.948.087c-.519,5.679-1.728,19.011-1.728,20.148v3.915A.476.476,0,0,1,100.543,124.762Z"/><path class="b" d="M23.949,107.553a.476.476,0,0,1-.476-.476V91.9a.476.476,0,0,1,.952,0v15.173A.476.476,0,0,1,23.949,107.553Z"/><path class="b" d="M85.918,121.345a.476.476,0,0,1-.328-.821c.028-.027,2.668-2.535,3.292-3.144.1-.71.276-5.257.1-30.085,0-.513-.006-.82-.006-.876a.477.477,0,0,1,.953,0c0,.055,0,.36,0,.869.017,2.477.069,10.014.071,16.925,0,13.382-.151,13.537-.366,13.752-.4.4-3.276,3.133-3.4,3.249A.472.472,0,0,1,85.918,121.345Zm2.95-3.886Z"/><path class="b" d="M87.925,124.762H87.9a.476.476,0,0,1-.455-.5c.035-.857.13-1.213.379-1.387a9.741,9.741,0,0,0-.559-3.6.476.476,0,0,1,.914-.267c.738,2.529.835,4.064.289,4.571a4.071,4.071,0,0,0-.072.721A.476.476,0,0,1,87.925,124.762Zm.424-1.087h0Z"/><path class="b" d="M64.181,34.249a.476.476,0,0,1-.267-.871c1.764-1.193,6.955-1.987,7.176-2.021a.476.476,0,0,1,.142.942c-.052.008-5.2.8-6.784,1.868A.479.479,0,0,1,64.181,34.249Z"/><path class="b" d="M78.223,31.906a.476.476,0,0,1-.165-.923c.115-.043,2.846-1.042,4.365-.717a.476.476,0,1,1-.2.931,9.543,9.543,0,0,0-3.836.679A.48.48,0,0,1,78.223,31.906Z"/><path class="b" d="M76.3,45.317a.477.477,0,0,1-.062-.949c.018,0,1.861-.281,1.931-1.257.068-.955-1.082-4.856-1.872-7.244a.476.476,0,1,1,.9-.3c.208.626,2.021,6.163,1.918,7.611-.126,1.763-2.648,2.119-2.755,2.133A.472.472,0,0,1,76.3,45.317Z"/><path class="b" d="M71.079,39.172a.943.943,0,1,1,0-1.885c.022,0,.043.005.064.007a2.222,2.222,0,0,0-2.17-1.562c-1.127.164-1.854,1.585-1.624,3.173s1.333,2.743,2.461,2.579a2.327,2.327,0,0,0,1.66-2.4A.947.947,0,0,1,71.079,39.172Z"/><path class="b" d="M81.164,37.468a.58.58,0,0,1-.187-1.129A1.606,1.606,0,0,0,79.41,35.16c-.8.117-1.319,1.127-1.155,2.256s.948,1.95,1.75,1.834a1.681,1.681,0,0,0,1.181-1.784Z"/><path class="b" d="M70.5,48.629s3.826,1.033,6.255.547,1.579,1.214-1.032,2.065S68.983,49.6,70.5,48.629Z"/><path class="b" d="M39.49,124.762a.476.476,0,0,1-.469-.4l-1.928-11.33a.476.476,0,1,1,.939-.159l1.928,11.329a.477.477,0,0,1-.39.549A.44.44,0,0,1,39.49,124.762Z"/><circle class="b" cx="52.087" cy="42.817" r="0.687"/><polygon class="b" points="89.528 100.686 102.001 103.17 102.273 100.179 89.528 100.686"/><path class="b" d="M68.607,73.024a15.029,15.029,0,0,1-7.1-1.607.238.238,0,0,1,.27-.392c1.844,1.268,9.779,2.868,12.81-.487,3.069-3.4,2.653-9.78,2.648-9.844a.239.239,0,1,1,.476-.034c.019.27.435,6.648-2.771,10.2C73.481,72.468,71.04,73.024,68.607,73.024Z"/><path class="b" d="M78.865,89.318h3.7a.642.642,0,0,0,0-1.284h-3.7a.642.642,0,0,0,0,1.284Z"/><path class="b" d="M82.564,90.035h-3.7a.642.642,0,1,0,0,1.283h3.7a.642.642,0,0,0,0-1.283Z"/><path class="b" d="M82.564,92.036h-3.7a.642.642,0,1,0,0,1.283h3.7a.642.642,0,0,0,0-1.283Z"/><path class="b" d="M91.985,100.418a.242.242,0,0,1-.182-.084l-2.45-2.885a.238.238,0,0,1,.363-.308l2.45,2.884a.239.239,0,0,1-.181.393Z"/><path class="b" d="M24.994,92.052a.239.239,0,0,1-.176-.078l-2.09-2.3a.238.238,0,1,1,.352-.321l2.09,2.3a.239.239,0,0,1-.176.4Z"/><path class="b" d="M123.524,124.762H4.476a.476.476,0,1,1,0-.952H123.524a.476.476,0,0,1,0,.952Z"/><path class="b" d="M45.879,43.292a.473.473,0,0,1-.431-.275,4.528,4.528,0,0,1-.086-3.515,3.99,3.99,0,0,1,2.851-2.03l.031-.006a3.749,3.749,0,0,1,3.226.969.476.476,0,0,1-.714.63,2.784,2.784,0,0,0-2.333-.663,3.088,3.088,0,0,0-2.2,1.506,3.62,3.62,0,0,0,.089,2.709.476.476,0,0,1-.433.675Z"/></svg>